<svg width="133" height="429" viewBox="0 0 133 429" fill="none" xmlns="http://www.w3.org/2000/svg">
<path d="M128.501 205V206.5H132.615L129.466 203.852L128.501 205ZM26.5 428.914C27.2808 429.191 28.1382 428.782 28.4151 428.001L32.9267 415.277C33.2036 414.497 32.795 413.639 32.0142 413.362C31.2334 413.086 30.3761 413.494 30.0992 414.275L26.0889 425.585L14.7788 421.575C13.998 421.298 13.1406 421.706 12.8638 422.487C12.5869 423.268 12.9954 424.125 13.7762 424.402L26.5 428.914ZM28.3555 426.855C27.9167 425.934 27.4843 425.015 27.0581 424.099L24.338 425.364C24.7681 426.289 25.2045 427.216 25.6472 428.145L28.3555 426.855ZM24.576 418.63C23.7665 416.8 22.9822 414.98 22.2229 413.17L19.4564 414.33C20.2233 416.159 21.0153 417.997 21.8326 419.844L24.576 418.63ZM19.9461 407.583C19.2135 405.731 18.5074 403.889 17.8273 402.058L15.015 403.103C15.7025 404.954 16.4162 406.815 17.1563 408.686L19.9461 407.583ZM15.7835 396.363C15.1303 394.476 14.5051 392.601 13.9074 390.738L11.0508 391.654C11.6555 393.54 12.288 395.436 12.9486 397.345L15.7835 396.363ZM12.135 384.973C11.5711 383.056 11.0367 381.152 10.5315 379.261L7.63315 380.035C8.14492 381.951 8.68603 383.879 9.2569 385.82L12.135 384.973ZM9.05406 373.423C8.59006 371.481 8.15718 369.553 7.75493 367.64L4.81911 368.257C5.22705 370.198 5.66592 372.152 6.13619 374.12L9.05406 373.423ZM6.60097 361.73C6.24708 359.766 5.92598 357.817 5.63711 355.885L2.67008 356.328C2.96341 358.291 3.28937 360.269 3.64849 362.262L6.60097 361.73ZM4.8417 349.924C4.6085 347.935 4.41005 345.963 4.2457 344.01L1.25627 344.261C1.42339 346.248 1.62513 348.252 1.8621 350.273L4.8417 349.924ZM3.84637 338.044C3.74693 336.037 3.68422 334.049 3.6575 332.082L0.657774 332.123C0.68499 334.126 0.748851 336.15 0.850048 338.193L3.84637 338.044ZM3.68681 326.146C3.73465 324.13 3.82111 322.136 3.94535 320.165L0.951292 319.976C0.824555 321.987 0.736412 324.02 0.687656 326.074L3.68681 326.146ZM4.43814 314.248C4.64537 312.253 4.89229 310.282 5.17797 308.337L2.2098 307.901C1.91792 309.889 1.66575 311.901 1.45419 313.938L4.43814 314.248ZM6.17257 302.459C6.54885 300.499 6.96559 298.567 7.42175 296.661L4.5042 295.963C4.03742 297.913 3.61116 299.889 3.2264 301.893L6.17257 302.459ZM8.94287 290.905C9.49943 288.983 10.0974 287.092 10.7357 285.23L7.89786 284.257C7.24379 286.165 6.63124 288.103 6.06131 290.07L8.94287 290.905ZM12.7971 279.667C13.5361 277.816 14.3164 275.997 15.1369 274.21L12.4106 272.958C11.5688 274.791 10.7685 276.657 10.0109 278.555L12.7971 279.667ZM17.7576 268.87C18.6802 267.107 19.6436 265.379 20.6466 263.685L18.0653 262.156C17.0355 263.895 16.0465 265.669 15.0996 267.479L17.7576 268.87ZM23.8017 258.665C24.9043 257.01 26.0466 255.392 27.2273 253.81L24.8233 252.015C23.6106 253.64 22.4373 255.302 21.3051 257.002L23.8017 258.665ZM30.906 249.149C32.1756 247.626 33.4831 246.141 34.8271 244.695L32.6293 242.653C31.2489 244.138 29.9059 245.663 28.6018 247.228L30.906 249.149ZM38.9816 240.457C40.4059 239.08 41.8657 237.742 43.3595 236.444L41.3917 234.179C39.8579 235.512 38.359 236.886 36.8963 238.3L38.9816 240.457ZM47.9423 232.669C49.5018 231.452 51.094 230.275 52.7174 229.138L50.9969 226.681C49.3312 227.847 47.6972 229.055 46.0964 230.304L47.9423 232.669ZM57.6721 225.856C59.347 224.808 61.0514 223.799 62.7838 222.832L61.3216 220.213C59.5455 221.204 57.7978 222.238 56.0799 223.314L57.6721 225.856ZM68.0412 220.067C69.8126 219.19 71.6101 218.354 73.4325 217.559L72.2335 214.809C70.367 215.623 68.5254 216.479 66.7103 217.378L68.0412 220.067ZM78.9444 215.311C80.7886 214.609 82.6556 213.948 84.5441 213.328L83.6084 210.478C81.6761 211.112 79.7653 211.789 77.8775 212.507L78.9444 215.311ZM90.2351 211.602C92.1396 211.072 94.0639 210.581 96.0065 210.132L95.3304 207.209C93.3448 207.668 91.3774 208.17 89.4297 208.712L90.2351 211.602ZM101.835 208.917C103.775 208.556 105.731 208.235 107.703 207.954L107.28 204.984C105.267 205.271 103.269 205.599 101.287 205.967L101.835 208.917ZM113.617 207.237C115.587 207.04 117.57 206.882 119.566 206.763L119.388 203.769C117.352 203.889 115.328 204.051 113.318 204.252L113.617 207.237ZM125.507 206.529C126.502 206.51 127.5 206.5 128.501 206.5V203.5C127.481 203.5 126.463 203.51 125.448 203.53L125.507 206.529ZM128.501 205C129.466 203.852 129.466 203.852 129.466 203.852C129.466 203.852 129.466 203.852 129.466 203.852C129.466 203.852 129.466 203.852 129.466 203.852C129.466 203.852 129.466 203.852 129.466 203.852C129.466 203.852 129.466 203.851 129.465 203.851C129.464 203.85 129.462 203.848 129.459 203.846C129.454 203.841 129.445 203.834 129.434 203.825C129.411 203.805 129.376 203.776 129.33 203.736C129.238 203.658 129.099 203.539 128.916 203.381C128.551 203.065 128.011 202.594 127.316 201.974L125.32 204.213C126.027 204.843 126.578 205.325 126.954 205.65C127.142 205.813 127.286 205.936 127.384 206.019C127.433 206.061 127.47 206.093 127.495 206.114C127.508 206.125 127.518 206.133 127.524 206.139C127.528 206.142 127.53 206.144 127.532 206.145C127.533 206.146 127.534 206.147 127.534 206.147C127.535 206.147 127.535 206.148 127.535 206.148C127.535 206.148 127.535 206.148 127.535 206.148C127.535 206.148 127.535 206.148 127.535 206.148C127.535 206.148 127.535 206.148 128.501 205ZM122.894 197.918C121.608 196.708 120.164 195.324 118.59 193.78L116.489 195.92C118.078 197.481 119.537 198.879 120.839 200.103L122.894 197.918ZM114.35 189.531C113.023 188.175 111.637 186.733 110.204 185.211L108.02 187.267C109.466 188.804 110.866 190.26 112.206 191.629L114.35 189.531ZM106.149 180.818C104.849 179.383 103.523 177.891 102.178 176.346L99.9149 178.315C101.273 179.876 102.612 181.382 103.925 182.832L106.149 180.818ZM98.2911 171.789C97.0324 170.282 95.7642 168.733 94.4924 167.145L92.1504 169.02C93.4358 170.625 94.7173 172.19 95.9889 173.712L98.2911 171.789ZM90.801 162.43C89.6082 160.871 88.4173 159.28 87.233 157.657L84.8098 159.426C86.008 161.068 87.2125 162.677 88.4186 164.253L90.801 162.43ZM83.7672 152.788C82.6385 151.161 81.5207 149.506 80.418 147.826L77.91 149.472C79.0272 151.174 80.1594 152.85 81.3021 154.498L83.7672 152.788ZM77.2107 142.794C76.1696 141.11 75.1471 139.403 74.1472 137.676L71.5509 139.179C72.5659 140.932 73.6033 142.664 74.659 144.371L77.2107 142.794ZM71.2359 132.465C70.2955 130.717 69.3812 128.951 68.4968 127.168L65.8092 128.501C66.7089 130.315 67.6386 132.111 68.5942 133.886L71.2359 132.465ZM65.9453 121.786C65.1275 119.977 64.3434 118.153 63.5967 116.315L60.8173 117.444C61.579 119.319 62.3785 121.179 63.2116 123.022L65.9453 121.786ZM61.4732 110.761C60.8037 108.892 60.1759 107.012 59.5934 105.12L56.7263 106.003C57.3226 107.939 57.9649 109.863 58.649 111.772L61.4732 110.761ZM57.9829 99.4054C57.4933 97.487 57.0532 95.5598 56.6667 93.6251L53.7248 94.213C54.1221 96.2011 54.5739 98.1798 55.0761 100.147L57.9829 99.4054ZM55.6687 87.7837C55.3922 85.8287 55.1735 83.8678 55.0163 81.9026L52.0258 82.1419C52.188 84.1694 52.4136 86.1906 52.6983 88.2038L55.6687 87.7837ZM54.7333 75.9983C54.7031 74.0313 54.738 72.0615 54.8419 70.0904L51.846 69.9326C51.7385 71.9733 51.7024 74.0111 51.7336 76.0443L54.7333 75.9983ZM55.3584 64.2193C55.5989 62.2779 55.91 60.3364 56.2952 58.3961L53.3526 57.8119C52.953 59.8246 52.6305 61.838 52.3811 63.8504L55.3584 64.2193ZM57.6596 52.6441C58.1765 50.7756 58.766 48.9093 59.4315 47.0463L56.6063 46.0371C55.9161 47.9694 55.3045 49.9056 54.7682 51.8443L57.6596 52.6441ZM61.6174 41.564C62.4028 39.7834 63.2615 38.0066 64.1966 36.235L61.5435 34.8346C60.5758 36.6681 59.6865 38.5081 58.8726 40.3533L61.6174 41.564ZM67.1077 31.1411C68.1314 29.4794 69.2259 27.823 70.3939 26.1729L67.9453 24.4396C66.7409 26.1412 65.6111 27.8508 64.5535 29.5675L67.1077 31.1411ZM73.9283 21.4825C75.1418 19.966 76.4207 18.4555 77.7669 16.952L75.5319 14.9508C74.1494 16.4948 72.8347 18.0475 71.5859 19.6081L73.9283 21.4825ZM81.8312 12.6427C83.1964 11.2666 84.6208 9.89697 86.1062 8.53457L84.0784 6.32368C82.559 7.71729 81.1005 9.11959 79.7014 10.53L81.8312 12.6427ZM90.576 4.61309C91.3498 3.96307 92.1381 3.31488 92.9412 2.66859L91.0604 0.331413C90.2411 0.990745 89.4365 1.6523 88.6464 2.31601L90.576 4.61309Z" fill="#616161"/>
</svg>