<svg width="1144" height="599" fill="none" xmlns="http://www.w3.org/2000/svg"><path fill-rule="evenodd" clip-rule="evenodd" d="M898.019 168.126c-8.953-1.936-16.818-3.498-17.479-3.471-.66.026 2.954 1.497 8.032 3.267 9.207 3.21 9.192 3.208-5.264-.299-7.974-1.935-19.839-4.529-26.367-5.765-8.212-1.555-4.143-.347 13.203 3.918 39.644 9.75 80.321 19.878 85.522 21.292 2.903.79 4.619.791 4.383.006-.255-.848 9.542 1.369 28.554 6.464 20.547 5.505 28.637 8.046 27.877 8.759-.67.632-.07 1.168 1.62 1.446 1.48.241 3.36.936 4.17 1.543.82.606 8.83 3.639 17.8 6.74 8.96 3.101 18.05 6.579 20.19 7.729 2.15 1.149 4.01 1.676 4.14 1.172.34-1.258-2.4-2.777-18.61-10.325-2.03-.946-5.8-2.837-8.37-4.201-5.55-2.939-115.091-33.016-139.401-38.275ZM560.273 78.878c-5.373-.779-5.237-.69 2.271 1.498 7.908 2.303 10.438 2.479 5.831.404-1.312-.591-4.957-1.447-8.102-1.902Zm-12.335-2.722c-1.27-.137-6.758-1.098-12.196-2.136-5.437-1.038-9.985-1.52-10.106-1.07-.12.448 1.455 1.052 3.501 1.34 2.852.402 3.259.693 1.744 1.248-1.501.55-.771 1.018 3.042 1.946 4.576 1.114 4.745 1.07 1.919-.514l-3.098-1.736 4.099.957c2.254.527 4.145 1.447 4.203 2.045.059.618 4.262 1.817 9.746 2.781 10.399 1.83 10.337 1.356-.194-1.49-3.655-.99-5.333-1.707-3.729-1.597 2.754.19 6.899-1.103 4.471-1.395-.601-.072-2.132-.243-3.402-.379Zm382.037 102.55c-3.842-.798-10.325-2.534-14.407-3.857-4.083-1.322-.939-.67 6.985 1.452 7.924 2.121 11.263 3.204 7.422 2.405Zm15.491 4.059c-.844.104-2.091-.23-2.771-.742-.679-.511.012-.596 1.535-.187 1.524.408 2.08.827 1.236.929Zm83.924 23.674c-.84.104-2.09-.23-2.77-.742-.68-.511.01-.595 1.53-.187 1.53.408 2.08.827 1.24.929Zm7.78 2.078c-.83.102-2.33-.28-3.34-.85-1-.57-.32-.654 1.52-.186 1.83.468 2.65.933 1.82 1.036ZM562.55 82.57c.992.565 2.738 1.033 3.879 1.039 1.14.008.329-.454-1.804-1.026-2.133-.571-3.066-.577-2.075-.013Zm10.536 2.79c.68.513 1.926.847 2.77.743.845-.102.288-.521-1.235-.93-1.524-.408-2.214-.323-1.535.188Zm-212.64-55.015c-.458.43-6.36-.807-13.118-2.752-12.261-3.527-34.279-7.679-38.295-7.221-1.344.153-2.309 1.286-2.637 3.094-.557 3.077-.414 3.23 5.54 5.935 4.872 2.214 4.803 4.116-.093 2.563-3.26-1.033-3.6-.865-4.055 2.004-.436 2.742-.883 3.031-3.591 2.32-3.882-1.015-5.511-.396-6.619 2.517-.721 1.895-.143 2.617 3.336 4.172 5.631 2.517 4.903 3.963-1.51 2.997-5.065-.764-12.248 1.588-11.585 3.794.165.548-1.286.925-3.223.837-3.045-.139-3.366.11-2.369 1.836.635 1.098 1.811 2.182 2.615 2.407 1.1.309.992.554-.437 1-1.328.413-.142 1.17 3.965 2.528 5.791 1.914 5.85 1.98 4.997 5.565-.475 1.995-1.238 3.527-1.694 3.404-.457-.122-1.098.775-1.425 1.993-.44 1.642-1.393 2.043-3.681 1.55-2.692-.58-2.781-.517-.696.494 3.048 1.476 8.083 6.056 6.081 5.53-.847-.224-1.425.365-1.322 1.346.273 2.591-2.261 3.27-9.914 2.66-6.846-.548-9.958-.18-6.444.76 1.016.273 1.647 1.244 1.402 2.157-.346 1.293-1.922 1.266-7.094-.12-7.17-1.92-9.966-.402-3.127 1.698 2.547.783 3.116 1.193 1.493 1.077-1.443-.104-2.737.242-2.878.768-.141.526-1.347 1.005-2.679 1.066-1.332.06-2.266.628-2.077 1.26.191.632-1.419 1.183-3.576 1.223-3.389.064-2.797.395 4.353 2.434 8.497 2.425 8.501 3.676.011 2.96-3.765-.317-4.301-.066-3.515 1.641.746 1.623 1.188 1.785 2.263.834 1.037-.92 1.575-.598 2.414 1.445.99 2.409.845 2.663-1.728 3.042-2.404.353-1.953.735 3.124 2.654 5.324 2.01 5.653 2.314 3.216 2.958-1.493.395-4.986.466-7.762.157-8.628-.961-9.46.232-1.689 2.422l7.179 2.022-10.369 1.017-10.368 1.018 5.393 2.038 5.392 2.039-6.931-.251c-4.843-.175-6.544.169-5.65 1.14.705.764 2.267 1.699 3.472 2.078 2.175.684 2.174.69-.235.958-1.76.194-.524 1.06 4.5 3.151 6.276 2.61 6.5 2.806 2.388 2.09-2.497-.435-5.137-.451-5.869-.038-.824.465 3.694 2.133 11.889 4.387 10.209 2.808 12.458 3.703 9.874 3.931-1.939.173-3.568 1.125-3.874 2.269-.429 1.599-2.571 1.847-11.321 1.307-5.936-.367-9.902-.234-8.814.294 1.583.768 1.617 1.073.169 1.525-1.33.415-1.078.769.953 1.34 1.519.427 3.371 1.438 4.116 2.245 1.506 1.631.96 1.785-5.282 1.489-1.703-.081-3.556.486-4.119 1.261-.857 1.178 1.011 1.864 11.507 4.218 9.26 2.078 12.011 3.012 10.542 3.58-1.677.649-1.633.835.275 1.188 3.783.695 4.5 1.267 2.447 1.952-1.331.443.238.968 4.904 1.641 8.543 1.232 8.122 1.107 26.405 7.839 11.204 4.125 27.995 8.807 64.651 18.03 30.427 7.654 58.793 15.425 73.582 20.157 48.739 15.6 53.606 17.082 53.095 16.164-.286-.515-5.609-2.59-11.83-4.61-6.219-2.019-11.663-4.245-12.096-4.943-1.08-1.741 94.313 23.932 127.594 34.34 19.09 5.97 164.482 46.6 215.222 60.145 11.32 3.021 61.056 14.847 63.421 15.08 1.953.191 2.857.678 2.274 1.227-.532.501-.469 1.044.141 1.208.609.163 1.55-.119 2.09-.628 1.286-1.211 5.371-.099 4.981 1.356-.336 1.253 25.822 8.342 45.26 12.267 8.9 1.797 11.728 2.727 11.851 3.896.089.845.886 1.731 1.771 1.968.885.237 1.435-.15 1.221-.86-.214-.71.537-1.135 1.667-.944 1.131.192 2.833.438 3.784.547.951.109 4.487.873 7.859 1.697 3.736.913 5.661.986 4.924.188-1.193-1.297 6.895-.039 29.431 4.579 11.329 2.322 16.861 1.856 8.445-.711-2.687-.82-5.354-1.74-5.925-2.045-.572-.305-5.743-1.949-11.492-3.654l-10.453-3.101 7.434 1.069c4.089.587 12.378 2.225 18.421 3.641 6.043 1.415 11.331 2.252 11.751 1.859.41-.392 1.75-.447 2.97-.12 1.22.327 2.06.089 1.88-.529-.19-.624-2.55-1.28-5.32-1.476-5.577-.396-10.703-1.493-9.694-2.075 1.353-.782 25.374 1.416 26.794 2.451.84.604 1.97.397 2.61-.474.8-1.098 2.83-1.145 7.02-.16l5.9 1.388-5.92-2.287c-4.65-1.8-5.24-2.258-2.76-2.149 1.74.076 5.46 1.151 8.27 2.388 2.81 1.237 5.25 2.179 5.42 2.093.17-.087-.18-1.503-.78-3.149-.72-1.982-1.56-2.72-2.48-2.186-.93.534-2.47.101-4.57-1.285-5.64-3.721-4.54-3.923 5.04-.924 6.68 2.092 9.27 2.529 8.97 1.513-.27-.881.56-1.206 2.15-.845 2.31.522-7.99-4.608-16.44-8.192-1.76-.746.57-.438 5.16.688 4.6 1.124 9.24 1.76 10.31 1.415 1.62-.522 1.58-.736-.25-1.257-1.22-.345-2.82-1.354-3.56-2.243-.99-1.181.02-1.048 3.72.496 6.64 2.757 8.35 2.18 6.08-2.047-1-1.871-1.18-3.161-.41-2.954.75.201 1.19-.215.97-.926-.21-.71-2.47-1.859-5.02-2.552-2.56-.694-5.25-1.982-6-2.863-.97-1.151.23-.961 4.27.682 5.73 2.32 8.36 1.445 3.92-1.3-2.24-1.381-2.24-1.427.2-1.886 1.99-.371 1.67-.59-1.53-1.052-4.6-.665-8.64-4.309-5.18-4.672 1.08-.113 2.86.034 3.96.327 1.09.294 2.81-.048 3.81-.758 1.43-1.015 1.53-1.371.46-1.658-.75-.202-.88-1.028-.28-1.855.7-.958.41-1.701-.8-2.079-1.56-.488-1.46-.641.58-.902 2.28-.292 2.26-.46-.33-2.38-1.54-1.135-3.51-2.257-4.38-2.491-.88-.235-1.46-.925-1.3-1.534.17-.609 3.18-.389 6.7.492l6.4 1.6-3.7-2.818c-4.01-3.055-4.24-5.451-.61-6.298 1.26-.295 7.97.606 14.9 2.001 6.94 1.396 12.72 2.152 12.84 1.68.13-.471-1.01-1.725-2.52-2.787-2.3-1.614-1.43-1.592 5.31.137 4.57 1.171 8.19 1.585 8.35.957.17-.609-.73-1.383-1.98-1.719-1.25-.336-1.86-1.009-1.34-1.495.51-.486 1.59-.407 2.4.176.8.582 1.58.591 1.73.02.16-.573-1.94-2.231-4.65-3.686-4.19-2.245-2.44-1.918 11.59 2.162l16.53 4.807-13.86-5.885c-24.26-10.298-23.83-10.085-20.43-10.184 2.77-.081 2.81-.145.59-.849-3.34-1.059-3.68-3.2-.48-2.969 1.47.105.61-.425-1.94-1.198-2.51-.763-4.61-1.924-4.65-2.579-.04-.655-5.7-3.135-12.58-5.511-12.24-4.231-12.4-4.321-7.46-4.427 3.22-.067 11.1 1.612 21.77 4.639 15.44 4.381 16.89 4.611 18.87 3.016 1.89-1.521 3.83-1.327 16.05 1.602 11.09 2.658 13.99 3.014 14.33 1.761.23-.864-.01-1.687-.54-1.829-1.56-.417-19.58-8.822-21.52-10.037-3.67-2.3-1-3.125 5.18-1.6 6.34 1.563 6.36 1.557 2.22-.524-2.3-1.157-8.16-3.239-13.01-4.626-8.65-2.47-20.02-7.131-16.59-6.8 3.27.317-7.75-4.275-15.37-6.404-6.64-1.857-7.84-2.567-9.43-5.584l-1.83-3.458 4.68 1.149 4.69 1.148-3.5-2.104c-1.92-1.157-4.47-2.109-5.67-2.116-1.19-.008-2.06-.429-1.92-.936.13-.508-.57-1.385-1.56-1.95-.99-.564.47-.545 3.26.043l5.05 1.07-4.76-2.176c-15.56-7.11-131.065-39.682-168.952-47.645-10.822-2.274-24.75-5.481-30.951-7.127-7.957-2.111-11.548-2.628-12.207-1.757-.702.929-1.075.854-1.51-.308-.489-1.301-23.164-8.724-25.461-8.336-2.246.38-294.129-77.959-313.574-84.16a40371.348 40371.348 0 0 0-32.829-10.46c-5.117-1.624-20.416-6.21-33.996-10.187-13.581-3.979-29.634-8.893-35.675-10.92-17.465-5.862-42.562-12.705-43.469-11.85ZM923.03 180.34c.713.534 1.68.751 2.147.482.466-.27-.118-.706-1.298-.972-1.306-.292-1.639-.1-.849.49Zm-30.217-6.909c.713.534 1.68.75 2.147.481.466-.269-.118-.706-1.299-.971-1.305-.293-1.638-.101-.848.49Zm8.865 2.375c.713.534 1.68.751 2.147.482.466-.27-.118-.706-1.298-.972-1.306-.292-1.639-.1-.849.49ZM545.29 82.714c1.301.631 3.544 1.232 4.986 1.336 1.443.103.379-.414-2.364-1.149-2.743-.735-3.923-.82-2.622-.187Zm223.25 64.509c-.832.103-2.333-.279-3.335-.849-1.003-.571-.323-.654 1.512-.187 1.834.468 2.655.934 1.823 1.036Zm284.21 76.093c-.46.269-1.43.053-2.14-.481-.79-.59-.46-.783.85-.49 1.18.266 1.76.702 1.29.971Zm-165.657-42.28c.277.479-3.459-.13-8.303-1.353-4.844-1.224-21.591-5.379-37.216-9.235-15.625-3.854-70.808-17.958-122.63-31.339-51.823-13.381-97.032-24.719-100.467-25.195-6.31-.874-13.383-3.711-11.685-4.689.978-.564 11.523 2.041 70.444 17.405 22.489 5.863 37.024 9.212 37.196 8.568.156-.58.912-.598 1.682-.039 2.126 1.543 39.071 11.277 66.112 17.419 26.438 6.003 104.065 27.071 104.867 28.458Zm29.206 6.782c-1.01.583-20.031-4.41-20.607-5.41-.267-.459 4.42.478 10.413 2.084s10.581 3.102 10.194 3.326Zm4.287 1.271c-.467.27-1.434.053-2.147-.481-.79-.59-.457-.782.849-.49 1.18.266 1.764.702 1.298.971Zm-84.511-21.335c1.308.635 3.305 1.159 4.439 1.166 1.133.007.063-.513-2.378-1.154-2.441-.641-3.368-.646-2.061-.012Zm151.342 40.603c.159.532-6.603-.878-15.025-3.135-8.422-2.257-15.586-4.578-15.922-5.157-.335-.579 6.425.831 15.023 3.135 8.6 2.304 15.764 4.625 15.924 5.157Zm5.639 1.808c-3.375.49-4.227.261-3.879-1.039.164-.609 1.659-.705 3.324-.214 2.682.794 2.745.935.555 1.253Zm-202.648-53.488c.713.534 1.68.75 2.146.481.467-.269-.117-.706-1.298-.971-1.305-.293-1.638-.101-.848.49Zm6.586 1.814c1.926.78 4.919 1.577 6.652 1.771 1.734.192.158-.446-3.501-1.419-3.659-.975-5.076-1.132-3.151-.352Zm-224.388-57.353c-.93.279-2.068.107-2.528-.381-.46-.488-.075-1.116.854-1.395.93-.28 2.068-.108 2.527.38.46.488.075 1.116-.853 1.396Zm20.302 4.44c-.128.477-3.832-.16-8.232-1.416-5.937-1.696-7.085-2.268-4.453-2.22 4.538.081 12.988 2.504 12.685 3.636Zm11.287 2.203c-.317 1.183-6.735 1.202-8.228.025-1.222-.964-.918-1.243 1.449-1.323 3.661-.125 6.989.512 6.779 1.298Zm-36.509-7.964c-.509.478-4.759-.164-9.444-1.429-4.685-1.266-7.838-2.51-7.005-2.767 2.305-.711 17.534 3.174 16.449 4.196Zm354.512 94.515c-.832.103-2.333-.279-3.336-.85-1.002-.57-.322-.654 1.512-.186 1.835.468 2.655.934 1.824 1.036Zm77.238 21.943c-1.441-.104-3.686-.706-4.987-1.337-1.299-.632-.12-.547 2.623.188 2.742.735 3.808 1.251 2.364 1.149ZM308.156 46.83c-.163.61-.516 1.049-.785.977-.269-.072-.663-.712-.877-1.422-.213-.71.141-1.15.786-.977.644.173 1.04.813.876 1.422Zm-41.015 32.562c.713.534 1.68.75 2.147.481.466-.269-.118-.706-1.299-.97-1.305-.294-1.638-.102-.848.489Zm782.779 229.835c-.46.27-1.43.053-2.14-.481-.79-.59-.46-.782.85-.49 1.18.266 1.76.702 1.29.971ZM270.48 103.221c-.163.609-.826.966-1.471.793-.644-.173-.731-.731-.191-1.239.54-.508 1.201-.865 1.47-.793.269.072.355.629.192 1.239Zm325.25 105.038c.675 2.248-.792 2.293-1.821.055-.593-1.287-.507-1.945.229-1.748.647.173 1.365.936 1.592 1.693Zm69.539 21.556c.768-.23 1.232-.959 1.033-1.62-.207-.691 2.456-.447 6.262.572 3.824 1.025 6.655 2.334 6.701 3.099.044.729 2.351 2.218 5.128 3.307 6.917 2.716 4.834 3.986-2.551 1.555-4.442-1.462-6.068-1.582-6.366-.47-.504 1.881-4.583.886-4.836-1.18-.109-.889-.45-.702-.812.447-.343 1.089-.967 1.618-1.385 1.173-.418-.443-1.851-.058-3.187.857-2.849 1.953-8.197.949-7.563-1.419.325-1.212-.577-1.693-3.775-2.018-3.298-.334-3.997-.729-3.242-1.833.529-.774 1.656-1.167 2.503-.873.849.293 2.42-.014 3.492-.681 1.692-1.055 1.429-1.247-2.016-1.462-2.18-.137-4.857-.239-5.948-.228-1.091.013-2.149-.528-2.352-1.2-.202-.672 2.247-.894 5.442-.491 3.196.402 6.58.24 7.521-.36 1.404-.895 1.968-.701 3.135 1.076.783 1.193 2.05 1.98 2.816 1.749Zm156.641 40.616c-.243.91-7.143-.449-7.449-1.466-.178-.592 1.452-.6 3.62-.019 2.169.581 3.893 1.249 3.829 1.485Zm-204.139-47.55c-1.617 2.225-2.68.611-1.533-2.33 1.425-3.657 1.46-3.681 2.091-1.372.32 1.172.069 2.838-.558 3.702Zm79.651 16.888c-.832.102-2.333-.28-3.336-.85-1.003-.571-.322-.654 1.512-.186 1.834.467 2.655.933 1.824 1.036Zm37.262 10.453c-7.446-.64-32.701-7.451-34.338-9.261-.912-1.008 5.518.372 19.094 4.095 13.999 3.841 18.817 5.473 15.244 5.166Zm23.093 5.79c-1.744-.196-4.486-.93-6.095-1.633-1.608-.703-.181-.543 3.171.356 3.352.898 4.669 1.473 2.924 1.277Zm10.544 2.761c-.844.104-2.091-.23-2.771-.742-.679-.511.011-.596 1.535-.187 1.524.408 2.08.826 1.236.929Zm11.081 2.969c-.843.104-2.09-.23-2.77-.742-.679-.511.011-.595 1.535-.187 1.523.408 2.08.827 1.235.929Zm-188.909-49.636c-.432 1.613-5.468 3.885-7.393 3.336-2.151-.615-2.118-.695.865-2.073l3.1-1.434-4.636-1.699c-4.072-1.492-3.855-1.515 1.786-.185 3.533.833 6.358 1.757 6.278 2.055Zm5.207 1.532c-.467.269-1.434.053-2.147-.482-.79-.59-.457-.782.849-.489 1.18.265 1.764.702 1.298.971Zm67.78 18.632c-.163.609.232 1.249.877 1.422.645.173.999-.267.785-.977-.213-.71-.607-1.35-.877-1.422-.269-.072-.622.367-.785.977Zm346.67 92.419c-.47.27-1.43.053-2.15-.481-.79-.59-.45-.783.85-.49 1.18.266 1.77.702 1.3.971Zm8.32 2.298c-.85.104-2.09-.23-2.77-.742-.68-.511.01-.596 1.53-.188 1.53.409 2.08.827 1.24.93ZM542.211 200.493c-.466.269-1.433.053-2.146-.482-.79-.59-.457-.782.848-.489 1.181.265 1.765.702 1.298.971Zm30.902 8.973c-.436.659-1.512 1.241-2.393 1.293-.901.054-1.147-.331-.562-.882.583-.549-.005-1.484-1.342-2.132-1.695-.822-1.305-.914 1.353-.316 2.437.547 3.46 1.255 2.944 2.037Zm34.92 10.321c-.744 1.162-.794 2.162-.114 2.344.65.174 1.071.732.935 1.24-.386 1.438-4.707-.457-5.264-2.31-.386-1.282-1.112-1.512-3.219-1.02-1.497.349-3.172.158-3.722-.426-1.109-1.179 7.4-3.021 10.642-2.305 1.542.341 1.723.944.742 2.477Zm209.738 55.012c.213.71-.141 1.15-.786.977-.645-.173-1.04-.813-.876-1.422.163-.61.516-1.049.785-.977.269.072.663.712.877 1.422Zm10.693 2.202c-.072.269-.712.662-1.422.876-.711.213-1.15-.141-.977-.786.172-.644.813-1.039 1.422-.876.609.163 1.049.516.977.786Zm162.025 43.669c-.831.103-2.332-.279-3.335-.85-1.003-.57-.323-.653 1.512-.186 1.834.468 2.655.934 1.823 1.036Zm6.066 1.564c-.466.269-1.433.053-2.146-.481-.79-.591-.457-.783.848-.49 1.181.265 1.765.702 1.298.971ZM558.166 206.425c.213.71-.141 1.15-.786.977-.645-.173-1.04-.813-.877-1.422.164-.61.517-1.049.786-.977.269.072.663.712.877 1.422Zm131.133 34.667c-.466.269-1.433.053-2.146-.481-.79-.591-.457-.783.848-.49 1.181.265 1.765.702 1.298.971Zm5.541 1.485c-.466.269-1.433.053-2.147-.482-.789-.59-.456-.782.849-.489 1.181.265 1.764.702 1.298.971Zm10.008 3.745c-.245.914.053 1.795.663 1.959.609.163 1.274-.326 1.477-1.089.273-1.028 2.777-.64 9.708 1.502 5.649 1.747 8.966 3.241 8.392 3.782-.522.49-1.754.377-2.738-.252s-3.439-.777-5.453-.329c-3.245.722-3.655.614-3.58-.936.095-1.957-4.618-3.67-6.144-2.233-1.065 1.003-5.72.097-6.507-1.266-.79-1.367 1.412-3.661 3.083-3.213.849.227 1.344 1.161 1.099 2.075Zm101.95 27.318c-1.545 1.094-1.369 1.414 1.147 2.088 1.699.455 2.551 1.191 1.99 1.72-.54.509-2.032.643-3.318.299-1.284-.345-2.075-.174-1.756.378.32.552 4.659 1.932 9.641 3.068 8.094 1.843 8.932 2.241 7.851 3.729-.795 1.095-.688 1.617.312 1.528.837-.076 1.548-.731 1.579-1.457.031-.727 1.334-.979 2.893-.561 1.608.431 2.411 1.16 1.854 1.684-.54.508-.453 1.066.192 1.239.645.173 1.307-.184 1.47-.793.494-1.844 4.477-.131 4.704 2.023.115 1.104 0 2.13-.259 2.279-.258.148-5.42-.911-11.471-2.354-8.032-1.916-11.027-3.031-11.094-4.132-.051-.83-1.077-1.773-2.281-2.096-1.204-.322-2.015-.005-1.801.705.227.753-1.024.913-3.002.383-1.864-.5-3.256-1.407-3.093-2.016.163-.61-1.548-1.602-3.804-2.207-4.482-1.201-3.435-2.818 1.419-2.19 2.158.279 3.158-.361 4.036-2.581.715-1.81 1.835-2.774 2.892-2.49 1.407.377 1.388.7-.101 1.754Zm110.022 30.437c1.134.645-.294.486-3.172-.35-2.878-.837-5.116-1.961-4.972-2.497.143-.538 1.23-.356 2.416.402 1.647 1.053 2.036.968 1.652-.368-.395-1.372-.234-1.384.756-.052.692.932 2.187 2.22 3.32 2.865Zm-138.428-37.455c-.54.508-1.451.798-2.025.645-.574-.154-.909-.778-.746-1.387.164-.61 1.075-.9 2.025-.645.95.254 1.286.879.746 1.387Zm-118.316-30.515c1.777 1.963 2.953 2.278 3.325.89.163-.609-.828-1.4-2.201-1.759-2.02-.526-2.235-.36-1.124.869Zm104.038 28.392c-.241.899.85 2.11 2.518 2.794 2.361.967 2.011 1.068-1.771.512-4.296-.633-4.653-.916-4.041-3.202.373-1.391 1.352-2.327 2.196-2.101.838.224 1.332 1.123 1.098 1.997Zm34.526 8.559c-.149.556-2.283.502-4.742-.121-2.46-.623-4.15-1.436-3.758-1.805 1.067-1.004 8.815.752 8.5 1.926Zm-345.532-91.221c.214.71-.39 1.083-1.339.828-.95-.254-1.594-.961-1.431-1.57.163-.61.766-.983 1.34-.829.574.154 1.217.861 1.43 1.571Zm219.952 59.006c-.173.644-.777.682-1.343.082-.565-.6-1.647-.521-2.403.176-1.09 1.002-1.273.861-.875-.676.313-1.208 1.34-1.719 2.719-1.349 1.219.326 2.075 1.122 1.902 1.767Zm15.606 3.815c-.122.456-1.422.509-2.888.116-1.465-.392-2.332-1.026-1.927-1.407.404-.381 1.703-.434 2.886-.117 1.184.318 2.051.951 1.929 1.408ZM899.695 301.5c-.54.508-2.064.596-3.389.196-2.32-.703-2.318-.741.065-1.087 3.401-.494 4.486-.203 3.324.891Zm81.45 21.824c-.163.609.824 1.416 2.192 1.792 1.368.378 3.107 1.369 3.863 2.205 1.014 1.12.049 1.23-3.675.416-2.777-.606-6.847-1.373-9.045-1.704-2.198-.33-21.239-5.064-42.314-10.52-21.075-5.456-35.227-9.49-31.448-8.965l12.596 1.75c12.098 1.683 26.401 5.11 26.794 6.418a1.384 1.384 0 0 0 1.721.92c.73-.217 2.324.539 3.545 1.683 1.22 1.143 3.222 1.96 4.449 1.814 1.226-.147 5.836.607 10.244 1.674 4.408 1.067 8.428 1.701 8.933 1.409.505-.291 2.545.202 4.533 1.096 2.876 1.293 3.715 1.257 4.1-.18.266-.994 1.232-1.606 2.146-1.361.915.245 1.529.944 1.366 1.553Zm32.525 9.012c.22 1.246.48 1.315 1.29.346 1.1-1.303 10.47.702 10.97 2.345.16.532-1.86.205-4.49-.728-2.98-1.06-4.9-1.239-5.1-.478-.5 1.848-5.6.064-5.82-2.034-.24-2.228 2.75-1.708 3.15.549Zm-257.224-68.033c-.54.509-2.314.529-3.943.048-2.644-.783-2.696-.916-.489-1.235 3.433-.498 5.605.084 4.432 1.187Zm104.167 27.912c-.54.508.046 1.199 1.3 1.535 1.255.336 2.415.113 2.579-.496.35-1.308 2.418-.437 3.825 1.611 1.291 1.879-5.076 2.879-7.942 1.248-1.107-.63-2.493-.694-3.08-.142-.587.553-1.815.805-2.729.56-.915-.245-1.186-.894-.605-1.441.732-.69-.574-1.181-4.252-1.599-3.222-.366-5.197-1.027-5.022-1.681.159-.593 3.228-.608 6.819-.031 3.592.576 6.844.571 7.228-.011.384-.581 1.185-.926 1.779-.767.595.159.64.705.1 1.214Zm31.707 8.403c-1.004.314-3.244-.009-4.978-.716-2.427-.991-3.416-.822-4.304.737-.635 1.114-1.579 1.91-2.097 1.771-1.197-.32 1.058-3.582 2.932-4.242.774-.272 3.402.04 5.84.693 3.024.811 3.853 1.369 2.607 1.757ZM501.862 197.136c-.353 1.319-4.919 1.225-5.321-.109-.175-.584.376-1.145 1.224-1.249 2.515-.307 4.378.311 4.097 1.358Zm14.372 3.99c-.164.609-.766.982-1.34.828-.574-.154-1.217-.86-1.431-1.571-.213-.71.39-1.082 1.34-.828.95.255 1.594.962 1.431 1.571Zm19.979 5.224c-.449 1.675-8.636-.137-11.182-2.474-2.231-2.047-1.896-2.074 4.519-.362 3.81 1.017 6.808 2.293 6.663 2.836Zm3.294 1.338c-.493 1.288-1.943.624-2.037-.931-.048-.797.458-1.089 1.124-.649.666.44 1.076 1.15.913 1.58Zm8.877 6.119c-.109.575-.864-.162-1.68-1.638-1.005-1.818-1.021-2.832-.048-3.144 1.302-.421 2.226 2.136 1.728 4.782Zm10.54-1.709c2.023 1.469 1.562 3.26-.685 2.657-.95-.254-1.564.084-1.363.75.2.668-.621.869-1.825.447-2.252-.789-1.888-3.579.592-4.546 1.625-.633 1.388-.683 3.281.692Zm434.925 117.004c-.163.61-1.168.866-2.232.572-1.653-.459-1.651-.629.016-1.165 2.453-.792 2.578-.758 2.216.593ZM569.56 217.263c-3.146.404-3.366.621-1.616 1.601 1.637.917 1.486 1.015-.79.517-1.624-.356-3.122-1.62-3.54-2.987-.664-2.172-.292-2.254 4.432-.984 5.109 1.374 5.122 1.39 1.514 1.853Zm14.891 5.359c-.179 2.455-.522 2.683-2.398 1.599-1.203-.695-4.176-1.821-6.607-2.501-3.577-.999-3.986-1.354-2.151-1.852 1.248-.339 2.111-1.141 1.918-1.782-.193-.641 1.854-.527 4.548.253 4.293 1.243 4.873 1.772 4.69 4.283Zm32.606 8.562c.729 1.882 1.316 2.207 2.621 1.454 2.339-1.35 4.65-.529 4.116 1.464-.347 1.295-1.847 1.266-6.793-.133-3.493-.987-5.658-1.88-4.814-1.982 3.61-.442 1.632-2.339-4.016-3.852-6.592-1.767-8.846-.448-3.169 1.854 2.165.877 1.079.839-2.872-.101-3.566-.849-6.539-2.129-6.776-2.916-.304-1.011-.849-1.158-1.949-.523-.841.485-2.276.681-3.19.436-1.229-.329-1.25-.683-.086-1.355.867-.5 1.493-1.702 1.391-2.672-.156-1.491 1.73-1.17 12.206 2.07 10.398 3.216 12.543 4.222 13.331 6.256Zm24.833 6.283c-.322 1.239-7.782-1.007-8.224-2.478-.23-.764 1.369-.689 4.031.189 2.425.801 4.312 1.831 4.193 2.289Zm39.991 10.348c-.154.574-.859 1.216-1.567 1.429-2.254.676-32.04-7.893-34.187-9.835-1.092-.987 12.94 1.55 24.072 4.353 6.861 1.727 11.842 3.455 11.682 4.053Zm48.425 13.664c.855 1.481-1.347 1.314-11.834-.893-10.753-2.263-21.595-6.681-21.083-8.59.261-.974 32.191 8.226 32.917 9.483Zm39.37 11.075c-7.32-1.277-12.569-3.187-10.492-3.818.703-.214 4.884.826 9.289 2.309l8.011 2.697-6.808-1.188Zm19.679 4.129c-.164.609-.516 1.049-.786.977-.269-.073-.663-.712-.877-1.423-.213-.71.141-1.149.786-.976.645.172 1.04.813.877 1.422Zm24.933 6.681c-.54.508-.204 1.132.746 1.387.95.254 1.861-.036 2.025-.645.163-.609-.172-1.233-.746-1.387-.574-.154-1.485.136-2.025.645Zm229.832 61.206c.71.534 1.68.751 2.14.481.47-.269-.11-.705-1.29-.971-1.31-.293-1.64-.1-.85.49Zm-259.957-68.203c-.489.461-1.817.31-2.949-.335-2.836-1.614-2.392-2.171 1.003-1.262 1.559.418 2.435 1.137 1.946 1.597Zm57.356 15.079c-.844.104-2.091-.23-2.771-.742-.679-.511.011-.596 1.535-.187 1.524.408 2.08.827 1.236.929Zm50.975 13.659c-.844.104-2.091-.23-2.771-.743-.679-.51.011-.595 1.535-.187 1.524.409 2.08.827 1.236.93Zm141.946 43.183c.21.71.6 1.35.87 1.422.27.073.62-.367.79-.976.16-.61-.23-1.25-.88-1.423-.64-.172-1 .267-.78.977Zm29.25 7.462c.71.534 1.68.751 2.15.482.46-.27-.12-.706-1.3-.972-1.31-.292-1.64-.1-.85.49ZM606.927 248.282c-.121.456-10.294-1.968-22.605-5.388-15.496-4.305-19.434-5.635-12.798-4.32 13.771 2.729 35.663 8.731 35.403 9.708Zm10.975 3.376c-.062.233-2.466-.269-5.342-1.117-4.497-1.326-4.735-1.523-1.702-1.406 3.295.127 7.302 1.563 7.044 2.523Zm-57.36-15.316c-.844.104-2.091-.23-2.77-.743-.68-.51.011-.595 1.534-.187 1.524.409 2.081.827 1.236.93ZM459.618 211.83c.632.711-4.033-.065-10.504-1.748-6.404-1.665-11.355-3.298-11.002-3.629.962-.906 20.193 3.904 21.506 5.377Zm506.236 136.702c.714.534 1.681.75 2.147.481.466-.269-.117-.706-1.298-.971-1.305-.293-1.638-.101-.849.49Zm-81.262-20.681c-.466.269-1.433.053-2.146-.481-.79-.591-.457-.783.848-.49 1.181.265 1.765.702 1.298.971Zm-385.757-100.82c6.466 1.941 17.436 4.882 24.379 6.533 6.943 1.652 1.652.063-11.757-3.531-13.408-3.594-19.088-4.945-12.622-3.002Zm99.176 27.134c.432.749 1.765 1.415 2.961 1.477 1.61.086 1.405-.268-.788-1.361-1.911-.955-2.681-.995-2.173-.116Zm343.682 91.454c.713.534 1.68.751 2.146.482.467-.27-.117-.706-1.298-.972-1.305-.292-1.638-.1-.848.49Zm-335.024-88.553c1.308.634 3.305 1.158 4.439 1.165 1.133.007.063-.512-2.378-1.153-2.441-.641-3.369-.646-2.061-.012Zm15.514 4.157c1.308.634 3.305 1.158 4.439 1.165 1.133.007.063-.512-2.378-1.153-2.441-.641-3.368-.646-2.061-.012Zm34.354 9.226c1.926.78 4.919 1.577 6.652 1.771 1.734.192.158-.446-3.501-1.419-3.658-.975-5.076-1.132-3.151-.352Zm16.066 4.297c1.617.705 4.112 1.366 5.545 1.469 1.433.103.111-.475-2.939-1.284-3.05-.808-4.222-.891-2.606-.185Zm145.162 38.861c.991.565 2.737 1.033 3.878 1.039 1.141.008.33-.454-1.803-1.025-2.134-.572-3.067-.577-2.075-.014Zm18.292 4.87c.68.512 1.927.846 2.771.742.844-.103.288-.521-1.236-.929-1.524-.409-2.214-.324-1.535.187Z" fill="#E5E5E5"/><path fill-rule="evenodd" clip-rule="evenodd" d="M833.011 241.042c-9.055-1.958-17.01-3.538-17.678-3.511-.668.027 2.988 1.514 8.124 3.305 9.312 3.246 9.296 3.245-5.325-.303-8.064-1.957-20.065-4.58-26.667-5.831-8.306-1.572-4.191-.35 13.353 3.964 40.096 9.861 81.237 20.104 86.497 21.534 2.936.799 4.671.8 4.432.006-.257-.858 9.651 1.385 28.881 6.538 20.779 5.567 28.959 8.138 28.194 8.858-.679.64-.072 1.182 1.64 1.463 1.495.244 3.394.947 4.221 1.561.827.613 8.924 3.68 17.994 6.817 9.07 3.136 18.263 6.654 20.429 7.816 2.167 1.162 4.054 1.696 4.184 1.186.34-1.273-2.425-2.808-18.822-10.443-2.056-.956-5.868-2.869-8.471-4.248-5.609-2.973-116.399-33.393-140.986-38.712Zm-341.595-90.265c-5.435-.788-5.297-.697 2.297 1.516 7.998 2.329 10.556 2.506 5.897.408-1.327-.598-5.014-1.464-8.194-1.924Zm-12.476-2.753c-1.285-.138-6.835-1.11-12.335-2.16-5.499-1.05-10.099-1.538-10.221-1.083-.121.454 1.471 1.064 3.541 1.356 2.885.406 3.296.7 1.764 1.262-1.519.557-.78 1.029 3.076 1.968 4.628 1.127 4.799 1.082 1.942-.52l-3.134-1.756 4.146.968c2.279.533 4.192 1.463 4.251 2.069.059.624 4.31 1.838 9.857 2.813 10.517 1.85 10.454 1.371-.197-1.508-3.696-1-5.393-1.727-3.772-1.615 2.786.192 6.978-1.115 4.523-1.411-.608-.073-2.157-.245-3.441-.383Zm386.391 103.719c-3.886-.808-10.442-2.563-14.571-3.901-4.129-1.337-.95-.677 7.064 1.469 8.014 2.145 11.392 3.24 7.507 2.432Zm15.667 4.105c-.853.105-2.114-.233-2.801-.751-.687-.516.011-.602 1.552-.189 1.541.413 2.104.836 1.249.94Zm84.88 23.944c-.853.105-2.114-.232-2.802-.75-.687-.517.011-.603 1.552-.19 1.541.413 2.104.837 1.25.94Zm7.869 2.101c-.841.104-2.36-.282-3.374-.859-1.014-.577-.326-.661 1.529-.188 1.856.473 2.686.944 1.845 1.047ZM493.719 154.511c1.002.571 2.769 1.044 3.923 1.051 1.153.008.333-.46-1.825-1.038-2.157-.578-3.101-.583-2.098-.013Zm10.655 2.823c.688.518 1.949.855 2.802.75.855-.103.292-.527-1.249-.94-1.541-.413-2.239-.327-1.553.19Zm-215.063-55.643c-.463.436-6.433-.817-13.267-2.784-12.401-3.566-34.67-7.766-38.732-7.303-1.359.155-2.335 1.3-2.667 3.13-.564 3.112-.419 3.267 5.603 6.002 4.928 2.239 4.858 4.163-.094 2.593-3.297-1.046-3.641-.876-4.101 2.026-.441 2.774-.893 3.066-3.632 2.347-3.926-1.027-5.573-.401-6.695 2.545-.728 1.917-.144 2.648 3.375 4.22 5.695 2.545 4.958 4.008-1.527 3.031-5.123-.773-12.388 1.606-11.717 3.837.166.555-1.301.936-3.26.847-3.08-.141-3.404.111-2.396 1.857.642 1.111 1.832 2.206 2.644 2.434 1.113.312 1.004.561-.441 1.011-1.344.419-.144 1.183 4.01 2.557 5.856 1.936 5.917 2.003 5.053 5.629-.479 2.018-1.251 3.567-1.713 3.443-.462-.124-1.111.783-1.441 2.015-.445 1.661-1.409 2.067-3.723 1.568-2.722-.587-2.813-.523-.703.499 3.082 1.494 8.175 6.126 6.149 5.593-.856-.226-1.441.37-1.336 1.362.275 2.621-2.287 3.308-10.027 2.689-6.925-.553-10.072-.181-6.518.771 1.028.275 1.666 1.257 1.418 2.181-.35 1.307-1.944 1.28-7.175-.121-7.251-1.943-10.08-.408-3.163 1.717 2.576.791 3.152 1.206 1.51 1.089-1.459-.105-2.768.244-2.911.776-.142.532-1.362 1.017-2.709 1.079-1.347.06-2.292.635-2.1 1.273.192.64-1.436 1.197-3.617 1.238-3.428.065-2.829.4 4.402 2.462 8.594 2.452 8.599 3.717.011 2.994-3.807-.321-4.349-.068-3.554 1.66.754 1.64 1.201 1.804 2.288.842 1.049-.93 1.593-.605 2.442 1.463 1.001 2.435.854 2.692-1.748 3.076-2.431.357-1.975.744 3.16 2.684 5.384 2.033 5.718 2.34 3.252 2.992-1.51.4-5.043.471-7.851.158-8.726-.971-9.567.235-1.707 2.45l7.26 2.045-10.486 1.029-10.487 1.029 5.454 2.062 5.454 2.062-7.01-.254c-4.898-.177-6.619.171-5.714 1.153.713.773 2.292 1.719 3.511 2.102 2.2.691 2.199.698-.238.968-1.78.197-.53 1.072 4.552 3.187 6.348 2.64 6.574 2.839 2.415 2.114-2.525-.44-5.196-.456-5.936-.039-.834.471 3.736 2.158 12.025 4.438 10.325 2.84 12.599 3.745 9.986 3.976-1.961.174-3.608 1.138-3.918 2.294-.434 1.618-2.6 1.868-11.45 1.322-6.003-.37-10.014-.236-8.914.298 1.601.777 1.635 1.085.171 1.542-1.345.42-1.091.777.964 1.356 1.536.432 3.408 1.453 4.163 2.27 1.523 1.65.971 1.806-5.343 1.506-1.723-.082-3.596.491-4.166 1.275-.867 1.192 1.023 1.886 11.638 4.267 9.366 2.101 12.148 3.046 10.662 3.62-1.695.657-1.651.845.279 1.201 3.826.704 4.55 1.282 2.474 1.975-1.346.448.241.979 4.961 1.66 8.639 1.245 8.214 1.119 26.706 7.928 11.331 4.172 28.313 8.908 65.387 18.235 30.774 7.742 59.463 15.602 74.421 20.388 49.294 15.777 54.216 17.276 53.7 16.347-.289-.521-5.673-2.619-11.965-4.662-6.29-2.042-11.796-4.294-12.234-4.999-1.092-1.762 95.388 24.204 129.048 34.731 19.308 6.038 166.357 47.131 217.675 60.83 11.45 3.056 61.752 15.017 64.144 15.252 1.975.193 2.889.686 2.3 1.242-.538.506-.474 1.056.142 1.221.617.165 1.568-.121 2.114-.635 1.301-1.225 5.433-.1 5.038 1.372-.339 1.267 26.117 8.436 45.776 12.406 9.002 1.818 11.862 2.758 11.986 3.941.091.855.896 1.75 1.791 1.99.896.24 1.451-.152 1.235-.87-.216-.718.543-1.148 1.687-.954a88.58 88.58 0 0 0 3.826.552c.962.111 4.539.884 7.949 1.717 3.778.923 5.725.997 4.98.19-1.206-1.312 6.973-.04 29.766 4.632 11.459 2.348 17.055 1.876 8.541-.72-2.717-.829-5.414-1.759-5.992-2.068-.578-.308-5.809-1.972-11.623-3.695l-10.572-3.137 7.519 1.081c4.135.594 12.519 2.251 18.631 3.683 6.111 1.431 11.457 2.277 11.88 1.88.422-.397 1.776-.452 3.009-.122 1.233.331 2.088.09 1.901-.535-.19-.631-2.581-1.294-5.377-1.492-5.645-.401-10.829-1.51-9.808-2.099 1.368-.791 25.661 1.432 27.103 2.479.842.611 1.993.402 2.634-.48.807-1.11 2.868-1.157 7.105-.161l5.968 1.403-5.987-2.313c-4.71-1.82-5.306-2.283-2.791-2.173 1.759.076 5.522 1.164 8.362 2.415 2.841 1.251 5.308 2.204 5.481 2.117.174-.088-.181-1.521-.787-3.185-.73-2.004-1.579-2.75-2.514-2.211-.936.541-2.495.103-4.619-1.3-5.703-3.763-4.589-3.967 5.097-.934 6.758 2.116 9.379 2.558 9.071 1.53-.268-.891.572-1.219 2.18-.854 2.328.528-8.087-4.661-16.629-8.285-1.78-.756.569-.443 5.219.695 4.651 1.136 9.343 1.78 10.428 1.431 1.636-.527 1.592-.744-.26-1.271-1.228-.349-2.846-1.37-3.597-2.269-.997-1.194.015-1.059 3.766.502 6.708 2.789 8.441 2.205 6.146-2.07-1.015-1.893-1.199-3.197-.42-2.988.76.203 1.205-.218.989-.936-.216-.718-2.504-1.88-5.085-2.581-2.581-.703-5.308-2.005-6.06-2.896-.984-1.164.227-.972 4.32.689 5.788 2.347 8.453 1.462 3.956-1.315-2.262-1.396-2.257-1.443.211-1.907 2.004-.375 1.683-.597-1.548-1.064-4.656-.672-8.748-4.358-5.248-4.725 1.097-.115 2.898.034 4.004.331 1.108.297 2.844-.049 3.859-.767 1.45-1.026 1.55-1.386.467-1.676-.764-.205-.89-1.041-.281-1.877.703-.969.414-1.72-.81-2.102-1.581-.495-1.482-.649.582-.913 2.311-.296 2.288-.465-.334-2.407-1.552-1.148-3.546-2.283-4.43-2.52-.885-.237-1.473-.935-1.308-1.551.165-.616 3.213-.393 6.774.498l6.473 1.618-3.741-2.851c-4.056-3.089-4.292-5.512-.621-6.369 1.276-.298 8.064.613 15.074 2.024 7.01 1.412 12.86 2.177 12.98 1.699.13-.477-1.02-1.745-2.54-2.819-2.33-1.632-1.46-1.61 5.36.138 4.63 1.186 8.28 1.604 8.45.969.17-.616-.73-1.399-2-1.739-1.27-.34-1.88-1.02-1.36-1.512.52-.491 1.61-.411 2.42.178.82.589 1.61.598 1.76.02.16-.579-1.96-2.256-4.7-3.728-4.24-2.27-2.47-1.94 11.72 2.187l16.72 4.862-14.02-5.952c-24.54-10.416-24.11-10.201-20.67-10.301 2.8-.082 2.85-.146.6-.858-3.37-1.071-3.72-3.237-.48-3.003 1.48.107.61-.43-1.96-1.212-2.55-.772-4.67-1.946-4.71-2.608-.04-.662-5.77-3.171-12.72-5.574-12.384-4.279-12.539-4.37-7.545-4.477 3.253-.068 11.225 1.63 22.015 4.691 15.62 4.431 17.09 4.665 19.09 3.051 1.91-1.538 3.87-1.342 16.23 1.621 11.22 2.687 14.15 3.048 14.49 1.781.24-.874-.01-1.707-.55-1.85-1.57-.422-19.79-8.923-21.76-10.152-3.71-2.326-1.01-3.161 5.24-1.618 6.41 1.58 6.43 1.575 2.24-.53-2.32-1.171-8.25-3.276-13.16-4.678-8.74-2.499-20.24-7.213-16.77-6.878 3.3.32-7.84-4.325-15.55-6.478-6.71-1.877-7.928-2.596-9.54-5.647l-1.846-3.497 4.736 1.161 4.74 1.161-3.54-2.128c-1.945-1.17-4.524-2.132-5.732-2.14-1.207-.008-2.083-.433-1.946-.946.138-.513-.571-1.401-1.573-1.972-1.003-.57.478-.552 3.291.044l5.12 1.081-4.82-2.201c-15.741-7.191-132.562-40.134-170.88-48.187-10.946-2.3-25.032-5.544-31.304-7.209-8.048-2.135-11.68-2.657-12.346-1.777-.71.94-1.088.864-1.527-.311-.494-1.316-23.428-8.824-25.752-8.431-2.271.385-297.48-78.847-317.147-85.12a42204.63 42204.63 0 0 0-33.204-10.578c-5.175-1.643-20.648-6.282-34.382-10.304-13.736-4.024-29.973-8.994-36.082-11.044-17.665-5.929-43.048-12.85-43.965-11.986Zm568.996 151.704c.721.541 1.699.76 2.171.487.472-.272-.119-.713-1.313-.982-1.32-.296-1.657-.102-.858.495Zm-30.562-6.988c.722.541 1.7.759 2.172.487.471-.272-.119-.714-1.313-.982-1.32-.296-1.657-.102-.859.495Zm8.967 2.403c.721.54 1.699.759 2.171.487.472-.273-.119-.714-1.313-.982-1.32-.297-1.657-.102-.858.495Zm-360.45-94.153c1.316.638 3.584 1.246 5.043 1.351 1.459.104.383-.419-2.391-1.162-2.774-.743-3.968-.829-2.652-.189Zm225.794 65.244c-.841.104-2.359-.282-3.373-.859-1.015-.577-.326-.662 1.529-.188 1.855.473 2.685.944 1.844 1.047Zm287.453 76.96c-.472.273-1.45.054-2.172-.486-.798-.597-.461-.792.859-.496 1.194.269 1.784.71 1.313.982ZM821.96 254.1c.28.484-3.498-.132-8.397-1.369-4.9-1.239-21.837-5.441-37.64-9.34-15.803-3.898-71.616-18.163-124.028-31.696-52.413-13.534-98.138-25.002-101.612-25.482-6.382-.884-13.535-3.754-11.818-4.744.989-.569 11.654 2.065 71.247 17.604 22.745 5.93 37.445 9.317 37.62 8.666.157-.587.922-.605 1.701-.04 2.15 1.561 39.516 11.406 66.865 17.618 26.74 6.072 105.252 27.379 106.062 28.783Zm29.539 6.859c-1.021.59-20.259-4.461-20.842-5.472-.27-.465 4.471.484 10.532 2.108 6.062 1.624 10.701 3.137 10.31 3.364Zm4.336 1.285c-.472.273-1.45.054-2.171-.486-.799-.597-.462-.792.858-.496 1.194.269 1.785.71 1.313.982Zm-85.474-21.578c1.323.642 3.343 1.172 4.489 1.179 1.147.007.065-.518-2.404-1.167-2.469-.648-3.407-.653-2.085-.012Zm153.066 41.066c.161.538-6.677-.889-15.195-3.171-8.518-2.283-15.765-4.63-16.104-5.216-.339-.585 6.498.841 15.195 3.171s15.943 4.678 16.104 5.216Zm5.704 1.828c-3.413.496-4.275.265-3.923-1.051.165-.616 1.677-.713 3.362-.216 2.712.803 2.776.946.561 1.267Zm-204.958-54.098c.721.54 1.699.759 2.171.487.472-.272-.119-.714-1.313-.982-1.32-.296-1.657-.102-.858.495Zm6.662 1.836c1.947.788 4.974 1.594 6.727 1.79 1.754.195.16-.451-3.541-1.435-3.7-.985-5.133-1.145-3.186-.355ZM503.889 173.29c-.941.283-2.092.109-2.557-.385-.465-.493-.076-1.128.864-1.411.94-.282 2.091-.108 2.556.385.465.493.076 1.129-.863 1.411Zm20.533 4.491c-.129.483-3.875-.162-8.325-1.432-6.005-1.715-7.166-2.294-4.504-2.246 4.59.082 13.136 2.533 12.829 3.678Zm11.416 2.228c-.321 1.196-6.812 1.216-8.322.025-1.236-.974-.928-1.256 1.466-1.337 3.703-.127 7.069.518 6.856 1.312Zm-36.925-8.054c-.515.484-4.813-.166-9.552-1.445-4.738-1.281-7.926-2.54-7.084-2.799 2.33-.72 17.734 3.21 16.636 4.244Zm358.552 95.592c-.841.104-2.359-.283-3.373-.86-1.014-.576-.326-.661 1.529-.188 1.855.473 2.685.944 1.844 1.048Zm78.119 22.192c-1.458-.104-3.729-.713-5.044-1.351-1.314-.639-.122-.554 2.652.19 2.774.743 3.85 1.265 2.392 1.161ZM236.426 118.364c-.166.616-.523 1.061-.795.988-.272-.073-.671-.72-.887-1.439-.216-.718.142-1.162.795-.988.652.175 1.052.823.887 1.439Zm-41.483 32.933c.721.54 1.699.759 2.171.487.472-.273-.119-.714-1.313-.983-1.32-.296-1.657-.101-.858.496Zm791.705 232.455c-.472.272-1.45.053-2.171-.487-.799-.597-.462-.792.858-.495 1.194.268 1.785.71 1.313.982ZM198.32 175.397c-.165.616-.835.977-1.487.802-.653-.175-.741-.738-.195-1.253.547-.514 1.215-.875 1.488-.802.272.073.359.637.194 1.253Zm328.956 106.236c.684 2.273-.8 2.319-1.841.055-.6-1.301-.512-1.967.232-1.768.654.176 1.38.946 1.609 1.713Zm70.333 21.802c.776-.233 1.246-.971 1.044-1.639-.209-.699 2.484-.453 6.333.579 3.868 1.036 6.731 2.36 6.777 3.134.045.737 2.379 2.243 5.187 3.345 6.996 2.746 4.889 4.031-2.58 1.572-4.492-1.479-6.137-1.6-6.438-.475-.51 1.902-4.636.896-4.892-1.193-.109-.9-.455-.711-.821.451-.347 1.102-.978 1.636-1.4 1.187-.423-.448-1.873-.059-3.224.866-2.881 1.976-8.291.96-7.649-1.434.328-1.226-.584-1.713-3.819-2.042-3.335-.338-4.041-.737-3.278-1.853.535-.784 1.675-1.181 2.532-.884.858.297 2.447-.013 3.531-.688 1.712-1.068 1.446-1.262-2.039-1.479-2.204-.138-4.912-.242-6.015-.23-1.104.013-2.174-.535-2.379-1.214-.204-.68 2.272-.904 5.504-.497 3.232.406 6.655.243 7.607-.364 1.419-.905 1.99-.709 3.17 1.088.792 1.206 2.074 2.003 2.849 1.77Zm158.426 41.078c-.247.92-7.225-.454-7.534-1.483-.18-.598 1.468-.607 3.661-.019 2.194.588 3.937 1.264 3.873 1.502Zm-206.466-48.092c-1.635 2.25-2.71.619-1.551-2.356 1.442-3.699 1.477-3.723 2.115-1.388.324 1.185.07 2.87-.564 3.744Zm80.558 17.08c-.841.104-2.359-.283-3.373-.859-1.014-.577-.326-.662 1.529-.189 1.855.474 2.685.945 1.844 1.048Zm37.687 10.573c-7.53-.648-33.073-7.537-34.729-9.367-.922-1.019 5.581.376 19.311 4.142 14.159 3.885 19.032 5.535 15.418 5.225Zm23.357 5.856c-1.765-.198-4.537-.941-6.164-1.652-1.628-.711-.184-.549 3.207.36 3.39.908 4.721 1.49 2.957 1.292Zm10.664 2.792c-.854.105-2.115-.232-2.802-.751-.687-.516.011-.602 1.552-.189 1.541.413 2.104.837 1.25.94Zm11.207 3.003c-.853.106-2.114-.232-2.802-.75-.686-.517.012-.603 1.553-.19s2.104.837 1.249.94ZM521.98 285.524c-.437 1.631-5.531 3.928-7.477 3.373-2.176-.621-2.142-.702.874-2.096l3.136-1.45-4.689-1.719c-4.119-1.509-3.899-1.532 1.806-.187 3.574.842 6.431 1.777 6.35 2.079Zm5.266 1.549c-.472.272-1.45.053-2.171-.487-.799-.597-.462-.792.858-.496 1.194.269 1.785.71 1.313.983Zm68.553 18.844c-.165.616.234 1.263.886 1.438.653.175 1.011-.27.795-.988-.216-.718-.614-1.365-.887-1.438-.272-.073-.629.372-.794.988ZM946.42 399.39c-.472.272-1.45.053-2.171-.487-.799-.597-.462-.791.858-.495 1.194.268 1.785.71 1.313.982Zm8.412 2.324c-.854.105-2.114-.233-2.802-.751-.687-.517.011-.602 1.552-.19 1.541.413 2.104.837 1.25.941ZM473.148 273.778c-.472.272-1.45.053-2.171-.487-.799-.597-.462-.791.858-.495 1.194.268 1.785.71 1.313.982Zm31.254 9.076c-.441.666-1.529 1.254-2.42 1.307-.911.055-1.16-.335-.569-.892.59-.555-.005-1.501-1.357-2.156-1.715-.832-1.32-.924 1.369-.32 2.464.553 3.499 1.27 2.977 2.061Zm35.317 10.438c-.752 1.176-.802 2.187-.115 2.371.658.176 1.084.74.946 1.253-.39 1.456-4.76-.461-5.324-2.335-.39-1.297-1.124-1.53-3.255-1.032-1.514.353-3.208.16-3.765-.431-1.122-1.192 7.485-3.055 10.764-2.331 1.559.344 1.742.954.749 2.505Zm212.129 55.639c.216.718-.142 1.163-.794.988-.653-.175-1.052-.822-.887-1.439.165-.616.522-1.061.794-.988.273.073.671.721.887 1.439Zm10.815 2.227c-.072.272-.72.67-1.438.886-.719.215-1.163-.143-.989-.795.175-.652.823-1.051 1.439-.886.616.165 1.061.522.988.795Zm163.872 44.167c-.841.104-2.359-.283-3.373-.86-1.015-.576-.326-.661 1.529-.188 1.855.473 2.685.944 1.844 1.048Zm6.135 1.581c-.471.273-1.45.054-2.171-.486-.799-.597-.462-.792.858-.496 1.195.269 1.785.71 1.313.982ZM489.284 279.778c.216.718-.142 1.162-.794.988-.653-.175-1.052-.823-.887-1.439.165-.616.522-1.061.794-.988.273.073.671.72.887 1.439Zm132.628 35.062c-.471.272-1.449.053-2.171-.487-.798-.597-.462-.791.859-.495 1.194.268 1.784.71 1.312.982Zm5.604 1.501c-.471.273-1.45.054-2.171-.486-.798-.597-.462-.792.858-.496 1.195.269 1.785.71 1.313.982Zm10.122 3.788c-.248.925.054 1.816.671 1.981.616.165 1.288-.329 1.493-1.1.277-1.041 2.809-.648 9.82 1.519 5.713 1.766 9.068 3.277 8.487 3.824-.528.496-1.774.382-2.77-.254-.994-.637-3.477-.786-5.515-.333-3.281.73-3.696.621-3.62-.947.096-1.98-4.67-3.712-6.214-2.258-1.077 1.014-5.785.098-6.581-1.281-.8-1.382 1.428-3.702 3.118-3.249.859.23 1.359 1.174 1.111 2.098Zm103.112 27.629c-1.562 1.107-1.385 1.43 1.161 2.112 1.718.461 2.579 1.205 2.012 1.74-.546.514-2.056.65-3.356.302-1.299-.348-2.098-.176-1.776.383.324.558 4.712 1.954 9.751 3.102 8.187 1.865 9.034 2.267 7.941 3.772-.805 1.108-.697 1.636.315 1.546.847-.077 1.566-.739 1.597-1.474.032-.735 1.349-.99 2.926-.567 1.626.435 2.439 1.173 1.875 1.703-.546.514-.458 1.078.194 1.253.653.175 1.322-.186 1.487-.803.5-1.864 4.528-.131 4.758 2.047.116 1.117-.001 2.154-.262 2.305-.261.15-5.482-.921-11.602-2.381-8.124-1.938-11.153-3.065-11.22-4.179-.052-.839-1.09-1.793-2.307-2.12-1.218-.326-2.038-.005-1.822.713.229.762-1.036.923-3.036.387-1.885-.505-3.294-1.423-3.129-2.039.166-.616-1.566-1.62-3.846-2.231-4.534-1.215-3.474-2.851 1.434-2.216 2.183.283 3.195-.365 4.082-2.61.724-1.831 1.856-2.805 2.925-2.519 1.424.382 1.405.708-.102 1.774Zm111.277 30.785c1.146.651-.298.491-3.209-.355s-5.174-1.983-5.029-2.525c.146-.544 1.245-.36 2.443.407 1.667 1.065 2.06.978 1.671-.372-.399-1.388-.236-1.4.765-.053.7.942 2.212 2.246 3.359 2.898ZM712.02 340.661c-.546.514-1.467.807-2.047.652-.581-.156-.92-.787-.755-1.403.165-.616 1.087-.91 2.048-.652.96.257 1.3.888.754 1.403Zm-119.664-30.864c1.797 1.987 2.987 2.305 3.363.901.165-.616-.837-1.416-2.226-1.779-2.043-.532-2.261-.364-1.137.878Zm105.224 28.716c-.244.91.86 2.135 2.546 2.826 2.388.978 2.034 1.08-1.79.518-4.346-.64-4.707-.926-4.088-3.239.377-1.406 1.367-2.353 2.221-2.124.848.227 1.348 1.135 1.111 2.019Zm34.919 8.657c-.15.562-2.309.507-4.796-.122-2.488-.631-4.197-1.452-3.8-1.826 1.079-1.015 8.915.76 8.596 1.948ZM383.03 254.909c.216.719-.395 1.095-1.355.838-.961-.257-1.612-.972-1.447-1.588.165-.617.774-.994 1.355-.838.58.155 1.231.87 1.447 1.588Zm222.458 59.679c-.175.652-.786.69-1.358.082-.571-.606-1.666-.526-2.431.179-1.102 1.013-1.287.87-.885-.684.317-1.222 1.356-1.738 2.75-1.364 1.233.33 2.099 1.135 1.924 1.787Zm15.784 3.858c-.124.461-1.438.515-2.921.118-1.482-.397-2.359-1.038-1.949-1.423.408-.385 1.722-.439 2.919-.118 1.197.32 2.074.961 1.951 1.423Zm213.434 57.49c-.546.514-2.088.602-3.427.198-2.347-.71-2.345-.749.065-1.099 3.44-.499 4.537-.205 3.362.901Zm82.378 22.073c-.165.616.833 1.432 2.217 1.813 1.384.381 3.143 1.384 3.907 2.229 1.025 1.134.05 1.244-3.716.421-2.809-.613-6.926-1.388-9.148-1.723-2.223-.334-21.482-5.122-42.797-10.64-21.315-5.518-35.628-9.598-31.806-9.068l12.739 1.771c12.237 1.702 26.702 5.168 27.1 6.49a1.4 1.4 0 0 0 1.741.932c.737-.221 2.35.544 3.585 1.701 1.233 1.157 3.258 1.983 4.499 1.835 1.24-.148 5.903.614 10.361 1.693 4.459 1.079 8.524 1.721 9.035 1.426.51-.295 2.574.204 4.585 1.108 2.909 1.308 3.757 1.271 4.146-.182.27-1.005 1.247-1.625 2.171-1.377.925.248 1.546.955 1.381 1.571Zm32.895 9.114c.222 1.26.485 1.331 1.307.35 1.107-1.317 10.592.711 11.092 2.372.161.538-1.88.207-4.536-.736-3.018-1.072-4.956-1.253-5.163-.483-.5 1.869-5.666.064-5.889-2.057-.237-2.254 2.786-1.729 3.189.554Zm-260.154-68.807c-.546.514-2.341.535-3.988.048-2.674-.792-2.727-.927-.495-1.25 3.472-.503 5.668.086 4.483 1.202Zm105.354 28.229c-.546.514.046 1.213 1.315 1.553 1.268.34 2.442.114 2.607-.502.355-1.323 2.447-.442 3.869 1.63 1.306 1.9-5.133 2.911-8.032 1.262-1.119-.638-2.522-.703-3.115-.143-.594.558-1.836.813-2.761.565-.924-.248-1.199-.904-.611-1.457.74-.697-.581-1.194-4.301-1.617-3.258-.37-5.256-1.039-5.078-1.701.16-.599 3.263-.614 6.896-.031 3.632.583 6.922.578 7.31-.011.388-.587 1.199-.937 1.8-.776.601.161.647.714.101 1.228Zm32.067 8.499c-1.014.318-3.28-.009-5.033-.724-2.455-1.003-3.456-.831-4.354.746-.642 1.126-1.597 1.932-2.121 1.791-1.211-.324 1.07-3.623 2.966-4.291.782-.275 3.44.041 5.906.702 3.059.819 3.897 1.384 2.636 1.776ZM432.339 270.383c-.357 1.334-4.976 1.239-5.382-.111-.177-.59.38-1.157 1.238-1.262 2.544-.311 4.428.314 4.144 1.373Zm14.535 4.035c-.165.616-.774.993-1.354.838-.581-.156-1.232-.87-1.448-1.589-.215-.718.395-1.095 1.355-.838.961.258 1.613.973 1.447 1.589Zm20.207 5.284c-.454 1.694-8.734-.139-11.309-2.503-2.256-2.07-1.918-2.097 4.57-.366 3.854 1.029 6.886 2.32 6.739 2.869Zm3.331 1.353c-.498 1.303-1.965.631-2.06-.942-.048-.805.464-1.101 1.137-.656.674.445 1.089 1.164.923 1.598Zm8.979 6.189c-.11.581-.874-.164-1.699-1.657-1.017-1.839-1.033-2.864-.049-3.18 1.317-.426 2.252 2.16 1.748 4.837Zm10.66-1.729c2.046 1.486 1.58 3.297-.693 2.688-.96-.257-1.582.084-1.378.758.203.675-.628.879-1.846.452-2.278-.798-1.909-3.619.599-4.597 1.643-.641 1.403-.692 3.318.699Zm439.882 118.338c-.165.616-1.181.876-2.257.578-1.673-.464-1.67-.636.016-1.178 2.481-.801 2.607-.767 2.241.6ZM500.809 290.739c-3.182.408-3.405.629-1.635 1.619 1.655.928 1.502 1.027-.799.523-1.643-.359-3.157-1.638-3.581-3.021-.671-2.197-.295-2.28 4.483-.995 5.167 1.389 5.181 1.406 1.532 1.874Zm15.06 5.42c-.181 2.483-.528 2.714-2.425 1.617-1.217-.703-4.224-1.841-6.682-2.529-3.618-1.011-4.032-1.369-2.176-1.873 1.262-.343 2.135-1.154 1.94-1.803-.195-.648 1.875-.532 4.6.256 4.342 1.257 4.929 1.793 4.743 4.332Zm32.977 8.66c.739 1.903 1.331 2.232 2.652 1.47 2.365-1.365 4.703-.535 4.163 1.481-.351 1.31-1.869 1.28-6.871-.135-3.532-.998-5.722-1.9-4.869-2.004 3.652-.447 1.651-2.365-4.061-3.896-6.668-1.787-8.947-.453-3.206 1.875 2.19.887 1.092.849-2.904-.102-3.607-.858-6.614-2.153-6.854-2.95-.307-1.022-.859-1.17-1.971-.528-.85.491-2.301.689-3.226.441-1.243-.333-1.265-.691-.087-1.37.877-.506 1.51-1.722 1.407-2.704-.159-1.507 1.75-1.183 12.345 2.094 10.516 3.253 12.686 4.27 13.482 6.328Zm25.117 6.354c-.326 1.254-7.87-1.019-8.318-2.506-.232-.772 1.385-.697 4.077.192 2.453.81 4.361 1.852 4.241 2.314Zm40.447 10.467c-.156.58-.869 1.229-1.585 1.445-2.28.683-32.406-7.983-34.577-9.947-1.105-.999 13.088 1.567 24.347 4.402 6.938 1.747 11.977 3.495 11.815 4.1Zm48.976 13.819c.865 1.498-1.362 1.33-11.968-.903-10.876-2.289-21.841-6.757-21.324-8.688.264-.985 32.558 8.32 33.292 9.591Zm39.819 11.202c-7.403-1.292-12.712-3.224-10.611-3.862.711-.216 4.939.835 9.395 2.335l8.102 2.728-6.886-1.201Zm19.903 4.175c-.165.616-.522 1.061-.794.988-.273-.073-.671-.72-.887-1.438-.216-.719.142-1.163.794-.988.653.175 1.052.822.887 1.438Zm25.218 6.757c-.546.514-.206 1.146.754 1.403.961.258 1.883-.036 2.048-.652.165-.616-.174-1.247-.755-1.403-.58-.155-1.501.138-2.047.652Zm232.449 61.904c.721.54 1.699.759 2.171.487.471-.272-.119-.714-1.313-.982-1.32-.296-1.657-.102-.858.495Zm-262.917-68.98c-.495.466-1.838.314-2.983-.339-2.869-1.632-2.42-2.196 1.014-1.276 1.577.422 2.463 1.15 1.969 1.615Zm58.009 15.251c-.854.105-2.115-.233-2.802-.751-.687-.517.011-.602 1.552-.189 1.541.413 2.104.836 1.25.94Zm51.556 13.814c-.854.105-2.115-.233-2.802-.751-.687-.516.011-.602 1.552-.189 1.541.413 2.104.836 1.25.94Zm143.559 43.676c.216.718.614 1.365.887 1.438.272.073.629-.372.794-.988.165-.616-.234-1.263-.886-1.438-.653-.175-1.011.269-.795.988Zm29.588 7.547c.72.54 1.7.759 2.17.487.47-.273-.12-.714-1.31-.983-1.32-.296-1.66-.101-.86.496ZM538.602 322.111c-.123.462-10.412-1.99-22.863-5.449-15.673-4.354-19.656-5.699-12.944-4.369 13.928 2.76 36.069 8.831 35.807 9.818Zm11.1 3.415c-.063.235-2.494-.272-5.404-1.129-4.547-1.341-4.788-1.541-1.721-1.422 3.333.128 7.385 1.58 7.125 2.551Zm-58.014-15.491c-.854.106-2.115-.232-2.802-.75-.687-.517.011-.603 1.552-.19 1.541.413 2.104.837 1.25.94Zm-102.075-24.79c.64.719-4.078-.067-10.623-1.769-6.477-1.683-11.484-3.335-11.128-3.67.974-.916 20.423 3.948 21.751 5.439Zm512.006 138.259c.722.54 1.7.759 2.172.487.471-.273-.119-.714-1.313-.983-1.321-.296-1.657-.101-.859.496Zm-82.188-20.916c-.471.272-1.449.053-2.171-.487-.798-.597-.462-.792.858-.496 1.195.269 1.785.71 1.313.983Zm-390.154-101.97c6.54 1.964 17.635 4.938 24.657 6.608 7.022 1.67 1.671.064-11.89-3.571-13.562-3.635-19.306-5.002-12.767-3.037Zm100.307 27.444c.437.757 1.785 1.43 2.994 1.494 1.629.087 1.422-.271-.796-1.377-1.934-.966-2.712-1.006-2.198-.117Zm347.598 92.496c.722.541 1.7.759 2.171.487.472-.272-.118-.714-1.312-.982-1.321-.296-1.657-.102-.859.495ZM538.34 330.995c1.323.642 3.343 1.172 4.489 1.179 1.147.007.065-.518-2.404-1.166-2.469-.649-3.407-.654-2.085-.013Zm15.691 4.205c1.323.641 3.343 1.172 4.489 1.179 1.147.007.065-.519-2.404-1.167s-3.407-.654-2.085-.012Zm34.746 9.332c1.947.788 4.975 1.594 6.728 1.79 1.753.195.159-.451-3.541-1.435-3.7-.985-5.134-1.145-3.187-.355Zm16.249 4.345c1.635.713 4.158 1.382 5.608 1.486 1.45.104.112-.48-2.972-1.298-3.085-.817-4.271-.902-2.636-.188Zm146.816 39.304c1.003.572 2.769 1.045 3.923 1.052 1.153.007.333-.46-1.824-1.038-2.158-.578-3.102-.584-2.099-.014Zm18.501 4.925c.688.518 1.949.856 2.802.751.854-.104.291-.527-1.25-.94-1.541-.413-2.239-.327-1.552.189Z" fill="#D8F8F9"/><path fill-rule="evenodd" clip-rule="evenodd" d="M839.192 320.523c-11.265-2.435-21.161-4.401-21.992-4.367-.83.033 3.717 1.883 10.106 4.11 11.584 4.039 11.565 4.037-6.623-.376-10.032-2.434-24.96-5.698-33.173-7.253-10.332-1.956-5.213-.437 16.611 4.93 49.877 12.267 101.054 25.009 107.597 26.787 3.652.994 5.811.996 5.514.008-.321-1.067 12.005 1.723 35.925 8.132 25.849 6.926 36.024 10.123 35.073 11.02-.845.795-.09 1.47 2.039 1.819 1.86.304 4.223 1.178 5.251 1.942 1.029.762 11.1 4.579 22.38 8.48 11.29 3.902 22.72 8.277 25.42 9.724 2.69 1.445 5.03 2.109 5.2 1.474.43-1.583-3.02-3.493-23.41-12.99-2.56-1.19-7.3-3.569-10.54-5.285-6.98-3.698-144.794-41.538-175.378-48.155ZM414.266 208.238c-6.761-.98-6.59-.867 2.857 1.885 9.949 2.898 13.131 3.119 7.335.508-1.651-.744-6.237-1.82-10.192-2.393Zm-15.52-3.424c-1.598-.173-8.502-1.382-15.344-2.688-6.84-1.305-12.562-1.913-12.714-1.347-.151.565 1.83 1.324 4.405 1.687 3.588.506 4.1.871 2.194 1.571-1.889.691-.971 1.28 3.827 2.447 5.757 1.402 5.969 1.346 2.415-.646l-3.898-2.185 5.157 1.205c2.835.662 5.214 1.82 5.288 2.573.074.777 5.361 2.286 12.261 3.499 13.083 2.301 13.005 1.705-.244-1.876-4.598-1.244-6.71-2.148-4.692-2.009 3.465.239 8.68-1.387 5.625-1.755a477.06 477.06 0 0 0-4.28-.476Zm480.65 129.02c-4.834-1.004-12.99-3.188-18.126-4.852-5.137-1.664-1.182-.843 8.787 1.827 9.97 2.668 14.171 4.03 9.339 3.025Zm19.489 5.107c-1.062.131-2.63-.29-3.485-.934-.855-.643.013-.749 1.93-.235 1.917.513 2.618 1.04 1.555 1.169Zm105.585 29.785c-1.06.131-2.63-.289-3.48-.934-.86-.642.01-.749 1.93-.235 1.91.513 2.61 1.04 1.55 1.169Zm9.79 2.614c-1.05.129-2.94-.352-4.2-1.069-1.26-.718-.4-.823 1.9-.234 2.31.588 3.34 1.174 2.3 1.303ZM417.13 212.883c1.247.71 3.445 1.299 4.88 1.307 1.435.01.415-.571-2.269-1.29-2.684-.719-3.858-.726-2.611-.017Zm13.255 3.511c.856.645 2.424 1.065 3.486.934 1.062-.129.362-.656-1.555-1.169-1.917-.514-2.785-.407-1.931.235Zm-267.527-69.216c-.576.542-8.002-1.016-16.503-3.463-15.426-4.437-43.128-9.661-48.18-9.085-1.692.193-2.906 1.618-3.318 3.893-.701 3.872-.522 4.065 6.969 7.467 6.131 2.786 6.044 5.179-.117 3.225-4.101-1.3-4.528-1.089-5.101 2.521-.548 3.45-1.11 3.814-4.518 2.92-4.883-1.279-6.933-.5-8.328 3.165-.906 2.385-.18 3.293 4.198 5.249 7.085 3.167 6.168 4.987-1.9 3.771-6.372-.961-15.41 1.998-14.575 4.773.207.69-1.618 1.164-4.055 1.053-3.831-.175-4.235.138-2.98 2.31.798 1.382 2.278 2.745 3.289 3.028 1.384.389 1.249.698-.55 1.258-1.67.521-.179 1.472 4.99 3.181 7.284 2.409 7.36 2.491 6.285 7.001-.596 2.511-1.556 4.438-2.13 4.284-.575-.154-1.383.974-1.793 2.507-.554 2.065-1.753 2.57-4.632 1.949-3.386-.729-3.499-.65-.875.622 3.834 1.858 10.17 7.62 7.65 6.957-1.064-.281-1.792.46-1.663 1.695.343 3.26-2.844 4.114-12.472 3.345-8.614-.689-12.53-.227-8.108.958 1.278.343 2.072 1.564 1.764 2.713-.436 1.627-2.419 1.593-8.925-.151-9.02-2.417-12.54-.506-3.935 2.137 3.205.984 3.921 1.5 1.878 1.354-1.815-.13-3.443.304-3.62.966-.178.662-1.695 1.265-3.371 1.342-1.676.075-2.85.79-2.612 1.584.24.796-1.786 1.489-4.5 1.54-4.264.08-3.519.497 5.477 3.062 10.69 3.05 10.696 4.624.013 3.725-4.735-.4-5.41-.085-4.421 2.064.938 2.041 1.495 2.245 2.846 1.048 1.306-1.158 1.982-.752 3.038 1.819 1.246 3.03 1.063 3.35-2.175 3.827-3.024.444-2.456.925 3.931 3.338 6.698 2.53 7.113 2.911 4.046 3.722-1.879.498-6.273.587-9.766.198-10.855-1.209-11.9.291-2.124 3.047l9.031 2.544-13.044 1.28-13.045 1.28 6.785 2.565 6.784 2.564-8.72-.315c-6.093-.22-8.234.212-7.108 1.434.886.962 2.852 2.138 4.368 2.614 2.737.861 2.734.869-.297 1.206-2.214.244-.659 1.333 5.663 3.963 7.896 3.284 8.178 3.532 3.004 2.631-3.141-.548-6.463-.568-7.384-.049-1.037.586 4.647 2.684 14.958 5.52 12.845 3.533 15.673 4.659 12.423 4.946-2.44.217-4.49 1.416-4.874 2.854-.54 2.012-3.235 2.324-14.244 1.644-7.468-.46-12.457-.293-11.088.371 1.991.967 2.033 1.35.212 1.918-1.673.522-1.356.967 1.2 1.686 1.91.538 4.24 1.809 5.178 2.825 1.895 2.052 1.208 2.246-6.646 1.873-2.143-.102-4.474.611-5.182 1.587-1.079 1.482 1.272 2.345 14.477 5.307 11.65 2.614 15.111 3.789 13.263 4.504-2.11.816-2.054 1.05.346 1.494 4.76.875 5.661 1.594 3.078 2.455-1.673.559.3 1.219 6.171 2.066 10.747 1.549 10.219 1.392 33.22 9.862 14.097 5.19 35.221 11.08 81.339 22.683 38.281 9.63 73.969 19.408 92.575 25.361 61.32 19.626 67.443 21.491 66.8 20.336-.359-.648-7.057-3.258-14.883-5.8-7.825-2.54-14.674-5.341-15.219-6.219-1.359-2.19 118.657 30.11 160.529 43.204 24.018 7.511 206.939 58.629 270.776 75.67 14.242 3.801 76.816 18.68 79.792 18.972 2.457.24 3.594.854 2.86 1.545-.669.63-.589 1.313.178 1.519.766.205 1.949-.15 2.629-.79 1.619-1.524 6.758-.125 6.267 1.707-.422 1.576 32.488 10.494 56.943 15.432 11.197 2.261 14.755 3.431 14.91 4.902.112 1.064 1.114 2.177 2.228 2.476 1.114.298 1.805-.189 1.536-1.082-.269-.894.675-1.428 2.098-1.187 1.422.24 3.564.55 4.76.687 1.196.138 5.646 1.099 9.888 2.135 4.7 1.149 7.121 1.241 6.195.237-1.501-1.632 8.674-.049 37.027 5.761 14.254 2.922 21.215 2.334 10.625-.894-3.38-1.032-6.736-2.189-7.455-2.573-.719-.384-7.225-2.453-14.458-4.597l-13.15-3.902 9.352 1.344c5.144.739 15.574 2.801 23.176 4.582 7.603 1.78 14.253 2.833 14.778 2.339.525-.494 2.21-.562 3.743-.151 1.534.411 2.597.111 2.365-.666-.236-.785-3.21-1.61-6.689-1.857-7.021-.498-13.47-1.878-12.2-2.61 1.702-.984 31.92 1.78 33.714 3.083 1.049.76 2.48.5 3.277-.597 1.004-1.381 3.57-1.44 8.84-.2l7.42 1.745-7.45-2.877c-5.854-2.264-6.595-2.84-3.47-2.703 2.19.095 6.87 1.448 10.41 3.004 3.53 1.556 6.6 2.741 6.81 2.633.22-.109-.22-1.891-.98-3.962-.9-2.493-1.96-3.421-3.12-2.75-1.17.672-3.11.128-5.75-1.617-7.09-4.681-5.71-4.935 6.34-1.161 8.41 2.631 11.67 3.181 11.28 1.903-.33-1.109.72-1.517 2.72-1.063 2.89.656-10.06-5.798-20.69-10.306-2.21-.94.71-.552 6.49.864 5.79 1.414 11.63 2.215 12.98 1.78 2.03-.655 1.98-.925-.33-1.58-1.53-.435-3.54-1.705-4.47-2.822-1.24-1.486.02-1.319 4.68.623 8.35 3.47 10.5 2.743 7.65-2.575-1.27-2.354-1.49-3.977-.53-3.717.95.253 1.5-.27 1.24-1.164-.27-.893-3.12-2.339-6.33-3.211-3.21-.874-6.6-2.494-7.54-3.602-1.22-1.448.28-1.209 5.37.858 7.21 2.919 10.52 1.818 4.93-1.636-2.82-1.737-2.81-1.795.26-2.372 2.49-.467 2.09-.743-1.93-1.324-5.79-.837-10.88-5.421-6.52-5.878 1.36-.142 3.6.043 4.98.412 1.37.369 3.53-.061 4.8-.955 1.8-1.276 1.92-1.724.58-2.085-.95-.255-1.11-1.294-.35-2.334.87-1.206.51-2.14-1.01-2.615-1.97-.615-1.84-.808.72-1.136 2.88-.367 2.85-.578-.41-2.994-1.93-1.428-4.41-2.84-5.51-3.134-1.1-.295-1.84-1.164-1.63-1.93.21-.767 4-.489 8.43.619l8.05 2.013-4.65-3.546c-5.05-3.843-5.34-6.857-.78-7.923 1.59-.371 10.03.762 18.75 2.518 8.73 1.756 16 2.707 16.16 2.114.15-.594-1.27-2.171-3.17-3.507-2.9-2.03-1.81-2.003 6.67.172 5.76 1.474 10.3 1.995 10.52 1.205.2-.767-.92-1.74-2.5-2.163-1.58-.423-2.34-1.269-1.69-1.881.65-.612 2.01-.512 3.02.222 1.01.732 1.99.743 2.18.024.2-.721-2.44-2.807-5.85-4.637-5.27-2.825-3.07-2.414 14.59 2.72l20.79 6.048-17.44-7.404c-30.52-12.957-29.99-12.689-25.71-12.813 3.49-.102 3.54-.183.75-1.068-4.2-1.333-4.63-4.026-.6-3.735 1.84.132.76-.535-2.44-1.508-3.17-.96-5.8-2.42-5.86-3.244-.05-.824-7.17-3.945-15.82-6.934-15.41-5.323-15.6-5.437-9.39-5.569 4.05-.086 13.97 2.028 27.39 5.835 19.43 5.512 21.25 5.802 23.74 3.795 2.38-1.913 4.82-1.67 20.2 2.016 13.95 3.343 17.6 3.792 18.02 2.216.29-1.088-.01-2.123-.68-2.301-1.96-.526-24.63-11.1-27.07-12.628-4.62-2.894-1.26-3.932 6.52-2.014 7.97 1.966 8 1.959 2.79-.659-2.9-1.456-10.27-4.075-16.38-5.819-10.87-3.109-25.18-8.973-20.86-8.556 4.11.398-9.76-5.379-19.34-8.058-8.35-2.335-9.87-3.229-11.87-7.025l-2.3-4.35 5.9 1.445 5.89 1.444-4.4-2.647c-2.42-1.455-5.63-2.653-7.13-2.662-1.51-.01-2.59-.539-2.42-1.178.17-.638-.71-1.742-1.96-2.452s.59-.687 4.09.054l6.37 1.345-5.99-2.737c-19.58-8.945-164.903-49.925-212.569-59.943-13.616-2.861-31.139-6.896-38.94-8.967-10.012-2.656-14.529-3.306-15.358-2.211-.884 1.169-1.353 1.075-1.9-.386-.615-1.638-29.143-10.977-32.034-10.488-2.825.478-370.049-98.082-394.514-105.885a51963.057 51963.057 0 0 0-41.303-13.158c-6.438-2.045-25.685-7.814-42.77-12.818-17.087-5.006-37.284-11.188-44.884-13.738-21.974-7.376-53.549-15.984-54.69-14.91Zm707.8 188.712c.897.672 2.114.944 2.701.606.587-.339-.148-.888-1.633-1.222-1.643-.368-2.062-.127-1.068.616Zm-38.017-8.693c.897.672 2.114.944 2.701.606.587-.339-.148-.888-1.633-1.222-1.642-.368-2.061-.127-1.068.616Zm11.154 2.989c.897.672 2.114.944 2.701.605.586-.338-.148-.888-1.634-1.221-1.642-.369-2.061-.127-1.067.616ZM395.414 213.064c1.638.795 4.459 1.551 6.274 1.681 1.816.13.476-.52-2.975-1.445-3.45-.925-4.935-1.031-3.299-.236Zm280.877 81.161c-1.047.129-2.935-.352-4.197-1.069-1.261-.718-.405-.823 1.902-.234 2.308.588 3.341 1.174 2.295 1.303Zm357.579 95.734c-.59.339-1.81.067-2.71-.605-.99-.743-.57-.985 1.07-.617 1.49.334 2.22.884 1.64 1.222Zm-208.425-53.193c.348.603-4.352-.164-10.446-1.703-6.095-1.54-27.164-6.767-46.822-11.618-19.658-4.849-89.086-22.593-154.284-39.428-65.2-16.836-122.079-31.101-126.4-31.699-7.939-1.099-16.837-4.67-14.701-5.9 1.23-.709 14.497 2.568 88.627 21.898 28.294 7.377 46.58 11.59 46.797 10.78.196-.73 1.148-.753 2.116-.05 2.675 1.941 49.156 14.189 83.178 21.915 33.262 7.554 130.926 34.059 131.935 35.805Zm36.745 8.533c-1.271.733-25.202-5.549-25.927-6.807-.335-.578 5.562.602 13.102 2.622 7.539 2.02 13.311 3.903 12.825 4.185Zm5.393 1.599c-.587.338-1.804.066-2.701-.606-.993-.743-.574-.984 1.068-.616 1.485.334 2.22.883 1.633 1.222Zm-106.325-26.842c1.645.797 4.158 1.457 5.584 1.466 1.427.009.08-.645-2.991-1.451-3.071-.807-4.238-.813-2.593-.015Zm190.406 51.083c.2.669-8.306-1.105-18.902-3.945-10.596-2.839-19.61-5.759-20.032-6.487-.422-.729 8.083 1.045 18.901 3.944 10.819 2.899 19.833 5.819 20.033 6.488Zm7.095 2.274c-4.246.616-5.318.329-4.879-1.307.205-.767 2.086-.887 4.181-.269 3.374.998 3.453 1.177.698 1.576Zm-254.956-67.295c.897.672 2.114.945 2.7.606.587-.339-.147-.888-1.633-1.222-1.642-.368-2.061-.126-1.067.616Zm8.286 2.283c2.423.981 6.189 1.984 8.369 2.228 2.181.242.198-.561-4.405-1.785-4.602-1.226-6.386-1.425-3.964-.443Zm-282.308-72.158c-1.17.352-2.602.135-3.18-.478-.578-.614-.094-1.404 1.074-1.756 1.17-.351 2.602-.135 3.18.479.579.613.095 1.404-1.074 1.755Zm25.543 5.587c-.161.601-4.821-.201-10.357-1.782-7.469-2.133-8.914-2.853-5.602-2.793 5.709.102 16.34 3.151 15.959 4.575Zm14.2 2.771c-.399 1.489-8.473 1.513-10.352.032-1.537-1.213-1.155-1.563 1.824-1.664 4.606-.158 8.793.644 8.528 1.632Zm-45.932-10.019c-.641.602-5.988-.206-11.882-1.798-5.895-1.592-9.861-3.158-8.813-3.481 2.899-.895 22.06 3.993 20.695 5.279Zm446.019 118.912c-1.046.129-2.935-.352-4.196-1.07-1.262-.717-.406-.822 1.902-.234 2.308.589 3.34 1.175 2.294 1.304Zm97.175 27.606c-1.813-.13-4.638-.887-6.274-1.681-1.635-.795-.151-.689 3.299.236 3.451.924 4.789 1.574 2.975 1.445ZM97.072 167.918c-.206.766-.65 1.32-.989 1.229-.338-.091-.834-.896-1.103-1.789-.268-.894.177-1.447.989-1.229.81.217 1.308 1.022 1.103 1.789Zm-51.603 40.967c.897.672 2.114.944 2.7.605.588-.338-.147-.888-1.632-1.221-1.642-.369-2.061-.127-1.068.616Zm984.841 289.161c-.59.339-1.81.067-2.7-.606-1-.742-.58-.984 1.06-.616 1.49.334 2.22.883 1.64 1.222ZM49.67 238.864c-.206.767-1.038 1.216-1.85.998-.811-.217-.92-.919-.241-1.558.679-.64 1.51-1.089 1.85-.998.338.09.446.792.24 1.558Zm409.204 132.152c.85 2.828-.996 2.885-2.291.068-.745-1.618-.637-2.447.289-2.199.814.219 1.717 1.177 2.002 2.131Zm87.49 27.12c.965-.29 1.55-1.207 1.299-2.039-.26-.869 3.09-.563 7.878.72 4.811 1.289 8.373 2.937 8.43 3.899.056.918 2.959 2.79 6.453 4.161 8.701 3.416 6.081 5.014-3.21 1.956-5.589-1.84-7.634-1.991-8.009-.591-.634 2.366-5.767 1.115-6.085-1.484-.136-1.12-.566-.884-1.021.561-.432 1.37-1.217 2.035-1.742 1.476-.526-.557-2.33-.073-4.01 1.078-3.584 2.458-10.314 1.194-9.516-1.785.409-1.524-.726-2.13-4.749-2.539-4.15-.42-5.028-.917-4.079-2.306.666-.974 2.083-1.468 3.15-1.099 1.068.37 3.044-.016 4.392-.856 2.13-1.328 1.799-1.569-2.535-1.84-2.743-.172-6.111-.3-7.484-.286-1.373.016-2.704-.665-2.959-1.51-.254-.846 2.827-1.124 6.847-.618 4.02.505 8.278.302 9.462-.453 1.766-1.125 2.476-.881 3.944 1.354.985 1.5 2.58 2.491 3.544 2.201Zm197.073 51.1c-.306 1.144-8.988-.565-9.372-1.845-.224-.744 1.826-.755 4.555-.024 2.728.731 4.897 1.572 4.817 1.869Zm-256.833-59.825c-2.033 2.8-3.371.77-1.928-2.93 1.793-4.601 1.837-4.631 2.631-1.727.403 1.475.086 3.571-.703 4.657Zm100.211 21.247c-1.046.129-2.935-.351-4.196-1.069-1.262-.717-.406-.823 1.902-.234 2.308.588 3.34 1.174 2.294 1.303Zm46.88 13.152c-9.367-.806-41.141-9.375-43.201-11.652-1.147-1.268 6.943.468 24.023 5.152 17.612 4.833 23.674 6.886 19.178 6.5Zm29.055 7.285c-2.195-.247-5.644-1.171-7.668-2.055-2.024-.885-.228-.683 3.989.447 4.218 1.13 5.874 1.854 3.679 1.608Zm13.265 3.473c-1.062.131-2.63-.289-3.486-.934-.854-.642.014-.749 1.931-.235s2.617 1.04 1.555 1.169Zm13.942 3.736c-1.062.131-2.63-.29-3.486-.934-.854-.643.014-.749 1.931-.235 1.917.513 2.617 1.04 1.555 1.169Zm-237.671-62.448c-.544 2.029-6.88 4.887-9.301 4.196-2.707-.773-2.665-.874 1.087-2.608l3.901-1.803-5.833-2.138c-5.123-1.878-4.85-1.906 2.247-.233 4.445 1.048 7.999 2.211 7.899 2.586Zm6.55 1.926c-.587.339-1.803.067-2.701-.605-.993-.743-.574-.985 1.068-.616 1.486.333 2.22.883 1.633 1.221Zm85.276 23.442c-.205.766.292 1.571 1.103 1.789.812.217 1.257-.336.988-1.229-.268-.894-.764-1.699-1.103-1.789-.338-.091-.782.462-.988 1.229Zm436.154 116.275c-.587.339-1.804.066-2.701-.606-.994-.742-.575-.984 1.068-.616 1.485.334 2.22.883 1.633 1.222Zm10.464 2.891c-1.062.13-2.63-.29-3.486-.934-.854-.643.014-.75 1.931-.236s2.617 1.04 1.555 1.17ZM391.541 361.245c-.586.338-1.803.066-2.7-.606-.994-.743-.575-.985 1.067-.616 1.486.334 2.22.883 1.633 1.222Zm38.878 11.289c-.547.829-1.902 1.561-3.01 1.627-1.133.068-1.443-.417-.707-1.11.733-.69-.006-1.867-1.689-2.682-2.133-1.035-1.642-1.15 1.703-.398 3.066.688 4.352 1.579 3.703 2.563Zm43.934 12.985c-.936 1.462-.998 2.72-.144 2.949.819.219 1.348.921 1.177 1.559-.485 1.811-5.922-.574-6.623-2.905-.485-1.613-1.398-1.903-4.049-1.283-1.884.439-3.991.198-4.683-.537-1.396-1.482 9.31-3.8 13.389-2.899 1.94.428 2.167 1.187.933 3.116Zm263.876 69.212c.269.893-.177 1.446-.988 1.229-.812-.218-1.309-1.023-1.103-1.79.205-.766.649-1.319.988-1.229.339.091.834.896 1.103 1.79Zm13.454 2.77c-.091.338-.896.834-1.79 1.102-.894.268-1.447-.177-1.229-.988.217-.811 1.022-1.308 1.789-1.103.767.206 1.32.65 1.23.989Zm203.847 54.942c-1.046.128-2.935-.352-4.196-1.07-1.262-.717-.406-.822 1.902-.234 2.308.589 3.34 1.175 2.294 1.304Zm7.632 1.967c-.587.338-1.804.066-2.701-.606-.993-.743-.574-.984 1.068-.616 1.485.334 2.22.883 1.633 1.222ZM411.614 368.708c.268.894-.177 1.446-.989 1.229-.811-.217-1.308-1.023-1.103-1.789.206-.767.65-1.32.989-1.229.339.091.834.896 1.103 1.789Zm164.982 43.616c-.587.338-1.803.066-2.701-.606-.993-.743-.574-.985 1.068-.616 1.485.334 2.22.883 1.633 1.222Zm6.971 1.867c-.587.339-1.803.067-2.701-.605-.993-.743-.574-.985 1.068-.616 1.485.333 2.22.883 1.633 1.221Zm12.591 4.712c-.308 1.15.067 2.259.834 2.465.767.205 1.603-.411 1.858-1.37.344-1.294 3.495-.805 12.215 1.89 7.107 2.197 11.28 4.077 10.557 4.757-.656.618-2.206.476-3.445-.316-1.237-.792-4.325-.977-6.86-.414-4.082.908-4.599.773-4.503-1.178.119-2.462-5.81-4.617-7.731-2.809-1.339 1.262-7.196.122-8.186-1.593-.994-1.72 1.777-4.606 3.879-4.042 1.068.286 1.69 1.461 1.382 2.61Zm128.266 34.369c-1.944 1.376-1.723 1.779 1.443 2.628 2.138.572 3.209 1.499 2.503 2.164-.679.639-2.556.809-4.174.375-1.616-.433-2.61-.218-2.209.476.403.695 5.861 2.431 12.129 3.86 10.184 2.319 11.238 2.82 9.879 4.691-1.002 1.378-.867 2.036.391 1.923 1.054-.095 1.949-.919 1.987-1.833.039-.915 1.678-1.231 3.64-.706 2.023.542 3.034 1.46 2.332 2.119-.679.64-.57 1.341.242 1.559.811.217 1.644-.232 1.85-.999.621-2.319 5.632-.163 5.918 2.547.145 1.389-.001 2.679-.326 2.867-.325.186-6.819-1.146-14.432-2.962-10.105-2.41-13.873-3.813-13.958-5.199-.064-1.044-1.355-2.231-2.869-2.636-1.516-.406-2.536-.007-2.267.886.286.947-1.288 1.149-3.777.482-2.345-.628-4.096-1.77-3.891-2.537.205-.766-1.948-2.015-4.785-2.775-5.64-1.512-4.322-3.547 1.784-2.756 2.716.351 3.974-.454 5.078-3.248.9-2.277 2.309-3.489 3.639-3.132 1.77.474 1.747.88-.127 2.206Zm138.422 38.294c1.426.811-.37.612-3.992-.44-3.621-1.053-6.436-2.468-6.256-3.142.181-.676 1.549-.447 3.04.507 2.073 1.324 2.562 1.216 2.079-.464-.497-1.726-.294-1.741.951-.066.871 1.173 2.751 2.794 4.178 3.605Zm-174.161-47.123c-.679.639-1.824 1.005-2.547.811-.722-.193-1.143-.978-.938-1.745.205-.766 1.352-1.131 2.547-.811 1.195.32 1.618 1.105.938 1.745ZM539.83 406.051c2.236 2.471 3.715 2.867 4.183 1.121.205-.767-1.042-1.763-2.769-2.214-2.541-.661-2.812-.453-1.414 1.093Zm130.892 35.721c-.303 1.131 1.07 2.655 3.168 3.515 2.97 1.217 2.53 1.344-2.227.644-5.406-.795-5.856-1.152-5.085-4.028.469-1.749 1.701-2.928 2.763-2.643 1.054.282 1.676 1.412 1.381 2.512Zm43.438 10.768c-.187.7-2.872.632-5.966-.151-3.095-.785-5.221-1.807-4.728-2.272 1.343-1.263 11.09.946 10.694 2.423ZM279.439 337.773c.269.894-.491 1.362-1.685 1.042-1.195-.32-2.006-1.209-1.801-1.976.206-.766.964-1.235 1.686-1.042.722.194 1.531 1.083 1.8 1.976Zm276.726 74.237c-.217.811-.977.858-1.689.103-.711-.755-2.072-.655-3.024.222-1.371 1.261-1.601 1.082-1.101-.851.394-1.52 1.687-2.162 3.421-1.697 1.534.411 2.61 1.412 2.393 2.223Zm19.634 4.799c-.154.574-1.789.641-3.633.147-1.843-.494-2.934-1.291-2.425-1.77.508-.479 2.143-.546 3.632-.147 1.489.399 2.58 1.196 2.426 1.77ZM841.3 488.323c-.679.64-2.598.75-4.263.247-2.92-.884-2.917-.932.081-1.367 4.278-.621 5.643-.255 4.182 1.12Zm102.474 27.458c-.206.767 1.036 1.782 2.757 2.255 1.722.475 3.91 1.723 4.861 2.774 1.275 1.409.062 1.547-4.623.524-3.494-.763-8.615-1.728-11.38-2.145-2.765-.415-26.722-6.371-53.237-13.235-26.515-6.864-44.319-11.94-39.565-11.28 4.754.662 11.885 1.652 15.847 2.203 15.221 2.117 33.216 6.428 33.71 8.074a1.741 1.741 0 0 0 2.166 1.158c.918-.274 2.924.678 4.46 2.117 1.534 1.439 4.053 2.466 5.597 2.282 1.542-.184 7.343.764 12.889 2.106 5.545 1.343 10.602 2.141 11.238 1.774.635-.367 3.202.254 5.704 1.378 3.618 1.627 4.673 1.581 5.157-.226.335-1.25 1.55-2.021 2.701-1.713 1.15.308 1.923 1.188 1.718 1.954Zm40.919 11.338c.277 1.568.603 1.655 1.626.435 1.377-1.638 13.176.884 13.801 2.951.2.669-2.342.257-5.646-.916-3.754-1.333-6.165-1.558-6.422-.601-.623 2.325-7.049.08-7.327-2.559-.294-2.803 3.466-2.15 3.968.69Zm-323.618-85.593c-.679.639-2.911.666-4.96.06-3.327-.986-3.393-1.153-.616-1.554 4.319-.627 7.051.106 5.576 1.494Zm131.055 35.116c-.68.639.057 1.509 1.635 1.932 1.579.423 3.039.142 3.245-.625.441-1.645 3.043-.549 4.812 2.028 1.624 2.363-6.386 3.621-9.992 1.569-1.392-.793-3.137-.873-3.874-.178-.74.695-2.284 1.012-3.435.704-1.15-.308-1.492-1.124-.76-1.813.921-.867-.723-1.485-5.35-2.011-4.053-.461-6.538-1.292-6.318-2.116.2-.745 4.061-.764 8.579-.039 4.519.726 8.61.72 9.093-.013.483-.731 1.492-1.166 2.239-.965.749.2.805.887.126 1.527Zm39.89 10.572c-1.262.395-4.081-.011-6.261-.901-3.054-1.247-4.299-1.034-5.416.928-.799 1.401-1.986 2.403-2.639 2.228-1.505-.403 1.332-4.506 3.69-5.337.973-.342 4.28.051 7.347.872 3.805 1.02 4.848 1.722 3.279 2.21ZM340.778 357.021c-.445 1.66-6.19 1.541-6.695-.137-.221-.734.472-1.44 1.54-1.571 3.163-.386 5.507.391 5.155 1.708Zm18.08 5.02c-.205.766-.963 1.236-1.685 1.042-.722-.194-1.531-1.083-1.8-1.976-.269-.894.49-1.362 1.685-1.042 1.195.32 2.006 1.209 1.8 1.976Zm25.137 6.572c-.565 2.108-10.866-.172-14.069-3.112-2.806-2.576-2.385-2.609 5.685-.456 4.795 1.28 8.567 2.885 8.384 3.568Zm4.143 1.684c-.619 1.621-2.444.785-2.562-1.172-.06-1.002.576-1.369 1.414-.816s1.355 1.447 1.148 1.988Zm11.17 7.698c-.137.724-1.087-.203-2.114-2.06-1.265-2.288-1.285-3.563-.061-3.957 1.638-.529 2.801 2.688 2.175 6.017Zm13.259-2.15c2.546 1.849 1.966 4.101-.861 3.344-1.195-.32-1.968.104-1.714.943.251.84-.782 1.093-2.297.562-2.833-.992-2.375-4.502.745-5.719 2.044-.796 1.746-.86 4.127.87Zm547.19 147.206c-.205.767-1.469 1.09-2.808.719-2.08-.577-2.077-.791.02-1.466 3.086-.995 3.244-.953 2.788.747ZM425.95 382.344c-3.959.507-4.235.781-2.034 2.013 2.059 1.154 1.869 1.278-.993.651-2.044-.447-3.928-2.038-4.455-3.758-.835-2.733-.367-2.836 5.577-1.238 6.427 1.729 6.444 1.749 1.905 2.332Zm18.734 6.742c-.225 3.088-.657 3.376-3.017 2.012-1.514-.875-5.254-2.291-8.312-3.146-4.5-1.258-5.016-1.704-2.706-2.331 1.569-.427 2.655-1.435 2.413-2.242-.243-.806 2.332-.663 5.721.318 5.402 1.564 6.132 2.23 5.901 5.389Zm41.022 10.772c.918 2.367 1.656 2.777 3.298 1.829 2.943-1.698 5.85-.665 5.179 1.842-.437 1.629-2.325 1.592-8.548-.168-4.393-1.241-7.117-2.364-6.056-2.493 4.542-.556 2.054-2.942-5.052-4.846-8.294-2.223-11.129-.564-3.987 2.332 2.724 1.104 1.358 1.056-3.614-.127-4.486-1.068-8.227-2.678-8.525-3.669-.382-1.272-1.068-1.456-2.452-.657-1.057.61-2.863.857-4.013.548-1.546-.414-1.573-.859-.108-1.704 1.091-.63 1.879-2.142 1.75-3.363-.197-1.875 2.177-1.472 15.357 2.605 13.081 4.046 15.78 5.311 16.771 7.871Zm31.244 7.904c-.406 1.56-9.791-1.267-10.347-3.117-.289-.961 1.722-.867 5.071.238 3.052 1.008 5.425 2.304 5.276 2.879Zm50.313 13.02c-.193.722-1.081 1.53-1.971 1.797-2.836.851-40.311-9.93-43.013-12.373-1.373-1.242 16.281 1.95 30.287 5.476 8.631 2.174 14.899 4.347 14.697 5.1Zm60.925 17.191c1.075 1.863-1.696 1.653-14.889-1.124-13.528-2.847-27.169-8.405-26.525-10.808.328-1.225 40.5 10.35 41.414 11.932Zm49.532 13.934c-9.209-1.607-15.813-4.01-13.2-4.804.885-.269 6.144 1.039 11.687 2.905l10.078 3.393-8.565-1.494Zm24.758 5.194c-.205.766-.649 1.32-.988 1.229-.339-.091-.835-.896-1.103-1.789-.269-.894.177-1.447.988-1.229.811.217 1.309 1.022 1.103 1.789Zm31.37 8.405c-.68.64-.257 1.425.938 1.745 1.195.321 2.342-.044 2.547-.811.205-.766-.216-1.551-.938-1.745-.723-.193-1.868.172-2.547.811ZM1023 542.511c.9.672 2.11.945 2.7.606.59-.339-.15-.888-1.63-1.222-1.64-.368-2.06-.126-1.07.616Zm-327.053-85.807c-.616.579-2.286.39-3.711-.422-3.568-2.03-3.01-2.732 1.262-1.587 1.962.525 3.064 1.43 2.449 2.009Zm72.16 18.971c-1.062.131-2.63-.29-3.486-.934-.854-.643.014-.749 1.931-.235 1.917.513 2.617 1.04 1.555 1.169Zm64.133 17.184c-1.062.131-2.63-.289-3.486-.934-.854-.642.014-.749 1.931-.235s2.617 1.04 1.555 1.169Zm178.58 54.33c.27.894.76 1.699 1.1 1.79.34.09.79-.463.99-1.229.21-.767-.29-1.572-1.1-1.79-.81-.217-1.26.336-.99 1.229Zm36.8 9.388c.9.672 2.12.945 2.7.606.59-.339-.14-.888-1.63-1.222-1.64-.368-2.06-.126-1.07.616ZM472.962 421.369c-.152.574-12.951-2.476-28.44-6.778-19.496-5.417-24.451-7.09-16.102-5.435 17.326 3.432 44.868 10.984 44.542 12.213Zm13.808 4.248c-.078.292-3.103-.339-6.721-1.405-5.658-1.669-5.957-1.916-2.141-1.769 4.145.159 9.186 1.965 8.862 3.174Zm-72.166-19.27c-1.062.131-2.631-.29-3.486-.934-.854-.643.014-.749 1.931-.235 1.917.513 2.617 1.04 1.555 1.169Zm-126.976-30.838c.796.894-5.073-.083-13.214-2.2-8.057-2.094-14.286-4.149-13.842-4.566 1.21-1.14 25.404 4.911 27.056 6.766Zm636.908 171.986c.898.673 2.114.945 2.701.606.587-.339-.148-.888-1.633-1.222-1.642-.368-2.061-.126-1.068.616Zm-102.237-26.018c-.587.338-1.804.066-2.701-.606-.993-.743-.574-.984 1.068-.616 1.485.334 2.22.883 1.633 1.222ZM336.968 394.632c8.135 2.443 21.937 6.143 30.672 8.22 8.735 2.078 2.079.079-14.791-4.442-16.869-4.522-24.015-6.222-15.881-3.778Zm124.776 34.139c.544.942 2.221 1.779 3.725 1.858 2.026.109 1.769-.337-.99-1.712-2.406-1.202-3.374-1.252-2.735-.146Zm432.394 115.06c.897.672 2.114.945 2.701.606.586-.339-.148-.888-1.634-1.222-1.642-.368-2.061-.126-1.067.616ZM472.637 432.42c1.645.798 4.158 1.458 5.584 1.467 1.426.008.08-.645-2.991-1.452-3.071-.806-4.238-.813-2.593-.015Zm19.519 5.23c1.645.798 4.158 1.458 5.584 1.467 1.426.008.08-.645-2.991-1.452-3.072-.806-4.238-.813-2.593-.015Zm43.222 11.608c2.422.981 6.188 1.984 8.368 2.228 2.181.242.199-.561-4.405-1.786-4.602-1.225-6.386-1.424-3.963-.442Zm20.212 5.406c2.034.887 5.173 1.719 6.977 1.848 1.803.129.139-.597-3.698-1.615-3.837-1.016-5.312-1.122-3.279-.233Zm182.631 48.892c1.248.711 3.445 1.3 4.88 1.308 1.435.009.415-.572-2.269-1.291s-3.858-.726-2.611-.017Zm23.015 6.127c.855.644 2.424 1.064 3.485.934 1.063-.129.363-.656-1.554-1.17-1.917-.513-2.786-.407-1.931.236Z" fill="#FFF06F" fill-opacity=".42"/></svg>