<svg width="1144" height="528" viewBox="0 0 1144 528" fill="none" xmlns="http://www.w3.org/2000/svg">
<path fill-rule="evenodd" clip-rule="evenodd" d="M833.012 170.042C823.957 168.084 816.002 166.504 815.334 166.531C814.666 166.558 818.322 168.045 823.458 169.836C832.77 173.082 832.754 173.081 818.133 169.533C810.069 167.576 798.068 164.953 791.466 163.702C783.16 162.13 787.275 163.352 804.819 167.666C844.915 177.527 886.056 187.77 891.316 189.2C894.252 189.999 895.987 190 895.748 189.206C895.491 188.348 905.399 190.591 924.629 195.744C945.408 201.311 953.588 203.882 952.823 204.602C952.144 205.242 952.751 205.784 954.463 206.065C955.958 206.309 957.857 207.012 958.684 207.626C959.511 208.239 967.608 211.306 976.678 214.443C985.748 217.579 994.941 221.097 997.107 222.259C999.274 223.421 1001.16 223.955 1001.29 223.445C1001.63 222.172 998.866 220.637 982.469 213.002C980.413 212.046 976.601 210.133 973.998 208.754C968.389 205.781 857.599 175.361 833.012 170.042ZM491.417 79.7765C485.982 78.9891 486.12 79.0801 493.714 81.2925C501.712 83.6218 504.27 83.7993 499.61 81.7006C498.284 81.1025 494.597 80.2372 491.417 79.7765ZM478.941 77.0243C477.656 76.8855 472.106 75.9135 466.606 74.8636C461.107 73.814 456.507 73.326 456.385 73.7808C456.264 74.2346 457.856 74.845 459.926 75.1366C462.811 75.5433 463.222 75.8373 461.69 76.3994C460.171 76.9555 460.91 77.4283 464.766 78.3669C469.394 79.4941 469.565 79.4485 466.708 77.8471L463.574 76.0914L467.72 77.0593C469.999 77.5919 471.912 78.5223 471.971 79.1277C472.03 79.7525 476.281 80.9658 481.828 81.9406C492.345 83.7909 492.282 83.3118 481.631 80.4326C477.935 79.4326 476.238 78.7064 477.859 78.8179C480.645 79.0097 484.837 77.7025 482.382 77.4072C481.774 77.3345 480.225 77.1619 478.941 77.0243ZM865.332 180.743C861.446 179.935 854.889 178.18 850.761 176.842C846.632 175.505 849.811 176.165 857.825 178.311C865.839 180.456 869.217 181.551 865.332 180.743ZM880.999 184.848C880.146 184.953 878.885 184.615 878.198 184.097C877.511 183.581 878.209 183.495 879.75 183.908C881.291 184.321 881.854 184.744 880.999 184.848ZM965.879 208.792C965.026 208.897 963.765 208.56 963.077 208.042C962.39 207.525 963.088 207.439 964.629 207.852C966.17 208.265 966.733 208.689 965.879 208.792ZM973.748 210.893C972.907 210.997 971.388 210.611 970.374 210.034C969.36 209.457 970.048 209.373 971.903 209.846C973.759 210.319 974.589 210.79 973.748 210.893ZM493.72 83.5108C494.722 84.082 496.489 84.5553 497.643 84.5619C498.796 84.5696 497.976 84.1025 495.818 83.5244C493.661 82.9463 492.717 82.9407 493.72 83.5108ZM504.375 86.3335C505.063 86.8516 506.324 87.1895 507.177 87.0843C508.032 86.9806 507.469 86.5572 505.928 86.1443C504.387 85.7314 503.689 85.8169 504.375 86.3335ZM289.312 30.6911C288.849 31.1267 282.879 29.8741 276.045 27.9072C263.644 24.3406 241.375 20.1411 237.313 20.6042C235.954 20.7587 234.978 21.9045 234.646 23.7333C234.082 26.846 234.227 27.0012 240.249 29.7362C245.177 31.9753 245.107 33.8995 240.155 32.3287C236.858 31.2832 236.514 31.4529 236.054 34.3555C235.613 37.1289 235.161 37.4209 232.422 36.7024C228.496 35.6746 226.849 36.3006 225.727 39.2471C224.999 41.1641 225.583 41.8945 229.102 43.4666C234.797 46.0121 234.06 47.4754 227.575 46.4977C222.452 45.7254 215.187 48.104 215.858 50.3347C216.024 50.8895 214.557 51.271 212.598 51.1818C209.518 51.0411 209.194 51.2928 210.202 53.0388C210.844 54.1497 212.034 55.2455 212.846 55.4728C213.959 55.7853 213.85 56.0336 212.404 56.4844C211.061 56.9025 212.261 57.667 216.415 59.0408C222.271 60.9774 222.332 61.044 221.468 64.6695C220.989 66.688 220.217 68.2368 219.755 68.113C219.293 67.9893 218.644 68.8961 218.314 70.1285C217.869 71.7888 216.905 72.1945 214.591 71.6957C211.869 71.1091 211.778 71.1726 213.888 72.1953C216.97 73.6888 222.063 78.3208 220.037 77.7877C219.181 77.5619 218.596 78.1581 218.701 79.1502C218.976 81.7709 216.414 82.4579 208.674 81.8394C201.749 81.2856 198.602 81.6575 202.156 82.6098C203.184 82.8852 203.822 83.8667 203.574 84.791C203.224 86.0984 201.63 86.0711 196.399 84.6696C189.148 82.7266 186.319 84.2622 193.236 86.3869C195.812 87.1781 196.388 87.593 194.746 87.476C193.287 87.3709 191.978 87.7201 191.835 88.2523C191.693 88.7844 190.473 89.2694 189.126 89.331C187.779 89.3915 186.834 89.9658 187.026 90.6043C187.218 91.2443 185.59 91.8011 183.409 91.8422C179.981 91.9071 180.58 92.2417 187.811 94.3042C196.405 96.7559 196.41 98.0215 187.822 97.2983C184.015 96.977 183.473 97.2304 184.268 98.9575C185.022 100.598 185.469 100.762 186.556 99.8001C187.605 98.8697 188.149 99.1954 188.998 101.263C189.999 103.698 189.852 103.955 187.25 104.339C184.819 104.696 185.275 105.083 190.41 107.023C195.794 109.056 196.128 109.363 193.662 110.015C192.152 110.415 188.619 110.486 185.811 110.173C177.085 109.202 176.244 110.408 184.104 112.623L191.364 114.668L180.878 115.697L170.391 116.726L175.845 118.788L181.299 120.85L174.289 120.596C169.391 120.419 167.67 120.767 168.575 121.749C169.288 122.522 170.867 123.468 172.086 123.851C174.286 124.542 174.285 124.549 171.848 124.819C170.068 125.016 171.318 125.891 176.4 128.006C182.748 130.646 182.974 130.845 178.815 130.12C176.29 129.68 173.619 129.664 172.879 130.081C172.045 130.552 176.615 132.239 184.904 134.519C195.229 137.359 197.503 138.264 194.89 138.495C192.929 138.669 191.282 139.633 190.972 140.789C190.538 142.407 188.372 142.657 179.522 142.111C173.519 141.741 169.508 141.875 170.608 142.409C172.209 143.186 172.243 143.494 170.779 143.951C169.433 144.371 169.688 144.728 171.743 145.307C173.279 145.739 175.151 146.76 175.906 147.577C177.429 149.227 176.877 149.383 170.563 149.083C168.84 149.001 166.966 149.574 166.397 150.358C165.53 151.55 167.42 152.244 178.035 154.625C187.401 156.726 190.183 157.671 188.697 158.245C187.002 158.902 187.046 159.09 188.976 159.446C192.802 160.15 193.526 160.728 191.45 161.421C190.104 161.869 191.691 162.4 196.411 163.081C205.05 164.326 204.625 164.2 223.117 171.009C234.448 175.181 251.43 179.917 288.504 189.244C319.278 196.986 347.967 204.846 362.924 209.632C412.219 225.409 417.141 226.908 416.625 225.979C416.336 225.458 410.952 223.36 404.66 221.317C398.37 219.275 392.864 217.023 392.426 216.318C391.334 214.556 487.814 240.522 521.474 251.049C540.782 257.087 687.831 298.18 739.149 311.879C750.599 314.935 800.901 326.896 803.293 327.131C805.268 327.324 806.182 327.817 805.593 328.373C805.055 328.879 805.119 329.429 805.735 329.594C806.352 329.759 807.303 329.473 807.849 328.959C809.15 327.734 813.282 328.859 812.887 330.331C812.548 331.598 839.004 338.767 858.663 342.737C867.665 344.555 870.525 345.495 870.649 346.678C870.74 347.533 871.545 348.428 872.44 348.668C873.336 348.908 873.891 348.516 873.675 347.798C873.459 347.08 874.218 346.65 875.361 346.844C876.505 347.037 878.227 347.286 879.188 347.396C880.15 347.507 883.727 348.28 887.137 349.113C890.915 350.036 892.862 350.11 892.117 349.303C890.911 347.991 899.09 349.263 921.883 353.935C933.342 356.283 938.938 355.811 930.424 353.215C927.707 352.386 925.01 351.456 924.432 351.147C923.854 350.839 918.623 349.175 912.809 347.452L902.237 344.315L909.756 345.396C913.891 345.99 922.275 347.647 928.387 349.079C934.498 350.51 939.844 351.356 940.267 350.959C940.689 350.562 942.043 350.507 943.276 350.837C944.509 351.168 945.364 350.927 945.177 350.302C944.987 349.671 942.596 349.008 939.8 348.81C934.155 348.409 928.971 347.3 929.992 346.711C931.36 345.92 955.653 348.143 957.095 349.19C957.937 349.801 959.088 349.592 959.729 348.71C960.536 347.6 962.597 347.553 966.834 348.549L972.802 349.952L966.815 347.639C962.105 345.819 961.509 345.356 964.024 345.466C965.783 345.542 969.546 346.63 972.386 347.881C975.227 349.132 977.694 350.085 977.867 349.998C978.041 349.91 977.686 348.477 977.08 346.813C976.35 344.809 975.501 344.063 974.566 344.602C973.63 345.143 972.071 344.705 969.947 343.302C964.244 339.539 965.358 339.335 975.044 342.368C981.802 344.484 984.423 344.926 984.115 343.898C983.847 343.007 984.687 342.679 986.295 343.044C988.623 343.572 978.208 338.383 969.666 334.759C967.886 334.003 970.235 334.316 974.885 335.454C979.536 336.59 984.228 337.234 985.313 336.885C986.948 336.358 986.905 336.141 985.053 335.614C983.825 335.265 982.206 334.244 981.456 333.345C980.458 332.151 981.471 332.286 985.222 333.847C991.93 336.636 993.663 336.052 991.368 331.777C990.353 329.884 990.169 328.58 990.948 328.789C991.708 328.992 992.153 328.571 991.937 327.853C991.721 327.135 989.433 325.973 986.852 325.272C984.271 324.569 981.544 323.267 980.792 322.376C979.808 321.212 981.019 321.404 985.112 323.065C990.9 325.412 993.565 324.527 989.068 321.75C986.806 320.354 986.811 320.307 989.278 319.843C991.283 319.468 990.962 319.246 987.731 318.779C983.075 318.107 978.983 314.421 982.483 314.054C983.58 313.939 985.381 314.088 986.487 314.385C987.595 314.682 989.331 314.336 990.346 313.618C991.796 312.592 991.896 312.232 990.813 311.942C990.049 311.737 989.923 310.901 990.532 310.065C991.235 309.096 990.946 308.345 989.722 307.963C988.141 307.468 988.24 307.314 990.304 307.05C992.615 306.754 992.592 306.585 989.97 304.643C988.418 303.495 986.424 302.36 985.54 302.123C984.655 301.886 984.067 301.188 984.232 300.572C984.397 299.956 987.445 300.179 991.005 301.07L997.479 302.688L993.738 299.837C989.682 296.748 989.446 294.325 993.117 293.468C994.393 293.17 1001.18 294.081 1008.19 295.492C1015.2 296.904 1021.05 297.669 1021.18 297.191C1021.3 296.714 1020.16 295.446 1018.63 294.372C1016.3 292.74 1017.17 292.762 1024 294.51C1028.62 295.696 1032.28 296.114 1032.45 295.479C1032.61 294.863 1031.71 294.08 1030.44 293.74C1029.17 293.4 1028.56 292.72 1029.08 292.228C1029.6 291.737 1030.69 291.817 1031.51 292.406C1032.32 292.995 1033.11 293.004 1033.26 292.426C1033.42 291.847 1031.3 290.17 1028.56 288.698C1024.32 286.428 1026.09 286.758 1040.28 290.885L1057 295.747L1042.98 289.795C1018.44 279.379 1018.87 279.594 1022.31 279.494C1025.11 279.412 1025.16 279.348 1022.91 278.636C1019.54 277.565 1019.19 275.399 1022.43 275.633C1023.91 275.74 1023.05 275.203 1020.47 274.421C1017.92 273.649 1015.81 272.475 1015.76 271.813C1015.72 271.151 1010 268.642 1003.04 266.239C990.657 261.96 990.502 261.869 995.496 261.762C998.749 261.694 1006.72 263.392 1017.51 266.453C1033.13 270.884 1034.6 271.118 1036.6 269.504C1038.51 267.966 1040.47 268.162 1052.83 271.125C1064.05 273.812 1066.98 274.173 1067.32 272.906C1067.56 272.032 1067.31 271.199 1066.78 271.056C1065.2 270.634 1046.98 262.133 1045.01 260.904C1041.3 258.578 1044 257.743 1050.25 259.286C1056.66 260.866 1056.69 260.861 1052.5 258.756C1050.17 257.585 1044.24 255.48 1039.33 254.078C1030.59 251.579 1019.09 246.865 1022.56 247.2C1025.86 247.52 1014.72 242.875 1007.01 240.722C1000.3 238.845 999.083 238.126 997.471 235.075L995.625 231.578L1000.36 232.739L1005.1 233.9L1001.56 231.772C999.616 230.602 997.037 229.64 995.829 229.632C994.622 229.624 993.746 229.199 993.883 228.686C994.021 228.173 993.312 227.285 992.31 226.714C991.307 226.144 992.788 226.162 995.601 226.758L1000.72 227.839L995.901 225.638C980.16 218.447 863.339 185.504 825.021 177.451C814.075 175.151 799.989 171.907 793.717 170.242C785.669 168.107 782.037 167.585 781.371 168.465C780.661 169.405 780.283 169.329 779.844 168.154C779.35 166.838 756.416 159.33 754.092 159.723C751.821 160.108 456.612 80.8756 436.945 74.6033C423.858 70.4292 408.917 65.6691 403.741 64.0254C398.566 62.3817 383.093 57.7435 369.359 53.721C355.623 49.6971 339.386 44.7269 333.277 42.6769C315.612 36.7476 290.229 29.8274 289.312 30.6911ZM858.308 182.395C859.029 182.936 860.007 183.155 860.479 182.882C860.951 182.61 860.36 182.169 859.166 181.9C857.846 181.604 857.509 181.798 858.308 182.395ZM827.746 175.407C828.468 175.948 829.446 176.166 829.918 175.894C830.389 175.622 829.799 175.18 828.605 174.912C827.285 174.616 826.948 174.81 827.746 175.407ZM836.713 177.81C837.434 178.35 838.412 178.569 838.884 178.297C839.356 178.024 838.765 177.583 837.571 177.315C836.251 177.018 835.914 177.213 836.713 177.81ZM476.263 83.6567C477.579 84.2951 479.847 84.9029 481.306 85.0081C482.765 85.1121 481.689 84.5894 478.915 83.8462C476.141 83.1029 474.947 83.0171 476.263 83.6567ZM702.057 148.901C701.216 149.005 699.698 148.619 698.684 148.042C697.669 147.465 698.358 147.38 700.213 147.854C702.068 148.327 702.898 148.798 702.057 148.901ZM989.51 225.861C989.038 226.134 988.06 225.915 987.338 225.375C986.54 224.778 986.877 224.583 988.197 224.879C989.391 225.148 989.981 225.589 989.51 225.861ZM821.961 183.1C822.241 183.584 818.463 182.968 813.564 181.731C808.664 180.492 791.727 176.29 775.924 172.391C760.121 168.493 704.308 154.228 651.896 140.695C599.483 127.161 553.758 115.693 550.284 115.213C543.902 114.329 536.749 111.459 538.466 110.469C539.455 109.9 550.12 112.534 609.713 128.073C632.458 134.003 647.158 137.39 647.333 136.739C647.49 136.152 648.255 136.134 649.034 136.699C651.184 138.26 688.55 148.105 715.899 154.317C742.639 160.389 821.151 181.696 821.961 183.1ZM851.5 189.959C850.479 190.549 831.241 185.498 830.658 184.487C830.388 184.022 835.129 184.971 841.19 186.595C847.252 188.219 851.891 189.732 851.5 189.959ZM855.836 191.244C855.364 191.517 854.386 191.298 853.665 190.758C852.866 190.161 853.203 189.966 854.523 190.262C855.717 190.531 856.308 190.972 855.836 191.244ZM770.362 169.666C771.685 170.308 773.705 170.838 774.851 170.845C775.998 170.852 774.916 170.327 772.447 169.678C769.977 169.03 769.04 169.025 770.362 169.666ZM923.428 210.732C923.589 211.27 916.751 209.843 908.233 207.561C899.715 205.278 892.468 202.931 892.129 202.345C891.79 201.76 898.627 203.186 907.324 205.516C916.021 207.846 923.267 210.194 923.428 210.732ZM929.132 212.56C925.719 213.056 924.857 212.825 925.209 211.509C925.374 210.893 926.886 210.796 928.571 211.293C931.283 212.096 931.347 212.239 929.132 212.56ZM724.174 158.462C724.895 159.002 725.873 159.221 726.345 158.949C726.817 158.677 726.226 158.235 725.032 157.967C723.712 157.671 723.375 157.865 724.174 158.462ZM730.836 160.298C732.783 161.086 735.81 161.892 737.563 162.088C739.317 162.283 737.723 161.637 734.022 160.653C730.322 159.668 728.889 159.508 730.836 160.298ZM503.89 102.29C502.949 102.573 501.798 102.399 501.333 101.905C500.868 101.412 501.257 100.777 502.197 100.494C503.137 100.212 504.288 100.386 504.753 100.879C505.218 101.372 504.829 102.008 503.89 102.29ZM524.423 106.781C524.294 107.264 520.548 106.619 516.098 105.349C510.093 103.634 508.932 103.055 511.594 103.103C516.184 103.185 524.73 105.636 524.423 106.781ZM535.839 109.009C535.518 110.205 529.027 110.225 527.517 109.034C526.281 108.06 526.589 107.778 528.983 107.697C532.685 107.57 536.052 108.215 535.839 109.009ZM498.914 100.955C498.399 101.439 494.101 100.789 489.362 99.5095C484.624 98.2291 481.436 96.9701 482.277 96.7106C484.608 95.9915 500.012 99.9206 498.914 100.955ZM857.466 196.547C856.625 196.651 855.107 196.264 854.093 195.687C853.079 195.111 853.767 195.026 855.622 195.499C857.477 195.972 858.307 196.443 857.466 196.547ZM935.585 218.739C934.127 218.635 931.856 218.026 930.541 217.388C929.227 216.749 930.419 216.834 933.193 217.578C935.967 218.321 937.043 218.843 935.585 218.739ZM236.426 47.3637C236.261 47.9799 235.904 48.4246 235.632 48.3517C235.36 48.2787 234.961 47.6316 234.745 46.9133C234.529 46.195 234.887 45.7506 235.54 45.9254C236.192 46.1002 236.592 46.7476 236.426 47.3637ZM194.944 80.2966C195.665 80.8369 196.643 81.0558 197.115 80.7835C197.587 80.5113 196.996 80.0697 195.802 79.8013C194.482 79.5052 194.145 79.6996 194.944 80.2966ZM986.649 312.752C986.177 313.024 985.199 312.805 984.478 312.265C983.679 311.668 984.016 311.473 985.336 311.77C986.53 312.038 987.121 312.48 986.649 312.752ZM198.321 104.397C198.156 105.013 197.486 105.374 196.834 105.199C196.181 105.024 196.093 104.461 196.639 103.946C197.186 103.432 197.854 103.071 198.127 103.144C198.399 103.217 198.486 103.781 198.321 104.397ZM527.277 210.633C527.961 212.906 526.477 212.952 525.436 210.688C524.836 209.387 524.924 208.721 525.668 208.92C526.322 209.096 527.048 209.866 527.277 210.633ZM597.61 232.435C598.386 232.202 598.856 231.464 598.654 230.796C598.445 230.097 601.138 230.343 604.987 231.375C608.855 232.411 611.718 233.735 611.764 234.509C611.809 235.246 614.143 236.752 616.951 237.854C623.947 240.6 621.84 241.885 614.371 239.426C609.879 237.947 608.234 237.826 607.933 238.951C607.423 240.853 603.297 239.847 603.041 237.758C602.932 236.858 602.586 237.047 602.22 238.209C601.873 239.311 601.242 239.845 600.82 239.396C600.397 238.948 598.947 239.337 597.596 240.262C594.715 242.238 589.305 241.222 589.947 238.828C590.275 237.602 589.363 237.115 586.128 236.786C582.793 236.448 582.087 236.049 582.85 234.933C583.385 234.149 584.524 233.752 585.382 234.049C586.24 234.346 587.829 234.036 588.913 233.361C590.625 232.293 590.359 232.099 586.874 231.882C584.67 231.744 581.962 231.64 580.859 231.652C579.755 231.665 578.685 231.117 578.48 230.438C578.276 229.758 580.752 229.534 583.984 229.941C587.216 230.347 590.639 230.184 591.591 229.577C593.01 228.672 593.581 228.868 594.761 230.665C595.553 231.871 596.835 232.668 597.61 232.435ZM756.036 273.513C755.789 274.433 748.811 273.059 748.501 272.03C748.322 271.432 749.97 271.423 752.163 272.011C754.357 272.599 756.1 273.275 756.036 273.513ZM549.57 225.421C547.935 227.671 546.86 226.04 548.019 223.065C549.461 219.366 549.496 219.342 550.134 221.677C550.458 222.862 550.204 224.547 549.57 225.421ZM630.128 242.501C629.287 242.605 627.769 242.218 626.755 241.642C625.74 241.065 626.429 240.98 628.284 241.453C630.139 241.927 630.969 242.398 630.128 242.501ZM667.815 253.074C660.285 252.426 634.742 245.537 633.086 243.707C632.164 242.688 638.667 244.083 652.397 247.849C666.556 251.734 671.429 253.384 667.815 253.074ZM691.172 258.93C689.407 258.732 686.634 257.989 685.007 257.278C683.38 256.567 684.824 256.729 688.215 257.638C691.605 258.546 692.936 259.128 691.172 258.93ZM701.835 261.722C700.982 261.827 699.721 261.49 699.034 260.971C698.347 260.455 699.045 260.369 700.586 260.782C702.127 261.195 702.69 261.619 701.835 261.722ZM713.043 264.725C712.19 264.831 710.929 264.493 710.241 263.975C709.555 263.458 710.253 263.372 711.794 263.785C713.335 264.198 713.898 264.622 713.043 264.725ZM521.981 214.524C521.544 216.155 516.45 218.452 514.504 217.897C512.328 217.276 512.362 217.195 515.378 215.801L518.514 214.351L513.825 212.632C509.706 211.123 509.926 211.1 515.631 212.445C519.205 213.287 522.062 214.222 521.981 214.524ZM527.247 216.073C526.775 216.345 525.797 216.126 525.076 215.586C524.277 214.989 524.614 214.794 525.934 215.09C527.128 215.359 527.719 215.8 527.247 216.073ZM595.8 234.917C595.635 235.533 596.034 236.18 596.686 236.355C597.339 236.53 597.697 236.085 597.481 235.367C597.265 234.649 596.867 234.002 596.594 233.929C596.322 233.856 595.965 234.301 595.8 234.917ZM946.421 328.39C945.949 328.662 944.971 328.443 944.25 327.903C943.451 327.306 943.788 327.112 945.108 327.408C946.302 327.676 946.893 328.118 946.421 328.39ZM954.833 330.714C953.979 330.819 952.719 330.481 952.031 329.963C951.344 329.446 952.042 329.361 953.583 329.773C955.124 330.186 955.687 330.61 954.833 330.714ZM473.149 202.778C472.677 203.05 471.699 202.831 470.978 202.291C470.179 201.694 470.516 201.5 471.836 201.796C473.03 202.064 473.621 202.506 473.149 202.778ZM504.403 211.854C503.962 212.52 502.874 213.108 501.983 213.161C501.072 213.216 500.823 212.826 501.414 212.269C502.004 211.714 501.409 210.768 500.057 210.113C498.342 209.281 498.737 209.189 501.426 209.793C503.89 210.346 504.925 211.063 504.403 211.854ZM539.72 222.292C538.968 223.468 538.918 224.479 539.605 224.663C540.263 224.839 540.689 225.403 540.551 225.916C540.161 227.372 535.791 225.455 535.227 223.581C534.837 222.284 534.103 222.051 531.972 222.549C530.457 222.902 528.764 222.709 528.207 222.118C527.085 220.926 535.692 219.063 538.971 219.787C540.53 220.131 540.713 220.741 539.72 222.292ZM751.849 277.931C752.065 278.649 751.707 279.094 751.055 278.919C750.402 278.744 750.003 278.097 750.168 277.48C750.333 276.864 750.69 276.419 750.962 276.492C751.235 276.565 751.633 277.213 751.849 277.931ZM762.664 280.158C762.591 280.43 761.944 280.828 761.226 281.044C760.507 281.259 760.063 280.901 760.237 280.249C760.412 279.597 761.06 279.198 761.676 279.363C762.292 279.528 762.737 279.885 762.664 280.158ZM926.536 324.325C925.695 324.429 924.177 324.042 923.163 323.465C922.148 322.889 922.837 322.804 924.692 323.277C926.547 323.75 927.377 324.221 926.536 324.325ZM932.671 325.906C932.2 326.179 931.221 325.96 930.5 325.42C929.701 324.823 930.038 324.628 931.358 324.924C932.553 325.193 933.143 325.634 932.671 325.906ZM489.285 208.778C489.501 209.496 489.143 209.94 488.491 209.766C487.838 209.591 487.439 208.943 487.604 208.327C487.769 207.711 488.126 207.266 488.398 207.339C488.671 207.412 489.069 208.059 489.285 208.778ZM621.913 243.84C621.442 244.112 620.464 243.893 619.742 243.353C618.944 242.756 619.28 242.562 620.6 242.858C621.795 243.126 622.385 243.568 621.913 243.84ZM627.517 245.341C627.046 245.614 626.067 245.395 625.346 244.855C624.548 244.258 624.884 244.063 626.204 244.359C627.399 244.628 627.989 245.069 627.517 245.341ZM637.639 249.129C637.391 250.054 637.693 250.945 638.31 251.11C638.926 251.275 639.598 250.781 639.803 250.01C640.08 248.969 642.612 249.362 649.623 251.529C655.336 253.295 658.691 254.806 658.109 255.353C657.582 255.849 656.336 255.735 655.34 255.099C654.346 254.462 651.863 254.313 649.825 254.766C646.544 255.496 646.129 255.387 646.205 253.819C646.301 251.839 641.535 250.107 639.991 251.561C638.914 252.575 634.206 251.659 633.41 250.28C632.61 248.898 634.838 246.578 636.528 247.031C637.387 247.261 637.887 248.205 637.639 249.129ZM740.751 276.758C739.189 277.865 739.366 278.188 741.912 278.87C743.63 279.331 744.491 280.075 743.924 280.61C743.378 281.124 741.868 281.26 740.568 280.912C739.269 280.564 738.47 280.736 738.792 281.295C739.116 281.853 743.504 283.249 748.543 284.397C756.729 286.262 757.577 286.664 756.484 288.169C755.679 289.277 755.787 289.805 756.799 289.715C757.646 289.638 758.365 288.976 758.396 288.241C758.427 287.506 759.745 287.251 761.322 287.674C762.948 288.109 763.761 288.847 763.197 289.377C762.651 289.891 762.739 290.455 763.391 290.63C764.044 290.805 764.713 290.444 764.878 289.827C765.378 287.963 769.406 289.696 769.636 291.874C769.752 292.991 769.635 294.028 769.374 294.179C769.113 294.329 763.892 293.258 757.772 291.798C749.648 289.86 746.619 288.733 746.552 287.619C746.5 286.78 745.462 285.826 744.245 285.499C743.027 285.173 742.207 285.494 742.423 286.212C742.652 286.974 741.387 287.135 739.387 286.599C737.502 286.094 736.093 285.176 736.258 284.56C736.423 283.944 734.692 282.94 732.412 282.329C727.878 281.114 728.938 279.478 733.846 280.113C736.029 280.396 737.041 279.748 737.928 277.503C738.652 275.672 739.784 274.698 740.853 274.984C742.277 275.366 742.258 275.692 740.751 276.758ZM852.028 307.543C853.174 308.194 851.73 308.034 848.819 307.188C845.908 306.342 843.645 305.205 843.79 304.663C843.935 304.119 845.035 304.303 846.233 305.07C847.9 306.135 848.293 306.048 847.904 304.698C847.505 303.31 847.668 303.298 848.669 304.645C849.369 305.587 850.881 306.891 852.028 307.543ZM712.021 269.661C711.475 270.175 710.554 270.468 709.974 270.313C709.393 270.157 709.054 269.526 709.219 268.91C709.384 268.294 710.306 268 711.267 268.258C712.227 268.515 712.567 269.146 712.021 269.661ZM592.357 238.797C594.154 240.784 595.344 241.102 595.72 239.698C595.885 239.082 594.882 238.282 593.494 237.919C591.451 237.387 591.233 237.555 592.357 238.797ZM697.581 267.513C697.337 268.423 698.441 269.648 700.127 270.339C702.515 271.317 702.161 271.419 698.337 270.857C693.991 270.217 693.63 269.931 694.249 267.618C694.626 266.212 695.616 265.265 696.47 265.494C697.318 265.721 697.818 266.629 697.581 267.513ZM732.5 276.17C732.35 276.732 730.191 276.677 727.704 276.048C725.216 275.417 723.507 274.596 723.904 274.222C724.983 273.207 732.819 274.982 732.5 276.17ZM383.031 183.909C383.247 184.628 382.636 185.004 381.676 184.747C380.715 184.49 380.064 183.775 380.229 183.159C380.394 182.542 381.003 182.165 381.583 182.321C382.164 182.476 382.815 183.191 383.031 183.909ZM605.489 243.588C605.314 244.24 604.703 244.278 604.131 243.67C603.56 243.064 602.465 243.144 601.7 243.849C600.598 244.862 600.413 244.719 600.815 243.165C601.132 241.943 602.171 241.427 603.565 241.801C604.798 242.131 605.664 242.936 605.489 243.588ZM621.273 247.446C621.149 247.907 619.835 247.961 618.352 247.564C616.87 247.167 615.993 246.526 616.403 246.141C616.811 245.756 618.125 245.702 619.322 246.023C620.519 246.343 621.396 246.984 621.273 247.446ZM834.707 304.936C834.161 305.45 832.619 305.538 831.28 305.134C828.933 304.424 828.935 304.385 831.345 304.035C834.785 303.536 835.882 303.83 834.707 304.936ZM917.085 327.009C916.92 327.625 917.918 328.441 919.302 328.822C920.686 329.203 922.445 330.206 923.209 331.051C924.234 332.185 923.259 332.295 919.493 331.472C916.684 330.859 912.567 330.084 910.345 329.749C908.122 329.415 888.863 324.627 867.548 319.109C846.233 313.591 831.92 309.511 835.742 310.041C839.564 310.573 845.296 311.369 848.481 311.812C860.718 313.514 875.183 316.98 875.581 318.302C875.801 319.036 876.585 319.455 877.322 319.234C878.059 319.013 879.672 319.778 880.907 320.935C882.14 322.092 884.165 322.918 885.406 322.77C886.646 322.622 891.309 323.384 895.767 324.463C900.226 325.542 904.291 326.184 904.802 325.889C905.312 325.594 907.376 326.093 909.387 326.997C912.296 328.305 913.144 328.268 913.533 326.815C913.803 325.81 914.779 325.19 915.704 325.438C916.629 325.686 917.25 326.393 917.085 327.009ZM949.98 336.123C950.202 337.383 950.465 337.454 951.287 336.473C952.394 335.156 961.879 337.184 962.379 338.845C962.54 339.383 960.499 339.052 957.843 338.109C954.825 337.037 952.887 336.856 952.68 337.626C952.18 339.495 947.014 337.69 946.791 335.569C946.554 333.315 949.577 333.84 949.98 336.123ZM689.826 267.316C689.28 267.83 687.485 267.851 685.838 267.364C683.164 266.572 683.111 266.437 685.343 266.114C688.815 265.611 691.011 266.2 689.826 267.316ZM795.18 295.545C794.633 296.059 795.226 296.758 796.494 297.098C797.763 297.438 798.937 297.212 799.102 296.596C799.457 295.273 801.549 296.154 802.971 298.226C804.277 300.126 797.838 301.137 794.939 299.488C793.82 298.85 792.417 298.785 791.824 299.345C791.23 299.903 789.988 300.158 789.063 299.91C788.139 299.662 787.864 299.006 788.452 298.453C789.192 297.756 787.871 297.259 784.151 296.836C780.893 296.466 778.895 295.797 779.073 295.135C779.233 294.536 782.336 294.521 785.969 295.104C789.601 295.687 792.891 295.682 793.279 295.093C793.667 294.506 794.478 294.156 795.079 294.317C795.68 294.478 795.726 295.031 795.18 295.545ZM827.247 304.044C826.233 304.362 823.967 304.035 822.214 303.32C819.759 302.317 818.758 302.489 817.86 304.066C817.218 305.192 816.263 305.998 815.739 305.857C814.528 305.533 816.809 302.234 818.705 301.566C819.487 301.291 822.145 301.607 824.611 302.268C827.67 303.087 828.508 303.652 827.247 304.044ZM432.34 199.383C431.983 200.717 427.364 200.622 426.958 199.272C426.781 198.682 427.338 198.115 428.196 198.01C430.74 197.699 432.624 198.324 432.34 199.383ZM446.875 203.418C446.71 204.034 446.101 204.411 445.521 204.256C444.94 204.1 444.289 203.386 444.073 202.667C443.857 201.949 444.468 201.572 445.428 201.829C446.389 202.087 447.04 202.802 446.875 203.418ZM467.082 208.702C466.628 210.396 458.348 208.563 455.773 206.199C453.516 204.129 453.855 204.102 460.343 205.833C464.197 206.862 467.229 208.153 467.082 208.702ZM470.413 210.055C469.915 211.358 468.448 210.686 468.353 209.113C468.305 208.308 468.817 208.012 469.49 208.457C470.164 208.902 470.579 209.621 470.413 210.055ZM479.392 216.244C479.282 216.825 478.518 216.08 477.693 214.587C476.676 212.748 476.66 211.723 477.644 211.407C478.961 210.981 479.896 213.567 479.392 216.244ZM490.052 214.515C492.098 216.001 491.632 217.812 489.359 217.203C488.399 216.946 487.777 217.287 487.981 217.961C488.183 218.636 487.353 218.84 486.135 218.413C483.857 217.615 484.225 214.794 486.734 213.816C488.377 213.175 488.137 213.124 490.052 214.515ZM929.934 332.853C929.769 333.469 928.753 333.729 927.677 333.431C926.004 332.967 926.007 332.795 927.693 332.253C930.174 331.452 930.3 331.486 929.934 332.853ZM500.81 219.739C497.628 220.147 497.405 220.368 499.175 221.358C500.83 222.286 500.677 222.385 498.376 221.881C496.733 221.522 495.219 220.243 494.795 218.86C494.124 216.663 494.5 216.58 499.278 217.865C504.445 219.254 504.459 219.271 500.81 219.739ZM515.87 225.159C515.689 227.642 515.342 227.873 513.445 226.776C512.228 226.073 509.221 224.935 506.763 224.247C503.145 223.236 502.731 222.878 504.587 222.374C505.849 222.031 506.722 221.22 506.527 220.571C506.332 219.923 508.402 220.039 511.127 220.827C515.469 222.084 516.056 222.62 515.87 225.159ZM548.847 233.819C549.586 235.722 550.178 236.051 551.499 235.289C553.864 233.924 556.202 234.754 555.662 236.77C555.311 238.08 553.793 238.05 548.791 236.635C545.259 235.637 543.069 234.735 543.922 234.631C547.574 234.184 545.573 232.266 539.861 230.735C533.193 228.948 530.914 230.282 536.655 232.61C538.845 233.497 537.747 233.459 533.75 232.508C530.144 231.65 527.137 230.355 526.897 229.558C526.59 228.536 526.038 228.388 524.926 229.03C524.076 229.521 522.625 229.719 521.7 229.471C520.457 229.138 520.435 228.78 521.613 228.101C522.49 227.595 523.123 226.379 523.02 225.397C522.861 223.89 524.77 224.214 535.365 227.491C545.881 230.744 548.051 231.761 548.847 233.819ZM573.964 240.173C573.638 241.427 566.094 239.154 565.646 237.667C565.414 236.895 567.031 236.97 569.723 237.859C572.176 238.669 574.084 239.711 573.964 240.173ZM614.411 250.64C614.255 251.22 613.542 251.869 612.826 252.085C610.546 252.768 580.42 244.102 578.249 242.138C577.144 241.139 591.337 243.705 602.596 246.54C609.534 248.287 614.573 250.035 614.411 250.64ZM663.387 264.459C664.252 265.957 662.025 265.789 651.419 263.556C640.543 261.267 629.578 256.799 630.095 254.868C630.359 253.883 662.653 263.188 663.387 264.459ZM703.206 275.661C695.803 274.369 690.494 272.437 692.595 271.799C693.306 271.583 697.534 272.634 701.99 274.134L710.092 276.862L703.206 275.661ZM723.109 279.836C722.944 280.452 722.587 280.897 722.315 280.824C722.042 280.751 721.644 280.104 721.428 279.386C721.212 278.667 721.57 278.223 722.222 278.398C722.875 278.573 723.274 279.22 723.109 279.836ZM748.327 286.593C747.781 287.107 748.121 287.739 749.081 287.996C750.042 288.254 750.964 287.96 751.129 287.344C751.294 286.728 750.955 286.097 750.374 285.941C749.794 285.786 748.873 286.079 748.327 286.593ZM980.776 348.497C981.497 349.037 982.475 349.256 982.947 348.984C983.418 348.712 982.828 348.27 981.634 348.002C980.314 347.706 979.977 347.9 980.776 348.497ZM717.859 279.517C717.364 279.983 716.021 279.831 714.876 279.178C712.007 277.546 712.456 276.982 715.89 277.902C717.467 278.324 718.353 279.052 717.859 279.517ZM775.868 294.768C775.014 294.873 773.753 294.535 773.066 294.017C772.379 293.5 773.077 293.415 774.618 293.828C776.159 294.241 776.722 294.664 775.868 294.768ZM827.424 308.582C826.57 308.687 825.309 308.349 824.622 307.831C823.935 307.315 824.633 307.229 826.174 307.642C827.715 308.055 828.278 308.478 827.424 308.582ZM970.983 352.258C971.199 352.976 971.597 353.623 971.87 353.696C972.142 353.769 972.499 353.324 972.664 352.708C972.829 352.092 972.43 351.445 971.778 351.27C971.125 351.095 970.767 351.539 970.983 352.258ZM1000.57 359.805C1001.29 360.345 1002.27 360.564 1002.74 360.292C1003.21 360.019 1002.62 359.578 1001.43 359.309C1000.11 359.013 999.771 359.208 1000.57 359.805ZM538.603 251.111C538.48 251.573 528.191 249.121 515.74 245.662C500.067 241.308 496.084 239.963 502.796 241.293C516.724 244.053 538.865 250.124 538.603 251.111ZM549.703 254.526C549.64 254.761 547.209 254.254 544.299 253.397C539.752 252.056 539.511 251.856 542.578 251.975C545.911 252.103 549.963 253.555 549.703 254.526ZM491.689 239.035C490.835 239.141 489.574 238.803 488.887 238.285C488.2 237.768 488.898 237.682 490.439 238.095C491.98 238.508 492.543 238.932 491.689 239.035ZM389.614 214.245C390.254 214.964 385.535 214.178 378.991 212.476C372.514 210.793 367.507 209.141 367.863 208.806C368.837 207.89 388.286 212.754 389.614 214.245ZM901.62 352.504C902.342 353.044 903.32 353.263 903.791 352.991C904.263 352.718 903.673 352.277 902.479 352.008C901.158 351.712 900.822 351.907 901.62 352.504ZM819.432 331.588C818.961 331.86 817.983 331.641 817.261 331.101C816.463 330.504 816.799 330.309 818.119 330.605C819.314 330.874 819.904 331.315 819.432 331.588ZM429.278 229.618C435.818 231.582 446.913 234.556 453.935 236.226C460.957 237.896 455.606 236.29 442.045 232.655C428.483 229.02 422.739 227.653 429.278 229.618ZM529.585 257.062C530.022 257.819 531.37 258.492 532.579 258.556C534.207 258.643 534.001 258.285 531.783 257.179C529.849 256.213 529.071 256.173 529.585 257.062ZM877.183 349.558C877.905 350.099 878.883 350.317 879.354 350.045C879.826 349.773 879.236 349.331 878.041 349.063C876.721 348.767 876.385 348.961 877.183 349.558ZM538.341 259.995C539.664 260.637 541.684 261.167 542.83 261.174C543.977 261.181 542.895 260.656 540.426 260.008C537.957 259.359 537.019 259.354 538.341 259.995ZM554.032 264.2C555.355 264.841 557.375 265.372 558.521 265.379C559.668 265.386 558.586 264.86 556.117 264.212C553.648 263.564 552.71 263.558 554.032 264.2ZM588.778 273.532C590.725 274.32 593.753 275.126 595.506 275.322C597.259 275.517 595.665 274.871 591.965 273.887C588.264 272.902 586.831 272.742 588.778 273.532ZM605.027 277.877C606.662 278.59 609.185 279.259 610.635 279.363C612.085 279.467 610.747 278.883 607.663 278.065C604.578 277.248 603.392 277.163 605.027 277.877ZM751.843 317.181C752.846 317.753 754.612 318.226 755.766 318.233C756.919 318.24 756.099 317.773 753.942 317.195C751.784 316.617 750.84 316.611 751.843 317.181ZM770.344 322.106C771.032 322.624 772.293 322.962 773.146 322.857C774 322.753 773.437 322.33 771.896 321.917C770.355 321.504 769.657 321.59 770.344 322.106Z" fill="#D8F8F9"/>
<path fill-rule="evenodd" clip-rule="evenodd" d="M839.192 249.523C827.927 247.088 818.031 245.122 817.2 245.156C816.37 245.189 820.917 247.039 827.306 249.266C838.89 253.305 838.871 253.303 820.683 248.89C810.651 246.456 795.723 243.192 787.51 241.637C777.178 239.681 782.297 241.2 804.121 246.567C853.998 258.834 905.175 271.576 911.718 273.354C915.37 274.348 917.529 274.35 917.232 273.362C916.911 272.295 929.237 275.085 953.157 281.494C979.006 288.42 989.181 291.617 988.23 292.514C987.385 293.309 988.14 293.984 990.269 294.333C992.129 294.637 994.492 295.511 995.52 296.275C996.549 297.037 1006.62 300.854 1017.9 304.755C1029.19 308.657 1040.62 313.032 1043.32 314.479C1046.01 315.924 1048.35 316.588 1048.52 315.953C1048.95 314.37 1045.5 312.46 1025.11 302.963C1022.55 301.773 1017.81 299.394 1014.57 297.678C1007.59 293.98 869.776 256.14 839.192 249.523ZM414.266 137.238C407.505 136.258 407.676 136.371 417.123 139.123C427.072 142.021 430.254 142.242 424.458 139.631C422.807 138.887 418.221 137.811 414.266 137.238ZM398.746 133.814C397.148 133.641 390.244 132.432 383.402 131.126C376.562 129.821 370.84 129.213 370.688 129.779C370.537 130.344 372.518 131.103 375.093 131.466C378.681 131.972 379.193 132.337 377.287 133.037C375.398 133.728 376.316 134.317 381.114 135.484C386.871 136.886 387.083 136.83 383.529 134.838L379.631 132.653L384.788 133.858C387.623 134.52 390.002 135.678 390.076 136.431C390.15 137.208 395.437 138.717 402.337 139.93C415.42 142.231 415.342 141.635 402.093 138.054C397.495 136.81 395.383 135.906 397.401 136.045C400.866 136.284 406.081 134.658 403.026 134.29C402.271 134.2 400.344 133.985 398.746 133.814ZM879.396 262.834C874.562 261.83 866.406 259.646 861.27 257.982C856.133 256.318 860.088 257.139 870.057 259.809C880.027 262.477 884.228 263.839 879.396 262.834ZM898.885 267.941C897.823 268.072 896.255 267.651 895.4 267.007C894.545 266.364 895.413 266.258 897.33 266.772C899.247 267.285 899.948 267.812 898.885 267.941ZM1004.47 297.726C1003.41 297.857 1001.84 297.437 1000.99 296.792C1000.13 296.15 1001 296.043 1002.92 296.557C1004.83 297.07 1005.53 297.597 1004.47 297.726ZM1014.26 300.34C1013.21 300.469 1011.32 299.988 1010.06 299.271C1008.8 298.553 1009.66 298.448 1011.96 299.037C1014.27 299.625 1015.3 300.211 1014.26 300.34ZM417.13 141.883C418.377 142.593 420.575 143.182 422.01 143.19C423.445 143.2 422.425 142.619 419.741 141.9C417.057 141.181 415.883 141.174 417.13 141.883ZM430.385 145.394C431.241 146.039 432.809 146.459 433.871 146.328C434.933 146.199 434.233 145.672 432.316 145.159C430.399 144.645 429.531 144.752 430.385 145.394ZM162.858 76.178C162.282 76.7199 154.856 75.1618 146.355 72.715C130.929 68.2783 103.227 63.0544 98.1742 63.6304C96.4834 63.8227 95.2692 65.248 94.8569 67.5229C94.1556 71.3949 94.3355 71.588 101.826 74.9903C107.957 77.7756 107.87 80.1691 101.709 78.2152C97.6078 76.9145 97.1806 77.1257 96.6077 80.7363C96.0598 84.1864 95.4978 84.5496 92.0897 83.6558C87.2067 82.3773 85.1571 83.156 83.7625 86.8213C82.8561 89.2059 83.5825 90.1145 87.9597 92.0701C95.0445 95.2366 94.1279 97.0568 86.0603 95.8406C79.6876 94.8799 70.6507 97.8388 71.4851 100.614C71.6917 101.304 69.8671 101.778 67.4297 101.667C63.5989 101.492 63.1952 101.805 64.4498 103.977C65.248 105.359 66.7282 106.722 67.7388 107.005C69.123 107.394 68.9879 107.703 67.1895 108.263C65.5184 108.784 67.0104 109.735 72.1786 111.444C79.4633 113.853 79.5382 113.935 78.4643 118.445C77.8677 120.956 76.9077 122.883 76.3333 122.729C75.7588 122.575 74.9515 123.703 74.5408 125.236C73.9873 127.301 72.7882 127.806 69.9091 127.185C66.5227 126.456 66.4104 126.535 69.0343 127.807C72.8684 129.665 79.2039 135.427 76.6844 134.764C75.6195 134.483 74.8918 135.224 75.0214 136.459C75.3642 139.719 72.1765 140.573 62.5487 139.804C53.9349 139.115 50.0199 139.577 54.4409 140.762C55.7194 141.105 56.513 142.326 56.2049 143.475C55.7691 145.102 53.7863 145.068 47.2796 143.324C38.2591 140.907 34.7407 142.818 43.345 145.461C46.5495 146.445 47.266 146.961 45.2234 146.815C43.4085 146.685 41.7799 147.119 41.6025 147.781C41.4252 148.443 39.9082 149.046 38.232 149.123C36.5561 149.198 35.3814 149.913 35.6199 150.707C35.8593 151.503 33.8343 152.196 31.1204 152.247C26.8564 152.327 27.6012 152.744 36.5967 155.309C47.2871 158.359 47.2927 159.933 36.6104 159.034C31.8745 158.634 31.1998 158.949 32.1886 161.098C33.1271 163.139 33.6835 163.343 35.0354 162.146C36.3407 160.988 37.0166 161.394 38.0729 163.965C39.3187 166.995 39.1359 167.315 35.8985 167.792C32.8745 168.236 33.442 168.717 39.829 171.13C46.527 173.66 46.9418 174.041 43.8749 174.852C41.9963 175.35 37.6016 175.439 34.1091 175.05C23.2542 173.841 22.2081 175.341 31.9851 178.097L41.0164 180.641L27.9719 181.921L14.9274 183.201L21.7116 185.766L28.4959 188.33L19.7761 188.015C13.6829 187.795 11.5424 188.227 12.6676 189.449C13.5544 190.411 15.5195 191.587 17.0356 192.063C19.7727 192.924 19.7705 192.932 16.7395 193.269C14.5252 193.513 16.0804 194.602 22.4018 197.232C30.2979 200.516 30.5798 200.764 25.4058 199.863C22.265 199.315 18.9428 199.295 18.0221 199.814C16.9851 200.4 22.669 202.498 32.9803 205.334C45.8246 208.867 48.6532 209.993 45.4025 210.28C42.9625 210.497 40.9139 211.696 40.5285 213.134C39.9893 215.146 37.2938 215.458 26.2851 214.778C18.8175 214.318 13.8281 214.485 15.1968 215.149C17.1881 216.116 17.2304 216.499 15.4091 217.067C13.7359 217.589 14.053 218.034 16.6083 218.753C18.519 219.291 20.8488 220.562 21.7869 221.578C23.6816 223.63 22.9946 223.824 15.1405 223.451C12.9981 223.349 10.6671 224.062 9.95894 225.038C8.8803 226.52 11.2312 227.383 24.4362 230.345C36.0862 232.959 39.5473 234.134 37.6987 234.849C35.5896 235.665 35.6449 235.899 38.0455 236.343C42.805 237.218 43.7061 237.937 41.1232 238.798C39.4495 239.357 41.4228 240.017 47.294 240.864C58.0414 242.413 57.5126 242.256 80.5147 250.726C94.6108 255.916 115.735 261.806 161.853 273.409C200.134 283.039 235.822 292.817 254.428 298.77C315.748 318.396 321.871 320.261 321.228 319.106C320.869 318.458 314.171 315.848 306.345 313.306C298.52 310.766 291.671 307.965 291.126 307.087C289.767 304.897 409.783 337.197 451.655 350.291C475.673 357.802 658.594 408.92 722.431 425.961C736.673 429.762 799.247 444.641 802.223 444.933C804.68 445.173 805.817 445.787 805.083 446.478C804.414 447.108 804.494 447.791 805.261 447.997C806.027 448.202 807.21 447.847 807.89 447.207C809.509 445.683 814.648 447.082 814.157 448.914C813.735 450.49 846.645 459.408 871.1 464.346C882.297 466.607 885.855 467.777 886.01 469.248C886.122 470.312 887.124 471.425 888.238 471.724C889.352 472.022 890.043 471.535 889.774 470.642C889.505 469.748 890.449 469.214 891.872 469.455C893.294 469.695 895.436 470.005 896.632 470.142C897.828 470.28 902.278 471.241 906.52 472.277C911.22 473.426 913.641 473.518 912.715 472.514C911.214 470.882 921.389 472.465 949.742 478.275C963.996 481.197 970.957 480.609 960.367 477.381C956.987 476.349 953.631 475.192 952.912 474.808C952.193 474.424 945.687 472.355 938.454 470.211L925.304 466.309L934.656 467.653C939.8 468.392 950.23 470.454 957.832 472.235C965.435 474.015 972.085 475.068 972.61 474.574C973.135 474.08 974.82 474.012 976.353 474.423C977.887 474.834 978.95 474.534 978.718 473.757C978.482 472.972 975.508 472.147 972.029 471.9C965.008 471.402 958.559 470.022 959.829 469.29C961.531 468.306 991.749 471.07 993.543 472.373C994.592 473.133 996.023 472.873 996.82 471.776C997.824 470.395 1000.39 470.336 1005.66 471.576L1013.08 473.321L1005.63 470.444C999.776 468.18 999.035 467.604 1002.16 467.741C1004.35 467.836 1009.03 469.189 1012.57 470.745C1016.1 472.301 1019.17 473.486 1019.38 473.378C1019.6 473.269 1019.16 471.487 1018.4 469.416C1017.5 466.923 1016.44 465.995 1015.28 466.666C1014.11 467.338 1012.17 466.794 1009.53 465.049C1002.44 460.368 1003.82 460.114 1015.87 463.888C1024.28 466.519 1027.54 467.069 1027.15 465.791C1026.82 464.682 1027.87 464.274 1029.87 464.728C1032.76 465.384 1019.81 458.93 1009.18 454.422C1006.97 453.482 1009.89 453.87 1015.67 455.286C1021.46 456.7 1027.3 457.501 1028.65 457.066C1030.68 456.411 1030.63 456.141 1028.32 455.486C1026.79 455.051 1024.78 453.781 1023.85 452.664C1022.61 451.178 1023.87 451.345 1028.53 453.287C1036.88 456.757 1039.03 456.03 1036.18 450.712C1034.91 448.358 1034.69 446.735 1035.65 446.995C1036.6 447.248 1037.15 446.725 1036.89 445.831C1036.62 444.938 1033.77 443.492 1030.56 442.62C1027.35 441.746 1023.96 440.126 1023.02 439.018C1021.8 437.57 1023.3 437.809 1028.39 439.876C1035.6 442.795 1038.91 441.694 1033.32 438.24C1030.5 436.503 1030.51 436.445 1033.58 435.868C1036.07 435.401 1035.67 435.125 1031.65 434.544C1025.86 433.707 1020.77 429.123 1025.13 428.666C1026.49 428.524 1028.73 428.709 1030.11 429.078C1031.48 429.447 1033.64 429.017 1034.91 428.123C1036.71 426.847 1036.83 426.399 1035.49 426.038C1034.54 425.783 1034.38 424.744 1035.14 423.704C1036.01 422.498 1035.65 421.564 1034.13 421.089C1032.16 420.474 1032.29 420.281 1034.85 419.953C1037.73 419.586 1037.7 419.375 1034.44 416.959C1032.51 415.531 1030.03 414.119 1028.93 413.825C1027.83 413.53 1027.09 412.661 1027.3 411.895C1027.51 411.128 1031.3 411.406 1035.73 412.514L1043.78 414.527L1039.13 410.981C1034.08 407.138 1033.79 404.124 1038.35 403.058C1039.94 402.687 1048.38 403.82 1057.1 405.576C1065.83 407.332 1073.1 408.283 1073.26 407.69C1073.41 407.096 1071.99 405.519 1070.09 404.183C1067.19 402.153 1068.28 402.18 1076.76 404.355C1082.52 405.829 1087.06 406.35 1087.28 405.56C1087.48 404.793 1086.36 403.82 1084.78 403.397C1083.2 402.974 1082.44 402.128 1083.09 401.516C1083.74 400.904 1085.1 401.004 1086.11 401.738C1087.12 402.47 1088.1 402.481 1088.29 401.762C1088.49 401.041 1085.85 398.955 1082.44 397.125C1077.17 394.3 1079.37 394.711 1097.03 399.845L1117.82 405.893L1100.38 398.489C1069.86 385.532 1070.39 385.8 1074.67 385.676C1078.16 385.574 1078.21 385.493 1075.42 384.608C1071.22 383.275 1070.79 380.582 1074.82 380.873C1076.66 381.005 1075.58 380.338 1072.38 379.365C1069.21 378.405 1066.58 376.945 1066.52 376.121C1066.47 375.297 1059.35 372.176 1050.7 369.187C1035.29 363.864 1035.1 363.75 1041.31 363.618C1045.36 363.532 1055.28 365.646 1068.7 369.453C1088.13 374.965 1089.95 375.255 1092.44 373.248C1094.82 371.335 1097.26 371.578 1112.64 375.264C1126.59 378.607 1130.24 379.056 1130.66 377.48C1130.95 376.392 1130.65 375.357 1129.98 375.179C1128.02 374.653 1105.35 364.079 1102.91 362.551C1098.29 359.657 1101.65 358.619 1109.43 360.537C1117.4 362.503 1117.43 362.496 1112.22 359.878C1109.32 358.422 1101.95 355.803 1095.84 354.059C1084.97 350.95 1070.66 345.086 1074.98 345.503C1079.09 345.901 1065.22 340.124 1055.64 337.445C1047.29 335.11 1045.77 334.216 1043.77 330.42L1041.47 326.07L1047.37 327.515L1053.26 328.959L1048.86 326.312C1046.44 324.857 1043.23 323.659 1041.73 323.65C1040.22 323.64 1039.14 323.111 1039.31 322.472C1039.48 321.834 1038.6 320.73 1037.35 320.02C1036.1 319.31 1037.94 319.333 1041.44 320.074L1047.81 321.419L1041.82 318.682C1022.24 309.737 876.917 268.757 829.251 258.739C815.635 255.878 798.112 251.843 790.311 249.772C780.299 247.116 775.782 246.466 774.953 247.561C774.069 248.73 773.6 248.636 773.053 247.175C772.438 245.537 743.91 236.198 741.019 236.687C738.194 237.165 370.97 138.605 346.505 130.802C330.227 125.61 311.64 119.689 305.202 117.644C298.764 115.599 279.517 109.83 262.432 104.826C245.345 99.8205 225.148 93.6379 217.548 91.0877C195.574 83.712 163.999 75.1036 162.858 76.178ZM870.658 264.89C871.555 265.562 872.772 265.834 873.359 265.496C873.946 265.157 873.211 264.608 871.726 264.274C870.083 263.906 869.664 264.147 870.658 264.89ZM832.641 256.197C833.538 256.869 834.755 257.141 835.342 256.803C835.929 256.464 835.194 255.915 833.709 255.581C832.067 255.213 831.648 255.454 832.641 256.197ZM843.795 259.186C844.692 259.858 845.909 260.13 846.496 259.791C847.082 259.453 846.348 258.903 844.862 258.57C843.22 258.201 842.801 258.443 843.795 259.186ZM395.414 142.064C397.052 142.859 399.873 143.615 401.688 143.745C403.504 143.875 402.164 143.225 398.713 142.3C395.263 141.375 393.778 141.269 395.414 142.064ZM676.291 223.225C675.244 223.354 673.356 222.873 672.094 222.156C670.833 221.438 671.689 221.333 673.996 221.922C676.304 222.51 677.337 223.096 676.291 223.225ZM1033.87 318.959C1033.28 319.298 1032.06 319.026 1031.16 318.354C1030.17 317.611 1030.59 317.369 1032.23 317.737C1033.72 318.071 1034.45 318.621 1033.87 318.959ZM825.445 265.766C825.793 266.369 821.093 265.602 814.999 264.063C808.904 262.523 787.835 257.296 768.177 252.445C748.519 247.596 679.091 229.852 613.893 213.017C548.693 196.181 491.814 181.916 487.493 181.318C479.554 180.219 470.656 176.648 472.792 175.418C474.022 174.709 487.289 177.986 561.419 197.316C589.713 204.693 607.999 208.906 608.216 208.096C608.412 207.366 609.364 207.343 610.332 208.046C613.007 209.987 659.488 222.235 693.51 229.961C726.772 237.515 824.436 264.02 825.445 265.766ZM862.19 274.299C860.919 275.032 836.988 268.75 836.263 267.492C835.928 266.914 841.825 268.094 849.365 270.114C856.904 272.134 862.676 274.017 862.19 274.299ZM867.583 275.898C866.996 276.236 865.779 275.964 864.882 275.292C863.889 274.549 864.308 274.308 865.95 274.676C867.435 275.01 868.17 275.559 867.583 275.898ZM761.258 249.056C762.903 249.853 765.416 250.513 766.842 250.522C768.269 250.531 766.922 249.877 763.851 249.071C760.78 248.264 759.613 248.258 761.258 249.056ZM951.664 300.139C951.864 300.808 943.358 299.034 932.762 296.194C922.166 293.355 913.152 290.435 912.73 289.707C912.308 288.978 920.813 290.752 931.631 293.651C942.45 296.55 951.464 299.47 951.664 300.139ZM958.759 302.413C954.513 303.029 953.441 302.742 953.88 301.106C954.085 300.339 955.966 300.219 958.061 300.837C961.435 301.835 961.514 302.014 958.759 302.413ZM703.803 235.118C704.7 235.79 705.917 236.063 706.503 235.724C707.09 235.385 706.356 234.836 704.87 234.502C703.228 234.134 702.809 234.376 703.803 235.118ZM712.089 237.401C714.512 238.382 718.278 239.385 720.458 239.629C722.639 239.871 720.656 239.068 716.053 237.844C711.451 236.618 709.667 236.419 712.089 237.401ZM429.781 165.243C428.611 165.595 427.179 165.378 426.601 164.765C426.023 164.151 426.507 163.361 427.675 163.009C428.845 162.658 430.277 162.874 430.855 163.488C431.434 164.101 430.95 164.892 429.781 165.243ZM455.324 170.83C455.163 171.431 450.503 170.629 444.967 169.048C437.498 166.915 436.053 166.195 439.365 166.255C445.074 166.357 455.705 169.406 455.324 170.83ZM469.524 173.601C469.125 175.09 461.051 175.114 459.172 173.633C457.635 172.42 458.017 172.07 460.996 171.969C465.602 171.811 469.789 172.613 469.524 173.601ZM423.592 163.582C422.951 164.184 417.604 163.376 411.71 161.784C405.815 160.192 401.849 158.626 402.897 158.303C405.796 157.408 424.957 162.296 423.592 163.582ZM869.611 282.494C868.565 282.623 866.676 282.142 865.415 281.424C864.153 280.707 865.009 280.602 867.317 281.19C869.625 281.779 870.657 282.365 869.611 282.494ZM966.786 310.1C964.973 309.97 962.148 309.213 960.512 308.419C958.877 307.624 960.361 307.73 963.811 308.655C967.262 309.579 968.6 310.229 966.786 310.1ZM97.0715 96.9179C96.8661 97.6844 96.422 98.2376 96.0833 98.1468C95.7445 98.056 95.2489 97.2511 94.9802 96.3576C94.7116 95.464 95.1571 94.9112 95.9685 95.1287C96.7799 95.3461 97.2769 96.1514 97.0715 96.9179ZM45.4691 137.885C46.3664 138.557 47.5831 138.829 48.1699 138.49C48.7568 138.152 48.0223 137.602 46.5368 137.269C44.8946 136.9 44.4757 137.142 45.4691 137.885ZM1030.31 427.046C1029.72 427.385 1028.5 427.113 1027.61 426.44C1026.61 425.698 1027.03 425.456 1028.67 425.824C1030.16 426.158 1030.89 426.707 1030.31 427.046ZM49.6699 167.864C49.4645 168.631 48.6315 169.08 47.82 168.862C47.0086 168.645 46.8992 167.943 47.5786 167.304C48.258 166.664 49.0897 166.215 49.4285 166.306C49.7673 166.396 49.8753 167.098 49.6699 167.864ZM458.874 300.016C459.724 302.844 457.878 302.901 456.583 300.084C455.838 298.466 455.946 297.637 456.872 297.885C457.686 298.104 458.589 299.062 458.874 300.016ZM546.364 327.136C547.329 326.846 547.914 325.929 547.663 325.097C547.403 324.228 550.753 324.534 555.541 325.817C560.352 327.106 563.914 328.754 563.971 329.716C564.027 330.634 566.93 332.506 570.424 333.877C579.125 337.293 576.505 338.891 567.214 335.833C561.625 333.993 559.58 333.842 559.205 335.242C558.571 337.608 553.438 336.357 553.12 333.758C552.984 332.638 552.554 332.874 552.099 334.319C551.667 335.689 550.882 336.354 550.357 335.795C549.831 335.238 548.027 335.722 546.347 336.873C542.763 339.331 536.033 338.067 536.831 335.088C537.24 333.564 536.105 332.958 532.082 332.549C527.932 332.129 527.054 331.632 528.003 330.243C528.669 329.269 530.086 328.775 531.153 329.144C532.221 329.514 534.197 329.128 535.545 328.288C537.675 326.96 537.344 326.719 533.01 326.448C530.267 326.276 526.899 326.148 525.526 326.162C524.153 326.178 522.822 325.497 522.567 324.652C522.313 323.806 525.394 323.528 529.414 324.034C533.434 324.539 537.692 324.336 538.876 323.581C540.642 322.456 541.352 322.7 542.82 324.935C543.805 326.435 545.4 327.426 546.364 327.136ZM743.437 378.236C743.131 379.38 734.449 377.671 734.065 376.391C733.841 375.647 735.891 375.636 738.62 376.367C741.348 377.098 743.517 377.939 743.437 378.236ZM486.604 318.411C484.571 321.211 483.233 319.181 484.676 315.481C486.469 310.88 486.513 310.85 487.307 313.754C487.71 315.229 487.393 317.325 486.604 318.411ZM586.815 339.658C585.769 339.787 583.88 339.307 582.619 338.589C581.357 337.872 582.213 337.766 584.521 338.355C586.829 338.943 587.861 339.529 586.815 339.658ZM633.695 352.81C624.328 352.004 592.554 343.435 590.494 341.158C589.347 339.89 597.437 341.626 614.517 346.31C632.129 351.143 638.191 353.196 633.695 352.81ZM662.75 360.095C660.555 359.848 657.106 358.924 655.082 358.04C653.058 357.155 654.854 357.357 659.071 358.487C663.289 359.617 664.945 360.341 662.75 360.095ZM676.015 363.568C674.953 363.699 673.385 363.279 672.529 362.634C671.675 361.992 672.543 361.885 674.46 362.399C676.377 362.913 677.077 363.439 676.015 363.568ZM689.957 367.304C688.895 367.435 687.327 367.014 686.471 366.37C685.617 365.727 686.485 365.621 688.402 366.135C690.319 366.648 691.019 367.175 689.957 367.304ZM452.286 304.856C451.742 306.885 445.406 309.743 442.985 309.052C440.278 308.279 440.32 308.178 444.072 306.444L447.973 304.641L442.14 302.503C437.017 300.625 437.29 300.597 444.387 302.27C448.832 303.318 452.386 304.481 452.286 304.856ZM458.836 306.782C458.249 307.121 457.033 306.849 456.135 306.177C455.142 305.434 455.561 305.192 457.203 305.561C458.689 305.894 459.423 306.444 458.836 306.782ZM544.112 330.224C543.907 330.99 544.404 331.795 545.215 332.013C546.027 332.23 546.472 331.677 546.203 330.784C545.935 329.89 545.439 329.085 545.1 328.995C544.762 328.904 544.318 329.457 544.112 330.224ZM980.266 446.499C979.679 446.838 978.462 446.565 977.565 445.893C976.571 445.151 976.99 444.909 978.633 445.277C980.118 445.611 980.853 446.16 980.266 446.499ZM990.73 449.39C989.668 449.52 988.1 449.1 987.244 448.456C986.39 447.813 987.258 447.706 989.175 448.22C991.092 448.734 991.792 449.26 990.73 449.39ZM391.541 290.245C390.955 290.583 389.738 290.311 388.841 289.639C387.847 288.896 388.266 288.654 389.908 289.023C391.394 289.357 392.128 289.906 391.541 290.245ZM430.419 301.534C429.872 302.363 428.517 303.095 427.409 303.161C426.276 303.229 425.966 302.744 426.702 302.051C427.435 301.361 426.696 300.184 425.013 299.369C422.88 298.334 423.371 298.219 426.716 298.971C429.782 299.659 431.068 300.55 430.419 301.534ZM474.353 314.519C473.417 315.981 473.355 317.239 474.209 317.468C475.028 317.687 475.557 318.389 475.386 319.027C474.901 320.838 469.464 318.453 468.763 316.122C468.278 314.509 467.365 314.219 464.714 314.839C462.83 315.278 460.723 315.037 460.031 314.302C458.635 312.82 469.341 310.502 473.42 311.403C475.36 311.831 475.587 312.59 474.353 314.519ZM738.229 383.731C738.498 384.624 738.052 385.177 737.241 384.96C736.429 384.742 735.932 383.937 736.138 383.17C736.343 382.404 736.787 381.851 737.126 381.941C737.465 382.032 737.96 382.837 738.229 383.731ZM751.683 386.501C751.592 386.839 750.787 387.335 749.893 387.603C748.999 387.871 748.446 387.426 748.664 386.615C748.881 385.804 749.686 385.307 750.453 385.512C751.22 385.718 751.773 386.162 751.683 386.501ZM955.53 441.443C954.484 441.571 952.595 441.091 951.334 440.373C950.072 439.656 950.928 439.551 953.236 440.139C955.544 440.728 956.576 441.314 955.53 441.443ZM963.162 443.41C962.575 443.748 961.358 443.476 960.461 442.804C959.468 442.061 959.887 441.82 961.529 442.188C963.014 442.522 963.749 443.071 963.162 443.41ZM411.614 297.708C411.882 298.602 411.437 299.154 410.625 298.937C409.814 298.72 409.317 297.914 409.522 297.148C409.728 296.381 410.172 295.828 410.511 295.919C410.85 296.01 411.345 296.815 411.614 297.708ZM576.596 341.324C576.009 341.662 574.793 341.39 573.895 340.718C572.902 339.975 573.321 339.733 574.963 340.102C576.448 340.436 577.183 340.985 576.596 341.324ZM583.567 343.191C582.98 343.53 581.764 343.258 580.866 342.586C579.873 341.843 580.292 341.601 581.934 341.97C583.419 342.303 584.154 342.853 583.567 343.191ZM596.158 347.903C595.85 349.053 596.225 350.162 596.992 350.368C597.759 350.573 598.595 349.957 598.85 348.998C599.194 347.704 602.345 348.193 611.065 350.888C618.172 353.085 622.345 354.965 621.622 355.645C620.966 356.263 619.416 356.121 618.177 355.329C616.94 354.537 613.852 354.352 611.317 354.915C607.235 355.823 606.718 355.688 606.814 353.737C606.933 351.275 601.004 349.12 599.083 350.928C597.744 352.19 591.887 351.05 590.897 349.335C589.903 347.615 592.674 344.729 594.776 345.293C595.844 345.579 596.466 346.754 596.158 347.903ZM724.424 382.272C722.48 383.648 722.701 384.051 725.867 384.9C728.005 385.472 729.076 386.399 728.37 387.064C727.691 387.703 725.814 387.873 724.196 387.439C722.58 387.006 721.586 387.221 721.987 387.915C722.39 388.61 727.848 390.346 734.116 391.775C744.3 394.094 745.354 394.595 743.995 396.466C742.993 397.844 743.128 398.502 744.386 398.389C745.44 398.294 746.335 397.47 746.373 396.556C746.412 395.641 748.051 395.325 750.013 395.85C752.036 396.392 753.047 397.31 752.345 397.969C751.666 398.609 751.775 399.31 752.587 399.528C753.398 399.745 754.231 399.296 754.437 398.529C755.058 396.21 760.069 398.366 760.355 401.076C760.5 402.465 760.354 403.755 760.029 403.943C759.704 404.129 753.21 402.797 745.597 400.981C735.492 398.571 731.724 397.168 731.639 395.782C731.575 394.738 730.284 393.551 728.77 393.146C727.254 392.74 726.234 393.139 726.503 394.032C726.789 394.979 725.215 395.181 722.726 394.514C720.381 393.886 718.63 392.744 718.835 391.977C719.04 391.211 716.887 389.962 714.05 389.202C708.41 387.69 709.728 385.655 715.834 386.446C718.55 386.797 719.808 385.992 720.912 383.198C721.812 380.921 723.221 379.709 724.551 380.066C726.321 380.54 726.298 380.946 724.424 382.272ZM862.846 420.566C864.272 421.377 862.476 421.178 858.854 420.126C855.233 419.073 852.418 417.658 852.598 416.984C852.779 416.308 854.147 416.537 855.638 417.491C857.711 418.815 858.2 418.707 857.717 417.027C857.22 415.301 857.423 415.286 858.668 416.961C859.539 418.134 861.419 419.755 862.846 420.566ZM688.685 373.443C688.006 374.082 686.861 374.448 686.138 374.254C685.416 374.061 684.995 373.276 685.2 372.509C685.405 371.743 686.552 371.378 687.747 371.698C688.942 372.018 689.365 372.803 688.685 373.443ZM539.83 335.051C542.066 337.522 543.545 337.918 544.013 336.172C544.218 335.405 542.971 334.409 541.244 333.958C538.703 333.297 538.432 333.505 539.83 335.051ZM670.722 370.772C670.419 371.903 671.792 373.427 673.89 374.287C676.86 375.504 676.42 375.631 671.663 374.931C666.257 374.136 665.807 373.779 666.578 370.903C667.047 369.154 668.279 367.975 669.341 368.26C670.395 368.542 671.017 369.672 670.722 370.772ZM714.16 381.54C713.973 382.24 711.288 382.172 708.194 381.389C705.099 380.604 702.973 379.582 703.466 379.117C704.809 377.854 714.556 380.063 714.16 381.54ZM279.439 266.773C279.708 267.667 278.948 268.135 277.754 267.815C276.559 267.495 275.748 266.606 275.953 265.839C276.159 265.073 276.917 264.604 277.639 264.797C278.361 264.991 279.17 265.88 279.439 266.773ZM556.165 341.01C555.948 341.821 555.188 341.868 554.476 341.113C553.765 340.358 552.404 340.458 551.452 341.335C550.081 342.596 549.851 342.417 550.351 340.484C550.745 338.964 552.038 338.322 553.772 338.787C555.306 339.198 556.382 340.199 556.165 341.01ZM575.799 345.809C575.645 346.383 574.01 346.45 572.166 345.956C570.323 345.462 569.232 344.665 569.741 344.186C570.249 343.707 571.884 343.64 573.373 344.039C574.862 344.438 575.953 345.235 575.799 345.809ZM841.3 417.323C840.621 417.963 838.702 418.073 837.037 417.57C834.117 416.686 834.12 416.638 837.118 416.203C841.396 415.582 842.761 415.948 841.3 417.323ZM943.774 444.781C943.568 445.548 944.81 446.563 946.531 447.036C948.253 447.511 950.441 448.759 951.392 449.81C952.667 451.219 951.454 451.357 946.769 450.334C943.275 449.571 938.154 448.606 935.389 448.189C932.624 447.774 908.667 441.818 882.152 434.954C855.637 428.09 837.833 423.014 842.587 423.674C847.341 424.336 854.472 425.326 858.434 425.877C873.655 427.994 891.65 432.305 892.144 433.951C892.418 434.864 893.393 435.385 894.31 435.109C895.228 434.835 897.234 435.787 898.77 437.226C900.304 438.665 902.823 439.692 904.367 439.508C905.909 439.324 911.71 440.272 917.256 441.614C922.801 442.957 927.858 443.755 928.494 443.388C929.129 443.021 931.696 443.642 934.198 444.766C937.816 446.393 938.871 446.347 939.355 444.54C939.69 443.29 940.905 442.519 942.056 442.827C943.206 443.135 943.979 444.015 943.774 444.781ZM984.693 456.119C984.97 457.687 985.296 457.774 986.319 456.554C987.696 454.916 999.495 457.438 1000.12 459.505C1000.32 460.174 997.778 459.762 994.474 458.589C990.72 457.256 988.309 457.031 988.052 457.988C987.429 460.313 981.003 458.068 980.725 455.429C980.431 452.626 984.191 453.279 984.693 456.119ZM661.075 370.526C660.396 371.165 658.164 371.192 656.115 370.586C652.788 369.6 652.722 369.433 655.499 369.032C659.818 368.405 662.55 369.138 661.075 370.526ZM792.13 405.642C791.45 406.281 792.187 407.151 793.765 407.574C795.344 407.997 796.804 407.716 797.01 406.949C797.451 405.304 800.053 406.4 801.822 408.977C803.446 411.34 795.436 412.598 791.83 410.546C790.438 409.753 788.693 409.673 787.956 410.368C787.216 411.063 785.672 411.38 784.521 411.072C783.371 410.764 783.029 409.948 783.761 409.259C784.682 408.392 783.038 407.774 778.411 407.248C774.358 406.787 771.873 405.956 772.093 405.132C772.293 404.387 776.154 404.368 780.672 405.093C785.191 405.819 789.282 405.813 789.765 405.08C790.248 404.349 791.257 403.914 792.004 404.115C792.753 404.315 792.809 405.002 792.13 405.642ZM832.02 416.214C830.758 416.609 827.939 416.203 825.759 415.313C822.705 414.066 821.46 414.279 820.343 416.241C819.544 417.642 818.357 418.644 817.704 418.469C816.199 418.066 819.036 413.963 821.394 413.132C822.367 412.79 825.674 413.183 828.741 414.004C832.546 415.024 833.589 415.726 832.02 416.214ZM340.778 286.021C340.333 287.681 334.588 287.562 334.083 285.884C333.862 285.15 334.555 284.444 335.623 284.313C338.786 283.927 341.13 284.704 340.778 286.021ZM358.858 291.041C358.653 291.807 357.895 292.277 357.173 292.083C356.451 291.889 355.642 291 355.373 290.107C355.104 289.213 355.863 288.745 357.058 289.065C358.253 289.385 359.064 290.274 358.858 291.041ZM383.995 297.613C383.43 299.721 373.129 297.441 369.926 294.501C367.12 291.925 367.541 291.892 375.611 294.045C380.406 295.325 384.178 296.93 383.995 297.613ZM388.138 299.297C387.519 300.918 385.694 300.082 385.576 298.125C385.516 297.123 386.152 296.756 386.99 297.309C387.828 297.862 388.345 298.756 388.138 299.297ZM399.308 306.995C399.171 307.719 398.221 306.792 397.194 304.935C395.929 302.647 395.909 301.372 397.133 300.978C398.771 300.449 399.934 303.666 399.308 306.995ZM412.567 304.845C415.113 306.694 414.533 308.946 411.706 308.189C410.511 307.869 409.738 308.293 409.992 309.132C410.243 309.972 409.21 310.225 407.695 309.694C404.862 308.702 405.32 305.192 408.44 303.975C410.484 303.179 410.186 303.115 412.567 304.845ZM959.757 452.051C959.552 452.818 958.288 453.141 956.949 452.77C954.869 452.193 954.872 451.979 956.969 451.304C960.055 450.309 960.213 450.351 959.757 452.051ZM425.95 311.344C421.991 311.851 421.715 312.125 423.916 313.357C425.975 314.511 425.785 314.635 422.923 314.008C420.879 313.561 418.995 311.97 418.468 310.25C417.633 307.517 418.101 307.414 424.045 309.012C430.472 310.741 430.489 310.761 425.95 311.344ZM444.684 318.086C444.459 321.174 444.027 321.462 441.667 320.098C440.153 319.223 436.413 317.807 433.355 316.952C428.855 315.694 428.339 315.248 430.649 314.621C432.218 314.194 433.304 313.186 433.062 312.379C432.819 311.573 435.394 311.716 438.783 312.697C444.185 314.261 444.915 314.927 444.684 318.086ZM485.706 328.858C486.624 331.225 487.362 331.635 489.004 330.687C491.947 328.989 494.854 330.022 494.183 332.529C493.746 334.158 491.858 334.121 485.635 332.361C481.242 331.12 478.518 329.997 479.579 329.868C484.121 329.312 481.633 326.926 474.527 325.022C466.233 322.799 463.398 324.458 470.54 327.354C473.264 328.458 471.898 328.41 466.926 327.227C462.44 326.159 458.699 324.549 458.401 323.558C458.019 322.286 457.333 322.102 455.949 322.901C454.892 323.511 453.086 323.758 451.936 323.449C450.39 323.035 450.363 322.59 451.828 321.745C452.919 321.115 453.707 319.603 453.578 318.382C453.381 316.507 455.755 316.91 468.935 320.987C482.016 325.033 484.715 326.298 485.706 328.858ZM516.95 336.762C516.544 338.322 507.159 335.495 506.603 333.645C506.314 332.684 508.325 332.778 511.674 333.883C514.726 334.891 517.099 336.187 516.95 336.762ZM567.263 349.782C567.07 350.504 566.182 351.312 565.292 351.579C562.456 352.43 524.981 341.649 522.279 339.206C520.906 337.964 538.56 341.156 552.566 344.682C561.197 346.856 567.465 349.029 567.263 349.782ZM628.188 366.973C629.263 368.836 626.492 368.626 613.299 365.849C599.771 363.002 586.13 357.444 586.774 355.041C587.102 353.816 627.274 365.391 628.188 366.973ZM677.72 380.907C668.511 379.3 661.907 376.897 664.52 376.103C665.405 375.834 670.664 377.142 676.207 379.008L686.285 382.401L677.72 380.907ZM702.478 386.101C702.273 386.867 701.829 387.421 701.49 387.33C701.151 387.239 700.655 386.434 700.387 385.541C700.118 384.647 700.564 384.094 701.375 384.312C702.186 384.529 702.684 385.334 702.478 386.101ZM733.848 394.506C733.168 395.146 733.591 395.931 734.786 396.251C735.981 396.572 737.128 396.207 737.333 395.44C737.538 394.674 737.117 393.889 736.395 393.695C735.672 393.502 734.527 393.867 733.848 394.506ZM1023 471.511C1023.9 472.183 1025.11 472.456 1025.7 472.117C1026.29 471.778 1025.55 471.229 1024.07 470.895C1022.43 470.527 1022.01 470.769 1023 471.511ZM695.947 385.704C695.331 386.283 693.661 386.094 692.236 385.282C688.668 383.252 689.226 382.55 693.498 383.695C695.46 384.22 696.562 385.125 695.947 385.704ZM768.107 404.675C767.045 404.806 765.477 404.385 764.621 403.741C763.767 403.098 764.635 402.992 766.552 403.506C768.469 404.019 769.169 404.546 768.107 404.675ZM832.24 421.859C831.178 421.99 829.61 421.57 828.754 420.925C827.9 420.283 828.768 420.176 830.685 420.69C832.602 421.204 833.302 421.73 832.24 421.859ZM1010.82 476.189C1011.09 477.083 1011.58 477.888 1011.92 477.979C1012.26 478.069 1012.71 477.516 1012.91 476.75C1013.12 475.983 1012.62 475.178 1011.81 474.96C1011 474.743 1010.55 475.296 1010.82 476.189ZM1047.62 485.577C1048.52 486.249 1049.74 486.522 1050.32 486.183C1050.91 485.844 1050.18 485.295 1048.69 484.961C1047.05 484.593 1046.63 484.835 1047.62 485.577ZM472.962 350.369C472.81 350.943 460.011 347.893 444.522 343.591C425.026 338.174 420.071 336.501 428.42 338.156C445.746 341.588 473.288 349.14 472.962 350.369ZM486.77 354.617C486.692 354.909 483.667 354.278 480.049 353.212C474.391 351.543 474.092 351.296 477.908 351.443C482.053 351.602 487.094 353.408 486.77 354.617ZM414.604 335.347C413.542 335.478 411.973 335.057 411.118 334.413C410.264 333.77 411.132 333.664 413.049 334.178C414.966 334.691 415.666 335.218 414.604 335.347ZM287.628 304.509C288.424 305.403 282.555 304.426 274.414 302.309C266.357 300.215 260.128 298.16 260.572 297.743C261.782 296.603 285.976 302.654 287.628 304.509ZM924.536 476.495C925.434 477.168 926.65 477.44 927.237 477.101C927.824 476.762 927.089 476.213 925.604 475.879C923.962 475.511 923.543 475.753 924.536 476.495ZM822.299 450.477C821.712 450.815 820.495 450.543 819.598 449.871C818.605 449.128 819.024 448.887 820.666 449.255C822.151 449.589 822.886 450.138 822.299 450.477ZM336.968 323.632C345.103 326.075 358.905 329.775 367.64 331.852C376.375 333.93 369.719 331.931 352.849 327.41C335.98 322.888 328.834 321.188 336.968 323.632ZM461.744 357.771C462.288 358.713 463.965 359.55 465.469 359.629C467.495 359.738 467.238 359.292 464.479 357.917C462.073 356.715 461.105 356.665 461.744 357.771ZM894.138 472.831C895.035 473.503 896.252 473.776 896.839 473.437C897.425 473.098 896.691 472.549 895.205 472.215C893.563 471.847 893.144 472.089 894.138 472.831ZM472.637 361.42C474.282 362.218 476.795 362.878 478.221 362.887C479.647 362.895 478.301 362.242 475.23 361.435C472.159 360.629 470.992 360.622 472.637 361.42ZM492.156 366.65C493.801 367.448 496.314 368.108 497.74 368.117C499.166 368.125 497.82 367.472 494.749 366.665C491.677 365.859 490.511 365.852 492.156 366.65ZM535.378 378.258C537.8 379.239 541.566 380.242 543.746 380.486C545.927 380.728 543.945 379.925 539.341 378.7C534.739 377.475 532.955 377.276 535.378 378.258ZM555.59 383.664C557.624 384.551 560.763 385.383 562.567 385.512C564.37 385.641 562.706 384.915 558.869 383.897C555.032 382.881 553.557 382.775 555.59 383.664ZM738.221 432.556C739.469 433.267 741.666 433.856 743.101 433.864C744.536 433.873 743.516 433.292 740.832 432.573C738.148 431.854 736.974 431.847 738.221 432.556ZM761.236 438.683C762.091 439.327 763.66 439.747 764.721 439.617C765.784 439.488 765.084 438.961 763.167 438.447C761.25 437.934 760.381 438.04 761.236 438.683Z" fill="#FFF06F" fill-opacity="0.42"/>
</svg>
