<svg width="1144" height="528" viewBox="0 0 1144 528" fill="none" xmlns="http://www.w3.org/2000/svg">
<path fill-rule="evenodd" clip-rule="evenodd" d="M833.01 170.042C823.955 168.084 816 166.504 815.332 166.531C814.664 166.558 818.32 168.045 823.456 169.836C832.768 173.082 832.752 173.081 818.131 169.533C810.067 167.576 798.066 164.953 791.464 163.702C783.158 162.13 787.273 163.352 804.817 167.666C844.913 177.527 886.054 187.77 891.314 189.2C894.25 189.999 895.985 190 895.746 189.206C895.489 188.348 905.397 190.591 924.627 195.744C945.406 201.311 953.586 203.882 952.821 204.602C952.142 205.242 952.749 205.784 954.461 206.065C955.956 206.309 957.855 207.012 958.682 207.626C959.509 208.239 967.606 211.306 976.676 214.443C985.746 217.579 994.939 221.097 997.105 222.259C999.272 223.421 1001.16 223.955 1001.29 223.445C1001.63 222.172 998.864 220.637 982.468 213.002C980.411 212.046 976.599 210.133 973.996 208.754C968.387 205.781 857.597 175.361 833.01 170.042ZM491.415 79.7765C485.98 78.9891 486.118 79.0801 493.712 81.2925C501.71 83.6218 504.268 83.7993 499.609 81.7006C498.282 81.1025 494.595 80.2372 491.415 79.7765ZM478.939 77.0243C477.654 76.8855 472.104 75.9135 466.604 74.8636C461.105 73.814 456.505 73.326 456.383 73.7808C456.262 74.2346 457.854 74.845 459.924 75.1366C462.809 75.5433 463.22 75.8373 461.688 76.3994C460.169 76.9555 460.908 77.4283 464.764 78.3669C469.392 79.4941 469.563 79.4485 466.706 77.8471L463.572 76.0914L467.718 77.0593C469.997 77.5919 471.91 78.5223 471.969 79.1277C472.028 79.7525 476.279 80.9658 481.826 81.9406C492.343 83.7909 492.28 83.3118 481.629 80.4326C477.933 79.4326 476.236 78.7064 477.857 78.8179C480.643 79.0097 484.835 77.7025 482.38 77.4072C481.772 77.3345 480.223 77.1619 478.939 77.0243ZM865.33 180.743C861.444 179.935 854.888 178.18 850.759 176.842C846.63 175.505 849.809 176.165 857.823 178.311C865.837 180.456 869.215 181.551 865.33 180.743ZM880.997 184.848C880.144 184.953 878.883 184.615 878.196 184.097C877.509 183.581 878.207 183.495 879.748 183.908C881.289 184.321 881.852 184.744 880.997 184.848ZM965.877 208.792C965.024 208.897 963.763 208.56 963.075 208.042C962.388 207.525 963.086 207.439 964.627 207.852C966.168 208.265 966.731 208.689 965.877 208.792ZM973.746 210.893C972.905 210.997 971.386 210.611 970.372 210.034C969.358 209.457 970.046 209.373 971.901 209.846C973.757 210.319 974.587 210.79 973.746 210.893ZM493.718 83.5108C494.72 84.082 496.487 84.5553 497.641 84.5619C498.794 84.5696 497.974 84.1025 495.816 83.5244C493.659 82.9463 492.715 82.9407 493.718 83.5108ZM504.373 86.3335C505.061 86.8516 506.322 87.1895 507.175 87.0843C508.03 86.9806 507.467 86.5572 505.926 86.1443C504.385 85.7314 503.687 85.8169 504.373 86.3335ZM289.31 30.6911C288.847 31.1267 282.877 29.8741 276.043 27.9072C263.642 24.3406 241.373 20.1411 237.311 20.6042C235.952 20.7587 234.976 21.9045 234.644 23.7333C234.08 26.846 234.225 27.0012 240.247 29.7362C245.175 31.9753 245.105 33.8995 240.153 32.3287C236.856 31.2832 236.512 31.4529 236.052 34.3555C235.611 37.1289 235.159 37.4209 232.42 36.7024C228.494 35.6746 226.847 36.3006 225.726 39.2471C224.997 41.1641 225.581 41.8945 229.1 43.4666C234.795 46.0121 234.058 47.4754 227.573 46.4977C222.45 45.7254 215.185 48.104 215.856 50.3347C216.022 50.8895 214.555 51.271 212.596 51.1818C209.516 51.0411 209.192 51.2928 210.2 53.0388C210.842 54.1497 212.032 55.2455 212.844 55.4728C213.957 55.7853 213.848 56.0336 212.403 56.4844C211.059 56.9025 212.259 57.667 216.413 59.0408C222.269 60.9774 222.33 61.044 221.466 64.6695C220.987 66.688 220.215 68.2368 219.753 68.113C219.291 67.9893 218.642 68.8961 218.312 70.1285C217.867 71.7888 216.903 72.1945 214.589 71.6957C211.867 71.1091 211.776 71.1726 213.886 72.1953C216.968 73.6888 222.061 78.3208 220.035 77.7877C219.179 77.5619 218.594 78.1581 218.699 79.1502C218.974 81.7709 216.412 82.4579 208.672 81.8394C201.747 81.2856 198.6 81.6575 202.154 82.6098C203.182 82.8852 203.82 83.8667 203.572 84.791C203.222 86.0984 201.628 86.0711 196.397 84.6696C189.146 82.7266 186.317 84.2622 193.234 86.3869C195.81 87.1781 196.386 87.593 194.744 87.476C193.285 87.3709 191.976 87.7201 191.833 88.2523C191.691 88.7844 190.471 89.2694 189.124 89.331C187.777 89.3915 186.832 89.9658 187.024 90.6043C187.216 91.2443 185.588 91.8011 183.407 91.8422C179.979 91.9071 180.578 92.2417 187.809 94.3042C196.403 96.7559 196.408 98.0215 187.82 97.2983C184.013 96.977 183.471 97.2304 184.266 98.9575C185.02 100.598 185.467 100.762 186.554 99.8001C187.603 98.8697 188.147 99.1954 188.996 101.263C189.997 103.698 189.85 103.955 187.248 104.339C184.817 104.696 185.273 105.083 190.408 107.023C195.792 109.056 196.126 109.363 193.66 110.015C192.15 110.415 188.617 110.486 185.809 110.173C177.083 109.202 176.242 110.408 184.102 112.623L191.362 114.668L180.876 115.697L170.389 116.726L175.843 118.788L181.297 120.85L174.287 120.596C169.389 120.419 167.668 120.767 168.573 121.749C169.286 122.522 170.865 123.468 172.084 123.851C174.285 124.542 174.283 124.549 171.846 124.819C170.066 125.016 171.316 125.891 176.398 128.006C182.746 130.646 182.972 130.845 178.813 130.12C176.288 129.68 173.617 129.664 172.877 130.081C172.044 130.552 176.613 132.239 184.902 134.519C195.227 137.359 197.501 138.264 194.888 138.495C192.927 138.669 191.28 139.633 190.97 140.789C190.536 142.407 188.37 142.657 179.52 142.111C173.517 141.741 169.506 141.875 170.606 142.409C172.207 143.186 172.241 143.494 170.777 143.951C169.432 144.371 169.686 144.728 171.741 145.307C173.277 145.739 175.15 146.76 175.904 147.577C177.427 149.227 176.875 149.383 170.561 149.083C168.838 149.001 166.965 149.574 166.395 150.358C165.528 151.55 167.418 152.244 178.033 154.625C187.399 156.726 190.181 157.671 188.695 158.245C187 158.902 187.044 159.09 188.974 159.446C192.8 160.15 193.524 160.728 191.448 161.421C190.103 161.869 191.689 162.4 196.409 163.081C205.048 164.326 204.623 164.2 223.115 171.009C234.446 175.181 251.428 179.917 288.502 189.244C319.276 196.986 347.965 204.846 362.923 209.632C412.217 225.409 417.139 226.908 416.623 225.979C416.334 225.458 410.95 223.36 404.658 221.317C398.368 219.275 392.862 217.023 392.424 216.318C391.332 214.556 487.812 240.522 521.472 251.049C540.78 257.087 687.829 298.18 739.147 311.879C750.597 314.935 800.899 326.896 803.292 327.131C805.266 327.324 806.18 327.817 805.591 328.373C805.053 328.879 805.117 329.429 805.733 329.594C806.35 329.759 807.301 329.473 807.847 328.959C809.148 327.734 813.28 328.859 812.885 330.331C812.546 331.598 839.002 338.767 858.661 342.737C867.663 344.555 870.523 345.495 870.647 346.678C870.738 347.533 871.543 348.428 872.438 348.668C873.334 348.908 873.889 348.516 873.673 347.798C873.457 347.08 874.216 346.65 875.36 346.844C876.503 347.037 878.225 347.286 879.186 347.396C880.148 347.507 883.725 348.28 887.135 349.113C890.913 350.036 892.86 350.11 892.115 349.303C890.909 347.991 899.088 349.263 921.881 353.935C933.34 356.283 938.936 355.811 930.422 353.215C927.705 352.386 925.008 351.456 924.43 351.147C923.852 350.839 918.621 349.175 912.807 347.452L902.235 344.315L909.754 345.396C913.889 345.99 922.273 347.647 928.385 349.079C934.496 350.51 939.842 351.356 940.265 350.959C940.687 350.562 942.041 350.507 943.274 350.837C944.507 351.168 945.362 350.927 945.175 350.302C944.985 349.671 942.594 349.008 939.798 348.81C934.154 348.409 928.969 347.3 929.99 346.711C931.358 345.92 955.651 348.143 957.093 349.19C957.936 349.801 959.086 349.592 959.727 348.71C960.534 347.6 962.595 347.553 966.832 348.549L972.8 349.952L966.813 347.639C962.103 345.819 961.507 345.356 964.022 345.466C965.781 345.542 969.544 346.63 972.385 347.881C975.225 349.132 977.692 350.085 977.865 349.998C978.039 349.91 977.684 348.477 977.078 346.813C976.348 344.809 975.499 344.063 974.564 344.602C973.628 345.143 972.069 344.705 969.945 343.302C964.242 339.539 965.356 339.335 975.042 342.368C981.8 344.484 984.421 344.926 984.113 343.898C983.845 343.007 984.685 342.679 986.293 343.044C988.621 343.572 978.206 338.383 969.664 334.759C967.884 334.003 970.233 334.316 974.883 335.454C979.534 336.59 984.226 337.234 985.311 336.885C986.947 336.358 986.903 336.141 985.051 335.614C983.823 335.265 982.205 334.244 981.454 333.345C980.457 332.151 981.469 332.286 985.22 333.847C991.928 336.636 993.661 336.052 991.366 331.777C990.351 329.884 990.167 328.58 990.946 328.789C991.706 328.992 992.151 328.571 991.935 327.853C991.719 327.135 989.431 325.973 986.85 325.272C984.27 324.569 981.542 323.267 980.79 322.376C979.806 321.212 981.017 321.404 985.11 323.065C990.898 325.412 993.563 324.527 989.066 321.75C986.804 320.354 986.809 320.307 989.277 319.843C991.281 319.468 990.96 319.246 987.729 318.779C983.073 318.107 978.981 314.421 982.481 314.054C983.578 313.939 985.379 314.088 986.485 314.385C987.593 314.682 989.329 314.336 990.344 313.618C991.794 312.592 991.894 312.232 990.811 311.942C990.047 311.737 989.921 310.901 990.53 310.065C991.233 309.096 990.944 308.345 989.72 307.963C988.139 307.468 988.238 307.314 990.302 307.05C992.613 306.754 992.59 306.585 989.968 304.643C988.416 303.495 986.422 302.36 985.538 302.123C984.653 301.886 984.065 301.188 984.23 300.572C984.395 299.956 987.443 300.179 991.004 301.07L997.477 302.688L993.736 299.837C989.68 296.748 989.444 294.325 993.115 293.468C994.391 293.17 1001.17 294.081 1008.19 295.492C1015.2 296.904 1021.05 297.669 1021.17 297.191C1021.3 296.714 1020.15 295.446 1018.63 294.372C1016.3 292.74 1017.17 292.762 1023.99 294.51C1028.62 295.696 1032.27 296.114 1032.44 295.479C1032.61 294.863 1031.7 294.08 1030.44 293.74C1029.17 293.4 1028.56 292.72 1029.08 292.228C1029.6 291.737 1030.69 291.817 1031.5 292.406C1032.31 292.995 1033.11 293.004 1033.26 292.426C1033.42 291.847 1031.3 290.17 1028.55 288.698C1024.32 286.428 1026.09 286.758 1040.28 290.885L1057 295.747L1042.98 289.795C1018.44 279.379 1018.87 279.594 1022.31 279.494C1025.11 279.412 1025.16 279.348 1022.91 278.636C1019.54 277.565 1019.19 275.399 1022.43 275.633C1023.91 275.74 1023.04 275.203 1020.47 274.421C1017.92 273.649 1015.8 272.475 1015.76 271.813C1015.72 271.151 1009.99 268.642 1003.04 266.239C990.655 261.96 990.5 261.869 995.494 261.762C998.747 261.694 1006.72 263.392 1017.51 266.453C1033.13 270.884 1034.59 271.118 1036.6 269.504C1038.51 267.966 1040.47 268.162 1052.83 271.125C1064.05 273.812 1066.98 274.173 1067.32 272.906C1067.56 272.032 1067.31 271.199 1066.77 271.056C1065.2 270.634 1046.98 262.133 1045.01 260.904C1041.29 258.578 1044 257.743 1050.25 259.286C1056.66 260.866 1056.68 260.861 1052.49 258.756C1050.16 257.585 1044.24 255.48 1039.33 254.078C1030.59 251.579 1019.09 246.865 1022.56 247.2C1025.86 247.52 1014.72 242.875 1007.01 240.722C1000.3 238.845 999.081 238.126 997.469 235.075L995.623 231.578L1000.36 232.739L1005.1 233.9L1001.56 231.772C999.614 230.602 997.035 229.64 995.827 229.632C994.62 229.624 993.744 229.199 993.881 228.686C994.019 228.173 993.31 227.285 992.308 226.714C991.305 226.144 992.786 226.162 995.599 226.758L1000.72 227.839L995.899 225.638C980.158 218.447 863.337 185.504 825.019 177.451C814.073 175.151 799.987 171.907 793.716 170.242C785.667 168.107 782.035 167.585 781.369 168.465C780.659 169.405 780.282 169.329 779.842 168.154C779.348 166.838 756.414 159.33 754.09 159.723C751.819 160.108 456.61 80.8756 436.943 74.6033C423.856 70.4292 408.915 65.6691 403.74 64.0254C398.564 62.3817 383.091 57.7435 369.357 53.721C355.621 49.6971 339.384 44.7269 333.275 42.6769C315.61 36.7476 290.227 29.8274 289.31 30.6911ZM858.306 182.395C859.027 182.936 860.005 183.155 860.477 182.882C860.949 182.61 860.358 182.169 859.164 181.9C857.844 181.604 857.507 181.798 858.306 182.395ZM827.744 175.407C828.466 175.948 829.444 176.166 829.916 175.894C830.387 175.622 829.797 175.18 828.603 174.912C827.283 174.616 826.946 174.81 827.744 175.407ZM836.711 177.81C837.432 178.35 838.41 178.569 838.882 178.297C839.354 178.024 838.763 177.583 837.569 177.315C836.249 177.018 835.912 177.213 836.711 177.81ZM476.261 83.6567C477.577 84.2951 479.845 84.9029 481.304 85.0081C482.763 85.1121 481.687 84.5894 478.913 83.8462C476.139 83.1029 474.945 83.0171 476.261 83.6567ZM702.055 148.901C701.214 149.005 699.696 148.619 698.682 148.042C697.667 147.465 698.356 147.38 700.211 147.854C702.066 148.327 702.896 148.798 702.055 148.901ZM989.508 225.861C989.036 226.134 988.058 225.915 987.336 225.375C986.538 224.778 986.875 224.583 988.195 224.879C989.389 225.148 989.979 225.589 989.508 225.861ZM821.959 183.1C822.239 183.584 818.461 182.968 813.562 181.731C808.662 180.492 791.725 176.29 775.922 172.391C760.119 168.493 704.306 154.228 651.894 140.695C599.481 127.161 553.756 115.693 550.282 115.213C543.9 114.329 536.747 111.459 538.464 110.469C539.453 109.9 550.118 112.534 609.711 128.073C632.456 134.003 647.156 137.39 647.331 136.739C647.488 136.152 648.253 136.134 649.032 136.699C651.182 138.26 688.548 148.105 715.897 154.317C742.637 160.389 821.149 181.696 821.959 183.1ZM851.498 189.959C850.477 190.549 831.239 185.498 830.656 184.487C830.386 184.022 835.127 184.971 841.188 186.595C847.25 188.219 851.889 189.732 851.498 189.959ZM855.834 191.244C855.362 191.517 854.384 191.298 853.663 190.758C852.864 190.161 853.201 189.966 854.521 190.262C855.715 190.531 856.306 190.972 855.834 191.244ZM770.36 169.666C771.683 170.308 773.703 170.838 774.849 170.845C775.996 170.852 774.914 170.327 772.445 169.678C769.976 169.03 769.038 169.025 770.36 169.666ZM923.426 210.732C923.587 211.27 916.749 209.843 908.231 207.561C899.713 205.278 892.466 202.931 892.127 202.345C891.788 201.76 898.625 203.186 907.322 205.516C916.019 207.846 923.265 210.194 923.426 210.732ZM929.13 212.56C925.717 213.056 924.855 212.825 925.207 211.509C925.372 210.893 926.884 210.796 928.569 211.293C931.281 212.096 931.345 212.239 929.13 212.56ZM724.172 158.462C724.893 159.002 725.871 159.221 726.343 158.949C726.815 158.677 726.225 158.235 725.03 157.967C723.71 157.671 723.373 157.865 724.172 158.462ZM730.834 160.298C732.781 161.086 735.808 161.892 737.561 162.088C739.315 162.283 737.721 161.637 734.02 160.653C730.32 159.668 728.887 159.508 730.834 160.298ZM503.888 102.29C502.947 102.573 501.796 102.399 501.331 101.905C500.866 101.412 501.255 100.777 502.195 100.494C503.135 100.212 504.286 100.386 504.751 100.879C505.216 101.372 504.827 102.008 503.888 102.29ZM524.421 106.781C524.292 107.264 520.546 106.619 516.096 105.349C510.091 103.634 508.93 103.055 511.592 103.103C516.182 103.185 524.728 105.636 524.421 106.781ZM535.837 109.009C535.516 110.205 529.025 110.225 527.515 109.034C526.279 108.06 526.587 107.778 528.981 107.697C532.684 107.57 536.05 108.215 535.837 109.009ZM498.912 100.955C498.397 101.439 494.099 100.789 489.36 99.5095C484.622 98.2291 481.434 96.9701 482.276 96.7106C484.606 95.9915 500.01 99.9206 498.912 100.955ZM857.464 196.547C856.623 196.651 855.105 196.264 854.091 195.687C853.077 195.111 853.765 195.026 855.62 195.499C857.475 195.972 858.305 196.443 857.464 196.547ZM935.583 218.739C934.125 218.635 931.854 218.026 930.539 217.388C929.225 216.749 930.417 216.834 933.191 217.578C935.965 218.321 937.041 218.843 935.583 218.739ZM236.425 47.3637C236.259 47.9799 235.902 48.4246 235.63 48.3517C235.358 48.2787 234.959 47.6316 234.743 46.9133C234.527 46.195 234.886 45.7506 235.538 45.9254C236.19 46.1002 236.59 46.7476 236.425 47.3637ZM194.942 80.2966C195.663 80.8369 196.641 81.0558 197.113 80.7835C197.585 80.5113 196.994 80.0697 195.8 79.8013C194.48 79.5052 194.143 79.6996 194.942 80.2966ZM986.647 312.752C986.175 313.024 985.197 312.805 984.476 312.265C983.677 311.668 984.014 311.473 985.334 311.77C986.528 312.038 987.119 312.48 986.647 312.752ZM198.319 104.397C198.154 105.013 197.484 105.374 196.832 105.199C196.179 105.024 196.091 104.461 196.638 103.946C197.184 103.432 197.852 103.071 198.125 103.144C198.397 103.217 198.484 103.781 198.319 104.397ZM527.275 210.633C527.959 212.906 526.475 212.952 525.434 210.688C524.834 209.387 524.922 208.721 525.666 208.92C526.32 209.096 527.046 209.866 527.275 210.633ZM597.608 232.435C598.384 232.202 598.854 231.464 598.652 230.796C598.443 230.097 601.136 230.343 604.985 231.375C608.853 232.411 611.716 233.735 611.762 234.509C611.807 235.246 614.141 236.752 616.949 237.854C623.945 240.6 621.838 241.885 614.369 239.426C609.877 237.947 608.232 237.826 607.931 238.951C607.421 240.853 603.295 239.847 603.039 237.758C602.93 236.858 602.585 237.047 602.218 238.209C601.871 239.311 601.24 239.845 600.818 239.396C600.395 238.948 598.945 239.337 597.594 240.262C594.713 242.238 589.303 241.222 589.945 238.828C590.273 237.602 589.361 237.115 586.127 236.786C582.791 236.448 582.085 236.049 582.848 234.933C583.383 234.149 584.523 233.752 585.38 234.049C586.238 234.346 587.827 234.036 588.911 233.361C590.623 232.293 590.357 232.099 586.872 231.882C584.668 231.744 581.96 231.64 580.857 231.652C579.753 231.665 578.683 231.117 578.478 230.438C578.274 229.758 580.75 229.534 583.982 229.941C587.214 230.347 590.637 230.184 591.589 229.577C593.008 228.672 593.579 228.868 594.759 230.665C595.551 231.871 596.833 232.668 597.608 232.435ZM756.034 273.513C755.788 274.433 748.809 273.059 748.5 272.03C748.32 271.432 749.968 271.423 752.161 272.011C754.355 272.599 756.098 273.275 756.034 273.513ZM549.568 225.421C547.933 227.671 546.858 226.04 548.017 223.065C549.459 219.366 549.494 219.342 550.132 221.677C550.456 222.862 550.202 224.547 549.568 225.421ZM630.126 242.501C629.285 242.605 627.767 242.218 626.753 241.642C625.739 241.065 626.427 240.98 628.282 241.453C630.137 241.927 630.967 242.398 630.126 242.501ZM667.813 253.074C660.283 252.426 634.74 245.537 633.084 243.707C632.162 242.688 638.665 244.083 652.395 247.849C666.554 251.734 671.427 253.384 667.813 253.074ZM691.17 258.93C689.405 258.732 686.633 257.989 685.006 257.278C683.379 256.567 684.822 256.729 688.213 257.638C691.603 258.546 692.934 259.128 691.17 258.93ZM701.834 261.722C700.98 261.827 699.719 261.49 699.032 260.971C698.345 260.455 699.043 260.369 700.584 260.782C702.125 261.195 702.688 261.619 701.834 261.722ZM713.041 264.725C712.188 264.831 710.927 264.493 710.239 263.975C709.553 263.458 710.251 263.372 711.792 263.785C713.333 264.198 713.896 264.622 713.041 264.725ZM521.979 214.524C521.542 216.155 516.448 218.452 514.502 217.897C512.326 217.276 512.36 217.195 515.376 215.801L518.512 214.351L513.823 212.632C509.704 211.123 509.924 211.1 515.629 212.445C519.203 213.287 522.06 214.222 521.979 214.524ZM527.245 216.073C526.773 216.345 525.795 216.126 525.074 215.586C524.275 214.989 524.612 214.794 525.932 215.09C527.126 215.359 527.717 215.8 527.245 216.073ZM595.798 234.917C595.633 235.533 596.032 236.18 596.685 236.355C597.337 236.53 597.695 236.085 597.479 235.367C597.263 234.649 596.865 234.002 596.592 233.929C596.32 233.856 595.963 234.301 595.798 234.917ZM946.419 328.39C945.947 328.662 944.969 328.443 944.248 327.903C943.449 327.306 943.786 327.112 945.106 327.408C946.3 327.676 946.891 328.118 946.419 328.39ZM954.831 330.714C953.977 330.819 952.717 330.481 952.029 329.963C951.342 329.446 952.04 329.361 953.581 329.773C955.122 330.186 955.685 330.61 954.831 330.714ZM473.147 202.778C472.675 203.05 471.697 202.831 470.976 202.291C470.177 201.694 470.514 201.5 471.834 201.796C473.028 202.064 473.619 202.506 473.147 202.778ZM504.401 211.854C503.96 212.52 502.872 213.108 501.981 213.161C501.07 213.216 500.821 212.826 501.412 212.269C502.002 211.714 501.407 210.768 500.055 210.113C498.34 209.281 498.735 209.189 501.424 209.793C503.888 210.346 504.923 211.063 504.401 211.854ZM539.718 222.292C538.966 223.468 538.916 224.479 539.603 224.663C540.261 224.839 540.687 225.403 540.549 225.916C540.159 227.372 535.789 225.455 535.225 223.581C534.835 222.284 534.101 222.051 531.97 222.549C530.456 222.902 528.762 222.709 528.206 222.118C527.083 220.926 535.69 219.063 538.969 219.787C540.528 220.131 540.711 220.741 539.718 222.292ZM751.847 277.931C752.063 278.649 751.705 279.094 751.053 278.919C750.4 278.744 750.001 278.097 750.166 277.48C750.331 276.864 750.688 276.419 750.96 276.492C751.233 276.565 751.631 277.213 751.847 277.931ZM762.662 280.158C762.59 280.43 761.942 280.828 761.224 281.044C760.505 281.259 760.061 280.901 760.235 280.249C760.41 279.597 761.058 279.198 761.674 279.363C762.29 279.528 762.735 279.885 762.662 280.158ZM926.534 324.325C925.693 324.429 924.175 324.042 923.161 323.465C922.146 322.889 922.835 322.804 924.69 323.277C926.545 323.75 927.375 324.221 926.534 324.325ZM932.669 325.906C932.198 326.179 931.219 325.96 930.498 325.42C929.7 324.823 930.036 324.628 931.356 324.924C932.551 325.193 933.141 325.634 932.669 325.906ZM489.283 208.778C489.499 209.496 489.141 209.94 488.489 209.766C487.836 209.591 487.437 208.943 487.602 208.327C487.767 207.711 488.124 207.266 488.396 207.339C488.669 207.412 489.067 208.059 489.283 208.778ZM621.911 243.84C621.44 244.112 620.462 243.893 619.74 243.353C618.942 242.756 619.278 242.562 620.599 242.858C621.793 243.126 622.383 243.568 621.911 243.84ZM627.515 245.341C627.044 245.614 626.066 245.395 625.344 244.855C624.546 244.258 624.882 244.063 626.202 244.359C627.397 244.628 627.987 245.069 627.515 245.341ZM637.637 249.129C637.39 250.054 637.691 250.945 638.308 251.11C638.924 251.275 639.596 250.781 639.801 250.01C640.078 248.969 642.61 249.362 649.621 251.529C655.334 253.295 658.689 254.806 658.108 255.353C657.581 255.849 656.334 255.735 655.338 255.099C654.344 254.462 651.861 254.313 649.823 254.766C646.542 255.496 646.127 255.387 646.203 253.819C646.299 251.839 641.533 250.107 639.989 251.561C638.912 252.575 634.204 251.659 633.408 250.28C632.608 248.898 634.836 246.578 636.526 247.031C637.385 247.261 637.885 248.205 637.637 249.129ZM740.749 276.758C739.187 277.865 739.364 278.188 741.91 278.87C743.628 279.331 744.489 280.075 743.922 280.61C743.376 281.124 741.866 281.26 740.566 280.912C739.267 280.564 738.468 280.736 738.79 281.295C739.114 281.853 743.502 283.249 748.541 284.397C756.728 286.262 757.575 286.664 756.482 288.169C755.677 289.277 755.785 289.805 756.797 289.715C757.644 289.638 758.363 288.976 758.394 288.241C758.426 287.506 759.743 287.251 761.32 287.674C762.946 288.109 763.759 288.847 763.195 289.377C762.649 289.891 762.737 290.455 763.389 290.63C764.042 290.805 764.711 290.444 764.876 289.827C765.376 287.963 769.404 289.696 769.634 291.874C769.75 292.991 769.633 294.028 769.372 294.179C769.111 294.329 763.89 293.258 757.77 291.798C749.646 289.86 746.618 288.733 746.55 287.619C746.498 286.78 745.46 285.826 744.243 285.499C743.025 285.173 742.205 285.494 742.421 286.212C742.65 286.974 741.385 287.135 739.385 286.599C737.5 286.094 736.091 285.176 736.256 284.56C736.422 283.944 734.691 282.94 732.41 282.329C727.876 281.114 728.936 279.478 733.844 280.113C736.027 280.396 737.039 279.748 737.926 277.503C738.65 275.672 739.782 274.698 740.851 274.984C742.275 275.366 742.256 275.692 740.749 276.758ZM852.026 307.543C853.172 308.194 851.728 308.034 848.817 307.188C845.906 306.342 843.643 305.205 843.788 304.663C843.934 304.119 845.033 304.303 846.231 305.07C847.898 306.135 848.291 306.048 847.902 304.698C847.503 303.31 847.666 303.298 848.667 304.645C849.367 305.587 850.879 306.891 852.026 307.543ZM712.019 269.661C711.473 270.175 710.552 270.468 709.972 270.313C709.391 270.157 709.052 269.526 709.217 268.91C709.382 268.294 710.304 268 711.265 268.258C712.225 268.515 712.566 269.146 712.019 269.661ZM592.355 238.797C594.153 240.784 595.342 241.102 595.718 239.698C595.883 239.082 594.881 238.282 593.492 237.919C591.449 237.387 591.231 237.555 592.355 238.797ZM697.579 267.513C697.335 268.423 698.439 269.648 700.125 270.339C702.513 271.317 702.159 271.419 698.335 270.857C693.989 270.217 693.628 269.931 694.247 267.618C694.624 266.212 695.614 265.265 696.468 265.494C697.316 265.721 697.816 266.629 697.579 267.513ZM732.498 276.17C732.348 276.732 730.189 276.677 727.702 276.048C725.214 275.417 723.505 274.596 723.902 274.222C724.981 273.207 732.817 274.982 732.498 276.17ZM383.029 183.909C383.245 184.628 382.634 185.004 381.674 184.747C380.713 184.49 380.062 183.775 380.227 183.159C380.392 182.542 381.001 182.165 381.582 182.321C382.162 182.476 382.813 183.191 383.029 183.909ZM605.487 243.588C605.312 244.24 604.701 244.278 604.129 243.67C603.558 243.064 602.463 243.144 601.698 243.849C600.596 244.862 600.411 244.719 600.813 243.165C601.13 241.943 602.169 241.427 603.563 241.801C604.796 242.131 605.662 242.936 605.487 243.588ZM621.271 247.446C621.147 247.907 619.833 247.961 618.35 247.564C616.868 247.167 615.991 246.526 616.401 246.141C616.809 245.756 618.123 245.702 619.32 246.023C620.517 246.343 621.394 246.984 621.271 247.446ZM834.705 304.936C834.159 305.45 832.617 305.538 831.278 305.134C828.931 304.424 828.933 304.385 831.343 304.035C834.783 303.536 835.88 303.83 834.705 304.936ZM917.083 327.009C916.918 327.625 917.916 328.441 919.3 328.822C920.684 329.203 922.443 330.206 923.208 331.051C924.232 332.185 923.257 332.295 919.491 331.472C916.682 330.859 912.565 330.084 910.343 329.749C908.12 329.415 888.861 324.627 867.546 319.109C846.231 313.591 831.918 309.511 835.74 310.041C839.562 310.573 845.294 311.369 848.479 311.812C860.716 313.514 875.181 316.98 875.579 318.302C875.799 319.036 876.583 319.455 877.32 319.234C878.057 319.013 879.67 319.778 880.905 320.935C882.138 322.092 884.163 322.918 885.404 322.77C886.644 322.622 891.307 323.384 895.765 324.463C900.224 325.542 904.289 326.184 904.8 325.889C905.31 325.594 907.374 326.093 909.385 326.997C912.294 328.305 913.142 328.268 913.531 326.815C913.801 325.81 914.778 325.19 915.702 325.438C916.627 325.686 917.248 326.393 917.083 327.009ZM949.978 336.123C950.2 337.383 950.463 337.454 951.285 336.473C952.392 335.156 961.877 337.184 962.377 338.845C962.538 339.383 960.497 339.052 957.841 338.109C954.823 337.037 952.885 336.856 952.678 337.626C952.178 339.495 947.012 337.69 946.789 335.569C946.552 333.315 949.575 333.84 949.978 336.123ZM689.824 267.316C689.278 267.83 687.483 267.851 685.836 267.364C683.162 266.572 683.109 266.437 685.341 266.114C688.813 265.611 691.009 266.2 689.824 267.316ZM795.178 295.545C794.632 296.059 795.224 296.758 796.493 297.098C797.761 297.438 798.935 297.212 799.1 296.596C799.455 295.273 801.547 296.154 802.969 298.226C804.275 300.126 797.836 301.137 794.937 299.488C793.818 298.85 792.415 298.785 791.822 299.345C791.228 299.903 789.986 300.158 789.061 299.91C788.137 299.662 787.862 299.006 788.45 298.453C789.19 297.756 787.869 297.259 784.149 296.836C780.891 296.466 778.893 295.797 779.071 295.135C779.231 294.536 782.334 294.521 785.967 295.104C789.599 295.687 792.889 295.682 793.277 295.093C793.665 294.506 794.476 294.156 795.077 294.317C795.679 294.478 795.724 295.031 795.178 295.545ZM827.246 304.044C826.231 304.362 823.965 304.035 822.212 303.32C819.757 302.317 818.756 302.489 817.858 304.066C817.216 305.192 816.261 305.998 815.737 305.857C814.527 305.533 816.807 302.234 818.703 301.566C819.485 301.291 822.143 301.607 824.609 302.268C827.668 303.087 828.506 303.652 827.246 304.044ZM432.338 199.383C431.981 200.717 427.362 200.622 426.956 199.272C426.779 198.682 427.336 198.115 428.194 198.01C430.738 197.699 432.622 198.324 432.338 199.383ZM446.873 203.418C446.708 204.034 446.099 204.411 445.519 204.256C444.938 204.1 444.287 203.386 444.071 202.667C443.856 201.949 444.466 201.572 445.426 201.829C446.387 202.087 447.039 202.802 446.873 203.418ZM467.08 208.702C466.626 210.396 458.346 208.563 455.771 206.199C453.515 204.129 453.853 204.102 460.341 205.833C464.195 206.862 467.227 208.153 467.08 208.702ZM470.411 210.055C469.913 211.358 468.446 210.686 468.351 209.113C468.303 208.308 468.815 208.012 469.488 208.457C470.162 208.902 470.577 209.621 470.411 210.055ZM479.39 216.244C479.28 216.825 478.516 216.08 477.691 214.587C476.674 212.748 476.658 211.723 477.642 211.407C478.959 210.981 479.894 213.567 479.39 216.244ZM490.05 214.515C492.096 216.001 491.63 217.812 489.357 217.203C488.397 216.946 487.775 217.287 487.979 217.961C488.182 218.636 487.351 218.84 486.133 218.413C483.856 217.615 484.224 214.794 486.732 213.816C488.375 213.175 488.135 213.124 490.05 214.515ZM929.932 332.853C929.767 333.469 928.751 333.729 927.675 333.431C926.002 332.967 926.005 332.795 927.691 332.253C930.172 331.452 930.298 331.486 929.932 332.853ZM500.808 219.739C497.626 220.147 497.403 220.368 499.173 221.358C500.828 222.286 500.676 222.385 498.374 221.881C496.731 221.522 495.217 220.243 494.793 218.86C494.122 216.663 494.498 216.58 499.276 217.865C504.443 219.254 504.457 219.271 500.808 219.739ZM515.868 225.159C515.687 227.642 515.34 227.873 513.443 226.776C512.226 226.073 509.219 224.935 506.761 224.247C503.143 223.236 502.729 222.878 504.585 222.374C505.847 222.031 506.72 221.22 506.525 220.571C506.33 219.923 508.4 220.039 511.125 220.827C515.467 222.084 516.054 222.62 515.868 225.159ZM548.845 233.819C549.584 235.722 550.176 236.051 551.497 235.289C553.862 233.924 556.2 234.754 555.66 236.77C555.309 238.08 553.791 238.05 548.789 236.635C545.257 235.637 543.067 234.735 543.92 234.631C547.572 234.184 545.571 232.266 539.859 230.735C533.191 228.948 530.912 230.282 536.653 232.61C538.843 233.497 537.745 233.459 533.749 232.508C530.142 231.65 527.135 230.355 526.895 229.558C526.588 228.536 526.036 228.388 524.924 229.03C524.074 229.521 522.623 229.719 521.698 229.471C520.455 229.138 520.433 228.78 521.611 228.101C522.488 227.595 523.121 226.379 523.018 225.397C522.859 223.89 524.768 224.214 535.363 227.491C545.879 230.744 548.049 231.761 548.845 233.819ZM573.962 240.173C573.636 241.427 566.092 239.154 565.645 237.667C565.412 236.895 567.029 236.97 569.721 237.859C572.174 238.669 574.082 239.711 573.962 240.173ZM614.409 250.64C614.253 251.22 613.54 251.869 612.824 252.085C610.544 252.768 580.418 244.102 578.247 242.138C577.142 241.139 591.335 243.705 602.594 246.54C609.532 248.287 614.571 250.035 614.409 250.64ZM663.386 264.459C664.25 265.957 662.023 265.789 651.417 263.556C640.541 261.267 629.576 256.799 630.093 254.868C630.357 253.883 662.651 263.188 663.386 264.459ZM703.204 275.661C695.801 274.369 690.492 272.437 692.593 271.799C693.304 271.583 697.532 272.634 701.988 274.134L710.09 276.862L703.204 275.661ZM723.107 279.836C722.942 280.452 722.585 280.897 722.313 280.824C722.04 280.751 721.642 280.104 721.426 279.386C721.21 278.667 721.568 278.223 722.22 278.398C722.873 278.573 723.272 279.22 723.107 279.836ZM748.325 286.593C747.779 287.107 748.119 287.739 749.079 287.996C750.04 288.254 750.962 287.96 751.127 287.344C751.292 286.728 750.953 286.097 750.372 285.941C749.792 285.786 748.871 286.079 748.325 286.593ZM980.774 348.497C981.495 349.037 982.473 349.256 982.945 348.984C983.416 348.712 982.826 348.27 981.632 348.002C980.312 347.706 979.975 347.9 980.774 348.497ZM717.857 279.517C717.362 279.983 716.019 279.831 714.874 279.178C712.005 277.546 712.454 276.982 715.888 277.902C717.465 278.324 718.351 279.052 717.857 279.517ZM775.866 294.768C775.012 294.873 773.751 294.535 773.064 294.017C772.377 293.5 773.075 293.415 774.616 293.828C776.157 294.241 776.72 294.664 775.866 294.768ZM827.422 308.582C826.568 308.687 825.307 308.349 824.62 307.831C823.933 307.315 824.631 307.229 826.172 307.642C827.713 308.055 828.276 308.478 827.422 308.582ZM970.981 352.258C971.197 352.976 971.595 353.623 971.868 353.696C972.14 353.769 972.497 353.324 972.662 352.708C972.827 352.092 972.428 351.445 971.776 351.27C971.123 351.095 970.765 351.539 970.981 352.258ZM1000.57 359.805C1001.29 360.345 1002.27 360.564 1002.74 360.292C1003.21 360.019 1002.62 359.578 1001.43 359.309C1000.11 359.013 999.769 359.208 1000.57 359.805ZM538.601 251.111C538.478 251.573 528.189 249.121 515.738 245.662C500.065 241.308 496.082 239.963 502.794 241.293C516.722 244.053 538.863 250.124 538.601 251.111ZM549.701 254.526C549.638 254.761 547.207 254.254 544.297 253.397C539.75 252.056 539.509 251.856 542.576 251.975C545.909 252.103 549.961 253.555 549.701 254.526ZM491.687 239.035C490.833 239.141 489.572 238.803 488.885 238.285C488.198 237.768 488.896 237.682 490.437 238.095C491.978 238.508 492.541 238.932 491.687 239.035ZM389.612 214.245C390.252 214.964 385.534 214.178 378.989 212.476C372.512 210.793 367.505 209.141 367.861 208.806C368.835 207.89 388.284 212.754 389.612 214.245ZM901.618 352.504C902.34 353.044 903.318 353.263 903.79 352.991C904.261 352.718 903.671 352.277 902.477 352.008C901.156 351.712 900.82 351.907 901.618 352.504ZM819.43 331.588C818.959 331.86 817.981 331.641 817.259 331.101C816.461 330.504 816.797 330.309 818.117 330.605C819.312 330.874 819.902 331.315 819.43 331.588ZM429.276 229.618C435.816 231.582 446.911 234.556 453.933 236.226C460.955 237.896 455.604 236.29 442.043 232.655C428.481 229.02 422.737 227.653 429.276 229.618ZM529.583 257.062C530.02 257.819 531.368 258.492 532.577 258.556C534.206 258.643 533.999 258.285 531.781 257.179C529.847 256.213 529.069 256.173 529.583 257.062ZM877.181 349.558C877.903 350.099 878.881 350.317 879.352 350.045C879.824 349.773 879.234 349.331 878.04 349.063C876.719 348.767 876.383 348.961 877.181 349.558ZM538.339 259.995C539.662 260.637 541.682 261.167 542.829 261.174C543.975 261.181 542.893 260.656 540.424 260.008C537.955 259.359 537.017 259.354 538.339 259.995ZM554.03 264.2C555.353 264.841 557.373 265.372 558.52 265.379C559.666 265.386 558.584 264.86 556.115 264.212C553.646 263.564 552.708 263.558 554.03 264.2ZM588.776 273.532C590.723 274.32 593.751 275.126 595.504 275.322C597.257 275.517 595.663 274.871 591.963 273.887C588.263 272.902 586.829 272.742 588.776 273.532ZM605.025 277.877C606.66 278.59 609.183 279.259 610.633 279.363C612.083 279.467 610.745 278.883 607.661 278.065C604.576 277.248 603.39 277.163 605.025 277.877ZM751.841 317.181C752.844 317.753 754.61 318.226 755.764 318.233C756.917 318.24 756.097 317.773 753.94 317.195C751.782 316.617 750.838 316.611 751.841 317.181ZM770.342 322.106C771.03 322.624 772.291 322.962 773.144 322.857C773.998 322.753 773.435 322.33 771.894 321.917C770.353 321.504 769.655 321.59 770.342 322.106Z" fill="#BFFDFF"/>
<path fill-rule="evenodd" clip-rule="evenodd" d="M839.191 249.523C827.926 247.088 818.03 245.122 817.199 245.156C816.369 245.189 820.916 247.039 827.305 249.266C838.889 253.305 838.87 253.303 820.682 248.89C810.65 246.456 795.722 243.192 787.509 241.637C777.177 239.681 782.296 241.2 804.12 246.567C853.997 258.834 905.174 271.576 911.718 273.354C915.369 274.348 917.528 274.35 917.231 273.362C916.91 272.295 929.236 275.085 953.156 281.494C979.005 288.42 989.181 291.617 988.229 292.514C987.384 293.309 988.139 293.984 990.268 294.333C992.128 294.637 994.491 295.511 995.519 296.275C996.548 297.037 1006.62 300.854 1017.9 304.755C1029.19 308.657 1040.62 313.032 1043.32 314.479C1046.01 315.924 1048.35 316.588 1048.52 315.953C1048.95 314.37 1045.5 312.46 1025.11 302.963C1022.55 301.773 1017.81 299.394 1014.57 297.678C1007.59 293.98 869.775 256.14 839.191 249.523ZM414.265 137.238C407.504 136.258 407.675 136.371 417.122 139.123C427.071 142.021 430.253 142.242 424.457 139.631C422.806 138.887 418.22 137.811 414.265 137.238ZM398.745 133.814C397.147 133.641 390.243 132.432 383.401 131.126C376.561 129.821 370.839 129.213 370.687 129.779C370.536 130.344 372.517 131.103 375.092 131.466C378.68 131.972 379.192 132.337 377.286 133.037C375.397 133.728 376.315 134.317 381.113 135.484C386.87 136.886 387.082 136.83 383.528 134.838L379.63 132.653L384.787 133.858C387.622 134.52 390.001 135.678 390.075 136.431C390.149 137.208 395.436 138.717 402.336 139.93C415.419 142.231 415.341 141.635 402.092 138.054C397.494 136.81 395.382 135.906 397.4 136.045C400.865 136.284 406.08 134.658 403.025 134.29C402.27 134.2 400.343 133.985 398.745 133.814ZM879.395 262.834C874.561 261.83 866.405 259.646 861.269 257.982C856.132 256.318 860.088 257.139 870.056 259.809C880.026 262.477 884.227 263.839 879.395 262.834ZM898.884 267.941C897.822 268.072 896.254 267.651 895.399 267.007C894.544 266.364 895.412 266.258 897.329 266.772C899.247 267.285 899.947 267.812 898.884 267.941ZM1004.47 297.726C1003.41 297.857 1001.84 297.437 1000.98 296.792C1000.13 296.15 1001 296.043 1002.92 296.557C1004.83 297.07 1005.53 297.597 1004.47 297.726ZM1014.26 300.34C1013.21 300.469 1011.32 299.988 1010.06 299.271C1008.8 298.553 1009.66 298.448 1011.96 299.037C1014.27 299.625 1015.3 300.211 1014.26 300.34ZM417.129 141.883C418.376 142.593 420.574 143.182 422.009 143.19C423.444 143.2 422.424 142.619 419.74 141.9C417.056 141.181 415.882 141.174 417.129 141.883ZM430.384 145.394C431.24 146.039 432.808 146.459 433.87 146.328C434.932 146.199 434.232 145.672 432.315 145.159C430.398 144.645 429.53 144.752 430.384 145.394ZM162.857 76.178C162.281 76.7199 154.855 75.1618 146.354 72.715C130.928 68.2783 103.226 63.0544 98.1732 63.6304C96.4825 63.8227 95.2682 65.248 94.8559 67.5229C94.1546 71.3949 94.3345 71.588 101.825 74.9903C107.956 77.7756 107.869 80.1691 101.708 78.2152C97.6068 76.9145 97.1797 77.1257 96.6067 80.7363C96.0588 84.1864 95.4968 84.5496 92.0887 83.6558C87.2057 82.3773 85.1561 83.156 83.7616 86.8213C82.8551 89.2059 83.5815 90.1145 87.9588 92.0701C95.0435 95.2366 94.1269 97.0568 86.0594 95.8406C79.6866 94.8799 70.6497 97.8388 71.4842 100.614C71.6907 101.304 69.8661 101.778 67.4287 101.667C63.5979 101.492 63.1943 101.805 64.4488 103.977C65.247 105.359 66.7273 106.722 67.7379 107.005C69.122 107.394 68.9869 107.703 67.1885 108.263C65.5175 108.784 67.0095 109.735 72.1776 111.444C79.4623 113.853 79.5373 113.935 78.4633 118.445C77.8667 120.956 76.9067 122.883 76.3323 122.729C75.7579 122.575 74.9505 123.703 74.5398 125.236C73.9864 127.301 72.7872 127.806 69.9081 127.185C66.5218 126.456 66.4095 126.535 69.0333 127.807C72.8674 129.665 79.2029 135.427 76.6834 134.764C75.6185 134.483 74.8908 135.224 75.0204 136.459C75.3632 139.719 72.1755 140.573 62.5477 139.804C53.9339 139.115 50.0189 139.577 54.4399 140.762C55.7184 141.105 56.512 142.326 56.2039 143.475C55.7681 145.102 53.7853 145.068 47.2786 143.324C38.2581 140.907 34.7398 142.818 43.344 145.461C46.5486 146.445 47.265 146.961 45.2225 146.815C43.4076 146.685 41.7789 147.119 41.6016 147.781C41.4242 148.443 39.9072 149.046 38.231 149.123C36.5551 149.198 35.3805 149.913 35.6189 150.707C35.8584 151.503 33.8333 152.196 31.1194 152.247C26.8555 152.327 27.6002 152.744 36.5958 155.309C47.2862 158.359 47.2917 159.933 36.6094 159.034C31.8735 158.634 31.1988 158.949 32.1876 161.098C33.1261 163.139 33.6825 163.343 35.0344 162.146C36.3397 160.988 37.0156 161.394 38.072 163.965C39.3177 166.995 39.1349 167.315 35.8975 167.792C32.8735 168.236 33.441 168.717 39.828 171.13C46.526 173.66 46.9408 174.041 43.8739 174.852C41.9953 175.35 37.6006 175.439 34.1081 175.05C23.2532 173.841 22.2072 175.341 31.9841 178.097L41.0154 180.641L27.9709 181.921L14.9264 183.201L21.7107 185.766L28.4949 188.33L19.7751 188.015C13.6819 187.795 11.5415 188.227 12.6666 189.449C13.5534 190.411 15.5185 191.587 17.0346 192.063C19.7717 192.924 19.7695 192.932 16.7386 193.269C14.5242 193.513 16.0794 194.602 22.4008 197.232C30.2969 200.516 30.5788 200.764 25.4048 199.863C22.264 199.315 18.9418 199.295 18.0211 199.814C16.9841 200.4 22.6681 202.498 32.9794 205.334C45.8236 208.867 48.6522 209.993 45.4015 210.28C42.9615 210.497 40.9129 211.696 40.5275 213.134C39.9883 215.146 37.2928 215.458 26.2841 214.778C18.8166 214.318 13.8271 214.485 15.1958 215.149C17.1872 216.116 17.2294 216.499 15.4081 217.067C13.7349 217.589 14.052 218.034 16.6074 218.753C18.518 219.291 20.8478 220.562 21.7859 221.578C23.6807 223.63 22.9937 223.824 15.1395 223.451C12.9972 223.349 10.6661 224.062 9.95796 225.038C8.87932 226.52 11.2302 227.383 24.4352 230.345C36.0852 232.959 39.5464 234.134 37.6977 234.849C35.5886 235.665 35.6439 235.899 38.0445 236.343C42.804 237.218 43.7051 237.937 41.1223 238.798C39.4485 239.357 41.4219 240.017 47.2931 240.864C58.0404 242.413 57.5116 242.256 80.5137 250.726C94.6099 255.916 115.734 261.806 161.852 273.409C200.133 283.039 235.821 292.817 254.427 298.77C315.747 318.396 321.87 320.261 321.227 319.106C320.868 318.458 314.17 315.848 306.344 313.306C298.519 310.766 291.67 307.965 291.125 307.087C289.766 304.897 409.782 337.197 451.654 350.291C475.672 357.802 658.593 408.92 722.43 425.961C736.672 429.762 799.246 444.641 802.222 444.933C804.679 445.173 805.816 445.787 805.082 446.478C804.413 447.108 804.493 447.791 805.26 447.997C806.026 448.202 807.209 447.847 807.889 447.207C809.508 445.683 814.647 447.082 814.156 448.914C813.734 450.49 846.644 459.408 871.099 464.346C882.296 466.607 885.854 467.777 886.009 469.248C886.121 470.312 887.123 471.425 888.237 471.724C889.351 472.022 890.042 471.535 889.773 470.642C889.504 469.748 890.448 469.214 891.871 469.455C893.293 469.695 895.435 470.005 896.631 470.142C897.827 470.28 902.277 471.241 906.519 472.277C911.219 473.426 913.64 473.518 912.714 472.514C911.213 470.882 921.388 472.465 949.741 478.275C963.995 481.197 970.956 480.609 960.366 477.381C956.986 476.349 953.63 475.192 952.911 474.808C952.192 474.424 945.686 472.355 938.453 470.211L925.303 466.309L934.655 467.653C939.799 468.392 950.229 470.454 957.831 472.235C965.434 474.015 972.084 475.068 972.609 474.574C973.134 474.08 974.819 474.012 976.352 474.423C977.886 474.834 978.949 474.534 978.717 473.757C978.481 472.972 975.507 472.147 972.028 471.9C965.007 471.402 958.558 470.022 959.828 469.29C961.53 468.306 991.748 471.07 993.542 472.373C994.591 473.133 996.022 472.873 996.819 471.776C997.823 470.395 1000.39 470.336 1005.66 471.576L1013.08 473.321L1005.63 470.444C999.775 468.18 999.034 467.604 1002.16 467.741C1004.35 467.836 1009.03 469.189 1012.56 470.745C1016.1 472.301 1019.17 473.486 1019.38 473.378C1019.6 473.269 1019.16 471.487 1018.4 469.416C1017.49 466.923 1016.44 465.995 1015.28 466.666C1014.11 467.338 1012.17 466.794 1009.53 465.049C1002.44 460.368 1003.82 460.114 1015.87 463.888C1024.28 466.519 1027.54 467.069 1027.15 465.791C1026.82 464.682 1027.87 464.274 1029.87 464.728C1032.76 465.384 1019.81 458.93 1009.18 454.422C1006.97 453.482 1009.89 453.87 1015.67 455.286C1021.46 456.7 1027.29 457.501 1028.64 457.066C1030.68 456.411 1030.62 456.141 1028.32 455.486C1026.79 455.051 1024.78 453.781 1023.85 452.664C1022.61 451.178 1023.87 451.345 1028.53 453.287C1036.88 456.757 1039.03 456.03 1036.18 450.712C1034.91 448.358 1034.68 446.735 1035.65 446.995C1036.6 447.248 1037.15 446.725 1036.88 445.831C1036.62 444.938 1033.77 443.492 1030.56 442.62C1027.35 441.746 1023.96 440.126 1023.02 439.018C1021.8 437.57 1023.3 437.809 1028.39 439.876C1035.59 442.795 1038.91 441.694 1033.32 438.24C1030.5 436.503 1030.51 436.445 1033.58 435.868C1036.07 435.401 1035.67 435.125 1031.65 434.544C1025.86 433.707 1020.77 429.123 1025.12 428.666C1026.49 428.524 1028.73 428.709 1030.11 429.078C1031.48 429.447 1033.64 429.017 1034.91 428.123C1036.71 426.847 1036.83 426.399 1035.49 426.038C1034.54 425.783 1034.38 424.744 1035.14 423.704C1036.01 422.498 1035.65 421.564 1034.13 421.089C1032.16 420.474 1032.29 420.281 1034.85 419.953C1037.73 419.586 1037.7 419.375 1034.44 416.959C1032.51 415.531 1030.03 414.119 1028.93 413.825C1027.83 413.53 1027.09 412.661 1027.3 411.895C1027.5 411.128 1031.3 411.406 1035.73 412.514L1043.78 414.527L1039.12 410.981C1034.08 407.138 1033.79 404.124 1038.35 403.058C1039.94 402.687 1048.38 403.82 1057.1 405.576C1065.83 407.332 1073.1 408.283 1073.25 407.69C1073.41 407.096 1071.99 405.519 1070.09 404.183C1067.19 402.153 1068.28 402.18 1076.76 404.355C1082.52 405.829 1087.06 406.35 1087.27 405.56C1087.48 404.793 1086.36 403.82 1084.78 403.397C1083.2 402.974 1082.44 402.128 1083.09 401.516C1083.74 400.904 1085.1 401.004 1086.1 401.738C1087.11 402.47 1088.1 402.481 1088.29 401.762C1088.48 401.041 1085.85 398.955 1082.44 397.125C1077.17 394.3 1079.37 394.711 1097.02 399.845L1117.82 405.893L1100.38 398.489C1069.86 385.532 1070.39 385.8 1074.67 385.676C1078.15 385.574 1078.21 385.493 1075.42 384.608C1071.22 383.275 1070.78 380.582 1074.81 380.873C1076.66 381.005 1075.58 380.338 1072.38 379.365C1069.21 378.405 1066.58 376.945 1066.52 376.121C1066.47 375.297 1059.35 372.176 1050.7 369.187C1035.29 363.864 1035.1 363.75 1041.31 363.618C1045.36 363.532 1055.27 365.646 1068.7 369.453C1088.12 374.965 1089.95 375.255 1092.44 373.248C1094.82 371.335 1097.26 371.578 1112.64 375.264C1126.59 378.607 1130.24 379.056 1130.66 377.48C1130.95 376.392 1130.65 375.357 1129.98 375.179C1128.02 374.653 1105.35 364.079 1102.91 362.551C1098.28 359.657 1101.65 358.619 1109.42 360.537C1117.4 362.503 1117.43 362.496 1112.22 359.878C1109.32 358.422 1101.95 355.803 1095.84 354.059C1084.97 350.95 1070.66 345.086 1074.97 345.503C1079.08 345.901 1065.22 340.124 1055.64 337.445C1047.28 335.11 1045.77 334.216 1043.77 330.42L1041.47 326.07L1047.37 327.515L1053.26 328.959L1048.86 326.312C1046.44 324.857 1043.23 323.659 1041.73 323.65C1040.22 323.64 1039.13 323.111 1039.31 322.472C1039.48 321.834 1038.59 320.73 1037.35 320.02C1036.1 319.31 1037.94 319.333 1041.44 320.074L1047.81 321.419L1041.82 318.682C1022.23 309.737 876.916 268.757 829.25 258.739C815.634 255.878 798.111 251.843 790.31 249.772C780.298 247.116 775.781 246.466 774.952 247.561C774.068 248.73 773.599 248.636 773.052 247.175C772.437 245.537 743.909 236.198 741.018 236.687C738.193 237.165 370.969 138.605 346.504 130.802C330.226 125.61 311.639 119.689 305.201 117.644C298.763 115.599 279.516 109.83 262.431 104.826C245.344 99.8205 225.147 93.6379 217.547 91.0877C195.573 83.712 163.998 75.1036 162.857 76.178ZM870.657 264.89C871.554 265.562 872.771 265.834 873.358 265.496C873.945 265.157 873.21 264.608 871.725 264.274C870.082 263.906 869.663 264.147 870.657 264.89ZM832.64 256.197C833.537 256.869 834.754 257.141 835.341 256.803C835.928 256.464 835.193 255.915 833.708 255.581C832.066 255.213 831.647 255.454 832.64 256.197ZM843.794 259.186C844.691 259.858 845.908 260.13 846.495 259.791C847.081 259.453 846.347 258.903 844.861 258.57C843.219 258.201 842.8 258.443 843.794 259.186ZM395.413 142.064C397.051 142.859 399.872 143.615 401.687 143.745C403.503 143.875 402.163 143.225 398.712 142.3C395.262 141.375 393.777 141.269 395.413 142.064ZM676.29 223.225C675.243 223.354 673.355 222.873 672.093 222.156C670.832 221.438 671.688 221.333 673.996 221.922C676.303 222.51 677.336 223.096 676.29 223.225ZM1033.86 318.959C1033.28 319.298 1032.06 319.026 1031.16 318.354C1030.17 317.611 1030.59 317.369 1032.23 317.737C1033.72 318.071 1034.45 318.621 1033.86 318.959ZM825.444 265.766C825.792 266.369 821.092 265.602 814.998 264.063C808.903 262.523 787.834 257.296 768.176 252.445C748.518 247.596 679.09 229.852 613.892 213.017C548.692 196.181 491.813 181.916 487.492 181.318C479.553 180.219 470.655 176.648 472.791 175.418C474.021 174.709 487.288 177.986 561.418 197.316C589.712 204.693 607.998 208.906 608.215 208.096C608.411 207.366 609.363 207.343 610.331 208.046C613.006 209.987 659.487 222.235 693.509 229.961C726.771 237.515 824.435 264.02 825.444 265.766ZM862.189 274.299C860.918 275.032 836.987 268.75 836.262 267.492C835.927 266.914 841.824 268.094 849.364 270.114C856.903 272.134 862.675 274.017 862.189 274.299ZM867.582 275.898C866.995 276.236 865.778 275.964 864.881 275.292C863.888 274.549 864.307 274.308 865.949 274.676C867.434 275.01 868.169 275.559 867.582 275.898ZM761.257 249.056C762.902 249.853 765.415 250.513 766.841 250.522C768.268 250.531 766.921 249.877 763.85 249.071C760.779 248.264 759.612 248.258 761.257 249.056ZM951.663 300.139C951.863 300.808 943.357 299.034 932.761 296.194C922.165 293.355 913.151 290.435 912.729 289.707C912.307 288.978 920.812 290.752 931.63 293.651C942.449 296.55 951.463 299.47 951.663 300.139ZM958.758 302.413C954.512 303.029 953.44 302.742 953.879 301.106C954.084 300.339 955.965 300.219 958.06 300.837C961.434 301.835 961.513 302.014 958.758 302.413ZM703.802 235.118C704.699 235.79 705.916 236.063 706.502 235.724C707.089 235.385 706.355 234.836 704.869 234.502C703.227 234.134 702.808 234.376 703.802 235.118ZM712.088 237.401C714.511 238.382 718.277 239.385 720.457 239.629C722.638 239.871 720.655 239.068 716.052 237.844C711.45 236.618 709.666 236.419 712.088 237.401ZM429.78 165.243C428.61 165.595 427.178 165.378 426.6 164.765C426.022 164.151 426.506 163.361 427.674 163.009C428.844 162.658 430.276 162.874 430.854 163.488C431.433 164.101 430.949 164.892 429.78 165.243ZM455.323 170.83C455.162 171.431 450.502 170.629 444.966 169.048C437.497 166.915 436.052 166.195 439.364 166.255C445.073 166.357 455.704 169.406 455.323 170.83ZM469.523 173.601C469.124 175.09 461.05 175.114 459.171 173.633C457.634 172.42 458.016 172.07 460.995 171.969C465.601 171.811 469.788 172.613 469.523 173.601ZM423.591 163.582C422.95 164.184 417.603 163.376 411.709 161.784C405.815 160.192 401.848 158.626 402.896 158.303C405.795 157.408 424.956 162.296 423.591 163.582ZM869.61 282.494C868.564 282.623 866.675 282.142 865.414 281.424C864.152 280.707 865.008 280.602 867.316 281.19C869.624 281.779 870.656 282.365 869.61 282.494ZM966.785 310.1C964.972 309.97 962.147 309.213 960.511 308.419C958.876 307.624 960.36 307.73 963.81 308.655C967.261 309.579 968.599 310.229 966.785 310.1ZM97.0705 96.9179C96.8652 97.6844 96.4211 98.2376 96.0823 98.1468C95.7435 98.056 95.2479 97.2511 94.9792 96.3576C94.7106 95.464 95.1561 94.9112 95.9675 95.1287C96.7789 95.3461 97.2759 96.1514 97.0705 96.9179ZM45.4681 137.885C46.3654 138.557 47.5821 138.829 48.1689 138.49C48.7558 138.152 48.0213 137.602 46.5358 137.269C44.8936 136.9 44.4747 137.142 45.4681 137.885ZM1030.31 427.046C1029.72 427.385 1028.5 427.113 1027.61 426.44C1026.61 425.698 1027.03 425.456 1028.67 425.824C1030.16 426.158 1030.89 426.707 1030.31 427.046ZM49.669 167.864C49.4636 168.631 48.6305 169.08 47.8191 168.862C47.0076 168.645 46.8982 167.943 47.5777 167.304C48.2571 166.664 49.0888 166.215 49.4275 166.306C49.7663 166.396 49.8743 167.098 49.669 167.864ZM458.873 300.016C459.723 302.844 457.877 302.901 456.582 300.084C455.837 298.466 455.945 297.637 456.871 297.885C457.685 298.104 458.588 299.062 458.873 300.016ZM546.363 327.136C547.328 326.846 547.913 325.929 547.662 325.097C547.402 324.228 550.752 324.534 555.54 325.817C560.351 327.106 563.913 328.754 563.97 329.716C564.026 330.634 566.929 332.506 570.423 333.877C579.125 337.293 576.504 338.891 567.213 335.833C561.624 333.993 559.579 333.842 559.204 335.242C558.57 337.608 553.437 336.357 553.119 333.758C552.983 332.638 552.554 332.874 552.098 334.319C551.666 335.689 550.881 336.354 550.356 335.795C549.83 335.238 548.026 335.722 546.346 336.873C542.762 339.331 536.032 338.067 536.83 335.088C537.239 333.564 536.104 332.958 532.081 332.549C527.932 332.129 527.053 331.632 528.002 330.243C528.668 329.269 530.085 328.775 531.152 329.144C532.22 329.514 534.196 329.128 535.544 328.288C537.674 326.96 537.343 326.719 533.009 326.448C530.266 326.276 526.898 326.148 525.526 326.162C524.152 326.178 522.821 325.497 522.566 324.652C522.312 323.806 525.393 323.528 529.413 324.034C533.433 324.539 537.691 324.336 538.875 323.581C540.641 322.456 541.351 322.7 542.819 324.935C543.804 326.435 545.399 327.426 546.363 327.136ZM743.436 378.236C743.13 379.38 734.448 377.671 734.064 376.391C733.84 375.647 735.89 375.636 738.619 376.367C741.347 377.098 743.516 377.939 743.436 378.236ZM486.603 318.411C484.57 321.211 483.232 319.181 484.675 315.481C486.468 310.88 486.512 310.85 487.306 313.754C487.709 315.229 487.392 317.325 486.603 318.411ZM586.814 339.658C585.768 339.787 583.879 339.307 582.618 338.589C581.356 337.872 582.212 337.766 584.52 338.355C586.828 338.943 587.86 339.529 586.814 339.658ZM633.694 352.81C624.327 352.004 592.553 343.435 590.493 341.158C589.346 339.89 597.436 341.626 614.516 346.31C632.128 351.143 638.19 353.196 633.694 352.81ZM662.749 360.095C660.554 359.848 657.105 358.924 655.081 358.04C653.057 357.155 654.853 357.357 659.07 358.487C663.288 359.617 664.944 360.341 662.749 360.095ZM676.014 363.568C674.952 363.699 673.384 363.279 672.528 362.634C671.674 361.992 672.542 361.885 674.459 362.399C676.376 362.913 677.076 363.439 676.014 363.568ZM689.956 367.304C688.894 367.435 687.326 367.014 686.47 366.37C685.616 365.727 686.484 365.621 688.401 366.135C690.318 366.648 691.018 367.175 689.956 367.304ZM452.285 304.856C451.741 306.885 445.405 309.743 442.984 309.052C440.277 308.279 440.319 308.178 444.071 306.444L447.972 304.641L442.139 302.503C437.016 300.625 437.289 300.597 444.386 302.27C448.831 303.318 452.385 304.481 452.285 304.856ZM458.835 306.782C458.248 307.121 457.032 306.849 456.134 306.177C455.141 305.434 455.56 305.192 457.202 305.561C458.688 305.894 459.422 306.444 458.835 306.782ZM544.111 330.224C543.906 330.99 544.403 331.795 545.214 332.013C546.026 332.23 546.471 331.677 546.202 330.784C545.934 329.89 545.438 329.085 545.099 328.995C544.761 328.904 544.317 329.457 544.111 330.224ZM980.265 446.499C979.678 446.838 978.461 446.565 977.564 445.893C976.57 445.151 976.989 444.909 978.632 445.277C980.117 445.611 980.852 446.16 980.265 446.499ZM990.729 449.39C989.667 449.52 988.099 449.1 987.243 448.456C986.389 447.813 987.257 447.706 989.174 448.22C991.091 448.734 991.791 449.26 990.729 449.39ZM391.54 290.245C390.954 290.583 389.737 290.311 388.84 289.639C387.846 288.896 388.265 288.654 389.907 289.023C391.393 289.357 392.127 289.906 391.54 290.245ZM430.418 301.534C429.871 302.363 428.516 303.095 427.408 303.161C426.275 303.229 425.965 302.744 426.701 302.051C427.434 301.361 426.695 300.184 425.012 299.369C422.879 298.334 423.37 298.219 426.715 298.971C429.781 299.659 431.067 300.55 430.418 301.534ZM474.352 314.519C473.416 315.981 473.354 317.239 474.208 317.468C475.027 317.687 475.556 318.389 475.385 319.027C474.9 320.838 469.463 318.453 468.762 316.122C468.277 314.509 467.364 314.219 464.713 314.839C462.829 315.278 460.722 315.037 460.03 314.302C458.634 312.82 469.34 310.502 473.419 311.403C475.359 311.831 475.586 312.59 474.352 314.519ZM738.228 383.731C738.497 384.624 738.051 385.177 737.24 384.96C736.428 384.742 735.931 383.937 736.137 383.17C736.342 382.404 736.786 381.851 737.125 381.941C737.464 382.032 737.959 382.837 738.228 383.731ZM751.682 386.501C751.591 386.839 750.786 387.335 749.892 387.603C748.998 387.871 748.445 387.426 748.663 386.615C748.88 385.804 749.685 385.307 750.452 385.512C751.219 385.718 751.772 386.162 751.682 386.501ZM955.529 441.443C954.483 441.571 952.594 441.091 951.333 440.373C950.071 439.656 950.927 439.551 953.235 440.139C955.543 440.728 956.575 441.314 955.529 441.443ZM963.161 443.41C962.574 443.748 961.357 443.476 960.46 442.804C959.467 442.061 959.886 441.82 961.528 442.188C963.013 442.522 963.748 443.071 963.161 443.41ZM411.613 297.708C411.881 298.602 411.436 299.154 410.624 298.937C409.813 298.72 409.316 297.914 409.521 297.148C409.727 296.381 410.171 295.828 410.51 295.919C410.849 296.01 411.344 296.815 411.613 297.708ZM576.595 341.324C576.008 341.662 574.792 341.39 573.894 340.718C572.901 339.975 573.32 339.733 574.962 340.102C576.447 340.436 577.182 340.985 576.595 341.324ZM583.566 343.191C582.979 343.53 581.763 343.258 580.865 342.586C579.872 341.843 580.291 341.601 581.933 341.97C583.418 342.303 584.153 342.853 583.566 343.191ZM596.157 347.903C595.849 349.053 596.224 350.162 596.991 350.368C597.758 350.573 598.594 349.957 598.849 348.998C599.193 347.704 602.344 348.193 611.064 350.888C618.171 353.085 622.344 354.965 621.621 355.645C620.966 356.263 619.415 356.121 618.176 355.329C616.939 354.537 613.851 354.352 611.316 354.915C607.234 355.823 606.718 355.688 606.813 353.737C606.932 351.275 601.003 349.12 599.082 350.928C597.743 352.19 591.886 351.05 590.896 349.335C589.902 347.615 592.673 344.729 594.775 345.293C595.843 345.579 596.465 346.754 596.157 347.903ZM724.423 382.272C722.479 383.648 722.7 384.051 725.866 384.9C728.004 385.472 729.075 386.399 728.369 387.064C727.69 387.703 725.813 387.873 724.195 387.439C722.579 387.006 721.585 387.221 721.986 387.915C722.389 388.61 727.847 390.346 734.115 391.775C744.299 394.094 745.353 394.595 743.994 396.466C742.992 397.844 743.127 398.502 744.385 398.389C745.439 398.294 746.334 397.47 746.372 396.556C746.411 395.641 748.05 395.325 750.012 395.85C752.035 396.392 753.046 397.31 752.345 397.969C751.665 398.609 751.774 399.31 752.586 399.528C753.397 399.745 754.23 399.296 754.436 398.529C755.057 396.21 760.068 398.366 760.354 401.076C760.499 402.465 760.353 403.755 760.028 403.943C759.703 404.129 753.209 402.797 745.596 400.981C735.491 398.571 731.723 397.168 731.638 395.782C731.574 394.738 730.283 393.551 728.769 393.146C727.253 392.74 726.233 393.139 726.502 394.032C726.788 394.979 725.214 395.181 722.725 394.514C720.38 393.886 718.629 392.744 718.834 391.977C719.039 391.211 716.886 389.962 714.049 389.202C708.409 387.69 709.727 385.655 715.833 386.446C718.549 386.797 719.807 385.992 720.911 383.198C721.811 380.921 723.22 379.709 724.55 380.066C726.32 380.54 726.297 380.946 724.423 382.272ZM862.845 420.566C864.271 421.377 862.475 421.178 858.853 420.126C855.232 419.073 852.417 417.658 852.597 416.984C852.778 416.308 854.146 416.537 855.637 417.491C857.71 418.815 858.199 418.707 857.716 417.027C857.219 415.301 857.422 415.286 858.667 416.961C859.538 418.134 861.418 419.755 862.845 420.566ZM688.684 373.443C688.005 374.082 686.86 374.448 686.137 374.254C685.415 374.061 684.994 373.276 685.199 372.509C685.404 371.743 686.551 371.378 687.746 371.698C688.941 372.018 689.364 372.803 688.684 373.443ZM539.829 335.051C542.065 337.522 543.544 337.918 544.012 336.172C544.217 335.405 542.97 334.409 541.243 333.958C538.702 333.297 538.431 333.505 539.829 335.051ZM670.721 370.772C670.418 371.903 671.791 373.427 673.889 374.287C676.859 375.504 676.419 375.631 671.662 374.931C666.256 374.136 665.806 373.779 666.577 370.903C667.046 369.154 668.278 367.975 669.34 368.26C670.394 368.542 671.016 369.672 670.721 370.772ZM714.159 381.54C713.972 382.24 711.287 382.172 708.193 381.389C705.098 380.604 702.972 379.582 703.465 379.117C704.808 377.854 714.555 380.063 714.159 381.54ZM279.438 266.773C279.707 267.667 278.947 268.135 277.753 267.815C276.558 267.495 275.747 266.606 275.953 265.839C276.158 265.073 276.916 264.604 277.638 264.797C278.36 264.991 279.169 265.88 279.438 266.773ZM556.164 341.01C555.947 341.821 555.187 341.868 554.475 341.113C553.764 340.358 552.403 340.458 551.451 341.335C550.08 342.596 549.85 342.417 550.35 340.484C550.744 338.964 552.037 338.322 553.771 338.787C555.305 339.198 556.381 340.199 556.164 341.01ZM575.798 345.809C575.644 346.383 574.009 346.45 572.165 345.956C570.322 345.462 569.231 344.665 569.74 344.186C570.248 343.707 571.883 343.64 573.372 344.039C574.861 344.438 575.952 345.235 575.798 345.809ZM841.299 417.323C840.62 417.963 838.701 418.073 837.036 417.57C834.116 416.686 834.119 416.638 837.117 416.203C841.395 415.582 842.76 415.948 841.299 417.323ZM943.773 444.781C943.567 445.548 944.809 446.563 946.531 447.036C948.252 447.511 950.44 448.759 951.391 449.81C952.666 451.219 951.453 451.357 946.768 450.334C943.274 449.571 938.153 448.606 935.388 448.189C932.623 447.774 908.666 441.818 882.151 434.954C855.636 428.09 837.832 423.014 842.586 423.674C847.34 424.336 854.471 425.326 858.433 425.877C873.654 427.994 891.649 432.305 892.143 433.951C892.417 434.864 893.392 435.385 894.309 435.109C895.227 434.835 897.233 435.787 898.769 437.226C900.303 438.665 902.822 439.692 904.366 439.508C905.908 439.324 911.709 440.272 917.255 441.614C922.8 442.957 927.857 443.755 928.493 443.388C929.128 443.021 931.695 443.642 934.197 444.766C937.815 446.393 938.87 446.347 939.354 444.54C939.689 443.29 940.905 442.519 942.055 442.827C943.205 443.135 943.978 444.015 943.773 444.781ZM984.692 456.119C984.969 457.687 985.295 457.774 986.318 456.554C987.695 454.916 999.494 457.438 1000.12 459.505C1000.32 460.174 997.777 459.762 994.473 458.589C990.719 457.256 988.308 457.031 988.051 457.988C987.428 460.313 981.002 458.068 980.724 455.429C980.43 452.626 984.19 453.279 984.692 456.119ZM661.074 370.526C660.395 371.165 658.163 371.192 656.114 370.586C652.787 369.6 652.721 369.433 655.498 369.032C659.817 368.405 662.549 369.138 661.074 370.526ZM792.129 405.642C791.449 406.281 792.186 407.151 793.764 407.574C795.343 407.997 796.803 407.716 797.009 406.949C797.45 405.304 800.052 406.4 801.821 408.977C803.445 411.34 795.435 412.598 791.829 410.546C790.437 409.753 788.692 409.673 787.955 410.368C787.215 411.063 785.671 411.38 784.52 411.072C783.37 410.764 783.028 409.948 783.76 409.259C784.681 408.392 783.037 407.774 778.41 407.248C774.357 406.787 771.872 405.956 772.092 405.132C772.292 404.387 776.153 404.368 780.671 405.093C785.19 405.819 789.281 405.813 789.765 405.08C790.247 404.349 791.256 403.914 792.003 404.115C792.752 404.315 792.808 405.002 792.129 405.642ZM832.019 416.214C830.757 416.609 827.938 416.203 825.758 415.313C822.704 414.066 821.459 414.279 820.342 416.241C819.544 417.642 818.356 418.644 817.703 418.469C816.198 418.066 819.035 413.963 821.393 413.132C822.366 412.79 825.673 413.183 828.74 414.004C832.545 415.024 833.588 415.726 832.019 416.214ZM340.777 286.021C340.332 287.681 334.587 287.562 334.082 285.884C333.861 285.15 334.554 284.444 335.622 284.313C338.786 283.927 341.129 284.704 340.777 286.021ZM358.857 291.041C358.652 291.807 357.894 292.277 357.172 292.083C356.45 291.889 355.641 291 355.372 290.107C355.103 289.213 355.863 288.745 357.057 289.065C358.252 289.385 359.063 290.274 358.857 291.041ZM383.994 297.613C383.429 299.721 373.128 297.441 369.925 294.501C367.119 291.925 367.54 291.892 375.61 294.045C380.405 295.325 384.177 296.93 383.994 297.613ZM388.137 299.297C387.518 300.918 385.693 300.082 385.575 298.125C385.515 297.123 386.151 296.756 386.989 297.309C387.827 297.862 388.344 298.756 388.137 299.297ZM399.307 306.995C399.17 307.719 398.22 306.792 397.193 304.935C395.928 302.647 395.908 301.372 397.132 300.978C398.77 300.449 399.933 303.666 399.307 306.995ZM412.566 304.845C415.112 306.694 414.532 308.946 411.705 308.189C410.51 307.869 409.737 308.293 409.991 309.132C410.242 309.972 409.209 310.225 407.694 309.694C404.861 308.702 405.319 305.192 408.439 303.975C410.483 303.179 410.185 303.115 412.566 304.845ZM959.756 452.051C959.551 452.818 958.287 453.141 956.948 452.77C954.868 452.193 954.871 451.979 956.968 451.304C960.054 450.309 960.212 450.351 959.756 452.051ZM425.949 311.344C421.99 311.851 421.714 312.125 423.915 313.357C425.974 314.511 425.784 314.635 422.922 314.008C420.878 313.561 418.994 311.97 418.467 310.25C417.632 307.517 418.1 307.414 424.044 309.012C430.471 310.741 430.488 310.761 425.949 311.344ZM444.683 318.086C444.458 321.174 444.026 321.462 441.666 320.098C440.152 319.223 436.412 317.807 433.354 316.952C428.854 315.694 428.338 315.248 430.648 314.621C432.217 314.194 433.303 313.186 433.061 312.379C432.818 311.573 435.393 311.716 438.782 312.697C444.184 314.261 444.914 314.927 444.683 318.086ZM485.705 328.858C486.623 331.225 487.361 331.635 489.003 330.687C491.946 328.989 494.854 330.022 494.182 332.529C493.745 334.158 491.857 334.121 485.634 332.361C481.241 331.12 478.517 329.997 479.578 329.868C484.12 329.312 481.632 326.926 474.526 325.022C466.232 322.799 463.397 324.458 470.539 327.354C473.263 328.458 471.897 328.41 466.925 327.227C462.439 326.159 458.698 324.549 458.4 323.558C458.018 322.286 457.332 322.102 455.948 322.901C454.891 323.511 453.085 323.758 451.935 323.449C450.389 323.035 450.362 322.59 451.827 321.745C452.918 321.115 453.706 319.603 453.577 318.382C453.38 316.507 455.754 316.91 468.934 320.987C482.015 325.033 484.714 326.298 485.705 328.858ZM516.949 336.762C516.543 338.322 507.158 335.495 506.602 333.645C506.313 332.684 508.324 332.778 511.673 333.883C514.725 334.891 517.098 336.187 516.949 336.762ZM567.262 349.782C567.069 350.504 566.181 351.312 565.291 351.579C562.455 352.43 524.98 341.649 522.279 339.206C520.905 337.964 538.559 341.156 552.565 344.682C561.196 346.856 567.464 349.029 567.262 349.782ZM628.187 366.973C629.263 368.836 626.491 368.626 613.298 365.849C599.77 363.002 586.129 357.444 586.773 355.041C587.101 353.816 627.273 365.391 628.187 366.973ZM677.719 380.907C668.51 379.3 661.906 376.897 664.519 376.103C665.404 375.834 670.663 377.142 676.206 379.008L686.284 382.401L677.719 380.907ZM702.477 386.101C702.272 386.867 701.828 387.421 701.489 387.33C701.15 387.239 700.654 386.434 700.386 385.541C700.117 384.647 700.563 384.094 701.374 384.312C702.186 384.529 702.683 385.334 702.477 386.101ZM733.847 394.506C733.167 395.146 733.59 395.931 734.785 396.251C735.98 396.572 737.127 396.207 737.332 395.44C737.537 394.674 737.116 393.889 736.394 393.695C735.671 393.502 734.526 393.867 733.847 394.506ZM1023 471.511C1023.9 472.183 1025.11 472.456 1025.7 472.117C1026.29 471.778 1025.55 471.229 1024.07 470.895C1022.43 470.527 1022.01 470.769 1023 471.511ZM695.946 385.704C695.33 386.283 693.66 386.094 692.235 385.282C688.667 383.252 689.225 382.55 693.497 383.695C695.459 384.22 696.561 385.125 695.946 385.704ZM768.106 404.675C767.044 404.806 765.476 404.385 764.62 403.741C763.766 403.098 764.634 402.992 766.551 403.506C768.468 404.019 769.168 404.546 768.106 404.675ZM832.239 421.859C831.177 421.99 829.609 421.57 828.753 420.925C827.899 420.283 828.767 420.176 830.684 420.69C832.601 421.204 833.301 421.73 832.239 421.859ZM1010.82 476.189C1011.09 477.083 1011.58 477.888 1011.92 477.979C1012.26 478.069 1012.7 477.516 1012.91 476.75C1013.12 475.983 1012.62 475.178 1011.81 474.96C1011 474.743 1010.55 475.296 1010.82 476.189ZM1047.62 485.577C1048.52 486.249 1049.74 486.522 1050.32 486.183C1050.91 485.844 1050.18 485.295 1048.69 484.961C1047.05 484.593 1046.63 484.835 1047.62 485.577ZM472.961 350.369C472.809 350.943 460.01 347.893 444.521 343.591C425.025 338.174 420.07 336.501 428.419 338.156C445.745 341.588 473.288 349.14 472.961 350.369ZM486.769 354.617C486.691 354.909 483.666 354.278 480.048 353.212C474.39 351.543 474.091 351.296 477.907 351.443C482.052 351.602 487.093 353.408 486.769 354.617ZM414.603 335.347C413.541 335.478 411.972 335.057 411.117 334.413C410.263 333.77 411.131 333.664 413.048 334.178C414.965 334.691 415.665 335.218 414.603 335.347ZM287.627 304.509C288.423 305.403 282.554 304.426 274.413 302.309C266.356 300.215 260.127 298.16 260.571 297.743C261.781 296.603 285.975 302.654 287.627 304.509ZM924.535 476.495C925.433 477.168 926.649 477.44 927.236 477.101C927.823 476.762 927.088 476.213 925.603 475.879C923.961 475.511 923.542 475.753 924.535 476.495ZM822.298 450.477C821.711 450.815 820.494 450.543 819.597 449.871C818.604 449.128 819.023 448.887 820.665 449.255C822.15 449.589 822.885 450.138 822.298 450.477ZM336.967 323.632C345.102 326.075 358.904 329.775 367.639 331.852C376.374 333.93 369.718 331.931 352.848 327.41C335.979 322.888 328.833 321.188 336.967 323.632ZM461.743 357.771C462.287 358.713 463.964 359.55 465.468 359.629C467.494 359.738 467.237 359.292 464.478 357.917C462.072 356.715 461.104 356.665 461.743 357.771ZM894.137 472.831C895.034 473.503 896.251 473.776 896.838 473.437C897.424 473.098 896.69 472.549 895.204 472.215C893.562 471.847 893.143 472.089 894.137 472.831ZM472.636 361.42C474.281 362.218 476.794 362.878 478.22 362.887C479.647 362.895 478.3 362.242 475.229 361.435C472.158 360.629 470.991 360.622 472.636 361.42ZM492.155 366.65C493.8 367.448 496.313 368.108 497.739 368.117C499.165 368.125 497.819 367.472 494.748 366.665C491.676 365.859 490.51 365.852 492.155 366.65ZM535.377 378.258C537.799 379.239 541.565 380.242 543.745 380.486C545.926 380.728 543.944 379.925 539.34 378.7C534.738 377.475 532.954 377.276 535.377 378.258ZM555.589 383.664C557.623 384.551 560.762 385.383 562.566 385.512C564.369 385.641 562.705 384.915 558.868 383.897C555.031 382.881 553.556 382.775 555.589 383.664ZM738.22 432.556C739.468 433.267 741.665 433.856 743.1 433.864C744.535 433.873 743.515 433.292 740.831 432.573C738.147 431.854 736.973 431.847 738.22 432.556ZM761.235 438.683C762.09 439.327 763.659 439.747 764.72 439.617C765.783 439.488 765.083 438.961 763.166 438.447C761.249 437.934 760.38 438.04 761.235 438.683Z" fill="#FFF06F" fill-opacity="0.73"/>
</svg>
