<svg width="1440" height="261" viewBox="0 0 1440 261" fill="none" xmlns="http://www.w3.org/2000/svg">
<path fill-rule="evenodd" clip-rule="evenodd" d="M615.398 58.9539C412.709 75.9436 165.068 55.2918 0 126.88V260H683.5L1440 260V190.034V110.067C1272.79 -85.7895 907.996 34.4278 615.398 58.9539Z" fill="#9FEBEE"/>
<path fill-rule="evenodd" clip-rule="evenodd" d="M628.262 83.8537C420.559 95.8902 166.854 67.3464 0 140.686V260.028H666H1337.5H1439.96V143.061C1272.55 -38.9554 914.76 67.2511 628.262 83.8537Z" fill="#7EE5E9"/>
<path fill-rule="evenodd" clip-rule="evenodd" d="M587.794 96.0647C408.359 97.9809 179.749 63.1758 0.5 90.9194L0 200.419C0 200.419 2.90346e-05 225.274 3.50892e-05 260.386L264 260.419H587.794L1199 260.386H1362H1396.5L1439.89 260.419C1316.59 -13.569 905.864 92.6682 587.794 96.0647Z" fill="#5CE1E6"/>
</svg>
