<svg width="171" height="51" viewBox="0 0 171 51" fill="none" xmlns="http://www.w3.org/2000/svg">
<path d="M14.22 0.0519066C10.573 0.428226 7.00353 2.12167 4.40248 4.72272C3.63324 5.49196 3.17944 6.04538 2.53194 7.01939C1.19268 9.02828 0.312753 11.5574 0.058183 14.1252C-0.0303632 14.9885 -0.0137608 16.9366 0.0803195 17.7833C0.484312 21.4026 1.85678 24.7176 4.08704 27.4404C4.34714 27.7613 5.05551 28.5195 5.65873 29.1283L6.76002 30.2351L6.77663 31.0375C6.78769 31.674 6.81537 31.923 6.90945 32.244C7.47946 34.1754 9.11203 35.4981 11.0711 35.6143L11.6024 35.6475L11.6411 36.1511C11.6854 36.8595 11.8016 37.2911 12.1171 37.9275C12.5709 38.8573 13.2018 39.5048 14.1094 39.9696C14.7403 40.2962 15.2937 40.4511 15.9412 40.4843L16.4724 40.5175L16.5112 41.0322C16.6274 42.6814 17.5461 44.1036 18.9794 44.8397C19.6435 45.1828 20.125 45.3212 20.7835 45.3544L21.348 45.3876L21.3868 45.8856C21.5306 47.7506 22.5987 49.2449 24.27 49.9145C24.9452 50.1857 25.3824 50.2576 26.2015 50.2244C26.7327 50.2078 27.0205 50.1691 27.3083 50.075C27.8894 49.8924 28.4981 49.5548 28.9519 49.1619C29.5717 48.625 32.8867 45.2658 33.0859 44.967C33.4733 44.397 33.8662 43.4008 33.8662 43.0024C33.8662 42.8751 33.8773 42.8695 34.1595 42.9193C34.3145 42.9415 34.796 42.9636 35.2221 42.9581C35.9471 42.9581 36.0301 42.947 36.5226 42.7755C38.3212 42.1667 39.5 40.6669 39.6937 38.7411L39.7546 38.1212H40.0977C41.1879 38.1212 42.4109 37.601 43.2079 36.8041C44.0269 35.9851 44.4918 34.9557 44.5803 33.7493L44.6191 33.2512H44.9733C45.4326 33.2512 46.0801 33.1184 46.5837 32.9136C48.1443 32.2938 49.2622 30.794 49.4448 29.0729L49.4891 28.6911L49.954 28.1598C52.14 25.6971 53.4737 22.8526 53.9828 19.5819C54.1101 18.7905 54.1544 16.5381 54.0658 15.6748C53.684 11.895 52.1289 8.55788 49.5057 5.86275C46.9379 3.23404 43.6506 1.73428 39.6771 1.36903C38.775 1.29155 36.8823 1.33029 35.9692 1.45758C33.0749 1.8505 30.5568 2.7747 28.1771 4.32426L27.502 4.76146L27.0814 4.38514C24.2866 1.8505 21.0879 0.40609 17.5184 0.0519066C16.8211 -0.0200386 14.9063 -0.0145035 14.22 0.0519066ZM18.26 2.49799C20.9219 2.9684 23.2186 4.08076 25.2773 5.90149L25.6868 6.26121L20.2301 11.7179C17.2306 14.7174 14.7735 17.2022 14.7735 17.2299C14.7735 17.324 16.1681 18.6134 16.6163 18.9344C17.4298 19.521 18.5422 20.0135 19.5826 20.2515C20.2135 20.4009 21.7188 20.4563 22.4272 20.3567C23.783 20.174 25.1278 19.6096 26.3232 18.7352C26.528 18.5802 27.9558 17.2022 29.4943 15.6692L32.289 12.8856L39.5443 20.1519C45.2112 25.8189 46.8272 27.468 46.9213 27.6728C47.3308 28.5472 47.1426 29.5599 46.4453 30.2517C45.9417 30.7553 45.3551 30.9711 44.6467 30.9103C44.4198 30.8881 44.1321 30.8162 43.9273 30.7276C43.6008 30.5837 43.2411 30.2406 38.3489 25.3595C34.807 21.8287 33.0416 20.1076 32.8867 20.0301C32.3111 19.7424 31.5917 20.008 31.315 20.6057C31.1932 20.8603 31.1822 21.1093 31.2763 21.4303C31.3316 21.6295 32.0289 22.3545 36.6112 26.9423C42.3113 32.6646 42.101 32.4266 42.2339 33.1793C42.3445 33.8268 42.1066 34.5794 41.6196 35.0941C40.9942 35.7748 39.9372 35.9851 39.0683 35.6032C38.7252 35.4538 38.4374 35.1771 33.3958 30.1466C28.808 25.5754 28.0554 24.8393 27.8617 24.7895C27.5518 24.7065 27.3138 24.712 27.0703 24.8172C26.4062 25.0939 26.1461 25.8521 26.5003 26.4719C26.611 26.6656 28.1937 28.276 31.5751 31.6408C34.2813 34.3304 36.6167 36.6713 36.7661 36.8429C37.563 37.7671 37.5907 38.9846 36.8215 39.8811C36.0633 40.7666 34.6576 40.9271 33.7832 40.2242C33.6338 40.1025 33.429 39.953 33.335 39.8922C33.2409 39.8313 33.0416 39.6265 32.8922 39.4384C32.5159 38.968 31.885 38.481 31.2929 38.1987C30.6509 37.8943 30.258 37.7947 29.5939 37.7505L29.0515 37.7173V37.4295C29.0515 36.0957 28.3376 34.6569 27.2751 33.8489C26.4837 33.2512 25.6646 32.9358 24.7294 32.8804L24.1981 32.8472L24.1594 32.3325C23.9989 29.9971 22.1615 28.1432 19.887 28.0104L19.3225 27.9772L19.2838 27.4791C19.1288 25.4481 17.8836 23.893 15.9356 23.2787C15.5759 23.168 15.4043 23.1514 14.6904 23.1514C14.0651 23.1514 13.7718 23.1735 13.5006 23.251C13.0745 23.3672 12.4436 23.655 12.0783 23.904C11.9289 24.0037 10.9217 24.9666 9.83147 26.0513L7.85578 28.0214L7.15848 27.3297C6.24535 26.4221 5.63106 25.6971 5.03891 24.8116C3.57236 22.6257 2.70904 20.2626 2.39912 17.5896C2.28844 16.599 2.31611 14.5624 2.46 13.6604C3.05769 9.80859 4.96696 6.78695 8.13249 4.66737C9.71525 3.61036 11.3755 2.92412 13.2294 2.5644C14.3363 2.35411 14.7347 2.3209 16.157 2.34304C17.2472 2.3541 17.5848 2.38178 18.26 2.49799ZM39.7988 3.72657C42.0125 3.95901 44.1653 4.71165 45.8753 5.84615C48.4874 7.57833 50.5351 10.517 51.3596 13.7102C51.653 14.8391 51.747 15.5752 51.7802 16.8702C51.8245 18.7241 51.6419 19.9914 51.0719 21.7125C50.6236 23.0684 49.6773 24.8448 48.8914 25.8078L48.6811 26.0624L48.5428 25.8797C48.4653 25.7801 44.9677 22.2549 40.7673 18.0489C35.1612 12.4428 33.0527 10.362 32.848 10.2513C32.5159 10.0687 32.0621 10.0466 31.7633 10.2015C31.6581 10.2513 30.0864 11.7732 28.2768 13.5718C26.0078 15.8353 24.8733 16.9255 24.6242 17.086C24.0819 17.4402 23.4122 17.739 22.8146 17.9106C22.311 18.0489 22.1947 18.06 21.2761 18.0545C20.3629 18.0545 20.2412 18.0379 19.7819 17.905C19.2893 17.7556 18.1493 17.2354 18.1493 17.1579C18.1493 17.0804 27.7621 7.52853 28.1661 7.20201C31.4644 4.56776 35.7202 3.29491 39.7988 3.72657ZM15.6146 25.6528C16.561 26.0956 17.0867 27.053 16.9318 28.0325C16.81 28.7796 16.7657 28.835 14.6406 30.9656C12.8476 32.7642 12.6705 32.9302 12.3108 33.0962C11.951 33.2623 11.8791 33.2789 11.37 33.2789C10.8608 33.2789 10.7833 33.2623 10.4458 33.1018C9.93109 32.8583 9.5603 32.4986 9.30573 31.9894C9.11757 31.5965 9.10096 31.5412 9.10096 31.0431C9.10096 30.5727 9.1231 30.4675 9.26146 30.1521C9.41088 29.8256 9.60457 29.6097 11.3644 27.8388C12.4325 26.7597 13.4121 25.8189 13.5449 25.7414C13.9378 25.5089 14.2034 25.4481 14.7458 25.4647C15.1719 25.4757 15.2992 25.5034 15.6146 25.6528ZM20.4847 30.5229C21.431 30.9656 21.9789 31.9617 21.8073 32.9302C21.6856 33.6386 21.6081 33.7327 19.566 35.7858C18.5256 36.8318 17.5682 37.756 17.4298 37.8445C16.5887 38.3813 15.4265 38.2541 14.6628 37.5346C14.1481 37.0532 13.8659 36.2341 13.9876 35.5755C14.126 34.834 14.1758 34.7676 16.2566 32.6812C17.3136 31.6186 18.2821 30.6889 18.4149 30.6114C18.8023 30.379 19.0735 30.3181 19.6158 30.3347C20.042 30.3458 20.1692 30.3734 20.4847 30.5229ZM25.3658 35.3984C26.3011 35.8356 26.86 36.8539 26.6829 37.8003C26.5446 38.5363 26.4616 38.6415 24.3365 40.761C22.0342 43.0577 22.0896 43.019 21.1377 43.019C20.6009 43.019 20.529 43.0079 20.1858 42.8419C19.234 42.3936 18.6916 41.403 18.8632 40.4345C18.9849 39.7317 19.0624 39.6321 21.0768 37.6066C22.1007 36.5772 23.047 35.653 23.1798 35.5645C23.5727 35.2878 23.9657 35.1826 24.5246 35.2103C24.9175 35.2269 25.067 35.2601 25.3658 35.3984ZM30.2358 40.2685C31.1877 40.7168 31.7301 41.7184 31.5474 42.698C31.4201 43.3953 31.315 43.5226 29.201 45.6366C26.9043 47.9277 26.9596 47.889 26.0078 47.889C25.4709 47.889 25.399 47.8779 25.0559 47.7119C24.104 47.2636 23.5838 46.3118 23.7443 45.3212C23.8605 44.5907 23.9103 44.5242 26.0299 42.3991C27.3526 41.0765 28.0499 40.4179 28.2214 40.3294C28.6752 40.1025 28.891 40.0582 29.3947 40.0803C29.7876 40.0969 29.937 40.1301 30.2358 40.2685Z" fill="#5CE1E6"/>
<path d="M73.769 15.1183C73.769 15.2251 73.7275 15.2369 73.431 15.2369C73.004 15.2369 72.8202 15.2844 72.8202 15.3911C72.8202 15.4504 72.7431 15.4741 72.577 15.4741C72.3872 15.4741 72.3279 15.4979 72.3042 15.5928C72.2805 15.6876 72.2212 15.7114 72.0433 15.7114C71.8535 15.7114 71.812 15.7351 71.812 15.824C71.812 15.913 71.7527 15.9486 71.5747 15.9782C71.4383 16.002 71.3375 16.0494 71.3375 16.0968C71.3375 16.1443 71.2367 16.1917 71.1003 16.2155C70.9224 16.2451 70.8631 16.2807 70.8631 16.3697C70.8631 16.4408 70.8216 16.4823 70.7445 16.4823C70.6674 16.4823 70.6258 16.5238 70.6258 16.6009C70.6258 16.678 70.5843 16.7196 70.5072 16.7196C70.4301 16.7196 70.3886 16.7611 70.3886 16.8382C70.3886 16.9153 70.3471 16.9568 70.27 16.9568C70.1929 16.9568 70.1514 16.9983 70.1514 17.0754C70.1514 17.1644 70.1099 17.194 70.0031 17.194C69.8964 17.194 69.8549 17.2237 69.8549 17.3126C69.8549 17.3897 69.8134 17.4312 69.7363 17.4312C69.6592 17.4312 69.6176 17.4727 69.6176 17.5498C69.6176 17.6269 69.5761 17.6684 69.499 17.6684C69.4219 17.6684 69.3804 17.71 69.3804 17.7871C69.3804 17.8642 69.3389 17.9057 69.2618 17.9057C69.1729 17.9057 69.1432 17.9472 69.1432 18.0539C69.1432 18.1429 69.1076 18.2022 69.0542 18.2022C69.0068 18.2022 68.9534 18.2852 68.9297 18.4098C68.906 18.558 68.8645 18.6173 68.7814 18.6173C68.6984 18.6173 68.6688 18.6589 68.6688 18.7656C68.6688 18.8724 68.6391 18.9139 68.5501 18.9139C68.4553 18.9139 68.4315 18.9554 68.4315 19.1214C68.4315 19.2875 68.4078 19.329 68.3129 19.329C68.224 19.329 68.1943 19.3705 68.1943 19.4773C68.1943 19.584 68.1647 19.6255 68.0757 19.6255C67.9749 19.6255 67.9571 19.6671 67.9571 19.8628C67.9571 20.0585 67.9393 20.1 67.8385 20.1C67.7377 20.1 67.7199 20.1415 67.7199 20.3372C67.7199 20.5329 67.7021 20.5744 67.6072 20.5744C67.5182 20.5744 67.4826 20.6337 67.453 20.8117C67.4293 20.954 67.3818 21.0489 67.3344 21.0489C67.281 21.0489 67.2395 21.1497 67.2098 21.3158C67.192 21.4699 67.1387 21.5826 67.0972 21.5826C67.0201 21.5826 66.9489 21.8376 66.9489 22.1223C66.9489 22.2291 66.9192 22.2943 66.8659 22.2943C66.771 22.2943 66.7117 22.4722 66.7117 22.7806C66.7117 22.9644 66.6879 23.006 66.5931 23.006C66.4863 23.006 66.4744 23.0475 66.4744 23.4745C66.4744 23.8896 66.4626 23.943 66.3558 23.9726C66.2491 24.0023 66.2372 24.0557 66.2372 24.4827C66.2372 24.8504 66.2194 24.9631 66.1542 24.9631C66.0297 24.9631 66 25.2477 66 26.5584C66 27.8453 66.0237 28.0469 66.1542 28.0469C66.2135 28.0469 66.2372 28.1359 66.2372 28.3672C66.2372 28.8001 66.2965 29.0551 66.3914 29.0551C66.4507 29.0551 66.4744 29.1322 66.4744 29.2983C66.4744 29.4881 66.4982 29.5474 66.5931 29.5711C66.682 29.5948 66.7117 29.6541 66.7117 29.8083C66.7117 29.9625 66.7413 30.0218 66.8303 30.0456C66.9192 30.0693 66.9489 30.1286 66.9489 30.2828C66.9489 30.437 66.9785 30.4963 67.0616 30.52C67.1327 30.5378 67.1861 30.6208 67.2098 30.7454C67.2336 30.8699 67.2929 30.9529 67.364 30.9707C67.4352 30.9885 67.4826 31.0537 67.4826 31.1249C67.4826 31.2079 67.5182 31.2495 67.6013 31.2495C67.6784 31.2495 67.7199 31.291 67.7199 31.3681C67.7199 31.4452 67.7614 31.4867 67.8385 31.4867C67.9156 31.4867 67.9571 31.5282 67.9571 31.6053C67.9571 31.6824 67.9986 31.7239 68.0757 31.7239C68.1528 31.7239 68.1943 31.7654 68.1943 31.8425C68.1943 31.9196 68.2358 31.9611 68.3129 31.9611C68.39 31.9611 68.4315 32.0026 68.4315 32.0797C68.4315 32.1568 68.473 32.1983 68.5501 32.1983C68.6272 32.1983 68.6688 32.2399 68.6688 32.317C68.6688 32.4178 68.7103 32.4356 68.906 32.4356C69.0958 32.4356 69.1432 32.4593 69.1432 32.5483C69.1432 32.6313 69.2025 32.6669 69.3804 32.6965C69.5228 32.7202 69.6176 32.7677 69.6176 32.8151C69.6176 32.8685 69.7185 32.91 69.8845 32.9337C70.0446 32.9575 70.1514 33.0049 70.1514 33.0524C70.1514 33.1532 70.6555 33.2065 71.5747 33.2065C72.4762 33.2065 72.9981 33.1532 72.9981 33.0583C72.9981 32.9871 73.3005 32.91 73.6089 32.91C73.7275 32.91 73.769 32.8804 73.769 32.7914C73.769 32.6906 73.8106 32.6728 74.0063 32.6728C74.202 32.6728 74.2435 32.655 74.2435 32.5542C74.2435 32.4534 74.285 32.4356 74.4807 32.4356C74.6764 32.4356 74.7179 32.4178 74.7179 32.317C74.7179 32.228 74.7595 32.1983 74.8662 32.1983C74.973 32.1983 75.0145 32.1687 75.0145 32.0797C75.0145 31.9848 75.056 31.9611 75.222 31.9611C75.3881 31.9611 75.4296 31.9374 75.4296 31.8425C75.4296 31.7417 75.4711 31.7239 75.6668 31.7239H75.9041V32.0619C75.9041 32.6787 75.9752 33.2065 76.0582 33.2065C76.0998 33.2065 76.1472 33.3133 76.1709 33.4438C76.1946 33.5861 76.2421 33.681 76.2895 33.681C76.337 33.681 76.3904 33.77 76.4141 33.8826C76.4437 34.0665 76.4734 34.0902 76.681 34.1258C76.8529 34.1554 76.9122 34.191 76.9122 34.28C76.9122 34.3511 76.9538 34.3927 77.0309 34.3927C77.108 34.3927 77.1495 34.4342 77.1495 34.5113C77.1495 34.618 77.191 34.6299 77.535 34.6299C77.8789 34.6299 77.9204 34.618 77.9204 34.5113C77.9204 34.4342 77.962 34.3927 78.0391 34.3927C78.1162 34.3927 78.1577 34.3511 78.1577 34.274C78.1577 34.2088 78.1992 34.1554 78.2466 34.1554C78.3 34.1554 78.3356 34.1021 78.3356 34.0072C78.3356 33.9182 78.3 33.8589 78.2526 33.8589C78.1695 33.8589 78.0984 33.6098 78.0984 33.3192C78.0984 33.2125 78.0687 33.1472 78.0153 33.1472C77.9086 33.1472 77.8611 32.8804 77.8611 32.2577C77.8611 31.4926 77.9204 31.0122 78.0153 31.0122C78.0746 31.0122 78.0984 30.9173 78.0984 30.6683C78.0984 29.9625 78.1695 29.3517 78.2526 29.3517C78.3119 29.3517 78.3356 29.2627 78.3356 29.0314C78.3356 28.6044 78.3949 28.3435 78.4838 28.3435C78.5372 28.3435 78.5728 28.1893 78.6025 27.8394C78.6321 27.4954 78.6677 27.3353 78.7211 27.3353C78.81 27.3353 78.8693 27.0743 78.8693 26.7066C78.8693 26.5228 78.8931 26.4457 78.9524 26.4457C79.0413 26.4457 79.1066 26.1492 79.1066 25.7162C79.1066 25.5205 79.1303 25.4375 79.1896 25.4375C79.2904 25.4375 79.3556 25.1113 79.3082 24.8563C79.2845 24.7496 79.237 24.6665 79.1955 24.6665C79.154 24.6665 79.1006 24.5716 79.0828 24.459C79.0473 24.287 79.0117 24.2514 78.8456 24.2158C78.7151 24.1921 78.6321 24.1387 78.6143 24.0675C78.5847 23.9667 78.5254 23.9549 77.9323 23.9549C77.1791 23.9549 76.9122 23.9964 76.9122 24.109C76.9122 24.1802 76.6335 24.1921 75.3406 24.1921C73.8106 24.1921 73.769 24.198 73.769 24.3107C73.769 24.3878 73.7275 24.4293 73.6504 24.4293C73.5496 24.4293 73.5318 24.4708 73.5318 24.6962C73.5318 24.9215 73.5496 24.9631 73.6504 24.9631C73.7157 24.9631 73.769 24.9986 73.769 25.0461C73.769 25.141 73.947 25.2003 74.2613 25.2003C74.4095 25.2003 74.4807 25.2299 74.4807 25.2833C74.4807 25.4078 74.7595 25.4375 75.8803 25.4375H76.9122V25.7933C76.9122 26.1077 76.9004 26.1492 76.7936 26.1492C76.6928 26.1492 76.675 26.1907 76.675 26.3923C76.675 26.5821 76.6513 26.6414 76.5564 26.6651C76.4675 26.6888 76.4378 26.7482 76.4378 26.8846C76.4378 27.1514 76.3785 27.3353 76.2895 27.3353C76.248 27.3353 76.1946 27.448 76.1769 27.6022C76.1472 27.7741 76.1057 27.869 76.0464 27.869C75.993 27.869 75.9634 27.9283 75.9634 28.041C75.9634 28.3791 75.8922 28.5807 75.7795 28.5807C75.7083 28.5807 75.6668 28.6222 75.6668 28.6993C75.6668 28.7645 75.6312 28.8179 75.5838 28.8179C75.5304 28.8179 75.483 28.9069 75.4593 29.0551C75.4296 29.2331 75.394 29.2924 75.3051 29.2924C75.2339 29.2924 75.1924 29.3339 75.1924 29.405C75.1924 29.4644 75.139 29.5296 75.0738 29.5474C74.9848 29.5711 74.9552 29.6304 74.9552 29.7905C74.9552 29.9625 74.9314 30.004 74.8365 30.004C74.7595 30.004 74.7179 30.0456 74.7179 30.1226C74.7179 30.1997 74.6764 30.2413 74.5993 30.2413C74.5222 30.2413 74.4807 30.2828 74.4807 30.3539C74.4807 30.4429 74.4214 30.4785 74.2435 30.5081C74.0656 30.5378 74.0063 30.5734 74.0063 30.6623C74.0063 30.7335 73.9648 30.775 73.8877 30.775C73.8106 30.775 73.769 30.8165 73.769 30.8936C73.769 30.9826 73.7275 31.0122 73.6208 31.0122C73.5318 31.0122 73.4725 31.0478 73.4725 31.1012C73.4725 31.1605 73.3895 31.202 73.2353 31.2257C73.0574 31.2554 72.9981 31.291 72.9981 31.374C72.9981 31.4689 72.9506 31.4867 72.6719 31.4867C72.3872 31.4867 72.3457 31.4985 72.3457 31.6053C72.3457 31.718 72.3042 31.7239 71.4561 31.7239C70.6081 31.7239 70.5665 31.718 70.5665 31.6053C70.5665 31.5104 70.525 31.4867 70.353 31.4867C70.1929 31.4867 70.1336 31.457 70.1099 31.3681C70.0921 31.3028 70.0269 31.2495 69.9676 31.2495C69.8964 31.2495 69.8549 31.2079 69.8549 31.1368C69.8549 31.0537 69.7956 31.0122 69.6473 30.9885C69.4753 30.9529 69.4397 30.9173 69.4041 30.7513C69.3804 30.6208 69.327 30.5378 69.2559 30.52C69.1906 30.5022 69.1432 30.437 69.1432 30.3658C69.1432 30.2946 69.1076 30.2413 69.0602 30.2413C68.9712 30.2413 68.906 30.0633 68.906 29.7905C68.906 29.6541 68.8763 29.5948 68.7874 29.5711C68.6865 29.5474 68.6688 29.4881 68.6688 29.1797C68.6688 28.8594 68.6569 28.8179 68.5501 28.8179C68.4434 28.8179 68.4315 28.7764 68.4315 28.3435C68.4315 27.9105 68.4197 27.869 68.3129 27.869C68.1943 27.869 68.1943 27.8275 68.1943 26.1492C68.1943 24.4708 68.1943 24.4293 68.3129 24.4293C68.4197 24.4293 68.4315 24.3878 68.4315 23.9549C68.4315 23.5219 68.4434 23.4804 68.5501 23.4804C68.6569 23.4804 68.6688 23.4389 68.6688 23.1246C68.6688 22.8103 68.6806 22.7687 68.7874 22.7687C68.8823 22.7687 68.906 22.7272 68.906 22.5434C68.906 22.2409 68.9653 22.0571 69.0542 22.0571C69.0958 22.0571 69.1491 21.9444 69.1669 21.7902C69.1966 21.6241 69.2381 21.5233 69.2915 21.5233C69.3389 21.5233 69.3864 21.4284 69.4101 21.2861C69.4338 21.1497 69.4812 21.0489 69.5287 21.0489C69.5761 21.0489 69.6236 20.9481 69.6473 20.8117C69.671 20.6752 69.7185 20.5744 69.7659 20.5744C69.8134 20.5744 69.8608 20.4736 69.8845 20.3372C69.9142 20.1593 69.9498 20.1 70.0387 20.1C70.1336 20.1 70.1514 20.0585 70.1514 19.8628C70.1514 19.6671 70.1692 19.6255 70.27 19.6255C70.3471 19.6255 70.3886 19.584 70.3886 19.5129C70.3886 19.4536 70.442 19.3883 70.5072 19.3705C70.5784 19.3527 70.6258 19.2875 70.6258 19.2163C70.6258 19.1333 70.6614 19.0918 70.7445 19.0918C70.8216 19.0918 70.8631 19.0503 70.8631 18.9732C70.8631 18.9079 70.9046 18.8546 70.952 18.8546C70.9995 18.8546 71.0528 18.7715 71.0766 18.647C71.1003 18.4987 71.1418 18.4394 71.2248 18.4394C71.296 18.4394 71.3375 18.3979 71.3375 18.3267C71.3375 18.2378 71.3968 18.2022 71.5747 18.1725C71.7527 18.1429 71.812 18.1073 71.812 18.0184C71.812 17.9472 71.8535 17.9057 71.9306 17.9057C72.0077 17.9057 72.0492 17.8642 72.0492 17.7871C72.0492 17.71 72.0907 17.6684 72.1678 17.6684C72.2449 17.6684 72.2864 17.6269 72.2864 17.5498C72.2864 17.4609 72.3279 17.4312 72.4347 17.4312C72.5414 17.4312 72.5829 17.4016 72.5829 17.3126C72.5829 17.2177 72.6244 17.194 72.7964 17.194C72.9566 17.194 73.0159 17.1644 73.0396 17.0754C73.0633 16.9864 73.1226 16.9568 73.2709 16.9568C73.431 16.9568 73.4725 16.9331 73.4725 16.8382C73.4725 16.7374 73.514 16.7196 73.7157 16.7196C73.9054 16.7196 73.9648 16.6958 73.9885 16.6069C74.0122 16.5061 74.0952 16.4883 74.5697 16.4527C75.2161 16.4052 75.7261 16.4586 75.7261 16.5713C75.7261 16.6187 75.8151 16.6721 75.9278 16.6899C76.0938 16.7255 76.1353 16.7611 76.165 16.9093C76.248 17.3363 76.1709 18.3801 76.0523 18.3801C76.0108 18.3801 75.9574 18.4928 75.9396 18.647C75.91 18.8131 75.8685 18.9139 75.8151 18.9139C75.7676 18.9139 75.7202 19.0088 75.6965 19.1511C75.6728 19.2994 75.6253 19.3883 75.5719 19.3883C75.5186 19.3883 75.4889 19.4595 75.4889 19.5959C75.4889 19.7916 75.5008 19.8035 75.7261 19.839C75.8685 19.8628 75.9634 19.9102 75.9634 19.9577C75.9634 20.0051 76.0049 20.0407 76.0523 20.0407C76.0998 20.0407 76.1413 19.9992 76.1413 19.9517C76.1413 19.8806 76.2243 19.8628 76.5268 19.8628C76.8648 19.8628 76.9122 19.8509 76.9122 19.7501C76.9122 19.6611 76.9716 19.6255 77.1495 19.5959C77.3274 19.5662 77.3867 19.5306 77.3867 19.4417C77.3867 19.3705 77.4282 19.329 77.5053 19.329C77.6002 19.329 77.6239 19.2875 77.6239 19.1214C77.6239 18.9554 77.6476 18.9139 77.7366 18.9139C77.8256 18.9139 77.8552 18.8546 77.8849 18.647C77.9145 18.475 77.956 18.3801 78.0153 18.3801C78.0806 18.3801 78.0984 18.2496 78.0984 17.6684C78.0984 17.0873 78.0806 16.9568 78.0153 16.9568C77.956 16.9568 77.9145 16.8619 77.8849 16.6899C77.8552 16.4823 77.8256 16.423 77.7366 16.423C77.6654 16.423 77.6239 16.3815 77.6239 16.3044C77.6239 16.2273 77.5824 16.1858 77.5053 16.1858C77.4282 16.1858 77.3867 16.1443 77.3867 16.0672C77.3867 15.9901 77.3452 15.9486 77.2681 15.9486C77.191 15.9486 77.1495 15.9071 77.1495 15.83C77.1495 15.7529 77.108 15.7114 77.0309 15.7114C76.9656 15.7114 76.9122 15.6758 76.9122 15.6283C76.9122 15.575 76.8233 15.5275 76.675 15.5038C76.5446 15.4801 76.4378 15.4326 76.4378 15.3852C76.4378 15.3022 76.1828 15.2369 75.8685 15.2369C75.738 15.2369 75.6668 15.2073 75.6668 15.1539C75.6668 15.0293 75.4711 14.9997 74.5875 14.9997C73.8106 14.9997 73.769 15.0056 73.769 15.1183Z" fill="#5CE1E6"/>
<path d="M125.602 16.3334C125.602 16.3868 125.549 16.4223 125.477 16.4223C125.406 16.4223 125.341 16.4698 125.323 16.541C125.305 16.6062 125.258 16.6596 125.216 16.6596C125.163 16.6596 125.128 16.8197 125.098 17.1637C125.068 17.5195 125.033 17.6678 124.979 17.6678C124.926 17.6678 124.89 17.816 124.861 18.1719C124.831 18.5277 124.795 18.676 124.742 18.676C124.683 18.676 124.647 18.8183 124.617 19.1504C124.594 19.4766 124.552 19.6249 124.499 19.6249C124.446 19.6249 124.41 19.7731 124.38 20.0993C124.357 20.4136 124.315 20.5737 124.268 20.5737C124.179 20.5737 124.119 20.8406 124.119 21.2617C124.119 21.493 124.096 21.5819 124.036 21.5819C123.941 21.5819 123.882 21.837 123.882 22.2402V22.5308H123.645C123.449 22.5308 123.408 22.513 123.408 22.4182C123.408 22.3292 123.348 22.2936 123.17 22.264C123.04 22.2402 122.933 22.1928 122.933 22.1513C122.933 22.0445 122.251 21.9852 121.581 22.0327C121.124 22.0682 121.041 22.092 121.018 22.1809C121 22.2462 120.935 22.2936 120.863 22.2936C120.792 22.2936 120.739 22.3292 120.739 22.3766C120.739 22.43 120.65 22.4775 120.502 22.5012C120.324 22.5308 120.264 22.5664 120.264 22.6554C120.264 22.7265 120.223 22.7681 120.146 22.7681C120.069 22.7681 120.027 22.8096 120.027 22.8867C120.027 22.9638 119.986 23.0053 119.915 23.0053C119.826 23.0053 119.79 23.0646 119.76 23.2425C119.737 23.3908 119.689 23.4797 119.636 23.4797C119.588 23.4797 119.553 23.5331 119.553 23.5983C119.553 23.6754 119.511 23.7169 119.434 23.7169C119.351 23.7169 119.316 23.7585 119.316 23.8415C119.316 23.9127 119.268 23.9779 119.203 23.9957C119.126 24.0135 119.072 24.0965 119.049 24.2566C119.025 24.399 118.978 24.4879 118.924 24.4879C118.877 24.4879 118.829 24.5769 118.806 24.7251C118.782 24.8675 118.734 24.9624 118.687 24.9624C118.639 24.9624 118.592 25.0573 118.568 25.1996C118.545 25.3301 118.497 25.4368 118.456 25.4368C118.379 25.4368 118.307 25.6918 118.307 25.9765C118.307 26.107 118.278 26.1485 118.189 26.1485C118.082 26.1485 118.07 26.19 118.07 26.4984C118.07 26.7949 118.052 26.8483 117.952 26.8779C117.845 26.9076 117.833 26.961 117.833 27.5066C117.833 28.0641 117.827 28.1056 117.714 28.1056C117.602 28.1056 117.596 28.1471 117.596 29.0545C117.596 29.9618 117.602 30.0034 117.714 30.0034C117.821 30.0034 117.833 30.0449 117.833 30.3888C117.833 30.7328 117.845 30.7743 117.952 30.7743C118.052 30.7743 118.07 30.8158 118.07 31.0116C118.07 31.2073 118.088 31.2488 118.189 31.2488C118.29 31.2488 118.307 31.2903 118.307 31.486C118.307 31.6817 118.325 31.7232 118.426 31.7232C118.503 31.7232 118.545 31.7647 118.545 31.8418C118.545 31.9189 118.586 31.9604 118.663 31.9604C118.74 31.9604 118.782 32.002 118.782 32.0791C118.782 32.1562 118.823 32.1977 118.9 32.1977C118.978 32.1977 119.019 32.2392 119.019 32.3163C119.019 32.3993 119.061 32.4349 119.144 32.4349C119.215 32.4349 119.28 32.4823 119.298 32.5476C119.316 32.6247 119.399 32.678 119.559 32.7018C119.689 32.7255 119.79 32.7729 119.79 32.8204C119.79 32.9212 120.502 32.9864 121.035 32.9331C121.314 32.9093 121.451 32.8678 121.451 32.8204C121.451 32.7729 121.551 32.7255 121.682 32.7018C121.842 32.678 121.925 32.6247 121.943 32.5476C121.961 32.4823 122.026 32.4349 122.097 32.4349C122.18 32.4349 122.222 32.3993 122.222 32.3163C122.222 32.2392 122.263 32.1977 122.34 32.1977C122.417 32.1977 122.459 32.1562 122.459 32.0791C122.459 32.002 122.5 31.9604 122.577 31.9604C122.654 31.9604 122.696 31.9189 122.696 31.8418C122.696 31.7647 122.738 31.7232 122.815 31.7232C122.892 31.7232 122.933 31.6817 122.933 31.6046C122.933 31.5275 122.975 31.486 123.052 31.486C123.129 31.486 123.17 31.4445 123.17 31.3674C123.17 31.2903 123.212 31.2488 123.289 31.2488C123.366 31.2488 123.408 31.2073 123.408 31.1302C123.408 31.0531 123.449 31.0116 123.526 31.0116C123.603 31.0116 123.645 31.0531 123.645 31.1302C123.645 31.2073 123.686 31.2488 123.763 31.2488C123.841 31.2488 123.882 31.2903 123.882 31.3674C123.882 31.4445 123.924 31.486 124.001 31.486C124.078 31.486 124.119 31.5275 124.119 31.6046C124.119 31.6936 124.161 31.7232 124.268 31.7232C124.374 31.7232 124.416 31.7529 124.416 31.8418C124.416 31.9367 124.457 31.9604 124.623 31.9604C124.789 31.9604 124.831 31.9842 124.831 32.0791C124.831 32.1739 124.873 32.1977 125.033 32.1977C125.353 32.1977 125.602 32.2629 125.602 32.3519C125.602 32.4171 125.715 32.4349 126.076 32.4349C126.438 32.4349 126.551 32.4171 126.551 32.3519C126.551 32.2688 126.8 32.1977 127.091 32.1977C127.221 32.1977 127.263 32.168 127.263 32.0791C127.263 31.9782 127.304 31.9604 127.5 31.9604C127.695 31.9604 127.737 31.9426 127.737 31.8418C127.737 31.7647 127.778 31.7232 127.85 31.7232C127.939 31.7232 127.974 31.6639 128.004 31.486C128.039 31.2666 128.057 31.2488 128.241 31.2488C128.425 31.2488 128.443 31.2666 128.478 31.486C128.508 31.6639 128.544 31.7232 128.632 31.7232C128.704 31.7232 128.745 31.7647 128.745 31.8418C128.745 31.9189 128.787 31.9604 128.864 31.9604C128.941 31.9604 128.982 32.002 128.982 32.0791C128.982 32.1799 129.024 32.1977 129.22 32.1977C129.415 32.1977 129.457 32.2155 129.457 32.3103C129.457 32.3993 129.516 32.4349 129.694 32.4645C129.842 32.4883 129.931 32.5357 129.931 32.5891C129.931 32.6425 129.997 32.6721 130.103 32.6721C130.394 32.6721 130.643 32.7433 130.643 32.8263C130.643 32.8856 130.821 32.9093 131.402 32.9212C132.553 32.9508 133.074 32.9212 133.074 32.8263C133.074 32.7373 133.324 32.6721 133.644 32.6721C133.78 32.6721 133.845 32.6425 133.845 32.5891C133.845 32.5357 133.934 32.4883 134.083 32.4645C134.219 32.4408 134.32 32.3934 134.32 32.3459C134.32 32.2985 134.421 32.251 134.557 32.2273C134.735 32.1977 134.794 32.1621 134.794 32.0731C134.794 31.9782 134.836 31.9604 135.032 31.9604C135.227 31.9604 135.269 31.9426 135.269 31.8418C135.269 31.7529 135.31 31.7232 135.417 31.7232C135.524 31.7232 135.565 31.6936 135.565 31.6105C135.565 31.5275 135.625 31.486 135.773 31.4623C135.903 31.4386 135.98 31.3852 135.98 31.3318C135.98 31.2784 136.034 31.2251 136.099 31.2073C136.164 31.1895 136.218 31.1361 136.218 31.0946C136.218 31.0471 136.271 31.0116 136.336 31.0116C136.419 31.0116 136.455 30.97 136.455 30.887C136.455 30.8158 136.502 30.7506 136.568 30.7328C136.633 30.715 136.692 30.6557 136.71 30.5905C136.728 30.5312 136.781 30.4778 136.834 30.4778C136.888 30.4778 136.941 30.4007 136.965 30.2702C136.989 30.122 137.03 30.0627 137.113 30.0627C137.196 30.0627 137.226 30.0211 137.226 29.9144C137.226 29.8076 137.256 29.7661 137.345 29.7661C137.457 29.7661 137.463 29.7246 137.463 29.0604V28.3487L137.196 28.3072C137.03 28.2835 136.929 28.242 136.929 28.1886C136.929 28.1412 136.888 28.1056 136.84 28.1056C136.793 28.1056 136.751 28.1412 136.751 28.1886C136.751 28.2479 136.657 28.2894 136.485 28.3191C136.277 28.3487 136.218 28.3784 136.218 28.4673C136.218 28.5326 136.182 28.58 136.135 28.58C136.081 28.58 136.034 28.669 136.01 28.8172C135.98 28.9952 135.945 29.0545 135.856 29.0545C135.785 29.0545 135.743 29.096 135.743 29.1731C135.743 29.2502 135.702 29.2917 135.625 29.2917C135.548 29.2917 135.506 29.3332 135.506 29.4103C135.506 29.4874 135.465 29.5289 135.387 29.5289C135.31 29.5289 135.269 29.5704 135.269 29.6475C135.269 29.7246 135.227 29.7661 135.15 29.7661C135.073 29.7661 135.032 29.8076 135.032 29.8847C135.032 29.9618 134.99 30.0034 134.913 30.0034C134.824 30.0034 134.794 30.0449 134.794 30.1516C134.794 30.2584 134.765 30.2999 134.676 30.2999C134.611 30.2999 134.557 30.3414 134.557 30.3888C134.557 30.4363 134.504 30.4778 134.439 30.4778C134.361 30.4778 134.32 30.5193 134.32 30.5905C134.32 30.6794 134.261 30.715 134.083 30.7447C133.905 30.7743 133.845 30.8099 133.845 30.8989C133.845 30.9819 133.804 31.0116 133.697 31.0116C133.608 31.0116 133.549 31.0471 133.549 31.1005C133.549 31.1598 133.466 31.2013 133.312 31.2251C133.134 31.2547 133.074 31.2903 133.074 31.3733C133.074 31.4682 133.027 31.486 132.719 31.486C132.404 31.486 132.363 31.4979 132.363 31.6046C132.363 31.7173 132.321 31.7232 131.651 31.7232C130.981 31.7232 130.939 31.7173 130.939 31.6046C130.939 31.5275 130.898 31.486 130.821 31.486C130.744 31.486 130.702 31.4445 130.702 31.3674C130.702 31.2903 130.661 31.2488 130.584 31.2488C130.501 31.2488 130.465 31.2073 130.465 31.1242C130.465 31.0531 130.418 30.9878 130.352 30.97C130.24 30.9404 130.169 30.7328 130.169 30.4422C130.169 30.3592 130.133 30.2999 130.085 30.2999C129.979 30.2999 129.931 29.8017 129.931 28.7164C129.931 27.9099 129.937 27.8565 130.05 27.8268C130.115 27.809 130.169 27.7557 130.169 27.7142C130.169 27.6489 130.281 27.6311 130.667 27.6311C131.39 27.6311 131.888 27.5718 131.888 27.4769C131.888 27.4354 131.995 27.388 132.126 27.3642C132.262 27.3405 132.363 27.2931 132.363 27.2456C132.363 27.1982 132.464 27.1507 132.594 27.127C132.754 27.1033 132.837 27.0499 132.855 26.9728C132.873 26.9076 132.938 26.8602 133.009 26.8602C133.092 26.8602 133.134 26.8246 133.134 26.7415C133.134 26.6467 133.175 26.6229 133.341 26.6229C133.507 26.6229 133.549 26.5992 133.549 26.5043C133.549 26.4272 133.59 26.3857 133.668 26.3857C133.745 26.3857 133.786 26.3442 133.786 26.2671C133.786 26.19 133.828 26.1485 133.899 26.1485C133.988 26.1485 134.023 26.0892 134.053 25.9113C134.083 25.7333 134.118 25.674 134.207 25.674C134.29 25.674 134.32 25.6325 134.32 25.5258C134.32 25.4368 134.355 25.3775 134.409 25.3775C134.468 25.3775 134.51 25.2945 134.533 25.1403C134.563 24.9624 134.599 24.9031 134.682 24.9031C134.782 24.9031 134.794 24.8556 134.794 24.4583C134.794 24.055 134.806 24.0135 134.913 24.0135C135.02 24.0135 135.032 23.972 135.032 23.5094C135.032 23.0468 135.02 23.0053 134.913 23.0053C134.806 23.0053 134.794 22.9638 134.794 22.6494C134.794 22.3351 134.782 22.2936 134.676 22.2936C134.593 22.2936 134.557 22.2521 134.557 22.1691C134.557 22.0979 134.51 22.0327 134.439 22.0149C134.373 21.9971 134.32 21.9318 134.32 21.8725C134.32 21.8014 134.278 21.7599 134.201 21.7599C134.136 21.7599 134.083 21.7243 134.083 21.6768C134.083 21.6235 133.994 21.576 133.845 21.5523C133.715 21.5286 133.608 21.4811 133.608 21.4337C133.608 21.3388 133.288 21.2854 132.713 21.2854C132.161 21.2854 131.888 21.3329 131.888 21.4337C131.888 21.4811 131.788 21.5286 131.657 21.5523C131.497 21.576 131.414 21.6294 131.396 21.7065C131.378 21.7658 131.325 21.8192 131.272 21.8192C131.218 21.8192 131.177 21.8607 131.177 21.9081C131.177 21.9615 131.123 21.9971 131.052 21.9971C130.981 21.9971 130.916 22.0445 130.898 22.1098C130.88 22.175 130.821 22.2343 130.756 22.2521C130.696 22.2699 130.643 22.3233 130.643 22.3707C130.643 22.4182 130.59 22.4715 130.524 22.4893C130.459 22.5071 130.406 22.5605 130.406 22.6079C130.406 22.6554 130.352 22.7088 130.287 22.7265C130.216 22.7443 130.169 22.8096 130.169 22.8807C130.169 22.9638 130.133 23.0053 130.05 23.0053C129.973 23.0053 129.931 23.0468 129.931 23.1239C129.931 23.201 129.89 23.2425 129.813 23.2425C129.712 23.2425 129.694 23.284 129.694 23.4797C129.694 23.6754 129.676 23.7169 129.575 23.7169C129.486 23.7169 129.457 23.7585 129.457 23.8652C129.457 23.9542 129.421 24.0135 129.368 24.0135C129.32 24.0135 129.267 24.0965 129.243 24.221C129.22 24.3693 129.178 24.4286 129.095 24.4286C129 24.4286 128.982 24.4761 128.982 24.6955C128.982 24.9209 128.965 24.9624 128.864 24.9624C128.763 24.9624 128.745 25.0039 128.745 25.1996C128.745 25.3953 128.727 25.4368 128.627 25.4368C128.538 25.4368 128.508 25.4783 128.508 25.6088C128.508 25.8994 128.437 26.1485 128.354 26.1485C128.294 26.1485 128.271 26.2315 128.271 26.4391C128.271 26.8364 128.211 27.0974 128.122 27.0974C128.063 27.0974 128.034 27.299 128.004 27.8387C127.968 28.408 127.939 28.58 127.879 28.58C127.826 28.58 127.796 28.6453 127.796 28.752C127.796 29.09 127.725 29.2917 127.612 29.2917C127.541 29.2917 127.5 29.3332 127.5 29.4103C127.5 29.4755 127.464 29.5289 127.417 29.5289C127.363 29.5289 127.316 29.6179 127.292 29.7661C127.263 29.944 127.227 30.0034 127.138 30.0034C127.055 30.0034 127.025 30.0449 127.025 30.1516C127.025 30.2465 126.99 30.2999 126.936 30.2999C126.889 30.2999 126.847 30.3414 126.847 30.3948C126.847 30.4481 126.794 30.5015 126.735 30.5193C126.669 30.5371 126.61 30.5964 126.592 30.6616C126.575 30.7269 126.509 30.7743 126.438 30.7743C126.355 30.7743 126.314 30.8099 126.314 30.8929C126.314 30.9997 126.272 31.0116 125.952 31.0116C125.643 31.0116 125.584 30.9938 125.56 30.8929C125.543 30.8277 125.495 30.7743 125.454 30.7743C125.412 30.7743 125.365 30.6676 125.341 30.5371C125.317 30.3948 125.27 30.2999 125.222 30.2999C125.139 30.2999 125.068 29.7899 125.068 29.1553C125.068 28.8943 125.05 28.8172 124.979 28.8172C124.914 28.8172 124.89 28.752 124.89 28.58C124.89 28.4199 124.914 28.3428 124.973 28.3428C125.05 28.3428 125.128 27.6667 125.128 26.9372C125.128 26.6644 125.139 26.6229 125.246 26.6229C125.353 26.6229 125.365 26.5814 125.365 26.1485C125.365 25.7867 125.383 25.674 125.448 25.674C125.543 25.674 125.602 25.419 125.602 25.0217C125.602 24.7904 125.626 24.7311 125.721 24.7074C125.827 24.6777 125.839 24.6243 125.839 24.0787C125.839 23.5212 125.845 23.4797 125.958 23.4797C126.065 23.4797 126.076 23.4382 126.076 22.9756C126.076 22.513 126.088 22.4715 126.195 22.4715C126.308 22.4715 126.314 22.43 126.314 21.8785C126.314 21.3269 126.32 21.2854 126.432 21.2854C126.539 21.2854 126.551 21.2439 126.551 20.7576C126.551 20.129 126.598 19.8621 126.705 19.8621C126.764 19.8621 126.788 19.785 126.788 19.6011C126.788 19.0792 126.859 18.6167 126.942 18.6167C127.008 18.6167 127.025 18.4447 127.025 17.7923C127.025 17.0213 127.019 16.968 126.907 16.9383C126.836 16.9205 126.788 16.8553 126.788 16.7841C126.788 16.7129 126.753 16.6596 126.699 16.6596C126.652 16.6596 126.61 16.624 126.61 16.5765C126.61 16.5232 126.509 16.4817 126.343 16.4579C126.171 16.4283 126.076 16.3868 126.076 16.3275C126.076 16.2682 126.005 16.2444 125.839 16.2444C125.667 16.2444 125.602 16.2682 125.602 16.3334ZM133.104 22.7681C133.128 22.9163 133.175 23.0053 133.229 23.0053C133.288 23.0053 133.312 23.0764 133.312 23.2425C133.312 23.4026 133.288 23.4797 133.229 23.4797C133.146 23.4797 133.074 23.7288 133.074 24.0194C133.074 24.1321 133.045 24.1914 132.991 24.1914C132.932 24.1914 132.891 24.2863 132.861 24.4583C132.831 24.6658 132.802 24.7251 132.713 24.7251C132.624 24.7251 132.6 24.7667 132.6 24.9327C132.6 25.0988 132.576 25.1403 132.481 25.1403C132.404 25.1403 132.363 25.1818 132.363 25.253C132.363 25.3419 132.304 25.3775 132.126 25.4072C131.948 25.4368 131.888 25.4724 131.888 25.5614C131.888 25.6325 131.847 25.674 131.77 25.674C131.693 25.674 131.651 25.7156 131.651 25.7926C131.651 25.8697 131.61 25.9113 131.533 25.9113C131.455 25.9113 131.414 25.9528 131.414 26.0299C131.414 26.1307 131.372 26.1485 131.147 26.1485C130.922 26.1485 130.88 26.1663 130.88 26.2671C130.88 26.3679 130.839 26.3857 130.637 26.3857C130.394 26.3857 130.394 26.3857 130.429 26.2019C130.447 26.101 130.465 25.9409 130.465 25.846C130.465 25.7333 130.495 25.674 130.548 25.674C130.607 25.674 130.649 25.5791 130.679 25.4072C130.702 25.2411 130.744 25.1403 130.797 25.1403C130.845 25.1403 130.892 25.0454 130.916 24.9031C130.939 24.7607 130.987 24.6658 131.034 24.6658C131.082 24.6658 131.129 24.571 131.153 24.4286C131.183 24.2507 131.218 24.1914 131.301 24.1914C131.39 24.1914 131.414 24.1499 131.414 23.9898C131.414 23.8415 131.444 23.7822 131.533 23.7585C131.604 23.7407 131.651 23.6754 131.651 23.6043C131.651 23.5212 131.687 23.4797 131.77 23.4797C131.847 23.4797 131.888 23.4382 131.888 23.3611C131.888 23.284 131.93 23.2425 132.007 23.2425C132.084 23.2425 132.126 23.201 132.126 23.1239C132.126 23.0409 132.167 23.0053 132.25 23.0053C132.321 23.0053 132.387 22.9578 132.404 22.8867C132.428 22.7977 132.487 22.7681 132.642 22.7681C132.796 22.7681 132.855 22.7384 132.879 22.6494C132.932 22.4478 133.063 22.519 133.104 22.7681ZM122.459 23.4797C122.459 23.6754 122.477 23.7169 122.577 23.7169C122.678 23.7169 122.696 23.7585 122.696 23.9482C122.696 24.1736 122.702 24.1795 122.933 24.221C123.081 24.2448 123.17 24.2922 123.17 24.3456C123.17 24.393 123.224 24.4286 123.289 24.4286C123.402 24.4286 123.408 24.4701 123.408 25.2885C123.408 26.107 123.402 26.1485 123.289 26.1485C123.182 26.1485 123.17 26.19 123.17 26.6526C123.17 27.1152 123.159 27.1567 123.052 27.1567C122.945 27.1567 122.933 27.1982 122.933 27.6074C122.933 28.0048 122.921 28.0581 122.815 28.0878C122.72 28.1115 122.696 28.1708 122.696 28.3487C122.696 28.5385 122.678 28.58 122.577 28.58C122.488 28.58 122.459 28.6215 122.459 28.752C122.459 29.0367 122.388 29.2917 122.311 29.2917C122.263 29.2917 122.216 29.3925 122.192 29.523C122.168 29.6831 122.115 29.7661 122.038 29.7839C121.972 29.8017 121.925 29.867 121.925 29.9381C121.925 30.0093 121.889 30.0627 121.842 30.0627C121.795 30.0627 121.741 30.1516 121.723 30.2643C121.7 30.3948 121.646 30.4778 121.569 30.4956C121.498 30.5134 121.451 30.5786 121.451 30.6498C121.451 30.7328 121.415 30.7743 121.332 30.7743C121.255 30.7743 121.213 30.8158 121.213 30.8929C121.213 30.9582 121.178 31.0116 121.13 31.0116C121.089 31.0116 121.035 31.0649 121.018 31.1302C121 31.2013 120.935 31.2488 120.863 31.2488C120.78 31.2488 120.739 31.2844 120.739 31.3674C120.739 31.4741 120.697 31.486 120.383 31.486C120.069 31.486 120.027 31.4741 120.027 31.3674C120.027 31.2903 119.986 31.2488 119.909 31.2488C119.814 31.2488 119.79 31.2073 119.79 31.0234C119.79 30.715 119.731 30.5371 119.636 30.5371C119.571 30.5371 119.553 30.3533 119.553 29.5586C119.553 28.7698 119.571 28.58 119.636 28.58C119.737 28.58 119.79 28.2716 119.79 27.6133C119.79 27.1389 119.802 27.0974 119.909 27.0974C120.015 27.0974 120.027 27.0559 120.027 26.6229C120.027 26.19 120.039 26.1485 120.146 26.1485C120.253 26.1485 120.264 26.107 120.264 25.7926C120.264 25.4783 120.276 25.4368 120.383 25.4368C120.484 25.4368 120.502 25.3953 120.502 25.1996C120.502 25.0039 120.519 24.9624 120.62 24.9624C120.703 24.9624 120.739 24.9209 120.739 24.8378C120.739 24.7667 120.786 24.7014 120.852 24.6836C120.923 24.6658 120.976 24.5828 121 24.4583C121.024 24.3337 121.083 24.2507 121.154 24.2329C121.225 24.2151 121.273 24.1499 121.273 24.0787C121.273 23.9957 121.308 23.9542 121.391 23.9542C121.468 23.9542 121.51 23.9127 121.51 23.8356C121.51 23.7585 121.551 23.7169 121.628 23.7169C121.706 23.7169 121.747 23.6754 121.747 23.5983C121.747 23.5212 121.789 23.4797 121.866 23.4797C121.943 23.4797 121.984 23.4382 121.984 23.3611C121.984 23.2603 122.026 23.2425 122.222 23.2425H122.459V23.4797Z" fill="#5CE1E6"/>
<path d="M91.918 18.2616C91.918 18.3387 91.8765 18.3803 91.7994 18.3803C91.6986 18.3803 91.6808 18.4218 91.6808 18.6175C91.6808 18.8132 91.663 18.8547 91.5622 18.8547C91.4555 18.8547 91.4436 18.8962 91.4436 19.3588C91.4436 19.8214 91.4317 19.8629 91.325 19.8629C91.2182 19.8629 91.2064 19.9044 91.2064 20.3433C91.2064 20.7703 91.1945 20.8237 91.0878 20.8533C90.9869 20.883 90.9692 20.9363 90.9692 21.2507C90.9692 21.7548 90.9098 22.0572 90.815 22.0572C90.7675 22.0572 90.7319 22.1106 90.7319 22.1758C90.7319 22.2826 90.6904 22.2944 90.3761 22.2944C90.1092 22.2944 90.0203 22.3182 90.0203 22.3775C90.0203 22.4308 89.9313 22.4783 89.789 22.502C89.534 22.5435 89.4865 22.6265 89.4865 23.018C89.4865 23.2433 89.4865 23.2433 89.7237 23.2433C89.9194 23.2433 89.961 23.2611 89.961 23.3619C89.961 23.4628 90.0025 23.4805 90.2338 23.4805H90.5125L90.471 23.7C90.4532 23.8245 90.4354 23.9846 90.4354 24.0558C90.4354 24.1329 90.3998 24.1922 90.3524 24.1922C90.2693 24.1922 90.1982 24.6963 90.1982 25.3309C90.1982 25.5859 90.1745 25.6749 90.1152 25.6749C90.0558 25.6749 90.0203 25.8053 89.9906 26.1493C89.961 26.4696 89.9254 26.6238 89.872 26.6238C89.7949 26.6238 89.7237 27.1101 89.7237 27.6082C89.7237 27.7921 89.7 27.8692 89.6407 27.8692C89.528 27.8692 89.4865 28.136 89.4865 28.8833C89.4865 29.4171 89.4687 29.5297 89.3976 29.5297C89.3323 29.5297 89.3086 29.595 89.3086 29.767C89.3086 29.9389 89.3323 30.0042 89.3976 30.0042C89.4687 30.0042 89.4865 30.0991 89.4865 30.5083C89.4865 30.9709 89.4984 31.0124 89.6051 31.0124C89.6941 31.0124 89.7237 31.0539 89.7237 31.1844C89.7237 31.5224 89.7949 31.724 89.9076 31.724C89.9787 31.724 90.0203 31.7656 90.0203 31.8427C90.0203 31.9198 90.0618 31.9613 90.1389 31.9613C90.216 31.9613 90.2575 32.0028 90.2575 32.0799C90.2575 32.157 90.299 32.1985 90.3761 32.1985C90.4532 32.1985 90.4947 32.24 90.4947 32.3171C90.4947 32.4179 90.5362 32.4357 90.7319 32.4357C90.9276 32.4357 90.9692 32.4535 90.9692 32.5543C90.9692 32.6551 91.0107 32.6729 91.2598 32.6729C91.663 32.6729 91.918 32.7322 91.918 32.8271C91.918 32.8924 92.0307 32.9102 92.3925 32.9102C92.7543 32.9102 92.8669 32.8924 92.8669 32.8271C92.8669 32.75 93.1516 32.6729 93.4778 32.6729C93.5727 32.6729 93.6379 32.6433 93.6379 32.5899C93.6379 32.5365 93.7269 32.4891 93.8751 32.4654C94.0115 32.4416 94.1124 32.3942 94.1124 32.3468C94.1124 32.2993 94.2132 32.2519 94.3496 32.2281C94.5275 32.1985 94.5868 32.1629 94.5868 32.0739C94.5868 31.9791 94.6283 31.9613 94.824 31.9613C95.0197 31.9613 95.0612 31.9435 95.0612 31.8427C95.0612 31.7656 95.1028 31.724 95.1799 31.724C95.257 31.724 95.2985 31.6825 95.2985 31.6054C95.2985 31.5046 95.34 31.4868 95.5357 31.4868C95.7314 31.4868 95.7729 31.5046 95.7729 31.6054C95.7729 31.6825 95.8144 31.724 95.8856 31.724C95.9746 31.724 96.0101 31.7833 96.0398 31.9613C96.0754 32.1866 96.0932 32.1985 96.2829 32.1985C96.4431 32.1985 96.4846 32.2222 96.4846 32.3171C96.4846 32.4061 96.5261 32.4357 96.6328 32.4357C96.7396 32.4357 96.7811 32.4654 96.7811 32.5543C96.7811 32.6433 96.8226 32.6729 96.9531 32.6729C97.2437 32.6729 97.4928 32.7441 97.4928 32.8271C97.4928 32.8924 97.6292 32.9102 98.1155 32.9102C98.6018 32.9102 98.7382 32.8924 98.7382 32.8271C98.7382 32.75 98.9814 32.6729 99.2423 32.6729C99.3253 32.6729 99.3906 32.6314 99.4084 32.5543C99.4261 32.4832 99.4914 32.4357 99.5626 32.4357C99.6456 32.4357 99.6871 32.4001 99.6871 32.3171C99.6871 32.24 99.7286 32.1985 99.8057 32.1985C99.8828 32.1985 99.9243 32.157 99.9243 32.0799C99.9243 32.0028 99.9658 31.9613 100.043 31.9613C100.12 31.9613 100.162 31.9198 100.162 31.8427C100.162 31.7418 100.203 31.724 100.399 31.724C100.594 31.724 100.636 31.7418 100.636 31.8427C100.636 31.9198 100.677 31.9613 100.755 31.9613C100.832 31.9613 100.873 32.0028 100.873 32.0799C100.873 32.1688 100.915 32.1985 101.021 32.1985C101.128 32.1985 101.17 32.2281 101.17 32.3171C101.17 32.4061 101.211 32.4357 101.342 32.4357C101.632 32.4357 101.881 32.5069 101.881 32.5899C101.881 32.6551 102.012 32.6729 102.474 32.6729C102.943 32.6729 103.068 32.6551 103.068 32.5899C103.068 32.5365 103.156 32.4891 103.299 32.4654C103.459 32.4416 103.542 32.3883 103.56 32.3112C103.583 32.2281 103.643 32.1985 103.803 32.1985C103.975 32.1985 104.016 32.1748 104.016 32.0799C104.016 31.9909 104.058 31.9613 104.165 31.9613C104.271 31.9613 104.313 31.9316 104.313 31.8427C104.313 31.7656 104.354 31.724 104.432 31.724C104.509 31.724 104.55 31.6825 104.55 31.6054C104.55 31.5283 104.592 31.4868 104.669 31.4868C104.746 31.4868 104.787 31.5283 104.787 31.6054C104.787 31.6825 104.829 31.724 104.906 31.724C104.983 31.724 105.025 31.7656 105.025 31.8427C105.025 31.9198 105.066 31.9613 105.143 31.9613C105.22 31.9613 105.262 32.0028 105.262 32.0799C105.262 32.157 105.303 32.1985 105.38 32.1985C105.458 32.1985 105.499 32.24 105.499 32.3171C105.499 32.4061 105.541 32.4357 105.671 32.4357C105.956 32.4357 106.211 32.5069 106.211 32.584C106.211 32.6374 106.371 32.6729 106.715 32.7026C107.088 32.7322 107.219 32.7619 107.219 32.8271C107.219 32.8864 107.29 32.9102 107.456 32.9102C107.616 32.9102 107.693 32.8864 107.693 32.8271C107.693 32.7619 107.859 32.7382 108.405 32.7026C109.046 32.6611 109.117 32.6492 109.117 32.5484C109.117 32.4594 109.158 32.4357 109.354 32.4357C109.55 32.4357 109.591 32.4179 109.591 32.3171C109.591 32.2163 109.633 32.1985 109.828 32.1985C110.024 32.1985 110.066 32.1807 110.066 32.0799C110.066 31.9791 110.107 31.9613 110.303 31.9613C110.499 31.9613 110.54 31.9435 110.54 31.8427C110.54 31.7537 110.582 31.724 110.688 31.724C110.795 31.724 110.837 31.6944 110.837 31.6054C110.837 31.5283 110.878 31.4868 110.955 31.4868C111.044 31.4868 111.074 31.4453 111.074 31.3386C111.074 31.2318 111.103 31.1903 111.192 31.1903C111.287 31.1903 111.311 31.1488 111.311 30.9827C111.311 30.8167 111.335 30.7752 111.43 30.7752C111.519 30.7752 111.548 30.7336 111.548 30.6269C111.548 30.5201 111.578 30.4786 111.667 30.4786C111.78 30.4786 111.785 30.4371 111.785 29.1739C111.785 27.9107 111.78 27.8692 111.667 27.8692C111.566 27.8692 111.548 27.8277 111.548 27.626C111.548 27.4362 111.525 27.3769 111.43 27.3532C111.364 27.3354 111.311 27.2702 111.311 27.2109C111.311 27.1397 111.269 27.0982 111.198 27.0982C111.109 27.0982 111.074 27.0389 111.044 26.861C111.014 26.6831 110.979 26.6238 110.89 26.6238C110.819 26.6238 110.777 26.5822 110.777 26.5051C110.777 26.428 110.736 26.3865 110.659 26.3865C110.582 26.3865 110.54 26.345 110.54 26.2679C110.54 26.173 110.499 26.1493 110.332 26.1493C110.166 26.1493 110.125 26.1256 110.125 26.0307C110.125 25.9417 110.083 25.9121 109.977 25.9121C109.87 25.9121 109.828 25.8824 109.828 25.7935C109.828 25.6927 109.787 25.6749 109.591 25.6749C109.395 25.6749 109.354 25.6571 109.354 25.5562C109.354 25.4673 109.312 25.4376 109.182 25.4376C108.891 25.4376 108.642 25.3665 108.642 25.2834C108.642 25.236 108.536 25.1945 108.375 25.1648C108.209 25.1411 108.109 25.0996 108.109 25.0462C108.109 24.9988 108.049 24.9632 107.966 24.9632C107.889 24.9632 107.741 24.9454 107.64 24.9276C107.48 24.892 107.456 24.8624 107.456 24.6963C107.456 24.554 107.486 24.4947 107.575 24.471C107.64 24.4532 107.693 24.3998 107.693 24.3523C107.693 24.299 107.77 24.2515 107.895 24.2278C108.025 24.2041 108.109 24.1507 108.126 24.0736C108.144 24.0024 108.209 23.955 108.28 23.955C108.364 23.955 108.405 23.9194 108.405 23.8364C108.405 23.7296 108.447 23.7178 108.761 23.7178C109.075 23.7178 109.117 23.7059 109.117 23.5992C109.117 23.4924 109.158 23.4805 109.473 23.4805C109.787 23.4805 109.828 23.4687 109.828 23.3619C109.828 23.2493 109.87 23.2433 110.421 23.2433C110.973 23.2433 111.014 23.2374 111.014 23.1247C111.014 23.0239 111.056 23.0061 111.281 23.0061C111.507 23.0061 111.548 22.9883 111.548 22.8875C111.548 22.8104 111.59 22.7689 111.667 22.7689C111.768 22.7689 111.785 22.7274 111.785 22.5317C111.785 22.3359 111.768 22.2944 111.667 22.2944C111.578 22.2944 111.548 22.2529 111.548 22.1462C111.548 22.0394 111.519 21.9979 111.43 21.9979C111.353 21.9979 111.311 21.9564 111.311 21.8793C111.311 21.7666 111.269 21.7607 110.736 21.7607C109.911 21.7607 109.354 21.82 109.354 21.9089C109.354 21.992 109.093 22.0572 108.785 22.0572C108.654 22.0572 108.583 22.0869 108.583 22.1402C108.583 22.1936 108.47 22.2351 108.227 22.2589C107.99 22.2885 107.871 22.3241 107.871 22.3775C107.871 22.4724 107.693 22.5317 107.421 22.5317C107.284 22.5317 107.225 22.5613 107.201 22.6503C107.183 22.7214 107.118 22.7689 107.047 22.7689C106.976 22.7689 106.922 22.8045 106.922 22.8578C106.922 22.9171 106.839 22.9587 106.685 22.9824C106.507 23.012 106.448 23.0476 106.448 23.1306C106.448 23.2018 106.406 23.2433 106.329 23.2433C106.252 23.2433 106.211 23.2848 106.211 23.3619C106.211 23.439 106.169 23.4805 106.092 23.4805C105.991 23.4805 105.973 23.5221 105.973 23.7178C105.973 23.9135 105.956 23.955 105.855 23.955C105.754 23.955 105.736 23.9965 105.736 24.1981C105.736 24.3879 105.713 24.4472 105.618 24.471C105.523 24.4947 105.499 24.554 105.499 24.7319C105.499 24.892 105.523 24.9632 105.582 24.9632C105.677 24.9632 105.736 25.1411 105.736 25.4495C105.736 25.6333 105.76 25.6749 105.855 25.6749C105.932 25.6749 105.973 25.7164 105.973 25.7935C105.973 25.8706 106.015 25.9121 106.092 25.9121C106.169 25.9121 106.211 25.9536 106.211 26.0307C106.211 26.1315 106.252 26.1493 106.448 26.1493C106.644 26.1493 106.685 26.1671 106.685 26.2679C106.685 26.3628 106.727 26.3865 106.911 26.3865C107.219 26.3865 107.397 26.4458 107.397 26.5407C107.397 26.6 107.492 26.6238 107.759 26.6238C108.067 26.6238 108.126 26.6415 108.15 26.7364C108.168 26.8135 108.251 26.8669 108.411 26.8906C108.553 26.9143 108.642 26.9618 108.642 27.0152C108.642 27.0626 108.696 27.0982 108.761 27.0982C108.838 27.0982 108.879 27.1397 108.879 27.2109C108.879 27.2998 108.939 27.3354 109.117 27.3651C109.271 27.3888 109.354 27.4362 109.354 27.4955C109.354 27.543 109.407 27.5964 109.473 27.6142C109.538 27.6319 109.591 27.6853 109.591 27.7328C109.591 27.7802 109.645 27.8336 109.704 27.8514C109.781 27.8692 109.834 27.9522 109.858 28.1123C109.882 28.2547 109.929 28.3436 109.983 28.3436C110.048 28.3436 110.066 28.4622 110.066 28.9307C110.066 29.4645 110.054 29.5179 109.947 29.5475C109.858 29.5712 109.828 29.6306 109.828 29.7907C109.828 29.9627 109.805 30.0042 109.71 30.0042C109.621 30.0042 109.591 30.0457 109.591 30.1524C109.591 30.2592 109.561 30.3007 109.473 30.3007C109.407 30.3007 109.354 30.3422 109.354 30.3897C109.354 30.4371 109.301 30.4786 109.235 30.4786C109.158 30.4786 109.117 30.5201 109.117 30.5913C109.117 30.6803 109.057 30.7158 108.885 30.7455C108.725 30.7692 108.642 30.8226 108.624 30.8997C108.595 31.0005 108.541 31.0124 108.144 31.0124C107.782 31.0124 107.693 31.0302 107.693 31.1013C107.693 31.1666 107.628 31.1903 107.456 31.1903C107.284 31.1903 107.219 31.1666 107.219 31.1013C107.219 31.0361 107.148 31.0124 106.952 31.0124C106.727 31.0124 106.685 30.9946 106.685 30.8938C106.685 30.8167 106.644 30.7752 106.567 30.7752C106.478 30.7752 106.448 30.7336 106.448 30.6269C106.448 30.5201 106.418 30.4786 106.329 30.4786C106.217 30.4786 106.211 30.4371 106.211 29.6483C106.211 28.8596 106.205 28.8181 106.092 28.8181C106.015 28.8181 105.973 28.7765 105.973 28.6995C105.973 28.6224 105.932 28.5808 105.855 28.5808C105.778 28.5808 105.736 28.5393 105.736 28.4622C105.736 28.3614 105.695 28.3436 105.469 28.3436C105.274 28.3436 105.203 28.3673 105.203 28.4326C105.203 28.48 105.119 28.5334 105.001 28.5571C104.817 28.5868 104.793 28.6164 104.758 28.824C104.734 28.9663 104.687 29.0553 104.633 29.0553C104.586 29.0553 104.55 29.1087 104.55 29.1798C104.55 29.251 104.503 29.3162 104.432 29.334C104.354 29.3518 104.301 29.4348 104.277 29.5653C104.254 29.7076 104.206 29.767 104.129 29.767C104.058 29.767 104.016 29.8085 104.016 29.8796C104.016 29.9389 103.963 30.0042 103.898 30.022C103.827 30.0398 103.779 30.105 103.779 30.1762C103.779 30.2592 103.744 30.3007 103.661 30.3007C103.583 30.3007 103.542 30.3422 103.542 30.4193C103.542 30.4964 103.5 30.5379 103.423 30.5379C103.346 30.5379 103.305 30.5794 103.305 30.6565C103.305 30.7336 103.263 30.7752 103.186 30.7752C103.109 30.7752 103.068 30.8167 103.068 30.8938C103.068 30.9709 103.026 31.0124 102.949 31.0124C102.884 31.0124 102.83 31.048 102.83 31.0954C102.83 31.1784 102.581 31.2496 102.297 31.2496C102.148 31.2496 102.125 31.2199 102.089 31.0124C102.065 30.8641 102.018 30.7752 101.964 30.7752C101.899 30.7752 101.881 30.615 101.881 29.9152C101.881 29.2273 101.899 29.0553 101.964 29.0553C102.059 29.0553 102.119 28.8003 102.119 28.397C102.119 28.1894 102.142 28.1064 102.202 28.1064C102.291 28.1064 102.356 27.8573 102.356 27.5371C102.356 27.4066 102.386 27.3354 102.439 27.3354C102.557 27.3354 102.593 27.1456 102.593 26.4873C102.593 25.9536 102.587 25.9121 102.474 25.9121C102.397 25.9121 102.356 25.8706 102.356 25.7994C102.356 25.7164 102.297 25.6808 102.119 25.6511C101.964 25.6274 101.881 25.5859 101.881 25.5266C101.881 25.4554 101.804 25.4376 101.532 25.4376C101.235 25.4376 101.182 25.4554 101.152 25.5562C101.134 25.6274 101.069 25.6749 100.998 25.6749C100.915 25.6749 100.873 25.7104 100.873 25.7935C100.873 25.8587 100.838 25.9121 100.79 25.9121C100.695 25.9121 100.636 26.1671 100.636 26.5704C100.636 26.8195 100.618 26.861 100.517 26.861C100.411 26.861 100.399 26.9025 100.399 27.2168C100.399 27.5311 100.387 27.5726 100.28 27.5726C100.179 27.5726 100.162 27.6142 100.162 27.8395C100.162 28.0649 100.144 28.1064 100.043 28.1064C99.9362 28.1064 99.9243 28.1479 99.9243 28.4622C99.9243 28.7765 99.9125 28.8181 99.8057 28.8181C99.7049 28.8181 99.6871 28.8596 99.6871 29.0553C99.6871 29.251 99.6693 29.2925 99.5685 29.2925C99.4677 29.2925 99.4499 29.334 99.4499 29.5357C99.4499 29.7254 99.4261 29.7847 99.3372 29.8085C99.266 29.8263 99.2126 29.9093 99.183 30.0398C99.1652 30.1584 99.1118 30.2414 99.0644 30.2414C99.011 30.2414 98.9754 30.2948 98.9754 30.3659C98.9754 30.4371 98.928 30.5023 98.8627 30.5201C98.7856 30.5379 98.7323 30.621 98.7085 30.7811C98.6789 30.9531 98.6433 31.0124 98.5544 31.0124C98.4832 31.0124 98.4417 31.0539 98.4417 31.131C98.4417 31.2081 98.4002 31.2496 98.3231 31.2496C98.246 31.2496 98.2045 31.2911 98.2045 31.3682C98.2045 31.469 98.1629 31.4868 97.9672 31.4868C97.7715 31.4868 97.73 31.469 97.73 31.3682C97.73 31.2911 97.6885 31.2496 97.6114 31.2496C97.5106 31.2496 97.4928 31.2081 97.4928 31.0124C97.4928 30.8167 97.475 30.7752 97.3742 30.7752C97.2615 30.7752 97.2556 30.7336 97.2556 29.2925C97.2556 27.8514 97.2615 27.8099 97.3742 27.8099C97.4809 27.8099 97.4928 27.7684 97.4928 27.3354C97.4928 26.9025 97.5046 26.861 97.6114 26.861C97.7122 26.861 97.73 26.8195 97.73 26.5704C97.73 26.179 97.7893 25.9121 97.8783 25.9121C97.9198 25.9121 97.9672 25.8053 97.991 25.6749C98.0147 25.5207 98.0562 25.4376 98.1155 25.4376C98.1807 25.4376 98.2045 25.3724 98.2045 25.2004C98.2045 25.0106 98.2282 24.9632 98.3171 24.9632C98.4002 24.9632 98.4357 24.9039 98.4654 24.7319C98.4891 24.5718 98.5366 24.4947 98.6196 24.471C98.6908 24.4532 98.7382 24.3879 98.7382 24.3168C98.7382 24.2456 98.7738 24.1922 98.8212 24.1922C98.8746 24.1922 98.922 24.1033 98.9458 23.955C98.9754 23.7771 99.011 23.7178 99.1 23.7178C99.1711 23.7178 99.2126 23.6763 99.2126 23.5992C99.2126 23.5221 99.2542 23.4805 99.3313 23.4805C99.4084 23.4805 99.4499 23.439 99.4499 23.3619C99.4499 23.2848 99.4914 23.2433 99.5685 23.2433C99.6456 23.2433 99.6871 23.2018 99.6871 23.1247C99.6871 23.0476 99.7286 23.0061 99.8057 23.0061C99.8828 23.0061 99.9243 22.9646 99.9243 22.8875C99.9243 22.7807 99.9658 22.7689 100.28 22.7689C100.594 22.7689 100.636 22.7807 100.636 22.8875C100.636 22.9646 100.677 23.0061 100.755 23.0061C100.832 23.0061 100.873 23.0476 100.873 23.1247C100.873 23.2018 100.915 23.2433 100.992 23.2433C101.099 23.2433 101.11 23.2848 101.11 23.6525C101.11 24.1685 101.164 24.4294 101.265 24.4294C101.312 24.4294 101.348 24.4828 101.348 24.5421C101.348 24.637 101.401 24.6667 101.615 24.7022C101.781 24.726 101.881 24.7675 101.881 24.8209C101.881 24.8802 101.959 24.9039 102.119 24.9039C102.285 24.9039 102.356 24.8802 102.356 24.8209C102.356 24.7675 102.445 24.72 102.593 24.6963L102.83 24.6548V23.9491C102.83 23.2848 102.824 23.2433 102.712 23.2433C102.611 23.2433 102.593 23.2018 102.593 23.0061C102.593 22.8104 102.575 22.7689 102.474 22.7689C102.397 22.7689 102.356 22.7274 102.356 22.6503C102.356 22.5732 102.314 22.5317 102.237 22.5317C102.154 22.5317 102.119 22.4901 102.119 22.4071C102.119 22.3359 102.071 22.2707 102 22.2529C101.935 22.2351 101.881 22.1818 101.881 22.1402C101.881 22.0928 101.828 22.0572 101.757 22.0572C101.686 22.0572 101.62 22.0098 101.603 21.9445C101.573 21.8378 101.365 21.7607 101.081 21.7607C100.998 21.7607 100.933 21.7192 100.915 21.6421C100.885 21.5294 100.832 21.5235 100.114 21.5235C99.2482 21.5235 98.9754 21.559 98.9754 21.6777C98.9754 21.7251 98.922 21.7607 98.8509 21.7607C98.7797 21.7607 98.7145 21.8081 98.6967 21.8793C98.6789 21.9445 98.6255 21.9979 98.5781 21.9979C98.5306 21.9979 98.4773 22.0513 98.4595 22.1106C98.4417 22.1818 98.3586 22.2351 98.2341 22.2589C98.1096 22.2826 98.0265 22.3419 98.0087 22.413C97.991 22.4842 97.9257 22.5317 97.8545 22.5317C97.7715 22.5317 97.73 22.5672 97.73 22.6503C97.73 22.7274 97.6885 22.7689 97.6114 22.7689C97.5106 22.7689 97.4928 22.8104 97.4928 23.0061C97.4928 23.2018 97.475 23.2433 97.3742 23.2433C97.2971 23.2433 97.2556 23.2848 97.2556 23.3619C97.2556 23.439 97.214 23.4805 97.1369 23.4805C97.0539 23.4805 97.0183 23.5221 97.0183 23.6051C97.0183 23.6763 96.9709 23.7415 96.8997 23.7593C96.8108 23.783 96.7811 23.8423 96.7811 23.9906C96.7811 24.1507 96.7574 24.1922 96.6625 24.1922C96.5617 24.1922 96.5439 24.2337 96.5439 24.4354C96.5439 24.6251 96.5202 24.6845 96.4312 24.7082C96.3541 24.726 96.3007 24.809 96.277 24.9691C96.2533 25.0996 96.2058 25.2004 96.1584 25.2004C96.0813 25.2004 96.0101 25.4554 96.0101 25.7401C96.0101 25.8468 95.9805 25.9121 95.9271 25.9121C95.8737 25.9121 95.8263 26.001 95.8026 26.1493C95.7788 26.2798 95.7314 26.3865 95.684 26.3865C95.595 26.3865 95.5357 26.6475 95.5357 27.0745C95.5357 27.3058 95.512 27.3947 95.4527 27.3947C95.3341 27.3947 95.2985 27.6675 95.2985 28.5275C95.2985 29.1442 95.2807 29.2925 95.2154 29.2925C95.1621 29.2925 95.1146 29.3815 95.0909 29.5297C95.0612 29.7076 95.0257 29.767 94.9367 29.767C94.8655 29.767 94.824 29.8085 94.824 29.8796C94.824 29.9686 94.7647 30.0042 94.5868 30.0338C94.4089 30.0635 94.3496 30.0991 94.3496 30.188C94.3496 30.2592 94.3081 30.3007 94.231 30.3007C94.1598 30.3007 94.1124 30.3422 94.1124 30.3956C94.1124 30.449 94.059 30.5023 93.9937 30.5201C93.9285 30.5379 93.8751 30.5913 93.8751 30.6328C93.8751 30.6803 93.8218 30.7158 93.7506 30.7158C93.6794 30.7158 93.6142 30.7633 93.5964 30.8345C93.5727 30.9175 93.4956 30.9649 93.3355 30.9887C93.205 31.0124 93.1042 31.0598 93.1042 31.1013C93.1042 31.1903 92.9203 31.2496 92.6534 31.2496C92.517 31.2496 92.4577 31.2792 92.434 31.3682C92.4103 31.4572 92.351 31.4868 92.1849 31.4868C92.0189 31.4868 91.9596 31.4572 91.9358 31.3682C91.918 31.303 91.8528 31.2496 91.7935 31.2496C91.7223 31.2496 91.6808 31.2081 91.6808 31.131C91.6808 31.0539 91.6393 31.0124 91.5622 31.0124C91.4495 31.0124 91.4436 30.9709 91.4436 29.7966C91.4436 28.6224 91.4495 28.5808 91.5622 28.5808C91.6749 28.5808 91.6808 28.5393 91.6808 27.8395C91.6808 27.1397 91.6868 27.0982 91.7994 27.0982C91.9062 27.0982 91.918 27.0567 91.918 26.689C91.918 26.173 91.9714 25.9121 92.0722 25.9121C92.1315 25.9121 92.1553 25.8291 92.1553 25.6215C92.1553 25.2182 92.2146 24.9632 92.3095 24.9632C92.3688 24.9632 92.3925 24.8742 92.3925 24.6429C92.3925 24.21 92.4518 23.955 92.5467 23.955C92.606 23.955 92.6297 23.8779 92.6297 23.7178V23.4805H93.371C94.0708 23.4805 94.1124 23.4746 94.1124 23.3619C94.1124 23.2552 94.1539 23.2433 94.4623 23.2433C94.8062 23.2433 94.8122 23.2433 94.8359 23.0595C94.8537 22.9587 94.8537 22.7452 94.8359 22.591C94.8122 22.3063 94.8062 22.3004 94.5809 22.2648C94.4385 22.2411 94.3496 22.1936 94.3496 22.1402C94.3496 22.075 94.225 22.0572 93.7209 22.0572H93.0864L93.1279 21.6954C93.1457 21.4938 93.1635 21.2091 93.1635 21.0727C93.1635 20.8889 93.1872 20.8118 93.2465 20.8118C93.3473 20.8118 93.4007 20.5508 93.4007 20.0349C93.4007 19.7087 93.4185 19.6257 93.4896 19.6257C93.5608 19.6257 93.5786 19.5308 93.5786 19.1512C93.5786 18.7776 93.5608 18.6768 93.4956 18.6768C93.4481 18.6768 93.4007 18.6175 93.3888 18.5404C93.377 18.4574 93.3236 18.404 93.2406 18.3921C93.1516 18.3803 93.1042 18.3328 93.1042 18.2557C93.1042 18.1549 93.0567 18.143 92.5111 18.143C91.9596 18.143 91.918 18.149 91.918 18.2616Z" fill="#5CE1E6"/>
<path d="M84.9169 21.6658C84.9169 21.7251 84.7864 21.7548 84.4483 21.7844C84.051 21.82 83.9739 21.8437 83.9502 21.9445C83.9265 22.0276 83.8671 22.0572 83.713 22.0572C83.5588 22.0572 83.4995 22.0869 83.4757 22.1758C83.4579 22.247 83.3927 22.2944 83.3215 22.2944C83.2385 22.2944 83.197 22.33 83.197 22.413C83.197 22.4901 83.1555 22.5317 83.0784 22.5317C83.0013 22.5317 82.9598 22.5732 82.9598 22.6503C82.9598 22.7274 82.9183 22.7689 82.8412 22.7689C82.7641 22.7689 82.7225 22.8104 82.7225 22.8875C82.7225 22.9646 82.681 23.0061 82.6039 23.0061C82.5268 23.0061 82.4853 23.0476 82.4853 23.1247C82.4853 23.2018 82.4438 23.2433 82.3667 23.2433C82.2896 23.2433 82.2481 23.2848 82.2481 23.3619C82.2481 23.439 82.2066 23.4805 82.1295 23.4805C82.0524 23.4805 82.0109 23.5221 82.0109 23.5992C82.0109 23.6763 81.9694 23.7178 81.8982 23.7178C81.8092 23.7178 81.7737 23.7771 81.744 23.9491C81.7203 24.1092 81.6669 24.1922 81.5898 24.21C81.5246 24.2278 81.4771 24.293 81.4771 24.3642C81.4771 24.4354 81.4415 24.4887 81.3882 24.4887C81.3289 24.4887 81.2874 24.5718 81.2636 24.726C81.2399 24.8564 81.1925 24.9632 81.1509 24.9632C81.0739 24.9632 81.0027 25.2182 81.0027 25.5029C81.0027 25.6096 80.973 25.6749 80.9197 25.6749C80.8248 25.6749 80.7655 25.9299 80.7655 26.3628C80.7655 26.5941 80.7417 26.6831 80.6824 26.6831C80.5638 26.6831 80.5282 26.8788 80.5282 27.6082C80.5282 28.2191 80.5164 28.2725 80.4096 28.3021C80.3029 28.3318 80.291 28.3851 80.291 28.8655C80.291 29.5001 80.3385 29.767 80.4452 29.767C80.5045 29.767 80.5282 29.8559 80.5282 30.105C80.5282 30.532 80.5757 30.7158 80.6824 30.7158C80.7417 30.7158 80.7655 30.7929 80.7655 30.959C80.7655 31.1488 80.7892 31.2081 80.8841 31.2318C80.9493 31.2496 81.0027 31.3148 81.0027 31.3741C81.0027 31.4453 81.0442 31.4868 81.1213 31.4868C81.1984 31.4868 81.2399 31.5283 81.2399 31.6054C81.2399 31.6825 81.2814 31.724 81.3585 31.724C81.4356 31.724 81.4771 31.7656 81.4771 31.8427C81.4771 31.9316 81.5186 31.9613 81.6254 31.9613C81.7321 31.9613 81.7737 31.9909 81.7737 32.0799C81.7737 32.157 81.8152 32.1985 81.8923 32.1985C81.9694 32.1985 82.0109 32.24 82.0109 32.3171C82.0109 32.412 82.0524 32.4357 82.2066 32.4357C82.4853 32.4357 82.6632 32.495 82.6632 32.5899C82.6632 32.6433 82.7344 32.6729 82.8649 32.6729C83.1851 32.6729 83.4342 32.7382 83.4342 32.8271C83.4342 32.8924 83.5706 32.9102 84.0569 32.9102C84.5432 32.9102 84.6796 32.8924 84.6796 32.8271C84.6796 32.7441 84.9287 32.6729 85.2193 32.6729C85.3261 32.6729 85.3913 32.6433 85.3913 32.5899C85.3913 32.5365 85.4803 32.4891 85.6285 32.4654C85.8064 32.4357 85.8658 32.4001 85.8658 32.3112C85.8658 32.24 85.9073 32.1985 85.9844 32.1985C86.0615 32.1985 86.103 32.157 86.103 32.0799C86.103 32.0028 86.1445 31.9613 86.2216 31.9613C86.2987 31.9613 86.3402 31.9198 86.3402 31.8427C86.3402 31.7656 86.3817 31.724 86.4588 31.724C86.5359 31.724 86.5774 31.6825 86.5774 31.6054C86.5774 31.5283 86.6189 31.4868 86.696 31.4868C86.7791 31.4868 86.8146 31.4453 86.8146 31.3623C86.8146 31.2911 86.8621 31.2259 86.9333 31.2081C87.0044 31.1903 87.0637 31.1073 87.0874 30.9827C87.1112 30.8582 87.1645 30.7752 87.2357 30.7574C87.301 30.7396 87.3484 30.6743 87.3484 30.6032C87.3484 30.532 87.384 30.4786 87.4374 30.4786C87.4967 30.4786 87.5382 30.3956 87.5619 30.2414C87.5856 30.1109 87.6331 30.0042 87.6746 30.0042C87.7517 30.0042 87.8228 29.7492 87.8228 29.4645C87.8228 29.334 87.8525 29.2925 87.9415 29.2925C88.0482 29.2925 88.0601 29.251 88.0601 28.9426C88.0601 28.6461 88.0779 28.5927 88.1787 28.563C88.2914 28.5334 88.2973 28.48 88.2973 27.8158C88.2973 27.1397 88.3032 27.0982 88.4159 27.0982C88.5286 27.0982 88.5345 27.0567 88.5345 26.3865C88.5345 25.7164 88.5286 25.6749 88.4159 25.6749C88.3151 25.6749 88.2973 25.6333 88.2973 25.4376C88.2973 25.236 88.2795 25.2004 88.1727 25.2004C88.1016 25.2004 88.0363 25.153 88.0185 25.0877C87.9948 24.9928 87.9118 24.9632 87.55 24.9335C87.3128 24.9098 86.9926 24.9098 86.8443 24.9276L86.5774 24.9691V25.9477C86.5774 26.7364 86.5596 26.9203 86.4944 26.9203C86.3876 26.9203 86.3402 27.1041 86.3402 27.5252C86.3402 27.8277 86.3283 27.8692 86.2216 27.8692C86.1148 27.8692 86.103 27.9107 86.103 28.225C86.103 28.5393 86.0911 28.5808 85.9844 28.5808C85.8776 28.5808 85.8658 28.6224 85.8658 28.9367C85.8658 29.251 85.8539 29.2925 85.7471 29.2925C85.6463 29.2925 85.6285 29.334 85.6285 29.5297C85.6285 29.7254 85.6107 29.767 85.5099 29.767C85.4091 29.767 85.3913 29.8085 85.3913 30.0042C85.3913 30.1999 85.3735 30.2414 85.2727 30.2414C85.1897 30.2414 85.1541 30.2829 85.1541 30.3659C85.1541 30.4371 85.1066 30.5023 85.0414 30.5201C84.9702 30.5379 84.9169 30.621 84.8872 30.7514C84.8635 30.876 84.816 30.9531 84.7627 30.9531C84.7093 30.9531 84.6559 31.0064 84.6381 31.0657C84.6203 31.131 84.561 31.1903 84.4958 31.2081C84.4306 31.2259 84.3831 31.2911 84.3831 31.3623C84.3831 31.469 84.3475 31.4868 84.1459 31.4868C83.9502 31.4868 83.9087 31.5046 83.9087 31.6054C83.9087 31.6825 83.8671 31.724 83.7901 31.724C83.713 31.724 83.6714 31.6825 83.6714 31.6054C83.6714 31.5046 83.6299 31.4868 83.4342 31.4868C83.2385 31.4868 83.197 31.469 83.197 31.3682C83.197 31.2911 83.1555 31.2496 83.0784 31.2496C82.9776 31.2496 82.9598 31.2081 82.9598 31.0124C82.9598 30.8167 82.942 30.7752 82.8412 30.7752C82.7344 30.7752 82.7225 30.7336 82.7225 30.3897C82.7225 30.0457 82.7107 30.0042 82.6039 30.0042C82.4913 30.0042 82.4853 29.9627 82.4853 28.5868C82.4853 27.2227 82.4913 27.1694 82.6039 27.1397C82.7107 27.1101 82.7225 27.0567 82.7225 26.6297C82.7225 26.1908 82.7344 26.1493 82.8412 26.1493C82.9479 26.1493 82.9598 26.1078 82.9598 25.7638C82.9598 25.4198 82.9716 25.3783 83.0784 25.3783C83.1851 25.3783 83.197 25.3368 83.197 25.0522C83.197 24.7734 83.2148 24.726 83.3097 24.726C83.3927 24.726 83.4283 24.6667 83.4579 24.4887C83.4817 24.3346 83.5232 24.2515 83.5825 24.2515C83.6359 24.2515 83.6714 24.1922 83.6714 24.1033C83.6714 23.9965 83.7011 23.955 83.7901 23.955C83.8671 23.955 83.9087 23.9135 83.9087 23.8364C83.9087 23.7593 83.9502 23.7178 84.0273 23.7178C84.1044 23.7178 84.1459 23.6763 84.1459 23.5992C84.1459 23.5221 84.1874 23.4805 84.2645 23.4805C84.3416 23.4805 84.3831 23.439 84.3831 23.3619C84.3831 23.273 84.4246 23.2433 84.5314 23.2433C84.6381 23.2433 84.6796 23.2137 84.6796 23.1247C84.6796 23.0239 84.7212 23.0061 84.9169 23.0061C85.1126 23.0061 85.1541 22.9883 85.1541 22.8875C85.1541 22.7867 85.1956 22.7689 85.3913 22.7689C85.587 22.7689 85.6285 22.7867 85.6285 22.8875C85.6285 22.9646 85.67 23.0061 85.7471 23.0061C85.8539 23.0061 85.8658 23.0476 85.8658 23.3619C85.8658 23.6703 85.8835 23.7178 85.9784 23.7178C86.0615 23.7178 86.097 23.7771 86.1267 23.9491C86.1563 24.1566 86.186 24.1804 86.3699 24.2159C86.4944 24.2397 86.5774 24.293 86.5774 24.3405C86.5774 24.4116 86.6782 24.4294 87.0459 24.4294C87.4611 24.4294 87.5145 24.4176 87.5441 24.3108C87.5619 24.2397 87.6271 24.1922 87.6983 24.1922C87.8169 24.1922 87.8228 24.1626 87.8228 23.6644C87.8228 23.0358 87.7754 22.7689 87.6686 22.7689C87.6212 22.7689 87.5856 22.7155 87.5856 22.6503C87.5856 22.5732 87.5441 22.5317 87.467 22.5317C87.3899 22.5317 87.3484 22.4901 87.3484 22.413C87.3484 22.33 87.3069 22.2944 87.2239 22.2944C87.1527 22.2944 87.0874 22.247 87.0697 22.1818C87.0519 22.1047 86.9688 22.0513 86.8087 22.0276C86.6782 22.0038 86.5774 21.9564 86.5774 21.9089C86.5774 21.8319 86.3224 21.7607 86.0377 21.7607C85.9251 21.7607 85.8658 21.731 85.8658 21.6717C85.8658 21.6006 85.7709 21.5828 85.3913 21.5828C85.0295 21.5828 84.9169 21.6006 84.9169 21.6658Z" fill="#5CE1E6"/>
<path d="M146.677 15.472C146.677 15.5491 146.635 15.5906 146.564 15.5906C146.475 15.5906 146.452 15.6558 146.416 15.9523C146.398 16.154 146.38 16.4209 146.38 16.5454C146.38 16.7055 146.357 16.7767 146.297 16.7767C146.232 16.7767 146.203 16.9427 146.173 17.518C146.143 18.0458 146.108 18.2593 146.054 18.2593C145.977 18.2593 145.906 18.6804 145.906 19.1608C145.906 19.3624 145.882 19.4454 145.823 19.4454C145.716 19.4454 145.669 19.7123 145.669 20.341C145.669 20.7502 145.651 20.8688 145.586 20.8688C145.479 20.8688 145.432 21.1297 145.432 21.6753C145.432 22.0727 145.42 22.1142 145.313 22.1142C145.2 22.1142 145.194 22.1557 145.194 22.7073C145.194 23.2588 145.188 23.3003 145.076 23.3003C144.963 23.3003 144.957 23.3418 144.957 23.8934C144.957 24.4449 144.951 24.4864 144.838 24.4864C144.732 24.4864 144.72 24.5279 144.72 24.9905C144.72 25.4531 144.708 25.4946 144.601 25.4946C144.495 25.4946 144.483 25.5361 144.483 25.9038C144.483 26.1292 144.465 26.3961 144.447 26.4969C144.423 26.5977 144.37 26.6807 144.328 26.6807C144.269 26.6807 144.245 26.7638 144.245 26.9595C144.245 27.3924 144.18 27.6889 144.091 27.6889C144.032 27.6889 144.008 27.772 144.008 27.9795C144.008 28.3769 143.949 28.6378 143.86 28.6378C143.807 28.6378 143.771 28.798 143.741 29.1419C143.712 29.5037 143.676 29.646 143.623 29.646C143.563 29.646 143.528 29.7824 143.498 30.1205C143.474 30.4348 143.433 30.5949 143.385 30.5949C143.308 30.5949 143.237 30.8499 143.237 31.1346C143.237 31.2413 143.208 31.3066 143.154 31.3066C143.047 31.3066 143 31.5735 143 32.2318C143 32.7477 143.006 32.7892 143.119 32.7892C143.196 32.7892 143.237 32.8307 143.237 32.9078C143.237 32.9849 143.279 33.0264 143.35 33.0264C143.409 33.0264 143.474 33.0798 143.492 33.1451C143.522 33.2577 143.575 33.2637 144.293 33.2637C145.159 33.2637 145.432 33.2281 145.432 33.1095C145.432 33.0442 145.532 33.0264 145.835 33.0264C146.374 33.0264 146.677 32.9671 146.677 32.8723C146.677 32.8011 147.015 32.7892 148.604 32.7892C150.277 32.7892 150.532 32.8011 150.532 32.8782C150.532 32.9494 150.627 32.9671 151.006 32.9671C151.38 32.9671 151.481 32.9494 151.481 32.8782C151.481 32.8189 151.576 32.7892 151.854 32.7774C152.186 32.7596 152.222 32.7477 152.24 32.6232C152.252 32.552 152.299 32.4927 152.347 32.4927C152.394 32.4927 152.43 32.4512 152.43 32.4037C152.43 32.3563 152.388 32.3148 152.341 32.3148C152.287 32.3148 152.252 32.2614 152.252 32.1665C152.252 32.0598 152.222 32.0183 152.133 32.0183C152.056 32.0183 152.014 31.9767 152.014 31.8996C152.014 31.8107 151.973 31.781 151.866 31.781C151.759 31.781 151.718 31.7514 151.718 31.6624C151.718 31.5557 151.676 31.5438 151.243 31.5438C150.811 31.5438 150.769 31.5319 150.769 31.4252C150.769 31.3125 150.728 31.3066 149.263 31.3066C147.673 31.3066 147.389 31.3303 147.389 31.4608C147.389 31.526 147.258 31.5438 146.813 31.5438C146.155 31.5438 145.965 31.5794 145.965 31.698C145.965 31.7632 145.87 31.781 145.58 31.781H145.194V31.5675C145.194 31.4074 145.224 31.3481 145.313 31.3244C145.408 31.3007 145.432 31.2413 145.432 31.0101C145.432 30.6127 145.491 30.3577 145.586 30.3577C145.645 30.3577 145.669 30.2687 145.669 30.0374C145.669 29.6164 145.728 29.3495 145.817 29.3495C145.87 29.3495 145.906 29.1953 145.936 28.875C145.965 28.5489 146.001 28.4006 146.054 28.4006C146.108 28.4006 146.143 28.2523 146.173 27.9262C146.203 27.594 146.238 27.4517 146.291 27.4517C146.345 27.4517 146.38 27.3034 146.41 26.9476C146.44 26.6036 146.475 26.4435 146.529 26.4435C146.618 26.4435 146.677 26.1826 146.677 25.7852C146.677 25.5777 146.701 25.4946 146.76 25.4946C146.861 25.4946 146.914 25.2337 146.914 24.7236C146.914 24.3737 146.926 24.3204 147.033 24.2907C147.14 24.2611 147.151 24.2077 147.151 23.6977C147.151 23.1876 147.163 23.1343 147.27 23.1046C147.377 23.075 147.389 23.0216 147.389 22.476C147.389 21.9185 147.395 21.877 147.507 21.877C147.62 21.877 147.626 21.8355 147.626 21.2543C147.626 20.6731 147.632 20.6316 147.744 20.6316C147.857 20.6316 147.863 20.59 147.863 19.9199C147.863 19.2497 147.869 19.2082 147.982 19.2082C148.094 19.2082 148.1 19.1667 148.1 18.5618C148.1 17.8145 148.142 17.5477 148.254 17.5477C148.32 17.5477 148.338 17.3757 148.338 16.6877C148.338 15.8693 148.332 15.8278 148.219 15.8278C148.142 15.8278 148.1 15.7863 148.1 15.7151C148.1 15.6262 148.041 15.5906 147.863 15.5609C147.715 15.5372 147.626 15.4898 147.626 15.4364C147.626 15.3711 147.519 15.3533 147.151 15.3533C146.718 15.3533 146.677 15.3652 146.677 15.472Z" fill="#5CE1E6"/>
<path d="M163.638 21.9964C163.638 22.0854 163.597 22.115 163.49 22.115C163.348 22.115 163.342 22.1328 163.342 22.4708C163.342 22.7852 163.353 22.8267 163.46 22.8267C163.537 22.8267 163.579 22.8682 163.579 22.9453C163.579 23.0224 163.62 23.0639 163.697 23.0639C163.775 23.0639 163.816 23.1054 163.816 23.1825C163.816 23.2655 163.858 23.3011 163.941 23.3011C164.012 23.3011 164.077 23.3486 164.095 23.4138C164.124 23.5265 164.332 23.5977 164.652 23.5977C164.759 23.5977 164.824 23.6273 164.824 23.6807C164.824 23.7993 165.619 23.8586 166.52 23.8052C167.09 23.7756 167.256 23.7459 167.256 23.6807C167.256 23.6332 167.309 23.5977 167.374 23.5977C167.44 23.5977 167.493 23.6332 167.493 23.6688C167.493 23.8467 167.416 24.0128 167.339 24.0128C167.291 24.0128 167.256 24.0662 167.256 24.1314C167.256 24.2085 167.214 24.25 167.137 24.25C167.054 24.25 167.019 24.2915 167.019 24.3746C167.019 24.4457 166.971 24.511 166.906 24.5288C166.841 24.5465 166.781 24.6059 166.764 24.6711C166.746 24.7304 166.692 24.7838 166.639 24.7838C166.586 24.7838 166.544 24.8312 166.544 24.9024C166.544 24.9795 166.503 25.021 166.431 25.021C166.342 25.021 166.307 25.0803 166.277 25.2582C166.248 25.4361 166.212 25.4954 166.123 25.4954C166.052 25.4954 166.01 25.537 166.01 25.614C166.01 25.6911 165.969 25.7327 165.892 25.7327C165.815 25.7327 165.773 25.7742 165.773 25.8513C165.773 25.9284 165.732 25.9699 165.655 25.9699C165.566 25.9699 165.536 26.0114 165.536 26.1181C165.536 26.2249 165.506 26.2664 165.417 26.2664C165.34 26.2664 165.299 26.3079 165.299 26.385C165.299 26.4621 165.257 26.5036 165.18 26.5036C165.085 26.5036 165.061 26.5451 165.061 26.7112C165.061 26.8773 165.038 26.9188 164.943 26.9188C164.86 26.9188 164.824 26.9603 164.824 27.0433C164.824 27.1145 164.777 27.1797 164.706 27.1975C164.64 27.2153 164.587 27.2805 164.587 27.3398C164.587 27.411 164.546 27.4525 164.468 27.4525C164.391 27.4525 164.35 27.494 164.35 27.5711C164.35 27.6482 164.308 27.6897 164.237 27.6897C164.148 27.6897 164.113 27.7491 164.083 27.927C164.053 28.1049 164.018 28.1642 163.929 28.1642C163.858 28.1642 163.816 28.2057 163.816 28.2828C163.816 28.3896 163.775 28.4014 163.365 28.4014C162.968 28.4014 162.915 28.4133 162.885 28.52C162.867 28.5853 162.802 28.6386 162.743 28.6386C162.66 28.6386 162.63 28.6802 162.63 28.7869C162.63 28.8937 162.6 28.9352 162.511 28.9352C162.416 28.9352 162.393 28.9767 162.393 29.1427C162.393 29.3088 162.369 29.3503 162.274 29.3503C162.185 29.3503 162.156 29.3918 162.156 29.4986C162.156 29.6053 162.126 29.6468 162.043 29.6468C161.96 29.6468 161.918 29.7061 161.895 29.8544C161.871 29.9789 161.817 30.062 161.77 30.062C161.717 30.062 161.681 30.1213 161.681 30.2102C161.681 30.317 161.651 30.3585 161.562 30.3585C161.485 30.3585 161.444 30.4 161.444 30.4771C161.444 30.5542 161.402 30.5957 161.325 30.5957C161.248 30.5957 161.207 30.6372 161.207 30.7143C161.207 30.7914 161.165 30.833 161.088 30.833C161.011 30.833 160.969 30.8745 160.969 30.9516C160.969 31.0287 160.928 31.0702 160.851 31.0702C160.774 31.0702 160.732 31.1117 160.732 31.1888C160.732 31.2955 160.691 31.3074 160.347 31.3074H159.961V30.2755C159.961 29.1546 159.991 28.8759 160.115 28.8759C160.175 28.8759 160.198 28.7869 160.198 28.5319C160.198 27.8973 160.27 27.3932 160.353 27.3932C160.412 27.3932 160.436 27.3043 160.436 27.073C160.436 26.5274 160.507 26.0292 160.584 26.0292C160.667 26.0292 160.732 25.7149 160.732 25.2997C160.732 25.0981 160.756 25.021 160.815 25.021C160.922 25.021 160.987 24.3034 160.958 23.4494L160.94 22.8563L160.72 22.8385C160.542 22.8208 160.495 22.797 160.495 22.7021C160.495 22.6013 160.448 22.5895 159.991 22.5895C159.528 22.5895 159.487 22.6013 159.487 22.7081C159.487 22.7852 159.445 22.8267 159.368 22.8267C159.267 22.8267 159.25 22.8682 159.25 23.0639C159.25 23.2596 159.232 23.3011 159.131 23.3011C159.024 23.3011 159.012 23.3426 159.012 23.7815C159.012 24.2085 159 24.2619 158.894 24.2915C158.787 24.3212 158.775 24.3746 158.775 24.8431C158.775 25.4658 158.728 25.7327 158.621 25.7327C158.562 25.7327 158.538 25.8216 158.538 26.0529C158.538 26.4858 158.479 26.7409 158.384 26.7409C158.324 26.7409 158.301 26.8239 158.301 27.0315C158.301 27.4347 158.241 27.6897 158.146 27.6897C158.093 27.6897 158.063 27.755 158.063 27.8617C158.063 28.1464 157.992 28.4014 157.915 28.4014C157.868 28.4014 157.82 28.5082 157.797 28.6386C157.773 28.781 157.725 28.8759 157.678 28.8759C157.625 28.8759 157.583 28.9767 157.553 29.1427C157.53 29.3029 157.482 29.4096 157.441 29.4096C157.393 29.4096 157.346 29.5104 157.322 29.6468C157.298 29.7892 157.251 29.8841 157.198 29.8841C157.15 29.8841 157.103 29.973 157.079 30.1213C157.049 30.2992 157.014 30.3585 156.931 30.3585C156.842 30.3585 156.818 30.4 156.818 30.5601C156.818 30.7499 156.806 30.7677 156.581 30.8033C156.403 30.833 156.344 30.8685 156.344 30.9575C156.344 31.0287 156.302 31.0702 156.225 31.0702C156.148 31.0702 156.106 31.1117 156.106 31.1888C156.106 31.2896 156.065 31.3074 155.869 31.3074C155.673 31.3074 155.632 31.3252 155.632 31.426C155.632 31.5031 155.59 31.5446 155.513 31.5446C155.436 31.5446 155.395 31.5031 155.395 31.426C155.395 31.3489 155.353 31.3074 155.276 31.3074C155.163 31.3074 155.157 31.2659 155.157 30.1213C155.157 29.1546 155.175 28.9352 155.24 28.9352C155.335 28.9352 155.395 28.6327 155.395 28.0871C155.395 27.7906 155.412 27.6897 155.478 27.6897C155.584 27.6897 155.632 27.4288 155.632 26.8832C155.632 26.4858 155.644 26.4443 155.75 26.4443C155.863 26.4443 155.869 26.4028 155.869 25.8513C155.869 25.2997 155.875 25.2582 155.988 25.2582C156.094 25.2582 156.106 25.2167 156.106 24.7541C156.106 24.2915 156.118 24.25 156.225 24.25C156.338 24.25 156.344 24.2085 156.344 23.3011C156.344 22.3937 156.338 22.3522 156.225 22.3522C156.148 22.3522 156.106 22.3107 156.106 22.2336C156.106 22.1269 156.065 22.115 155.602 22.115C155.14 22.115 155.098 22.1269 155.098 22.2336C155.098 22.3285 155.057 22.3522 154.896 22.3522C154.719 22.3522 154.695 22.376 154.659 22.5361C154.641 22.6369 154.624 22.797 154.624 22.886C154.624 22.9987 154.588 23.058 154.505 23.0817C154.398 23.1113 154.386 23.1647 154.386 23.5561C154.386 23.9476 154.375 24.0009 154.268 24.0306C154.161 24.0602 154.149 24.1136 154.149 24.505C154.149 24.8965 154.137 24.9498 154.031 24.9795C153.924 25.0091 153.912 25.0625 153.912 25.5192C153.912 25.9165 153.894 26.0292 153.829 26.0292C153.716 26.0292 153.675 26.219 153.675 26.7527C153.675 27.1738 153.663 27.2153 153.556 27.2153C153.444 27.2153 153.438 27.2568 153.438 27.8084C153.438 28.354 153.426 28.4014 153.325 28.4014C153.218 28.4014 153.206 28.4607 153.188 29.2139C153.177 29.6587 153.183 30.3111 153.188 30.6669C153.206 31.2481 153.218 31.3074 153.325 31.3074C153.42 31.3074 153.438 31.3489 153.438 31.5446C153.438 31.7403 153.455 31.7818 153.556 31.7818C153.633 31.7818 153.675 31.8234 153.675 31.9005C153.675 31.9776 153.716 32.0191 153.793 32.0191C153.871 32.0191 153.912 32.0606 153.912 32.1377C153.912 32.2207 153.954 32.2563 154.037 32.2563C154.108 32.2563 154.173 32.3037 154.191 32.3749C154.214 32.4579 154.292 32.5054 154.452 32.5291C154.582 32.5528 154.683 32.6003 154.683 32.6418C154.683 32.7604 154.891 32.79 155.697 32.79C156.533 32.79 156.818 32.7545 156.818 32.6418C156.818 32.5943 156.925 32.5469 157.055 32.5232C157.203 32.4994 157.292 32.452 157.292 32.3986C157.292 32.3512 157.346 32.3156 157.417 32.3156C157.488 32.3156 157.553 32.2681 157.571 32.197C157.589 32.1199 157.672 32.0665 157.802 32.0428C157.951 32.0131 158.004 31.9776 158.004 31.8886C158.004 31.7937 158.04 31.7759 158.259 31.7937C158.467 31.8056 158.514 31.8352 158.526 31.942C158.538 32.0309 158.585 32.0784 158.662 32.0784C158.722 32.0784 158.775 32.1199 158.775 32.1673C158.775 32.2148 158.817 32.2563 158.87 32.2563C158.923 32.2563 158.977 32.3097 158.995 32.3749C159.018 32.4579 159.095 32.4994 159.285 32.5291C159.433 32.5469 159.546 32.6003 159.546 32.6418C159.546 32.7367 160.086 32.8019 160.548 32.7545C160.797 32.7248 160.91 32.6892 160.91 32.6358C160.91 32.5765 160.993 32.5528 161.177 32.5528C161.367 32.5528 161.444 32.5765 161.444 32.6358C161.444 32.7367 161.699 32.79 162.156 32.79C162.6 32.79 162.867 32.7367 162.867 32.6418C162.867 32.6003 162.98 32.5469 163.134 32.5291C163.294 32.4994 163.401 32.4579 163.401 32.4105C163.401 32.3275 163.65 32.2563 163.941 32.2563C164.047 32.2563 164.113 32.2266 164.113 32.1733C164.113 32.1199 164.213 32.0843 164.409 32.0665C164.854 32.025 165.299 32.0784 165.299 32.1733C165.299 32.2326 165.376 32.2563 165.542 32.2563C165.732 32.2563 165.791 32.28 165.815 32.369C165.844 32.4757 166.052 32.5528 166.337 32.5528C166.42 32.5528 166.485 32.5943 166.503 32.6714C166.532 32.7841 166.586 32.79 167.303 32.79C168.157 32.79 168.442 32.7545 168.442 32.6418C168.442 32.5943 168.549 32.5469 168.679 32.5232C168.827 32.4994 168.916 32.452 168.916 32.3986C168.916 32.3512 168.97 32.3156 169.041 32.3156C169.112 32.3156 169.177 32.2681 169.195 32.2029C169.213 32.1377 169.272 32.0784 169.337 32.0606C169.403 32.0428 169.45 31.9776 169.45 31.9064C169.45 31.8352 169.486 31.7818 169.539 31.7818C169.61 31.7818 169.628 31.7047 169.628 31.426C169.628 31.1117 169.616 31.0702 169.509 31.0702C169.432 31.0702 169.391 31.0287 169.391 30.9516C169.391 30.8507 169.349 30.833 169.154 30.833C168.958 30.833 168.916 30.8507 168.916 30.9516C168.916 31.0524 168.875 31.0702 168.679 31.0702C168.483 31.0702 168.442 31.088 168.442 31.1888C168.442 31.3015 168.4 31.3074 167.73 31.3074C167.06 31.3074 167.019 31.3015 167.019 31.1888C167.019 31.088 166.977 31.0702 166.781 31.0702C166.586 31.0702 166.544 31.0524 166.544 30.9516C166.544 30.8567 166.503 30.833 166.325 30.833C166.01 30.833 165.832 30.7736 165.832 30.6788C165.832 30.6135 165.702 30.5957 165.228 30.5957C164.89 30.5957 164.557 30.5779 164.486 30.5601C164.32 30.5127 164.308 30.3585 164.468 30.3585C164.546 30.3585 164.587 30.317 164.587 30.2458C164.587 30.1865 164.64 30.1213 164.706 30.1035C164.795 30.0798 164.824 30.0205 164.824 29.8603C164.824 29.6884 164.848 29.6468 164.943 29.6468C165.032 29.6468 165.061 29.6053 165.061 29.4986C165.061 29.3918 165.091 29.3503 165.18 29.3503C165.257 29.3503 165.299 29.3088 165.299 29.2317C165.299 29.1546 165.34 29.1131 165.411 29.1131C165.494 29.1131 165.536 29.0538 165.56 28.9055C165.583 28.781 165.637 28.6979 165.684 28.6979C165.738 28.6979 165.773 28.6446 165.773 28.5734C165.773 28.5022 165.821 28.437 165.892 28.4192C165.957 28.4014 166.01 28.3362 166.01 28.2769C166.01 28.2057 166.052 28.1642 166.123 28.1642C166.212 28.1642 166.248 28.1049 166.277 27.927C166.307 27.7491 166.342 27.6897 166.431 27.6897C166.503 27.6897 166.544 27.6482 166.544 27.5711C166.544 27.494 166.586 27.4525 166.663 27.4525C166.74 27.4525 166.781 27.411 166.781 27.3339C166.781 27.2568 166.823 27.2153 166.9 27.2153C166.977 27.2153 167.019 27.1738 167.019 27.1026C167.019 27.0433 167.072 26.9781 167.137 26.9603C167.208 26.9425 167.256 26.8773 167.256 26.8061C167.256 26.7231 167.291 26.6816 167.374 26.6816C167.452 26.6816 167.493 26.64 167.493 26.5629C167.493 26.4858 167.535 26.4443 167.612 26.4443C167.707 26.4443 167.73 26.4028 167.73 26.2368C167.73 26.0707 167.754 26.0292 167.849 26.0292C167.938 26.0292 167.967 25.9877 167.967 25.8809C167.967 25.7742 167.997 25.7327 168.086 25.7327C168.163 25.7327 168.205 25.6911 168.205 25.614C168.205 25.537 168.246 25.4954 168.323 25.4954C168.4 25.4954 168.442 25.4539 168.442 25.3768C168.442 25.2997 168.483 25.2582 168.555 25.2582C168.644 25.2582 168.679 25.1989 168.709 25.0269C168.733 24.8668 168.786 24.7838 168.863 24.766C168.922 24.7482 168.976 24.6948 168.976 24.6414C168.976 24.5881 169.017 24.5465 169.065 24.5465C169.118 24.5465 169.154 24.4932 169.154 24.422C169.154 24.3508 169.201 24.2856 169.272 24.2678C169.343 24.25 169.403 24.167 169.426 24.0424C169.45 23.9179 169.503 23.8349 169.575 23.8171C169.64 23.7993 169.687 23.7341 169.687 23.6629C169.687 23.5799 169.723 23.5383 169.806 23.5383C169.883 23.5383 169.925 23.4968 169.925 23.4197C169.925 23.3426 169.966 23.3011 170.043 23.3011C170.12 23.3011 170.162 23.2596 170.162 23.1825C170.162 23.1173 170.197 23.0639 170.245 23.0639C170.286 23.0639 170.34 22.9809 170.363 22.886C170.411 22.6488 170.346 22.3522 170.245 22.3522C170.197 22.3522 170.162 22.2989 170.162 22.2336C170.162 22.1506 170.12 22.115 170.037 22.115C169.966 22.115 169.901 22.0676 169.883 21.9964C169.853 21.8897 169.8 21.8778 169.302 21.8778C168.804 21.8778 168.75 21.8897 168.721 21.9964C168.691 22.1032 168.638 22.115 168.211 22.115C167.772 22.115 167.73 22.1269 167.73 22.2336C167.73 22.3463 167.689 22.3522 166.277 22.3522C164.866 22.3522 164.824 22.3463 164.824 22.2336C164.824 22.1328 164.783 22.115 164.534 22.115C164.13 22.115 163.875 22.0557 163.875 21.9608C163.875 21.9134 163.822 21.8778 163.757 21.8778C163.68 21.8778 163.638 21.9193 163.638 21.9964Z" fill="#5CE1E6"/>
</svg>
